<svg xmlns="http://www.w3.org/2000/svg" xmlns:xlink="http://www.w3.org/1999/xlink" version="1.1" x="0px" y="0px" viewBox="0 0 91 91" style="enable-background:new 0 0 91 91;" xml:space="preserve"><g><path d="M56.5,36.9h18.3c0.7,0.2,4.9,1.2,6.2,5.1c0.2,0.7,0.9,1.2,1.6,1.2h5.3c0.9,0,1.7-0.8,1.7-1.7s-0.8-1.7-1.7-1.7h-4.2   c-2.4-5.2-8.3-6.2-8.5-6.2c-0.1,0-0.2,0-0.3,0H56.5c-2.7,0-4.8,2.2-4.8,4.8v3.5h-1.2c-2.5,0-4.5,2-4.5,4.5V47c0,1.1,0.4,2,1,2.8   c-0.6,0.8-1,1.7-1,2.8v0.7c0,1.3,0.6,2.5,1.5,3.4c-0.4,0.7-0.6,1.4-0.6,2.3v0.7c0,1.6,0.9,3,2.2,3.8c-0.2,0.5-0.4,1.2-0.4,1.8V66   c0,2.5,2,4.5,4.5,4.5h12.3c0.7,0,1.3-0.2,1.9-0.5h10.4c0.3,0,0.5-0.1,0.7-0.2L88.6,65c0.8-0.4,1.2-1.4,0.8-2.3   C89,61.9,88,61.6,87.2,62l-9.8,4.7h-7.6c0-0.2,0.1-0.4,0.1-0.7v-0.7c0-1.3-0.6-2.5-1.5-3.4c0.4-0.7,0.6-1.4,0.6-2.3V59   c0-1.3-0.6-2.5-1.5-3.4c0.4-0.6,0.6-1.4,0.6-2.1c2,1.7,5.4,2.8,11.2,2.8c0.5,0,1.1,0,1.6,0c0.9,0,1.7-0.8,1.6-1.7   c0-0.9-0.8-1.7-1.7-1.6c-11.4,0.4-12-3.2-12.5-6.4c-0.1-0.7-0.2-1.4-0.4-2c-0.2-1.3-1.4-3.4-4.8-3.5c-3.1-0.1-4.3,2.4-4.5,3.7   c0,0.1,0,0.2,0,0.3v5.3c0,0.8-0.7,1.5-1.5,1.5h-0.8c-0.8,0-1.5-0.7-1.5-1.5V38.4C55,37.6,55.7,36.9,56.5,36.9z M63.6,45.2   c0.6,0,1.1,0.5,1.1,1.1V47c0,0.6-0.5,1.1-1.1,1.1h-1.5v-2.9H63.6z M61.9,51.5h1.7c0.6,0,1.1,0.5,1.1,1.1v0.7c0,0.6-0.5,1.1-1.1,1.1   h-4.1C60.7,53.8,61.5,52.8,61.9,51.5z M64.5,60.8H51.3c-0.6,0-1.1-0.5-1.1-1.1V59c0-0.6,0.5-1.1,1.1-1.1h13.2   c0.6,0,1.1,0.5,1.1,1.1v0.7C65.6,60.3,65.1,60.8,64.5,60.8z M50.4,54.5c-0.6,0-1.1-0.5-1.1-1.1v-0.7c0-0.6,0.5-1.1,1.1-1.1h1.4   c0.4,1.3,1.2,2.3,2.4,2.9H50.4z M49.3,46.3c0-0.6,0.5-1.1,1.1-1.1h1.2v2.9h-1.2c-0.6,0-1.1-0.5-1.1-1.1V46.3z M52,66v-0.7   c0-0.6,0.5-1.1,1.1-1.1h12.3c0.6,0,1.1,0.5,1.1,1.1V66c0,0.6-0.5,1.1-1.1,1.1H53.1C52.5,67.1,52,66.6,52,66z"></path><path d="M3.7,43.2H9c0.7,0,1.4-0.5,1.6-1.2c1.3-3.9,5.5-4.9,6.2-5.1h18.3c0.8,0,1.5,0.7,1.5,1.5v11.8c0,0.8-0.7,1.5-1.5,1.5h-0.8   c-0.8,0-1.5-0.7-1.5-1.5v-5.3c0-0.1,0-0.2,0-0.3c-0.2-1.3-1.4-3.8-4.5-3.7c-3.3,0.1-4.5,2.2-4.8,3.5c-0.2,0.7-0.3,1.3-0.4,2   c-0.5,3.2-1,6.8-12.5,6.4c-0.9,0-1.7,0.7-1.7,1.6c0,0.9,0.7,1.7,1.6,1.7c0.6,0,1.1,0,1.6,0c5.9,0,9.2-1.1,11.2-2.8   c0,0.8,0.2,1.5,0.6,2.1c-0.9,0.8-1.5,2-1.5,3.4v0.7c0,0.8,0.2,1.6,0.6,2.3c-0.9,0.8-1.5,2-1.5,3.4V66c0,0.2,0,0.4,0.1,0.7h-7.6   L4.4,62c-0.8-0.4-1.8,0-2.3,0.8c-0.4,0.8,0,1.8,0.8,2.3l10.1,4.8c0.2,0.1,0.5,0.2,0.7,0.2h10.4c0.6,0.3,1.2,0.5,1.9,0.5h12.3   c2.5,0,4.5-2,4.5-4.5v-0.7c0-0.6-0.1-1.2-0.4-1.8c1.3-0.8,2.2-2.2,2.2-3.8V59c0-0.8-0.2-1.6-0.6-2.3c0.9-0.8,1.5-2,1.5-3.4v-0.7   c0-1.1-0.4-2-1-2.8c0.6-0.8,1-1.7,1-2.8v-0.7c0-2.5-2-4.5-4.5-4.5H40v-3.5c0-2.7-2.2-4.8-4.8-4.8H16.7c-0.1,0-0.2,0-0.3,0   c-0.3,0-6.1,1-8.5,6.2H3.7c-0.9,0-1.7,0.8-1.7,1.7S2.8,43.2,3.7,43.2z M39.8,51.5h1.4c0.6,0,1.1,0.5,1.1,1.1v0.7   c0,0.6-0.5,1.1-1.1,1.1h-3.8C38.5,53.8,39.4,52.8,39.8,51.5z M41.4,59.7c0,0.6-0.5,1.1-1.1,1.1H27.1c-0.6,0-1.1-0.5-1.1-1.1V59   c0-0.6,0.5-1.1,1.1-1.1h13.2c0.6,0,1.1,0.5,1.1,1.1V59.7z M28,54.5c-0.6,0-1.1-0.5-1.1-1.1v-0.7c0-0.6,0.5-1.1,1.1-1.1h1.7   c0.4,1.3,1.2,2.3,2.4,2.9H28z M29.5,45.2v2.9H28c-0.6,0-1.1-0.5-1.1-1.1v-0.7c0-0.6,0.5-1.1,1.1-1.1H29.5z M39.6,66   c0,0.6-0.5,1.1-1.1,1.1H26.2c-0.6,0-1.1-0.5-1.1-1.1v-0.7c0-0.6,0.5-1.1,1.1-1.1h12.3c0.6,0,1.1,0.5,1.1,1.1V66z M41.1,45.2   c0.6,0,1.1,0.5,1.1,1.1V47c0,0.6-0.5,1.1-1.1,1.1H40v-2.9H41.1z"></path><path d="M44.6,15.4v10.9c0,0.9,0.8,1.7,1.7,1.7s1.7-0.8,1.7-1.7V15.4c0-0.9-0.8-1.7-1.7-1.7S44.6,14.5,44.6,15.4z"></path><path d="M62.6,20.2L54.7,28c-0.7,0.7-0.7,1.7,0,2.4c0.3,0.3,0.8,0.5,1.2,0.5s0.9-0.2,1.2-0.5l7.9-7.9c0.7-0.7,0.7-1.7,0-2.4   C64.3,19.5,63.3,19.5,62.6,20.2z"></path><path d="M27.6,20.2c-0.7,0.7-0.7,1.7,0,2.4l7.7,7.7c0.3,0.3,0.8,0.5,1.2,0.5c0.4,0,0.9-0.2,1.2-0.5c0.7-0.7,0.7-1.7,0-2.4L30,20.2   C29.3,19.5,28.3,19.5,27.6,20.2z"></path></g></svg>