<svg xmlns="http://www.w3.org/2000/svg" xmlns:xlink="http://www.w3.org/1999/xlink" version="1.1" x="0px" y="0px" viewBox="0 0 91 91" style="enable-background:new 0 0 91 91;" xml:space="preserve"><g><path d="M21.3,63.2c0,0.2,0.1,0.4,0.1,0.6l7.3,16c0.3,0.6,0.9,1,1.5,1c0.2,0,0.5,0,0.7-0.2c0.8-0.4,1.2-1.4,0.8-2.2l-7.2-15.7   l-0.9-14.5l5.4,8.3c0.8,1.3,2.1,2.2,3.7,2.5c0.4,0.1,0.8,0.1,1.2,0.1c1.1,0,2.2-0.3,3.1-0.9l0.9-0.6c1.3-0.8,2.2-2.1,2.5-3.7   c0,0,0,0,0,0c0,0,0,0,0,0c0.4,0.1,0.8,0.1,1.2,0.1c1.1,0,2.2-0.3,3.1-0.9l0.9-0.6c2.2-1.4,3.1-4.1,2.4-6.5c0.3,0,0.7-0.1,1-0.2   c-0.1,2.1,0.8,4.1,2.5,5.5c0,0,0.1,0.1,0.1,0.1l4.5,3.1l-0.5,2c-2.9,1.2-11.8,5.4-12.6,13.5c-0.1,0.9,0.6,1.8,1.5,1.8   c0.9,0.1,1.8-0.6,1.8-1.5c0.7-7.4,11.1-11,11.2-11c0.6-0.2,1-0.6,1.1-1.2l1-4c0.2-0.7-0.1-1.4-0.7-1.8l-5.4-3.7   c-1.4-1.2-1.6-3.1-0.5-5c0.4-0.7,1.1-0.5,1.4-0.4c0,0,0.1,0,0.2,0c0.6,0.1,1.3,0.3,2,0.5c0,0,0,0,0,0c3.8,1,8.7,2.4,9.9,3.2   c3.4,2.2,0.8,12.6-1.2,16.4c-1.9,3.6-7.1,14.4-7.4,14.9c-0.1,0.1-0.1,0.2-0.1,0.4l-1.2,5.3c-0.2,0.9,0.4,1.8,1.3,2   c0.1,0,0.2,0,0.4,0c0.8,0,1.5-0.5,1.6-1.3l1.1-5.1c0.7-1.4,5.5-11.3,7.2-14.6c1.8-3.4,6.3-16.8,0.1-20.8c-1.6-1.1-6.3-2.4-9.7-3.3   L59,11.5c0-3.5-2.9-6.4-6.4-6.4h-1c-3.5,0-6.4,2.9-6.4,6.4v13.2c-1.8-1-4.2-1.1-6.1,0.2c0,0,0,0,0,0l-0.9,0.6   c-1.3,0.8-2.2,2.1-2.5,3.7c0,0,0,0,0,0c-1.5-0.3-3.1-0.1-4.4,0.8l-0.9,0.6c-1.4,0.9-2.2,2.2-2.5,3.7c-1.5-0.3-3.1-0.1-4.4,0.8   c0,0,0,0,0,0l-0.9,0.6c-1.3,0.8-2.2,2.1-2.5,3.7c-0.2,0.9-0.2,1.8,0,2.6L21.3,63.2z M51.5,8.5h1c1.7,0,3,1.4,3,3.1l0.1,28.6   c-0.3-0.1-0.7-0.1-1.1-0.2c0-1.1-0.3-2.3-0.9-3.3l-5.1-7.9V11.5C48.5,9.8,49.9,8.5,51.5,8.5z M40,28.2l0.9-0.6   c1.1-0.7,2.7-0.4,3.4,0.7l1.1,1.7c0,0,0,0,0,0l5.4,8.3c0.7,1.1,0.4,2.7-0.7,3.4l-0.9,0.6c-1.1,0.7-2.7,0.4-3.4-0.7l-6.5-10.1   C38.6,30.5,38.9,29,40,28.2z M32.2,33.3l0.9-0.6c0.4-0.3,0.9-0.4,1.3-0.4c0.8,0,1.6,0.4,2.1,1.1l6.5,10.1c0,0,0,0,0,0l1.9,2.9   c0.7,1.1,0.4,2.7-0.7,3.4l-0.9,0.6c-0.5,0.4-1.2,0.5-1.8,0.3c-0.6-0.1-1.2-0.5-1.5-1.1l-8.4-13C30.7,35.5,31.1,34,32.2,33.3z    M23.3,39.9c0.1-0.6,0.5-1.2,1.1-1.5l0.9-0.6c1.1-0.7,2.7-0.4,3.4,0.7l8.4,13c0.7,1.1,0.4,2.7-0.7,3.4l-0.9,0.6   c-0.5,0.4-1.2,0.5-1.8,0.3c-0.6-0.1-1.2-0.5-1.5-1.1l-8.4-13C23.3,41.2,23.2,40.5,23.3,39.9z"></path></g></svg>