<svg xmlns="http://www.w3.org/2000/svg" xmlns:xlink="http://www.w3.org/1999/xlink" version="1.1" x="0px" y="0px" viewBox="0 0 91 91" style="enable-background:new 0 0 91 91;" xml:space="preserve"><g><path d="M8.4,50l3.9-0.9c0.2,0,0.3-0.1,0.5-0.2c0.3-0.2,2.9-1.9,3.3-6.9c0.5-6.8,5.7-11.1,5.7-11.2c0,0,0.1-0.1,0.1-0.1   c0.2-0.2,2-2.1,1.3-6.4c-0.5-3.3-2.2-10.5-2.3-10.8c0,0,0,0,0-0.1c0.2-0.2,1-0.8,3.5-1.1c4.9-0.6,5.8,2.6,5.9,3.3l3.1,13.4   c0,0.2,0.3,1.1,1,2.1l-0.6,0.1c-1.1,0.3-1.8-0.7-1.9-0.8c-0.5-0.8-1.6-1-2.3-0.5c-0.8,0.5-1,1.6-0.5,2.3c0.6,1,2.2,2.4,4.3,2.4   c0.4,0,0.7,0,1.1-0.1l6.6-1.3c0,0,0,0,0,0c0,0,0,0,0,0l11.2-2.6c0.9-0.2,1.9,0,2.7,0.5c0.8,0.5,1.4,1.3,1.6,2.2   c0.2,0.9,0,1.9-0.5,2.7c-0.5,0.8-1.3,1.4-2.2,1.6c-0.1,0-0.2,0-0.3,0.1l0,0c0,0,0,0,0,0c-0.1,0-0.1,0.1-0.2,0.1c0,0-0.1,0-0.1,0.1   c-0.1,0-0.1,0.1-0.1,0.1c0,0-0.1,0.1-0.1,0.1c-0.1,0.1-0.1,0.1-0.2,0.2c0,0,0,0,0,0c-0.3,0.4-0.4,0.8-0.3,1.3   c0.2,0.9,1.1,1.5,2,1.3l1.8-0.4c1.9-0.4,3.8,0.8,4.2,2.7c0.2,0.9,0,1.9-0.5,2.7c-0.5,0.8-1.3,1.4-2.2,1.6L56.1,48c0,0,0,0,0,0   l-1.3,0.3c-0.9,0.2-1.5,1.1-1.3,2c0.2,0.9,1.1,1.5,2,1.3l1.8-0.4c0.9-0.2,1.9,0,2.7,0.5c0.8,0.5,1.4,1.3,1.6,2.2   c0.4,1.9-0.8,3.8-2.7,4.2l-3,0.7c-0.9,0.2-1.5,1.1-1.3,2c0.2,0.9,1.1,1.5,2,1.3l1.3-0.3c0,0,0,0,0,0l1.8-0.4c0,0,0,0,0,0l20.2-4.5   c0.9-0.2,1.9,0,2.7,0.5c0.8,0.5,1.4,1.3,1.6,2.2c0.4,1.9-0.8,3.8-2.7,4.2L32.5,74.6c-0.1,0-5.1,1.1-7.6-1.6   c-0.3-0.3-2.8-2.9-5.9-2.5c0,0-0.1,0-0.1,0l-6.8,1.3c-0.9,0.2-1.5,1.1-1.3,2c0.2,0.9,1.1,1.5,2,1.3l6.7-1.3c1.2-0.1,2.6,1.1,3,1.5   c2.2,2.4,5.4,2.9,7.7,2.9c1.7,0,3-0.3,3.1-0.3L82,67.2c3.7-0.8,6.1-4.5,5.3-8.3c-0.4-1.8-1.5-3.3-3-4.3c-1.6-1-3.4-1.3-5.2-0.9   l-14.4,3.2c0.4-1.2,0.5-2.4,0.2-3.7C64.4,51.4,63.4,50,62,49c0.3-0.3,0.6-0.7,0.9-1.1c1-1.6,1.3-3.4,0.9-5.2   c-0.4-1.8-1.5-3.3-3-4.3c-0.5-0.3-1.1-0.6-1.6-0.8c0.8-1.5,1-3.1,0.7-4.8c-0.4-1.8-1.5-3.3-3-4.3c-1.6-1-3.4-1.3-5.2-0.9l-11.2,2.6   l0,0c-2.8,0.6-3.5-0.9-3.7-1.6l-3.1-13.4c-0.5-2.4-3.1-6.8-9.7-5.9c-3.3,0.4-5.3,1.4-6.1,2.9c-0.5,0.9-0.4,1.8-0.2,2.5   c0.2,1,1.8,7.4,2.2,10.4c0.4,2.3-0.2,3.3-0.3,3.5c-0.9,0.8-6.2,5.7-6.8,13.4c-0.2,2.6-1.2,3.8-1.5,4.1l-3.6,0.8   c-0.9,0.2-1.5,1.1-1.3,2c0.2,0.8,0.9,1.3,1.6,1.3C8.1,50.1,8.2,50.1,8.4,50z"></path></g></svg>