<svg xmlns="http://www.w3.org/2000/svg" xmlns:xlink="http://www.w3.org/1999/xlink" version="1.1" x="0px" y="0px" viewBox="0 0 91 91" style="enable-background:new 0 0 91 91;" xml:space="preserve"><g><path d="M20.8,63.4c0,0.2,0.1,0.4,0.1,0.6l7.3,16c0.3,0.6,0.9,1,1.5,1c0.2,0,0.5,0,0.7-0.2c0.8-0.4,1.2-1.4,0.8-2.2l-7.2-15.7   l-0.8-13.1l5.3,8.2c0.8,1.3,2.1,2.2,3.7,2.5c0.4,0.1,0.8,0.1,1.2,0.1c1.1,0,2.2-0.3,3.1-0.9l0.9-0.6c2.7-1.7,3.5-5.4,1.7-8.1   l-8.2-12.7l-5.6-19c-0.2-0.7-0.1-1.4,0.3-2c0.4-0.6,0.9-1.1,1.6-1.2l0.9-0.2c0.7-0.2,1.4-0.1,2,0.3c0.6,0.4,1.1,0.9,1.3,1.7   l6.9,23.1c0,0,0,0,0,0c0.1,0.2,0.1,0.3,0.2,0.4c0,0,0,0,0,0c0.1,0.1,0.2,0.2,0.3,0.3c0,0,0,0,0.1,0.1c0.1,0.1,0.3,0.2,0.4,0.2   c0,0,0.1,0,0.1,0c0.1,0,0.3,0.1,0.5,0.1c0,0,0,0,0,0c0,0,0,0,0,0c0,0,0,0,0.1,0c0.1,0,0.3,0,0.4-0.1c0,0,0,0,0,0c0,0,0.1,0,0.1,0   c0.1,0,0.1,0,0.2-0.1c0,0,0.1-0.1,0.1-0.1c0,0,0.1-0.1,0.1-0.1c0,0,0.1-0.1,0.1-0.1c0,0,0.1-0.1,0.1-0.1c0,0,0.1-0.1,0.1-0.1   c0,0,0.1-0.1,0.1-0.1c0,0,0-0.1,0.1-0.1c0-0.1,0-0.1,0.1-0.2c0-0.1,0-0.1,0-0.2c0-0.1,0-0.1,0-0.2c0-0.1,0-0.1,0-0.2   c0,0,0-0.1,0-0.1l-1-29.8c-0.1-0.8,0.2-1.6,0.7-2.2c0.5-0.6,1.3-1,2.1-1.1l1-0.1c0.8-0.1,1.6,0.2,2.2,0.7c0.6,0.5,1,1.3,1,2.1   l1.6,28.3c0,0,0,0,0,0.1c0,0.1,0,0.1,0,0.2c0,0.1,0,0.1,0,0.2c0,0,0,0.1,0.1,0.1c0,0.1,0,0.1,0.1,0.2c0,0,0,0.1,0.1,0.1   c0,0.1,0.1,0.1,0.1,0.2c0,0,0,0,0,0.1c0.1,0.1,0.1,0.1,0.2,0.2c0,0,0,0,0,0c0.1,0.1,0.2,0.1,0.2,0.1c0,0,0,0,0,0   c0.1,0,0.2,0.1,0.3,0.1c0,0,0,0,0,0c0,0,0,0,0.1,0c0.1,0,0.1,0,0.2,0c0.1,0,0.1,0,0.2,0c0,0,0.1,0,0.1,0c0,0,0,0,0.1,0   c0.1,0,0.1,0,0.2,0c0,0,0.1,0,0.1,0c0.1,0,0.1,0,0.2-0.1c0,0,0.1,0,0.1-0.1c0.1,0,0.1-0.1,0.2-0.1c0,0,0.1-0.1,0.1-0.1   c0,0,0.1-0.1,0.1-0.1c0,0,0.1-0.1,0.1-0.1c0,0,0.1-0.1,0.1-0.1c0,0,0.1-0.1,0.1-0.1c0,0,0-0.1,0.1-0.1c0-0.1,0-0.1,0.1-0.2   c0,0,0,0,0-0.1l6.6-23.8c0.4-1.6,2.1-2.6,3.7-2.2l1,0.2c0.8,0.2,1.4,0.7,1.9,1.4c0.4,0.7,0.5,1.5,0.3,2.3L60.6,41   c-1.3-0.3-2.3-0.6-2.8-0.7c-1.3-0.4-4-0.5-5.4,2c-1.9,3.4-1.3,7.1,1.4,9.3c0,0,0.1,0.1,0.1,0.1l4.5,3.1l-0.5,2   c-2.9,1.2-11.8,5.4-12.6,13.5c-0.1,0.9,0.6,1.8,1.5,1.8c0.9,0.1,1.8-0.6,1.8-1.5c0.7-7.4,11.1-11,11.2-11c0.6-0.2,1-0.6,1.1-1.2   l1-4c0.2-0.7-0.1-1.4-0.7-1.8L55.9,49c-1.4-1.2-1.6-3.1-0.5-5c0.4-0.7,1.1-0.5,1.4-0.4c0,0,0.1,0,0.2,0c1.3,0.3,2.9,0.7,4.5,1.2   c0,0,0,0,0,0c0,0,0,0,0,0c3.2,0.9,6.4,1.9,7.4,2.5c3.4,2.2,0.8,12.6-1.2,16.4c-1.9,3.6-7.1,14.4-7.4,14.9c-0.1,0.1-0.1,0.2-0.1,0.4   l-1.3,5.9c-0.2,0.9,0.4,1.8,1.3,2c0.1,0,0.3,0,0.4,0c0.8,0,1.5-0.5,1.6-1.3l1.3-5.7c0.7-1.4,5.5-11.3,7.2-14.6   c1.8-3.4,6.3-16.8,0.1-20.8c-1.2-0.8-4-1.7-6.8-2.5l5.7-24.5c0.9-3.4-1.2-6.9-4.6-7.8l-1-0.2c-3.4-0.9-6.9,1.2-7.8,4.6l-3.9,13.9   l-1-18.1c-0.3-3.5-3.3-6.2-6.9-5.9l-1,0.1c-1.7,0.1-3.3,0.9-4.4,2.2c-1.1,1.3-1.7,3-1.6,4.6L38,27.4l-3.2-10.6   c-0.4-1.6-1.4-2.9-2.8-3.7c-1.4-0.8-3-1-4.6-0.6l-0.9,0.2c-1.6,0.4-2.9,1.4-3.7,2.8c-0.8,1.4-1,3-0.6,4.6l4.5,15.2   c-1.4-0.2-2.7,0.1-3.8,0.9L22,36.9c-2.2,1.4-3.2,4.2-2.4,6.6L20.8,63.4z M23.9,39.7l0.9-0.6c0.4-0.3,0.9-0.4,1.3-0.4   c0.2,0,0.4,0,0.5,0.1c0.6,0.1,1.2,0.5,1.5,1.1l8.4,13c0.7,1.1,0.4,2.7-0.7,3.4l-0.9,0.6c-0.5,0.4-1.2,0.5-1.8,0.3   c-0.6-0.1-1.2-0.5-1.5-1.1l-8.4-13C22.4,42,22.7,40.4,23.9,39.7z"></path></g></svg>