<svg xmlns="http://www.w3.org/2000/svg" xmlns:xlink="http://www.w3.org/1999/xlink" version="1.1" x="0px" y="0px" viewBox="0 0 91 91" style="enable-background:new 0 0 91 91;" xml:space="preserve"><g><path d="M18.5,73l7.5,0.2c1.3,0.2,2.6,1.8,2.9,2.3c3,5.1,10.2,5.2,10.8,5.2c0,0,0,0,0,0h30.5c4.1,0,7.4-3.3,7.4-7.4   c0-2-0.8-3.8-2.1-5.2c2.1-1.3,3.5-3.6,3.5-6.3c0-2-0.8-3.8-2.1-5.2c2.1-1.3,3.5-3.6,3.5-6.3c0-2.3-1.1-4.4-2.7-5.7   c1.7-1.4,2.7-3.4,2.7-5.7c0-4.1-3.3-7.4-7.4-7.4l-14.5,0.1l0,0c-3.4,0-3.7-2.1-3.7-2.8l-0.2-13.7c0.1-2.6-1.7-7.8-8.8-8.4   C42.3,6.5,40,7,38.8,8.5c-0.7,0.8-0.8,1.8-0.7,2.5c0,1,0.1,7.1,0,10.4C37.9,24,37,25,36.8,25.1c-1.1,0.6-7.9,4.5-10.4,12.6   c-0.9,2.8-2.2,3.9-2.7,4.1h-4c-0.9,0-1.7,0.8-1.7,1.7s0.8,1.7,1.7,1.7h4.4c0.2,0,0.4,0,0.5-0.1c0.4-0.1,3.5-1.3,5-6.5   c2.2-7.2,8.7-10.6,8.8-10.7c0.1,0,0.1-0.1,0.1-0.1c0.3-0.2,2.5-1.7,2.8-6.4c0.2-3.6,0.1-10.5,0.1-10.8c0-0.1,0-0.1,0-0.2   c0.2-0.2,1.1-0.7,4.1-0.4c5.6,0.5,5.7,4.5,5.7,5L51.5,29c0,0.2,0,1.3,0.6,2.6l-0.9,0c0,0,0,0,0,0c-1.3,0-1.9-1.3-1.9-1.4   c-0.3-0.9-1.3-1.3-2.2-1c-0.9,0.3-1.3,1.3-1,2.2c0.5,1.3,2.1,3.6,5,3.6c0,0,0.1,0,0.1,0l7.4,0.2c0,0,0,0,0,0c0,0,0,0,0,0   c0,0,0,0,0,0L73.1,35c2.2,0,4,1.8,4,4s-1.8,4-4,4h-2c-0.9,0-1.7,0.8-1.7,1.7s0.8,1.7,1.7,1.7h2c2.2,0,4,1.8,4,4s-1.8,4-4,4h-1.4   h-0.6h-1.4c-0.9,0-1.7,0.8-1.7,1.7s0.8,1.7,1.7,1.7h1.4h0.6c2.2,0,4,1.8,4,4s-1.8,4-4,4h-1.4h-0.6h-1.4c-0.9,0-1.7,0.8-1.7,1.7   s0.8,1.7,1.7,1.7h1.4h0.6c2.2,0,4,1.8,4,4s-1.8,4-4,4H39.8h0c-0.1,0-5.8-0.1-7.9-3.6c-0.2-0.4-2.3-3.6-5.6-4c0,0-0.1,0-0.1,0   l-7.6-0.2c-0.9,0-1.7,0.7-1.7,1.6S17.6,73,18.5,73z"></path></g></svg>