<svg xmlns="http://www.w3.org/2000/svg" xmlns:xlink="http://www.w3.org/1999/xlink" version="1.1" x="0px" y="0px" viewBox="0 0 91 91" style="enable-background:new 0 0 91 91;" xml:space="preserve"><g><path d="M22,62.1c0,0.2,0.1,0.4,0.1,0.6l7.3,16c0.3,0.6,0.9,1,1.5,1c0.2,0,0.5,0,0.7-0.2c0.8-0.4,1.2-1.4,0.8-2.2l-7.2-15.7   l-0.9-14.5l5.4,8.3c0.8,1.3,2.1,2.2,3.7,2.5c0.4,0.1,0.8,0.1,1.2,0.1c1.1,0,2.2-0.3,3.1-0.9l0.9-0.6c1.4-0.9,2.2-2.2,2.5-3.7   c0.4,0.1,0.8,0.1,1.3,0.1c1.1,0,2.2-0.3,3.2-0.9l0.9-0.6c1.3-0.8,2.2-2.1,2.5-3.7c0.3-1.5,0-3.1-0.8-4.4l-8.4-13   c-0.3-0.5-0.8-1-1.2-1.4l-5.4-17.5c-0.2-0.8-0.1-1.6,0.3-2.3c0.4-0.7,1.1-1.2,1.9-1.4l1-0.3c1.6-0.4,3.3,0.6,3.7,2.3l8.3,27.2   c0,0,0,0,0,0c0,0.2,0.1,0.3,0.2,0.4c0,0,0,0.1,0.1,0.1c0.1,0.1,0.2,0.2,0.3,0.3c0,0,0,0,0.1,0c0.1,0.1,0.2,0.1,0.4,0.2   c0,0,0,0,0.1,0c0,0,0,0,0,0c0.1,0,0.3,0.1,0.4,0.1c0,0,0,0,0,0c0,0,0,0,0.1,0c0.1,0,0.3,0,0.4-0.1c0,0,0,0,0,0c0,0,0,0,0,0   c0.1,0,0.1-0.1,0.2-0.1c0,0,0.1,0,0.1,0c0,0,0.1,0,0.1-0.1c0.1-0.1,0.2-0.2,0.3-0.3c0,0,0.1-0.1,0.1-0.1c0-0.1,0.1-0.1,0.1-0.2   c0,0,0-0.1,0-0.1c0-0.1,0.1-0.2,0.1-0.2c0,0,0,0,0,0l7.9-27.3c0.2-0.8,0.7-1.4,1.4-1.9s1.5-0.5,2.3-0.3l1,0.3   c0.8,0.2,1.4,0.7,1.9,1.4c0.4,0.7,0.5,1.5,0.3,2.3l-7.2,28.1c-1.3-0.3-2.3-0.6-2.8-0.7c-1.3-0.4-4-0.5-5.4,2   c-1.9,3.4-1.3,7.1,1.4,9.3c0,0,0.1,0.1,0.1,0.1l4.5,3.1l-0.5,2c-2.9,1.2-11.8,5.4-12.6,13.5c-0.1,0.9,0.6,1.8,1.5,1.8   c0.9,0.1,1.8-0.6,1.8-1.5c0.7-7.4,11.1-11,11.2-11c0.6-0.2,1-0.6,1.1-1.2l1-4c0.2-0.7-0.1-1.4-0.7-1.8l-5.4-3.7   c-1.4-1.2-1.6-3.1-0.5-5c0.4-0.7,1.1-0.5,1.4-0.4c0,0,0.1,0,0.2,0c1.3,0.3,2.8,0.7,4.4,1.2c0,0,0,0,0,0c0,0,0,0,0,0   c3.2,0.9,6.5,1.9,7.4,2.6c3.4,2.2,0.8,12.6-1.2,16.4c-1.9,3.6-7.1,14.4-7.4,14.9c-0.1,0.2-0.1,0.3-0.2,0.5l-0.7,5   c-0.1,0.9,0.5,1.8,1.4,1.9c0.1,0,0.2,0,0.2,0c0.8,0,1.6-0.6,1.7-1.5l0.7-4.8c0.8-1.6,5.5-11.2,7.2-14.5c1.8-3.4,6.3-16.8,0.1-20.8   c-1.2-0.8-4.1-1.7-6.8-2.5l7.3-28.2c0.4-1.7,0.2-3.4-0.7-4.9c-0.9-1.5-2.3-2.5-3.9-3l-1-0.3c-1.7-0.4-3.4-0.2-4.9,0.7   s-2.5,2.3-3,3.9l-6.3,21.8L43.5,9c-0.9-3.4-4.4-5.5-7.8-4.6l-1,0.3c-1.7,0.4-3,1.5-3.9,3s-1.1,3.2-0.7,4.9l4.7,15.3   c-1,0-2,0.3-2.9,0.9c0,0,0,0,0,0l-0.9,0.6c-1.4,0.9-2.2,2.2-2.5,3.7c0,0,0,0,0,0c-1.5-0.3-3.1,0-4.4,0.8l-0.9,0.6   c-2.1,1.4-3.1,3.9-2.5,6.3L22,62.1z M31.9,33.7c0.1-0.6,0.5-1.2,1.1-1.5l0.9-0.6h0c1.1-0.7,2.7-0.4,3.4,0.7l8.4,13   c0.4,0.5,0.5,1.2,0.3,1.8c-0.1,0.6-0.5,1.2-1.1,1.5L44,49.2c-1.1,0.7-2.7,0.4-3.4-0.7l-8.4-13C31.8,35,31.7,34.3,31.9,33.7z    M25.1,37.2l0.9-0.6c0.4-0.3,0.9-0.4,1.3-0.4c0.2,0,0.4,0,0.5,0.1c0.6,0.1,1.2,0.5,1.5,1.1l8.4,13c0.7,1.1,0.4,2.7-0.7,3.4   l-0.9,0.6c-0.5,0.4-1.2,0.5-1.8,0.3c-0.6-0.1-1.2-0.5-1.5-1.1l-8.4-13C23.6,39.5,24,37.9,25.1,37.2z"></path></g></svg>