<svg xmlns="http://www.w3.org/2000/svg" xmlns:xlink="http://www.w3.org/1999/xlink" version="1.1" x="0px" y="0px" viewBox="0 0 91 91" style="enable-background:new 0 0 91 91;" xml:space="preserve"><g><path d="M76.1,17.8c-0.1,0-0.1,0-0.2-0.1c-0.7-0.2-17.2-4.4-31.7,1.9c0,0-5,2.4-14,3.6c-0.9,0.1-1.6,1-1.5,1.9   c0.1,0.9,1,1.6,1.9,1.5c9.6-1.2,14.8-3.8,14.9-3.9c12.9-5.5,28.1-2,29.4-1.7c3.9,1.5,4.5,2.3,4.5,4.1c0,2.2-1.8,4-4,4H75h-1.4   c-0.9,0-1.7,0.8-1.7,1.7s0.8,1.7,1.7,1.7H75h0.6H77c2.2,0,4,1.8,4,4s-1.8,4-4,4h-0.6H75c-0.9,0-1.7,0.8-1.7,1.7s0.8,1.7,1.7,1.7   h1.4H77h1.4c2.2,0,4,1.8,4,4s-1.8,4-4,4h-2c-0.9,0-1.7,0.8-1.7,1.7s0.8,1.7,1.7,1.7h2c2.2,0,4,1.8,4,4s-1.8,4-4,4l-14.5-0.1   c-6.1,0-7.8,2.2-8.1,2.7l2.8,1.8c0,0,0,0-0.1,0.1c0,0,1.1-1.2,5.3-1.2l10.6,0.1c-0.8,2.6-3.3,3.4-3.6,3.5   c-21.1,5.6-32.1-3.6-35.8-7.9c-2.4-2.8-4-3.5-4.3-3.7c-0.8-0.4-1.8,0-2.2,0.9c-0.4,0.8,0,1.8,0.8,2.2c0,0,1.2,0.6,3.2,2.8   c3.2,3.7,11.4,10.8,25.7,10.8c4,0,8.5-0.6,13.5-1.9c2-0.5,5.5-2.5,6.2-6.7l0.4,0c4.1,0,7.4-3.3,7.4-7.4c0-2.3-1.1-4.4-2.7-5.7   c1.7-1.4,2.7-3.4,2.7-5.7c0-2.7-1.4-5-3.5-6.3c1.3-1.3,2.1-3.1,2.1-5.2c0-2.7-1.4-5-3.5-6.3c1.3-1.3,2.1-3.1,2.1-5.2   C82.9,20.7,79.7,19.1,76.1,17.8z"></path><path d="M18.1,43.5C18.1,43.5,18.2,43.5,18.1,43.5c0.1,0.1,0.1,0.1,0.1,0.1c0,0,0,0,0,0c0.1,0.1,0.3,0.2,0.4,0.2c0,0,0,0,0.1,0   c0.2,0,0.3,0.1,0.5,0.1c0,0,0,0,0,0c0,0,0,0,0,0c0,0,0,0,0,0c0.1,0,0.2,0,0.4,0c0,0,0.1,0,0.1,0c0.1,0,0.2,0,0.2-0.1   c0,0,0.1,0,0.1-0.1c0.1,0,0.1-0.1,0.2-0.1c0,0,0.1-0.1,0.1-0.1c0,0,0.1-0.1,0.1-0.1c0,0,0-0.1,0.1-0.1c0,0,0,0,0,0l3-3.9   c0.6-0.7,0.4-1.8-0.3-2.4c-0.7-0.6-1.8-0.4-2.4,0.3l-1.8,2.4l-4.7-4.4c-0.7-0.6-1.7-0.6-2.4,0.1c-0.6,0.7-0.6,1.7,0.1,2.4   L18.1,43.5z"></path><path d="M10.5,56.3h0.3l1.9,6.4c0.2,0.7,0.8,1.2,1.5,1.2h10.2c0.7,0,1.3-0.5,1.5-1.2l1.9-6.4H28c2.3,0,4.2-1.9,4.2-4.2V32.4   c0-2.3-1.9-4.2-4.2-4.2h-0.1L26,21.8c-0.2-0.7-0.8-1.2-1.5-1.2H14.3c-0.7,0-1.3,0.5-1.5,1.2l-1.9,6.4h-0.3c-2.3,0-4.2,1.9-4.2,4.2   v19.8C6.3,54.4,8.2,56.3,10.5,56.3z M23.3,60.7h-7.8l-1.3-4.4h10.4L23.3,60.7z M15.5,23.8h7.8l1.3,4.4H14.2L15.5,23.8z M9.7,32.4   c0-0.4,0.4-0.8,0.8-0.8H28c0.4,0,0.8,0.4,0.8,0.8v19.8c0,0.4-0.4,0.8-0.8,0.8H10.5c-0.4,0-0.8-0.4-0.8-0.8V32.4z"></path></g></svg>