<?xml version="1.0" encoding="UTF-8" standalone="no"?>
<svg
   xmlns:dc="http://purl.org/dc/elements/1.1/"
   xmlns:cc="http://creativecommons.org/ns#"
   xmlns:rdf="http://www.w3.org/1999/02/22-rdf-syntax-ns#"
   xmlns:svg="http://www.w3.org/2000/svg"
   xmlns="http://www.w3.org/2000/svg"
   xmlns:sodipodi="http://sodipodi.sourceforge.net/DTD/sodipodi-0.dtd"
   xmlns:inkscape="http://www.inkscape.org/namespaces/inkscape"
   version="1.0"
   x="0px"
   y="0px"
   viewBox="0 0 87.789482 41.199982"
   xml:space="preserve"
   id="svg28"
   inkscape:version="0.91 r13725"
   sodipodi:docname="bones_scissors.svg"
   width="87.789482"
   height="41.199982"><metadata
     id="metadata36"><rdf:RDF><cc:Work
         rdf:about=""><dc:format>image/svg+xml</dc:format><dc:type
           rdf:resource="http://purl.org/dc/dcmitype/StillImage" /><dc:title></dc:title></cc:Work></rdf:RDF></metadata><defs
     id="defs34" /><sodipodi:namedview
     pagecolor="#ffffff"
     bordercolor="#666666"
     borderopacity="1"
     objecttolerance="10"
     gridtolerance="10"
     guidetolerance="10"
     inkscape:pageopacity="0"
     inkscape:pageshadow="2"
     inkscape:window-width="754"
     inkscape:window-height="480"
     id="namedview32"
     showgrid="false"
     fit-margin-top="0"
     fit-margin-left="0"
     fit-margin-right="0"
     fit-margin-bottom="0"
     inkscape:zoom="2.36"
     inkscape:cx="43.89474"
     inkscape:cy="20.6"
     inkscape:window-x="0"
     inkscape:window-y="0"
     inkscape:window-maximized="0"
     inkscape:current-layer="svg28" /><path
     d="m 69.039991,35.77998 0,-0.35999 c 0,-1.42999 -0.54999,-2.72003 -1.450011,-3.67999 1.910031,-0.84003 3.24005,-2.75 3.24005,-4.96002 l 0,-0.35999 c 0,-0.89001 -0.22003,-1.72998 -0.61005,-2.47003 l 11.69,0.61005 c 1.48999,0.07001 2.920039,-0.42999 4.030029,-1.42999 1.10999,-1 1.76001,-2.37006 1.83997,-3.86005 0.17999,-3.08997 -2.21997,-5.70001 -5.279969,-5.85999 L 69.020031,12.70997 81.07002,11.13001 c 3.010009,-0.39001 5.21997,-3.18005 4.81,-6.25 -0.390011,-3.05005 -3.200009,-5.21002 -6.25,-4.81006 L 55.52998,3.20996 C 53.94001,1.25 51.500011,0 48.77998,0 l -8.369999,0 c -4.130001,0 -7.78998,2.08997 -9.96997,5.25995 0,0 -12.29999,0 -12.560001,0 -3.619999,0 -6.570009,2.95001 -6.570009,6.58002 l 0,5.57002 -1.5700105,0 c -0.25,-2.46002 -2.33002,-4.38 -4.85999,-4.38 C 2.19,13.02999 0,15.21999 0,17.92 0,19.17 0.47998,20.36 1.32001,21.25002 0.47998,22.13997 0,23.31997 0,24.57998 c 0,2.70001 2.19,4.89001 4.8800005,4.89001 2.52997,0 4.60999,-1.91998 4.85999,-4.38 l 1.5700105,0 0,3.35999 c -0.92999,0.33002 -1.6699805,1.07001 -2.0000005,2 l -1.03003,0 c -1.51996,0 -2.75,1.24005 -2.75,2.75 0,1.51001 1.23004,2.74005 2.75,2.74005 l 22.1600495,0 c 2.17999,3.16998 5.83997,5.25995 9.96997,5.25995 l 23.22003,0 c 2.97998,-10e-6 5.409971,-2.43001 5.409971,-5.42 z m -1.76996,-11.98999 c 0.81995,0.58002 1.359989,1.53998 1.359989,2.63 l 0,0.35999 c 0,1.78003 -1.439999,3.22003 -3.21002,3.22003 l -10.689999,0 c -1.770021,0 -3.219971,-1.44 -3.219971,-3.22003 l 0,-0.35999 c 0,-0.81 0.29999,-1.54999 0.79999,-2.10999 1.02997,0.38995 2.14996,0.60999 3.320011,0.60999 l 0.77997,0 c 0.61005,0 1.10004,-0.48999 1.10004,-1.10004 l 0,-0.53998 9.75999,0.51002 z M 82.38002,15.56996 c 1.820009,0.09003 3.239989,1.59003 3.239989,3.41003 l 0,0.18 c -0.04999,0.90997 -0.45001,1.75 -1.13,2.35999 -0.679989,0.61005 -1.549988,0.92004 -2.460019,0.88 L 67.99,21.65999 57.51002,21.11 l 0,-6.84003 24.87,1.29999 z M 79.90999,2.20998 c 1.86999,-0.23999 3.59003,1.08001 3.83002,2.95001 0.02002,0.15002 0.03003,0.29999 0.03003,0.45001 0,1.70001 -1.28003,3.15997 -2.98004,3.38 l -23.27997,3.03998 0,-3.29999 c 0,-1.23999 -0.26001,-2.42999 -0.73004,-3.5 l 23.13,-3.02001 z M 4.8800205,27.26997 c -1.4800405,0 -2.6799905,-1.20996 -2.6799905,-2.69 0,-0.64996 0.25,-1.27997 0.66998,-1.76001 l 0.01001,0 c 1.7699605,-0.37 3.0600005,-1.93994 3.0600005,-3.75995 0,-0.61005 -0.48999,-1.10004 -1.10004,-1.10004 -0.60999,0 -1.0999805,0.48999 -1.0999805,1.10004 0,0.38995 -0.14001,0.75995 -0.38,1.03998 C 2.64003,19.61 2.20003,18.8 2.20003,17.92 c 0,-1.48999 1.19995,-2.69 2.6799905,-2.69 1.48999,0 2.69,1.20001 2.69,2.69 0,0.28998 0.01996,0.51001 0.06,0.67999 0.03998,0.57001 0.51001,1.01001 1.08997,1.01001 l 6.5300295,0 c 0.89996,0 1.63,0.72998 1.63,1.64001 0,0.89996 -0.73004,1.63995 -1.63,1.63995 l -8.2200295,0 c -0.60999,0 -1.09998,0.49005 -1.09998,1.10004 0,0.59998 0.48999,1.09998 1.09998,1.09998 l 0.49005,0 c -0.24006,1.23999 -1.33002,2.17999 -2.64002,2.17999 z m 3.39996,6.47003 c -0.29999,0 -0.54999,-0.23999 -0.54999,-0.54004 0,-0.29999 0.25,-0.53998 0.54999,-0.53998 l 1.9400005,0 c 0.60004,0 1.10004,-0.5 1.10004,-1.09998 0,-0.61005 0.48999,-1.10004 1.08997,-1.10004 0.60004,0 1.10004,-0.48999 1.10004,-1.09998 l 0,-4.27002 1.73999,0 c 2.10999,0 3.83002,-1.72998 3.83002,-3.83997 0,-2.12 -1.72003,-3.84003 -3.83002,-3.84003 l -1.73999,0 0,-5.57001 c 0,-2.41998 1.95996,-4.38 4.37,-4.38 1.58997,0 3.01996,0.85999 3.78998,2.17999 l -2.14001,0 c -1.50995,0 -2.75,1.23004 -2.75,2.74005 0,1.51996 1.24005,2.75 2.75,2.75 l 0.54004,0 0,0.53998 c 0,1.32001 0.94,2.42999 2.19,2.69 l 0,11 c 0,2.41998 -1.96002,4.38 -4.38,4.38 l -9.6000605,0 z m 14.4900495,0 c 1.049991,-1.16003 1.68994,-2.69 1.68994,-4.38 l 0,-12.04999 c 0,-0.60004 -0.489989,-1.10004 -1.099979,-1.10004 l -0.549991,0 c -0.28998,0 -0.53998,-0.23999 -0.53998,-0.53998 l 0,-1.64001 c 0,-0.60999 -0.49005,-1.09998 -1.10004,-1.09998 l -1.64001,0 c -0.29999,0 -0.54999,-0.25 -0.54999,-0.54999 0,-0.30005 0.25,-0.54004 0.54999,-0.54004 l 3.720031,0 c 0.33002,0 0.64001,-0.14996 0.849979,-0.39996 C 24.31,11.18 24.399971,10.83997 24.33002,10.51997 24.08997,9.34999 23.54999,8.3 22.77997,7.45997 l 6.45001,0 c -0.58997,1.42999 -0.91998,3 -0.91998,4.64001 l 0,17 c 0,1.64001 0.33002,3.21002 0.91998,4.64001 l -6.45995,0 z m 17.63996,5.26001 c -2.81,0 -5.34998,-1.17004 -7.14996,-3.06 C 32.63003,35.28999 32.1,34.55 31.67,33.74 30.93001,32.36 30.51003,30.77998 30.51003,29.09999 l 0,-17 c 0,-1.67999 0.41998,-3.26001 1.15997,-4.64001 0.42999,-0.81 0.96002,-1.54999 1.59003,-2.20001 1.79999,-1.88995 4.33997,-3.06 7.14996,-3.06 l 8.37,0 c 1.52002,0 2.91003,0.52002 4.02002,1.40002 0.67999,0.52002 1.25,1.17999 1.66998,1.92999 0.54004,0.95001 0.84003,2.03998 0.84003,3.20001 l 0,12.26001 0,0.01001 0,1.70996 c -1.15002,-0.04999 -2.22998,-0.38 -3.16998,-0.91998 l -0.01001,0 c -0.04004,-0.01001 -0.07001,-0.03998 -0.10004,-0.06 -2.10999,-1.22998 -3.51996,-3.52002 -3.51996,-6.13 l 0,-5.5 c 0,-0.60999 -0.48999,-1.09998 -1.10004,-1.09998 l -3,0 c -0.59998,0 -1.09998,0.48999 -1.09998,1.09998 l 0,1.54999 c 0,2.95001 -2.40002,5.35004 -5.35004,5.35004 -0.60999,0 -1.09998,0.48999 -1.09998,1.09998 0,0.60999 0.48999,1.09998 1.09998,1.09998 4.17004,0 7.55005,-3.38995 7.55005,-7.54999 l 0,-0.45001 0.79999,0 0,4.40001 c 0,3.16998 1.58997,5.97998 4.02002,7.66998 -0.640009,0.89001 -1.02002,1.97003 -1.02002,3.15002 l 0,0.35999 c 0,1.78003 0.85999,3.35004 2.17999,4.34003 C 50.20002,32.11 49.36,33.67 49.36,35.42 l 0,0.35999 c 0,1.21002 0.40002,2.32001 1.07001,3.22003 l -10.02002,0 z m 14.36999,0 c -1.76996,0 -3.21997,-1.44 -3.21997,-3.22003 l 0,-0.35999 c 0,-1.76001 1.41998,-3.19 3.16998,-3.22003 l 8.90002,0 c 1.76996,0 3.20996,1.44 3.20996,3.22003 l 0,0.35999 c 0,1.78003 -1.44,3.22003 -3.20996,3.22003 l -8.85003,0 z"
     id="path30"
     inkscape:connector-curvature="0" /></svg>