<svg xmlns="http://www.w3.org/2000/svg" viewBox="0 0 100 100" x="0px" y="0px"><title>Artboard 50</title><g data-name="Layer 1"><path d="M93.6,69c-2-2.46-8.68-4-10.41,2-1.14-.58-6.42-3.37-8-4.15,1.23-3.76,2.29-8.57.2-11.27a1.37,1.37,0,0,0-1.63-.33A15.82,15.82,0,0,1,66.52,48a31.87,31.87,0,0,1-2.39-6.49,42.56,42.56,0,0,1-.58-16.4C64.15,21.69,66,14.4,61.49,13c-4.89-1.54-8.22,5.81-10,9.16a46.55,46.55,0,0,0-3.1,7c-1.48-1-9.94-7.87-15.1-6.86-4,.78-6.51,7.63-5.13,11.1-3-1.58-6.44,2.28-7,4.46-.31,1.16-.65,3.61.15,4.74a3.81,3.81,0,0,0-.77.52,7.73,7.73,0,0,0-2.29,5.52c.06,1.73,1.29,3.12,2.9,4.21h-.11c-4.23.53-13.72.62-15.67,5.74-1.86,4.85,3.2,5.91,6.9,5.85,3-.05,6.07,0,9.09.11,6.65.34,10.93,4.05,15.94,7.87,4.47,3.41,9.23,6.23,14.92,5.69.11.11,10.07,5,10.75,7.12.4,1.29,2.41,1.17,3.35.19,2.21-2.31,4-5.78,5.37-9.16,2.36,1.25,6.06,3.11,7.51,4.07l0,.07c-1.83,5.94,3.66,9.46,8.37,8.1,3.32-1,6.26-6.87,2.54-9.61C93.82,78.25,96.14,72.19,93.6,69ZM34.16,24.76c2.33.83,6.08,5.13,7.53,7.12,1,1.32-.18,5.71-1.93,5.26-.63-.16-6.84-3.44-8.21-4.05C28.21,31.6,31.26,24.18,34.16,24.76ZM27.67,36c1.94,1.2,7.53,3.81,9,5.09a2.75,2.75,0,0,1-.13,4.39c-1.47,1.24-3.41.72-5.4-.19a80.67,80.67,0,0,1-7.64-4.12C21.69,40,24.55,34.12,27.67,36ZM20.75,49.53c-1.19-1.08-.4-4.7,1-4.7,2.48.56,8.34,4.21,9.23,5.11,1.72,1.73-.67,4.07-1.85,4C27,53.73,22.5,51.13,20.75,49.53ZM69.93,72.06c-1.22,2.72-2.76,7.34-4.9,10.21-1.69-1.15-3.6-1.81-5.43-2.83C57.67,77.84,58,73.35,58,72.56A1.54,1.54,0,0,0,55,72.34c-.48,2.8-3.3,2.65-3.49,2.74-5.79.4-10.77-4-15-7.37-4.52-3.65-6.43-5.66-12.27-6-3.82-.25-11.61,0-13.88,0-3.54,0-3.06-3.45-.84-4.15s9.26-1.34,11.58-1.63c1-.13,5.48-.56,6.72-.18,1.75.55,3.41.81,4.81-.69a5.48,5.48,0,0,0,1.3-5.1,4.23,4.23,0,0,0-.67-1.13c4.14.29,4.82-1.51,6.2-4a5.17,5.17,0,0,0-.25-4.55,3,3,0,0,0,1.67-.15c3.42-1.4,3.78-6,2.49-8.63a20.82,20.82,0,0,0-1.62-2.75l.83.48a33.32,33.32,0,0,1,5.1,3.23c2.51,1.39-2.72,8.48-3.11,11.21-.78,5.55,2.15,8.07,5.29,8.61,1.26.21,1.68-2,.3-2.14-2.8-.3-3.67-3.77-3.24-6.18.3-1.69,1.87-3.46,2.66-6.31s2.88-10.67,5.08-14.7c.79-1.44,4.32-8.86,6.47-6.19,1.25,1.55-.71,8.23-.91,9.64a40.27,40.27,0,0,0,3.21,22c.69,2.75.32,4.88-.18,7.66-.36,1.94,2.61,2.77,3,.82.21-1.12.42-2.19.57-3.26a17.54,17.54,0,0,0,6.8,5h0C74.52,61.81,70.86,70,69.93,72.06Zm17.82,4c-1.5-1.08-3.34,1.16-1.82,2.23.36.25,3,1.54,3.32,4,.19,1.31-.62,3.75-2.69,4.12-3.48.61-6.44-2.06-4-6.28.43-.75-7.8-4.5-7.66-4.66,2-2.43.31-4.76,1.66-6.38.19.11,8.13,5,8.22,4.6-.44-6.06,6.5-5.8,7.6-2.42C93.34,74.21,90.11,77.75,87.75,76Z"></path></g></svg>