<?xml version="1.0" encoding="UTF-8" standalone="no"?>
<svg
   xmlns:dc="http://purl.org/dc/elements/1.1/"
   xmlns:cc="http://creativecommons.org/ns#"
   xmlns:rdf="http://www.w3.org/1999/02/22-rdf-syntax-ns#"
   xmlns:svg="http://www.w3.org/2000/svg"
   xmlns="http://www.w3.org/2000/svg"
   xmlns:sodipodi="http://sodipodi.sourceforge.net/DTD/sodipodi-0.dtd"
   xmlns:inkscape="http://www.inkscape.org/namespaces/inkscape"
   version="1.0"
   x="0px"
   y="0px"
   viewBox="0 0 74.620003 41.199959"
   xml:space="preserve"
   id="svg16"
   inkscape:version="0.91 r13725"
   sodipodi:docname="bones_rock.svg"
   width="74.620003"
   height="41.199959"><metadata
     id="metadata26"><rdf:RDF><cc:Work
         rdf:about=""><dc:format>image/svg+xml</dc:format><dc:type
           rdf:resource="http://purl.org/dc/dcmitype/StillImage" /><dc:title></dc:title></cc:Work></rdf:RDF></metadata><defs
     id="defs24" /><sodipodi:namedview
     pagecolor="#ffffff"
     bordercolor="#666666"
     borderopacity="1"
     objecttolerance="10"
     gridtolerance="10"
     guidetolerance="10"
     inkscape:pageopacity="0"
     inkscape:pageshadow="2"
     inkscape:window-width="754"
     inkscape:window-height="480"
     id="namedview22"
     showgrid="false"
     fit-margin-top="0"
     fit-margin-left="0"
     fit-margin-right="0"
     fit-margin-bottom="0"
     inkscape:zoom="2.36"
     inkscape:cx="37.435"
     inkscape:cy="25.75622"
     inkscape:window-x="0"
     inkscape:window-y="0"
     inkscape:window-maximized="0"
     inkscape:current-layer="svg16" /><path
     d="m 69.10003,35.77997 0,-0.35999 C 69.10003,34 68.54998,32.70996 67.66003,31.75 69.59002,30.92999 70.94,29.00995 70.94,26.77997 l 0,-0.35999 C 70.94,25 70.39001,23.70996 69.5,22.75 c 1.92999,-0.82001 3.28003,-2.74005 3.28003,-4.97003 l 0,-0.35999 C 72.78003,16 72.23004,14.70996 71.34003,13.75 73.27002,12.92999 74.62,11.00995 74.62,8.77997 l 0,-0.35999 C 74.62,5.42999 72.19001,3 69.20002,3 L 55.47004,3 C 53.87,1.15997 51.51002,0 48.89002,0 l -8.37,0 c -4.13,0 -7.78998,2.08997 -9.97003,5.25995 l -12.56,0 c -3.63,0 -6.57996,2.95001 -6.57996,6.58002 l 0,5.53003 L 9.75,17.38996 C 9.54004,14.88996 7.44,12.93 4.89001,12.93 2.19,12.93 0,15.12 0,17.81995 c 0,1.25 0.48999,2.44 1.33002,3.33002 C 0.48999,22.03998 0,23.21998 0,24.47999 0,27.18 2.19,29.37 4.89001,29.37 7.41998,29.37 9.5,27.44996 9.75,24.99 l 1.66003,0 0,3.45996 c -0.92999,0.33002 -1.67004,1.07001 -2,2 l -1.03003,0 c -1.51001,0 -2.73999,1.24005 -2.73999,2.75 0,1.51001 1.22998,2.74005 2.73999,2.74005 l 22.16998,0 c 2.18005,3.16998 5.84003,5.25995 9.97003,5.25995 l 23.15998,0 c 2.98999,0 5.42004,-2.43 5.42004,-5.41999 z M 65.52001,23.19996 c 1.77997,0 3.21997,1.44 3.21997,3.22003 l 0,0.35999 c 0,1.78003 -1.44,3.22003 -3.21997,3.22003 l -10.69,0 c -1.77002,0 -3.21002,-1.44 -3.21002,-3.22003 l 0,-0.35999 c 0,-0.81 0.29999,-1.54999 0.79004,-2.10999 1.02997,0.38995 2.15997,0.60999 3.32996,0.60999 l 0.78003,0 c 0.60999,0 1.09998,-0.48999 1.09998,-1.10004 l 0,-0.62 7.90001,0 z m 1.83997,-9 c 1.78003,0 3.22003,1.44 3.22003,3.22003 l 0,0.35999 c 0,1.78003 -1.44,3.22003 -3.22003,3.22003 l -9.73999,0 0,-6.80005 9.73999,0 z m 1.84002,-9 c 1.78003,0 3.21997,1.44 3.21997,3.22003 l 0,0.35999 c 0,1.78003 -1.43994,3.22003 -3.21997,3.22003 l -11.58002,0 0,-3.27003 c 0,-1.26001 -0.26996,-2.45001 -0.75,-3.53003 l 12.33002,0 z M 4.89001,27.16999 c -1.47998,0 -2.69,-1.21002 -2.69,-2.69 0,-0.65002 0.25,-1.28003 0.66998,-1.76001 l 0.01001,0 c 1.77002,-0.37 3.06,-1.94 3.06,-3.76001 0,-0.60999 -0.48999,-1.09998 -1.09998,-1.09998 -0.60004,0 -1.10004,0.48999 -1.10004,1.09998 0,0.39001 -0.13995,0.76001 -0.38,1.04004 -0.71997,-0.5 -1.15997,-1.31 -1.15997,-2.18005 0,-1.48999 1.21002,-2.68994 2.69,-2.68994 1.47998,0 2.69,1.13995 2.69,2.62994 0,0.06 0,0.12006 0.02002,0.17004 -0.02002,0.15997 -0.02002,0.34998 -0.02002,0.57001 0,0.60999 0.48999,1.09998 1.09998,1.09998 l 0.07001,0 2.66003,-0.03998 2.19995,-0.03003 1.64001,-0.02002 c 0.91003,0 1.64001,0.73004 1.64001,1.64001 0,0.90002 -0.72998,1.64001 -1.64001,1.64001 l -8.20996,0 c -0.61005,0 -1.10004,0.48999 -1.10004,1.09998 0,0.60004 0.48999,1.10004 1.10004,1.10004 l 0.48999,0 C 7.29003,26.22998 6.2,27.16999 4.89001,27.16999 Z m 3.48999,6.57 c -0.29999,0 -0.53998,-0.23999 -0.53998,-0.54004 0,-0.29999 0.23999,-0.53998 0.53998,-0.53998 l 1.94,0 c 0.60999,0 1.09998,-0.5 1.09998,-1.09998 0,-0.61005 0.49005,-1.10004 1.09003,-1.10004 0.60999,0 1.09998,-0.48999 1.09998,-1.09998 l 0,-4.37 1.64001,0 c 2.12,0 3.84003,-1.73004 3.84003,-3.84003 0,-2.12 -1.72003,-3.83997 -3.84003,-3.83997 l -1.64001,0.01996 0,-5.48999 c 0,-2.41998 1.97003,-4.38 4.38,-4.38 0.38,0 0.75,0.04999 1.10004,0.15002 1.13,0.27997 2.09998,1.02002 2.69,2.02997 l -2.15002,0 c -0.19,0 -0.37,0.02002 -0.53998,0.06 -1.25,0.25 -2.20001,1.36005 -2.20001,2.68005 0,1.32996 0.95001,2.43994 2.20001,2.68994 0.16998,0.04004 0.34998,0.06006 0.53998,0.06006 l 0.54999,0 0,0.53998 c 0,1.32001 0.94,2.42999 2.19,2.69 l 0,11 c 0,2.03998 -1.39996,3.75 -3.27997,4.22998 -0.35004,0.10004 -0.72003,0.15002 -1.10004,0.15002 l -9.60999,0 z m 14.5,0 c 1.04999,-1.16003 1.69,-2.69 1.69,-4.38 l 0,-12.04999 c 0,-0.60004 -0.48999,-1.10004 -1.09998,-1.10004 l -0.55005,0 c -0.29999,0 -0.53998,-0.23999 -0.53998,-0.53998 l 0,-1.64001 c 0,-0.60999 -0.5,-1.09998 -1.09998,-1.09998 l -1.65002,0 c -0.29999,0 -0.53998,-0.25 -0.53998,-0.54999 0,-0.30005 0.23999,-0.54004 0.53998,-0.54004 l 3.72998,0 c 0.33002,0 0.64001,-0.14996 0.85004,-0.39996 0.20996,-0.26001 0.28998,-0.59003 0.22998,-0.92004 C 24.2,9.34998 23.66002,8.29999 22.89,7.45996 l 6.45001,0 c -0.59003,1.42999 -0.92004,3 -0.92004,4.64001 l 0,17 c 0,1.64001 0.33002,3.21002 0.92004,4.64001 l -6.46001,0 z M 40.52001,39 c -2.81,0 -5.35004,-1.17004 -7.15002,-3.06 -0.32996,-0.34003 -0.63995,-0.71002 -0.90997,-1.10004 -0.25,-0.34998 -0.47998,-0.71997 -0.67999,-1.09998 C 31.04004,32.35998 30.62,30.77996 30.62,29.09997 l 0,-17 c 0,-1.67999 0.42004,-3.26001 1.16003,-4.64001 0.20001,-0.38 0.42999,-0.75 0.67999,-1.09998 0.27002,-0.39001 0.58002,-0.76001 0.90997,-1.10004 1.79999,-1.88995 4.34003,-3.06 7.15002,-3.06 l 0.77997,0 0,-0.01996 c 0.07001,0.01001 0.14001,0.01996 0.22003,0.01996 l 7.37,0 c 1.41998,0 2.73999,0.46002 3.81,1.24005 0.67999,0.47998 1.26001,1.08997 1.70001,1.79999 0.64996,1.01001 1.01996,2.20996 1.01996,3.48999 l 0,13.97998 c -1.18994,-0.06 -2.31,-0.40997 -3.27997,-0.97998 -1.03998,-0.59998 -1.90997,-1.47003 -2.52002,-2.51001 -0.63995,-1.06 -1,-2.29999 -1,-3.62 l 0,-5.5 c 0,-0.60999 -0.48999,-1.09998 -1.09998,-1.09998 l -3,0 c -0.60999,0 -1.10004,0.48999 -1.10004,1.09998 l 0,1.54999 c 0,2.87 -2.27997,5.22003 -5.12,5.34003 -0.07996,0.01001 -0.14996,0.01001 -0.22998,0.01001 -0.60999,0 -1.09998,0.48999 -1.09998,1.09998 0,0.60999 0.48999,1.09998 1.09998,1.09998 4.16003,0 7.54999,-3.38995 7.54999,-7.54999 l 0,-0.45001 0.79999,0 0,4.40003 c 0,3.16998 1.59003,5.97998 4.02002,7.66998 -0.64001,0.89001 -1.02002,1.97003 -1.02002,3.15002 l 0,0.35999 c 0,1.77002 0.85004,3.34003 2.16003,4.32001 -1.31,0.97998 -2.16003,2.54999 -2.16003,4.32001 l 0,0.35999 c 0,1.21002 0.40002,2.32001 1.07001,3.22003 l -9.96997,0 z m 14.31,0 c -1.77002,0 -3.21002,-1.44 -3.21002,-3.22003 l 0,-0.35999 c 0,-1.78003 1.44,-3.22003 3.21002,-3.22003 l 8.84998,0 c 1.78003,0 3.22003,1.44 3.22003,3.22003 l 0,0.35999 C 66.90002,37.56 65.46002,39 63.67999,39 l -8.84998,0 z"
     id="path18"
     inkscape:connector-curvature="0" /><path
     d="m 19.03498,11.23372 0,0.22003 -0.01996,0 c 0.01001,-0.07001 0.01996,-0.14001 0.01996,-0.22003 z"
     id="path20"
     inkscape:connector-curvature="0" /></svg>