<?xml version="1.0" encoding="UTF-8" standalone="no"?>
<svg
   xmlns:dc="http://purl.org/dc/elements/1.1/"
   xmlns:cc="http://creativecommons.org/ns#"
   xmlns:rdf="http://www.w3.org/1999/02/22-rdf-syntax-ns#"
   xmlns:svg="http://www.w3.org/2000/svg"
   xmlns="http://www.w3.org/2000/svg"
   xmlns:sodipodi="http://sodipodi.sourceforge.net/DTD/sodipodi-0.dtd"
   xmlns:inkscape="http://www.inkscape.org/namespaces/inkscape"
   version="1.1"
   x="0px"
   y="0px"
   viewBox="0 0 107.92408 41.640102"
   enable-background="new 0 0 100 100"
   xml:space="preserve"
   id="svg14"
   inkscape:version="0.91 r13725"
   sodipodi:docname="comic_hans_rock.svg"
   width="107.92408"
   height="41.640102"><metadata
     id="metadata24"><rdf:RDF><cc:Work
         rdf:about=""><dc:format>image/svg+xml</dc:format><dc:type
           rdf:resource="http://purl.org/dc/dcmitype/StillImage" /><dc:title></dc:title></cc:Work></rdf:RDF></metadata><defs
     id="defs22" /><sodipodi:namedview
     pagecolor="#ffffff"
     bordercolor="#666666"
     borderopacity="1"
     objecttolerance="10"
     gridtolerance="10"
     guidetolerance="10"
     inkscape:pageopacity="0"
     inkscape:pageshadow="2"
     inkscape:window-width="756"
     inkscape:window-height="480"
     id="namedview20"
     showgrid="false"
     fit-margin-top="0"
     fit-margin-left="0"
     fit-margin-right="0"
     fit-margin-bottom="0"
     inkscape:zoom="2.36"
     inkscape:cx="57.012505"
     inkscape:cy="20.578164"
     inkscape:window-x="0"
     inkscape:window-y="0"
     inkscape:window-maximized="0"
     inkscape:current-layer="svg14" /><g
     id="g16"
     transform="matrix(-0.70710678,-0.70710678,-0.70710678,0.70710678,126.43258,20.26321)"><path
       d="m 95.065,78.958 c -0.043,-0.054 -4.279,-5.472 -6.366,-9.246 -1.019,-1.841 -2.15,-2.779 -3.245,-3.688 -1.312,-1.088 -2.552,-2.115 -3.583,-4.891 -0.028,-0.076 -0.08,-0.134 -0.123,-0.198 0.151,-0.796 0.216,-1.503 0.166,-2.082 -0.292,-3.376 -2.57,-3.74 -3.536,-3.74 -1.446,0 -2.78,0.692 -2.927,0.771 -0.157,0.085 -0.289,0.209 -0.382,0.361 l -1.036,1.699 C 57.944,47.55 46.943,37.678 42.192,29.348 42.012,26.401 40.697,9.1 34.575,6.395 33.069,5.731 31.453,5.954 29.762,7.042 28.417,5.108 26.148,2.887 23.194,3.878 c -1.099,0.369 -1.931,1.107 -2.405,2.136 -0.626,1.356 -0.563,3.017 -0.321,4.394 -1.562,-0.63 -3.549,-0.724 -5.5,0.841 -2.075,1.665 -1.878,4.125 -1.154,6.18 -0.46,-0.243 -0.892,-0.424 -1.246,-0.49 -1.509,-0.284 -3.76,0.436 -4.952,2.324 -0.671,1.062 -1.383,3.136 0.054,6.28 -0.562,-0.083 -1.102,-0.035 -1.537,0.242 -1.294,0.821 -2.18,2.373 -2.37,4.153 -0.255,2.392 0.759,4.846 2.856,6.912 5.691,5.605 11.706,10.876 22.612,13.788 2.277,1.758 27.873,21.541 33.088,26.226 -0.955,1.156 -2.481,3.377 -2.016,5.328 0.188,0.79 0.782,1.855 2.541,2.448 1.276,0.431 2.353,0.64 3.288,0.64 0.474,0 0.893,-0.068 1.291,-0.165 1.966,0.223 6.856,1.296 8.133,3.884 1.914,3.884 5.723,6.973 5.885,7.102 0.185,0.148 0.405,0.221 0.625,0.221 0.293,0 0.583,-0.128 0.78,-0.374 0.346,-0.43 0.277,-1.06 -0.153,-1.405 -0.035,-0.029 -3.622,-2.936 -5.344,-6.428 -1.317,-2.67 -4.846,-3.955 -7.311,-4.546 0.613,-0.612 1.185,-1.349 1.805,-2.15 l 0.296,-0.382 c 1.858,-2.389 6.704,-10.945 8.801,-17.144 1.029,1.837 2.186,2.8 3.237,3.672 0.996,0.826 1.937,1.606 2.772,3.117 2.165,3.914 6.364,9.285 6.542,9.512 0.197,0.251 0.491,0.383 0.788,0.383 0.216,0 0.433,-0.069 0.616,-0.213 0.435,-0.343 0.511,-0.971 0.17,-1.406 z M 29.936,48.755 C 19.38,45.979 13.547,40.866 8.021,35.424 6.367,33.796 5.561,31.923 5.75,30.15 c 0.148,-1.388 0.847,-2.292 1.388,-2.646 0.337,-0.07 1.493,0.389 2.39,0.952 0.407,0.255 0.937,0.185 1.263,-0.165 C 11.118,27.94 11.15,27.408 10.869,27.02 8.87,24.275 8.315,21.9 9.306,20.331 c 0.686,-1.085 2.035,-1.586 2.895,-1.425 0.607,0.113 2.44,1.358 3.79,2.446 0.393,0.317 0.961,0.292 1.324,-0.06 0.363,-0.352 0.406,-0.918 0.102,-1.321 -0.038,-0.05 -3.749,-5.112 -1.197,-7.161 2.556,-2.054 4.938,0.329 5.199,0.604 0.328,0.354 0.861,0.421 1.267,0.164 0.407,-0.258 0.572,-0.769 0.394,-1.216 -0.389,-0.976 -1.233,-3.87 -0.473,-5.511 0.249,-0.537 0.638,-0.879 1.225,-1.077 2.057,-0.691 3.836,1.614 4.771,3.173 l 3.51,9.558 c 0.191,0.519 0.766,0.787 1.283,0.594 0.519,-0.19 0.784,-0.765 0.594,-1.283 L 31.17,10.138 C 31.229,9.927 31.235,9.699 31.142,9.481 31.119,9.427 31,9.153 30.796,8.757 c 1.12,-0.735 2.099,-0.918 2.971,-0.532 4.408,1.947 6.145,16.158 6.442,21.469 0.009,0.152 0.052,0.3 0.126,0.433 4.921,8.787 15.915,18.719 32.657,29.527 L 63.495,75.235 C 57.514,69.942 31.471,49.84 30.292,48.931 30.187,48.849 30.065,48.789 29.936,48.755 Z m 40.625,31.052 -0.299,0.386 c -1.656,2.141 -2.459,3.087 -4.13,3.087 -0.715,0 -1.582,-0.175 -2.649,-0.534 -1.077,-0.363 -1.195,-0.855 -1.233,-1.017 -0.292,-1.219 1.34,-3.374 2.176,-4.227 0.054,-0.055 0.102,-0.115 0.141,-0.181 L 75.193,59.887 c 0.001,-10e-4 0.002,-0.002 0.003,-0.003 0.001,-10e-4 0.001,-0.002 0.001,-0.003 l 1.426,-2.34 c 0.354,-0.155 1.068,-0.427 1.756,-0.427 0.447,0 1.378,0 1.544,1.913 0.367,4.236 -6.975,17.709 -9.362,20.78 z"
       id="path18"
       inkscape:connector-curvature="0" /></g></svg>