<?xml version="1.0" encoding="UTF-8" standalone="no"?>
<svg
   xmlns:dc="http://purl.org/dc/elements/1.1/"
   xmlns:cc="http://creativecommons.org/ns#"
   xmlns:rdf="http://www.w3.org/1999/02/22-rdf-syntax-ns#"
   xmlns:svg="http://www.w3.org/2000/svg"
   xmlns="http://www.w3.org/2000/svg"
   xmlns:sodipodi="http://sodipodi.sourceforge.net/DTD/sodipodi-0.dtd"
   xmlns:inkscape="http://www.inkscape.org/namespaces/inkscape"
   version="1.1"
   x="0px"
   y="0px"
   viewBox="0 0 118.13406 53.324471"
   enable-background="new 0 0 100 100"
   xml:space="preserve"
   id="svg2"
   inkscape:version="0.91 r13725"
   sodipodi:docname="comic_hans_paper.svg"
   width="118.13406"
   height="53.324471"><metadata
     id="metadata12"><rdf:RDF><cc:Work
         rdf:about=""><dc:format>image/svg+xml</dc:format><dc:type
           rdf:resource="http://purl.org/dc/dcmitype/StillImage" /><dc:title></dc:title></cc:Work></rdf:RDF></metadata><defs
     id="defs10" /><sodipodi:namedview
     pagecolor="#ffffff"
     bordercolor="#666666"
     borderopacity="1"
     objecttolerance="10"
     gridtolerance="10"
     guidetolerance="10"
     inkscape:pageopacity="0"
     inkscape:pageshadow="2"
     inkscape:window-width="754"
     inkscape:window-height="480"
     id="namedview8"
     showgrid="false"
     fit-margin-top="0"
     fit-margin-left="0"
     fit-margin-right="0"
     fit-margin-bottom="0"
     inkscape:zoom="2.36"
     inkscape:cx="59.972868"
     inkscape:cy="28.660847"
     inkscape:window-x="0"
     inkscape:window-y="0"
     inkscape:window-maximized="0"
     inkscape:current-layer="svg2" /><g
     id="g4"
     transform="matrix(-0.70710678,0.70710678,-0.70710678,-0.70710678,134.69991,26.038379)"><path
       d="M 94.981,94.567 C 94.736,94.058 89.122,82.443 82.697,76.139 c 0.765,-0.985 1.207,-2.247 0.757,-3.747 -0.538,-1.789 -1.891,-2.775 -3.809,-2.775 -1.045,0 -1.893,0.299 -2.042,0.355 -0.099,0.043 -0.484,0.212 -1.086,0.482 C 74.546,67.496 59.802,45.314 58.169,41.183 57.222,38.786 56.517,34.584 55.834,30.52 55.261,27.108 54.668,23.58 53.92,21.071 52.409,15.996 48.14,6.454 42.824,6.573 41.29,6.614 40.565,7.311 40.226,7.889 c -1.134,1.937 0.379,5.147 2.169,8.545 0.199,0.377 0.378,0.719 0.524,1.01 0.585,1.172 1.229,3.498 1.214,4.49 C 43.341,21.355 42.13,19.247 41.137,17.519 39.906,15.375 38.51,12.946 36.919,11.278 36.452,10.788 35.976,10.272 35.497,9.752 32.349,6.339 29.091,2.809 26.308,4.375 c -0.852,0.478 -1.417,1.192 -1.635,2.066 -0.444,1.779 0.68,3.6 0.867,3.882 0.075,0.094 7.505,9.508 9.713,13.896 0.086,0.285 0.03,1.036 -0.1,1.524 -0.743,-0.788 -1.908,-1.836 -3.358,-3.141 -2.543,-2.288 -6.025,-5.42 -9.104,-8.89 -2.833,-3.192 -5.352,-4.674 -7.489,-4.397 -1.397,0.179 -2.289,1.089 -2.663,1.702 -0.827,0.841 -1.233,1.796 -1.207,2.839 0.048,1.981 1.68,4.309 5.134,7.326 4.477,3.911 11.268,10.975 11.735,12.917 -0.557,-0.094 -2.075,-0.833 -6.108,-4.546 L 21.825,29.307 C 21.003,28.554 10.948,21.079 7.248,23.194 c -1.256,0.719 -1.981,1.985 -1.99,3.474 -0.016,2.379 1.742,4.897 4.584,6.57 0.884,0.52 2.134,1.205 3.578,1.994 4.334,2.372 10.884,5.955 13.661,8.593 0.688,0.653 1.073,1.108 1.29,1.408 -1.037,-0.132 -6.05,-0.785 -9.001,-1.374 -1.82,-0.364 -6.2,-0.992 -7.605,1.01 -0.678,0.967 -0.55,2.237 0.38,3.773 4.479,7.399 20.344,5.726 22.619,5.442 3.738,1.585 14.561,18.151 20.699,28.544 -0.458,0.444 -0.857,0.878 -1.164,1.297 -0.662,0.904 -1.104,3.312 -0.356,4.787 0.441,0.87 1.229,1.349 2.218,1.349 0.61,0 1.279,-0.178 2.046,-0.546 0.339,-0.163 0.773,-0.377 1.273,-0.627 0.82,1.11 2.576,3.226 6.3,7.652 0.198,0.235 0.481,0.356 0.767,0.356 0.227,0 0.455,-0.077 0.643,-0.234 0.423,-0.355 0.478,-0.986 0.122,-1.409 -2.326,-2.765 -4.866,-5.83 -6.016,-7.284 6.181,-3.158 17.521,-9.152 18.507,-9.673 0.43,-0.176 0.935,-0.442 1.435,-0.79 6.2,6.046 11.884,17.805 11.942,17.927 0.171,0.358 0.528,0.567 0.901,0.567 0.145,0 0.292,-0.031 0.432,-0.099 0.498,-0.239 0.708,-0.836 0.468,-1.334 z M 48.47,67.743 C 38.811,53.226 36.07,52.384 35.169,52.106 35.03,52.063 34.884,52.05 34.739,52.072 34.572,52.095 17.903,54.295 13.856,47.607 13.32,46.722 13.271,46.206 13.402,46.018 c 0.445,-0.634 2.946,-0.722 5.576,-0.198 3.358,0.671 9.093,1.392 9.32,1.42 0.8,0.112 1.795,-0.062 2.195,-0.892 C 31.089,45.115 29.8,43.647 28.46,42.374 25.494,39.557 19.071,36.042 14.38,33.477 12.959,32.699 11.727,32.026 10.857,31.514 8.188,29.943 7.249,27.927 7.257,26.678 7.26,26.135 7.433,25.39 8.24,24.928 c 1.85,-1.059 9.881,3.697 12.232,5.852 l 0.265,0.243 c 3.575,3.292 6.312,5.405 8.065,5.039 0.582,-0.123 1.038,-0.5 1.283,-1.062 1.43,-3.276 -11.743,-14.835 -12.305,-15.325 -2.919,-2.551 -4.417,-4.526 -4.45,-5.869 -0.013,-0.526 0.204,-0.975 0.704,-1.457 0.072,-0.069 0.142,-0.165 0.19,-0.253 0.016,-0.028 0.398,-0.706 1.262,-0.802 0.808,-0.092 2.629,0.274 5.708,3.744 3.154,3.554 6.685,6.73 9.263,9.05 1.506,1.355 2.696,2.426 3.362,3.157 1.099,1.204 2.072,0.688 2.344,0.5 C 37.351,26.929 37.5,24.244 37.062,23.37 34.742,18.751 27.419,9.474 27.166,9.162 26.959,8.839 26.412,7.734 26.614,6.924 c 0.053,-0.213 0.181,-0.529 0.673,-0.806 1.408,-0.79 4.49,2.55 6.741,4.989 0.487,0.528 0.971,1.052 1.445,1.55 1.424,1.494 2.756,3.812 3.931,5.857 1.606,2.796 2.875,5.005 4.401,5.468 1.041,0.315 1.631,-0.216 1.836,-0.459 1.457,-1.726 -0.907,-6.922 -0.933,-6.973 -0.151,-0.303 -0.338,-0.658 -0.544,-1.049 -0.861,-1.635 -2.878,-5.464 -2.212,-6.602 0.12,-0.204 0.431,-0.314 0.924,-0.328 3.619,-0.083 7.494,7.587 9.128,13.071 0.713,2.391 1.295,5.857 1.857,9.209 0.7,4.166 1.423,8.473 2.448,11.066 1.685,4.267 15.772,25.487 18.366,29.379 -4.466,2.076 -12.921,6.23 -17.68,9.998 -1.019,-1.708 -4.554,-7.582 -8.525,-13.551 z m 30.539,8.716 c -0.033,0.013 -0.065,0.028 -0.098,0.045 -0.154,0.081 -13.568,7.174 -19.56,10.209 -10e-4,0 -10e-4,0 -0.002,0.001 -10e-4,0 -10e-4,0.001 -10e-4,0.001 -0.828,0.419 -1.517,0.763 -2.006,0.998 -0.602,0.288 -0.975,0.349 -1.181,0.349 -0.256,0 -0.346,-0.083 -0.43,-0.246 -0.384,-0.74 -0.074,-2.345 0.182,-2.708 3.734,-5.094 22.303,-13.22 22.431,-13.277 0.006,-0.002 0.605,-0.213 1.303,-0.213 1.028,0 1.612,0.417 1.893,1.352 0.323,1.075 -0.261,1.926 -0.948,2.519 -0.011,0.011 -0.026,0.015 -0.036,0.026 -0.003,0.003 -0.003,0.007 -0.006,0.01 -0.696,0.584 -1.478,0.908 -1.541,0.934 z"
       id="path6"
       inkscape:connector-curvature="0" /></g></svg>