<svg xmlns="http://www.w3.org/2000/svg" xmlns:xlink="http://www.w3.org/1999/xlink" version="1.1" x="0px" y="0px" viewBox="0 0 100 100" enable-background="new 0 0 100 100" xml:space="preserve"><g><g><path d="M80.255,95.872c-0.371,0-0.728-0.207-0.9-0.563c-3.036-6.25-5.04-9.64-10.131-13.435    c-2.105-0.565-13.769-3.976-12.968-9.921c0.093-0.685,0.471-1.219,1.064-1.504c0.362-0.174,0.801-0.238,1.309-0.213    c-3.039-2.285-6.419-4.859-8.104-6.247c-1.938-1.596-5.139-4.626-4.791-6.983c0.152-1.031,0.689-1.787,1.512-2.127    c1.358-0.56,3.234,0.071,5.734,1.934c1.204,0.897,2.674,2.042,4.156,3.198c1.422,1.108,3.131,2.44,4.506,3.46    c-0.619-1.014-1.372-2.253-2.13-3.666c-0.515-0.962-1.048-1.925-1.566-2.862c-2.248-4.064-3.632-6.639-3.742-8.295    c-0.098-1.46,0.717-3.304,2.201-3.736c1-0.291,2.506-0.056,4.016,2.707c0.685,1.254,1.505,2.66,2.373,4.148    c1.741,2.984,3.674,6.297,4.97,9.189c0.455-0.496,1.056-0.966,1.82-1.21c0.98-0.314,2.023-0.207,3.104,0.314    c0.652-0.819,1.82-1.95,3.363-2.059c1.342-0.099,2.582,0.588,3.701,2.022c2.981,3.821,5.934,10.425,5.41,17.616    c1.064,1.38,5.571,7.221,10.302,13.283c0.34,0.436,0.263,1.063-0.173,1.403c-0.437,0.34-1.064,0.263-1.403-0.173    c-5.42-6.945-10.546-13.6-10.546-13.6c-0.154-0.199-0.227-0.449-0.204-0.7c0.612-6.764-2.162-13.01-4.962-16.6    c-0.686-0.878-1.373-1.3-1.98-1.258c-1.062,0.071-2.054,1.387-2.346,1.888c-0.139,0.238-0.371,0.41-0.641,0.473    c-0.268,0.061-0.553,0.01-0.781-0.143c-0.853-0.572-1.602-0.761-2.229-0.565c-0.928,0.291-1.542,1.408-1.7,1.814    c-0.15,0.384-0.521,0.639-0.933,0.639c-0.004,0-0.007,0-0.01,0c-0.416-0.005-0.786-0.263-0.93-0.653    c-1.135-3.089-3.486-7.119-5.561-10.675c-0.875-1.501-1.702-2.918-2.401-4.197c-0.835-1.528-1.48-1.81-1.7-1.745    c-0.376,0.109-0.814,0.945-0.765,1.683c0.086,1.295,1.819,4.429,3.496,7.459c0.522,0.945,1.06,1.916,1.58,2.886    c0.772,1.441,1.55,2.713,2.174,3.733c1.232,2.016,1.742,2.85,1.494,3.626c-0.104,0.326-0.345,0.59-0.659,0.725    c-0.84,0.359-1.48,0.022-8.378-5.355c-1.471-1.146-2.927-2.281-4.122-3.172c-2.725-2.031-3.677-1.729-3.775-1.688    c-0.15,0.062-0.25,0.254-0.297,0.571c-0.134,0.907,1.622,3.12,4.084,5.146c3.364,2.772,13.985,10.634,14.092,10.713    c0.429,0.317,0.533,0.916,0.236,1.359s-0.889,0.579-1.347,0.301c-2.799-1.684-5.944-2.911-6.593-2.565    c-0.45,3.701,8.541,6.906,11.73,7.735c0.124,0.032,0.24,0.088,0.343,0.163c5.754,4.247,7.955,8.229,10.895,14.284    c0.241,0.496,0.034,1.095-0.463,1.336C80.55,95.84,80.401,95.872,80.255,95.872z"></path></g><g><path d="M34.363,57.836c-1.769,0-3.532-0.208-4.895-0.468c-1.699-0.323-3.93-1.042-6.088-1.736    c-2.542-0.818-5.169-1.664-6.805-1.831c-0.662-0.069-5.602,0.358-8.553,0.614c-1.137,0.098-2.171,0.187-2.943,0.249    c-0.552,0.034-1.033-0.366-1.076-0.917C3.959,53.196,4.37,52.714,4.92,52.67c0.768-0.062,1.798-0.15,2.93-0.248    c4.73-0.407,8.138-0.688,8.928-0.611c1.846,0.188,4.576,1.067,7.215,1.917c2.1,0.677,4.272,1.376,5.849,1.676    c4.121,0.785,9.089,0.56,9.93-1.176c0.108-0.222,0.099-0.316,0.099-0.317c-0.24-0.353-1.642-0.512-4.183-0.516    c-0.291,0.003-0.555,0.003-0.778,0.001c-0.04-0.001-3.97-0.159-4.634-1.767c-0.22-0.532-0.087-1.122,0.357-1.577    c0.822-0.844,2.457-0.915,4.721-1.014c1.518-0.066,3.237-0.141,4.489-0.506c0.432-0.126,0.881-0.249,1.334-0.373    c1.637-0.448,4.684-1.282,4.658-2.061c-0.007-0.228-0.078-0.32-0.145-0.38c-0.27-0.241-0.871-0.284-1.164-0.271    c-0.79,0.152-8.003,1.507-11.271,1.474c-0.771-0.009-2.463-1.004-2.605-2.137c-0.073-0.586,0.216-1.311,1.248-1.587    c0.605-0.162,1.623-0.545,2.801-0.989c2.125-0.801,5.035-1.897,8.06-2.663c2.867-0.726,3.499-1.613,3.638-1.96    c0.14-0.353-0.029-0.636-0.049-0.667c-0.049-0.078-0.105-0.188-0.131-0.277c-0.126-0.423-0.299-0.556-0.451-0.63    c-0.393-0.191-1.494-0.337-4.455,0.828c-2.656,1.045-11.438,4.304-12.964,2.424c-0.324-0.4-0.429-0.888-0.295-1.373    c0.352-1.271,2.386-2.241,5.553-3.394l0.219-0.08c2.12-0.776,6.874-3.962,6.831-4.988c-0.015-0.358-0.189-0.621-0.533-0.801    c-0.641-0.337-1.949-0.376-3.534,0.621c-0.556,0.349-1.312,0.858-2.186,1.446c-2.909,1.957-6.892,4.637-9.456,5.524    c-1.257,0.436-2.634,0.76-3.303-0.134c-0.473-0.63-0.239-1.42,0.137-1.949c0.082-0.119,2.226-3.234,3.629-4.988    c1.105-1.381,1.594-2.582,1.52-2.908c-0.014,0.011-0.146-0.039-0.473-0.039c-0.073,0-0.156,0.002-0.25,0.008    c-4.032,0.269-7.536,7.689-8.545,10.525c-0.049,0.137-0.127,0.262-0.229,0.366c-1.077,1.097-8.963,4.361-12.271,4.902    c-0.544,0.09-1.06-0.28-1.148-0.825c-0.089-0.545,0.28-1.059,0.825-1.148c3.167-0.519,9.815-3.416,11.038-4.235    c0.67-1.775,4.492-11.2,10.197-11.58c1.642-0.107,2.338,0.536,2.63,1.098c0.803,1.537-0.741,3.846-1.732,5.085    c-0.917,1.146-2.206,2.957-2.952,4.022c0.085-0.027,0.176-0.057,0.273-0.091c2.318-0.802,6.335-3.505,8.994-5.294    c0.894-0.602,1.669-1.123,2.238-1.48c1.926-1.21,4.044-1.479,5.528-0.698c0.972,0.511,1.555,1.417,1.6,2.487    c0.136,3.248-8.058,6.919-8.141,6.95l-0.224,0.082c-1.793,0.652-2.856,1.131-3.483,1.475c2.221-0.298,6.898-1.742,9.772-2.873    c2.919-1.149,4.789-1.385,6.062-0.765c0.692,0.337,1.18,0.917,1.451,1.726c0.205,0.36,0.583,1.239,0.192,2.31    c-0.524,1.435-2.218,2.523-5.034,3.236c-2.916,0.738-5.765,1.812-7.845,2.596c-0.84,0.316-1.564,0.589-2.162,0.792    c0.042,0.021,0.079,0.038,0.112,0.049c0.019,0,0.037,0,0.056,0c3.274,0,10.72-1.435,10.796-1.45    c0.27-0.029,1.798-0.143,2.804,0.743c0.514,0.454,0.799,1.082,0.824,1.816c0.079,2.358-3.077,3.222-6.129,4.057    c-0.442,0.121-0.881,0.241-1.303,0.364c-1.483,0.433-3.331,0.513-4.961,0.584c-0.637,0.027-1.446,0.062-2.12,0.133    c0.574,0.127,1.205,0.221,1.619,0.227c0.21,0.002,0.46,0.002,0.735-0.001c2.605-0.011,5.019,0.081,5.896,1.469    c0.28,0.444,0.508,1.192,0.002,2.237C40.553,57.202,37.45,57.836,34.363,57.836z"></path></g><path d="M93.279,3.768c-0.482-0.271-1.093-0.097-1.36,0.386c-4.362,7.818-9.49,17.278-9.541,17.373   c-0.064,0.118-0.104,0.247-0.116,0.38c-0.763,7.859-3.745,12.623-6.997,17.204c-0.931,1.312-2.112,2.07-3.327,2.136   c-0.848,0.046-1.479-0.259-1.803-0.564c-0.016-0.292,0.167-1.017,0.406-1.583c0.187-0.441,0.033-0.953-0.364-1.22   c-0.398-0.267-0.931-0.213-1.267,0.126c-1.661,1.677-3.203,2.332-4.338,1.847c-0.8-0.341-1.21-1.185-1.198-1.663   c0.014-0.362,0.613-1.71,1.284-2.887c0.249-0.438,0.133-0.993-0.271-1.295c-0.404-0.302-0.971-0.256-1.32,0.108   c-0.03,0.031-3.071,3.101-4.642,1.684c-1.591-1.435-0.289-3.249-0.139-3.447c0.296-0.38,0.278-0.917-0.041-1.278   c-0.32-0.362-0.853-0.44-1.264-0.193c-0.586,0.352-2.523,1.279-3.698,0.955c-0.345-0.096-0.577-0.288-0.753-0.623   c-0.648-1.231,0.673-2.641,1.63-3.448l6.465-3.637c0.481-0.271,0.652-0.88,0.381-1.362c-0.271-0.481-0.88-0.653-1.361-0.381   l-5.144,2.893c-0.185-0.002-0.371,0.03-0.539,0.135c-0.096,0.061-0.197,0.128-0.297,0.197c-0.701-0.863-0.562-1.432-0.508-1.643   c0.758-2.902,9.3-5.801,14.506-6.946c0.148-0.033,0.288-0.099,0.407-0.193c3.087-2.45,6.252-6.251,9.407-11.296   c0.293-0.468,0.15-1.085-0.317-1.378c-0.469-0.295-1.086-0.15-1.378,0.317c-2.973,4.753-5.926,8.334-8.778,10.648   c-2.291,0.521-14.52,3.512-15.781,8.342c-0.221,0.847-0.188,2.076,0.915,3.428c-1.361,1.39-2.402,3.312-1.378,5.255   c0.429,0.815,1.115,1.375,1.984,1.618c0.958,0.266,2.013,0.119,2.928-0.149c-0.153,1.177,0.131,2.515,1.412,3.671   c1.311,1.181,2.902,1.058,4.343,0.428c-0.032,0.155-0.052,0.3-0.055,0.429c-0.03,1.241,0.79,2.859,2.415,3.551   c0.847,0.36,2.383,0.642,4.396-0.557c0.06,0.297,0.178,0.57,0.377,0.795c0.743,0.837,1.927,1.321,3.207,1.321   c0.092,0,0.185-0.002,0.277-0.007c1.836-0.1,3.559-1.156,4.85-2.976c3.387-4.771,6.496-9.738,7.337-17.965   c0.725-1.336,5.406-9.958,9.433-17.174C93.935,4.646,93.762,4.037,93.279,3.768z"></path></g></svg>