<?xml version="1.0" encoding="UTF-8" standalone="no"?>
<svg
   xmlns:dc="http://purl.org/dc/elements/1.1/"
   xmlns:cc="http://creativecommons.org/ns#"
   xmlns:rdf="http://www.w3.org/1999/02/22-rdf-syntax-ns#"
   xmlns:svg="http://www.w3.org/2000/svg"
   xmlns="http://www.w3.org/2000/svg"
   xmlns:sodipodi="http://sodipodi.sourceforge.net/DTD/sodipodi-0.dtd"
   xmlns:inkscape="http://www.inkscape.org/namespaces/inkscape"
   version="1.1"
   x="0px"
   y="0px"
   viewBox="0 0 73.720703 55.034809"
   overflow="scroll"
   xml:space="preserve"
   id="svg2"
   inkscape:version="0.91 r13725"
   sodipodi:docname="gato_paper.svg"
   width="73.720703"
   height="55.034809"
   style="overflow:scroll"><metadata
     id="metadata10"><rdf:RDF><cc:Work
         rdf:about=""><dc:format>image/svg+xml</dc:format><dc:type
           rdf:resource="http://purl.org/dc/dcmitype/StillImage" /><dc:title></dc:title></cc:Work></rdf:RDF></metadata><defs
     id="defs8" /><sodipodi:namedview
     pagecolor="#ffffff"
     bordercolor="#666666"
     borderopacity="1"
     objecttolerance="10"
     gridtolerance="10"
     guidetolerance="10"
     inkscape:pageopacity="0"
     inkscape:pageshadow="2"
     inkscape:window-width="754"
     inkscape:window-height="480"
     id="namedview6"
     showgrid="false"
     fit-margin-top="0"
     fit-margin-left="0"
     fit-margin-right="0"
     fit-margin-bottom="0"
     inkscape:zoom="2.6222222"
     inkscape:cx="36.85906"
     inkscape:cy="27.531565"
     inkscape:window-x="0"
     inkscape:window-y="0"
     inkscape:window-maximized="0"
     inkscape:current-layer="svg2" /><path
     d="M 0,33.860005 C 0,24.549458 6.0214846,16.227193 14.65625,13.584615 L 36.271485,0.61244727 c 0.989258,-0.603516 2.160156,-0.767578 3.295898,-0.462891 1.163086,0.3125 2.123535,1.07177703 2.700684,2.13134803 l 0.629883,1.132324 c 1.573242,2.795898 0.648925,6.415039 -2.06543,8.0683587 l -5.280762,3.175293 27.894531,0 c 3.00586,0 5.451172,2.529786 5.451172,5.639649 0,1.582519 -0.632812,3.014648 -1.650879,4.040039 l 1.02295,0 c 3.005859,0 5.451171,2.529785 5.451171,5.639648 0,2.445313 -1.511718,4.532227 -3.61914,5.312012 1.226562,1.041504 2.01123,2.631836 2.01123,4.427246 0,3.062012 -2.34375,5.460449 -5.335937,5.460449 l -5.400879,0 c 1.024902,1.061036 1.664551,2.560059 1.664551,4.219239 0,3.109863 -2.445313,5.639648 -5.451172,5.639648 l -37.208985,0 C 9.1425776,55.03481 0,45.535787 0,33.860005 Z m 72.121094,-3.883789 c 0,-2.227539 -1.728027,-4.040039 -3.851562,-4.040039 l -28.489502,0 c 0.415588,2.619263 0.431335,5.379334 0.08466,8.080078 l 28.404847,0 c 2.159668,0 3.851562,-1.774902 3.851562,-4.040039 z m -1.60791,9.679688 c 0,-2.227539 -1.727539,-4.040039 -3.851074,-4.040039 l -27.048706,0 c -0.526978,2.863464 -1.46814,5.597412 -2.786377,7.960449 l 29.949829,0 c 2.095215,0 3.736328,-1.695801 3.736328,-3.92041 z M 57.589356,53.435201 c 2.123535,0 3.851562,-1.8125 3.851562,-4.040039 0,-2.28711 -1.711426,-4.219239 -3.736816,-4.219239 l -21.867127,0 c -0.409362,0.595032 -0.835998,1.169312 -1.299865,1.692871 -0.503418,0.582032 -1.148438,1.208985 -1.816407,1.764649 -0.339843,0.282226 -0.844238,0.23584 -1.126953,-0.103516 -0.124023,-0.149902 -0.18457,-0.331054 -0.18457,-0.51123 0,-0.229492 0.09815,-0.45752 0.288086,-0.615723 0.603027,-0.501465 1.181641,-1.0625 1.635742,-1.587891 5.172363,-5.83789 6.759277,-16.793457 3.53711,-24.421386 -0.172364,-0.410645 0.01855,-0.876953 0.425293,-1.04834 0.407226,-0.171875 0.876464,0.01855 1.048339,0.425293 0.476014,1.12677 0.843567,2.326294 1.125733,3.565918 l 23.976806,0 c 2.159668,0 3.851563,-1.774902 3.851563,-4.040039 0,-2.265137 -1.691895,-4.040039 -3.851563,-4.040039 l -30.035278,0 c -0.535339,6.196045 -5.293213,14.383667 -11.372436,19.406738 -0.340821,0.28125 -0.845215,0.233398 -1.126465,-0.106934 -0.123047,-0.149414 -0.183106,-0.330078 -0.183106,-0.509277 0,-0.230469 0.09863,-0.458984 0.290039,-0.617187 5.917969,-4.889649 10.683594,-13.233887 10.84961,-18.996094 1.22e-4,-0.0038 0.0023,-0.007 0.0025,-0.01086 0.0042,-0.0976 0.02704,-0.191712 0.06512,-0.280457 0.01172,-0.02722 0.03003,-0.04901 0.04462,-0.07458 0.03241,-0.05743 0.0683,-0.11145 0.114502,-0.159729 0.0257,-0.02686 0.0542,-0.04785 0.08337,-0.07092 0.02686,-0.02124 0.04761,-0.0481 0.07758,-0.06604 l 7.748047,-4.658203 c 1.981445,-1.2070307 2.655273,-3.8608397 1.49707,-5.9184567 l -0.635254,-1.141602 c -0.36914,-0.678222 -0.977539,-1.160156 -1.713867,-1.35791 -0.708496,-0.190429 -1.436035,-0.08935 -2.052734,0.286621 l -14.598145,8.7608037 0,13.952087 -1.599609,0 0,-12.992127 -2.17627,1.306031 0,8.842834 -1.599609,0 0,-7.882873 -1.731445,1.039123 c -0.05713,0.03418 -0.117676,0.06103 -0.181641,0.08008 -0.08929,0.02686 -0.174011,0.06323 -0.262695,0.09137 l 0,4.336365 -1.59961,0 0,-3.741516 C 6.3473506,18.743489 1.5996093,25.903951 1.5996093,33.860005 c 0,4.663025 1.5778813,8.946045 4.1992183,12.312195 l 0,-6.090515 1.59961,0 0,7.889893 c 0.679077,0.678955 1.405884,1.304504 2.176269,1.87207 l 0,-6.91919 1.5996104,0 0,7.978821 c 0.699402,0.41211 1.42511,0.778137 2.176269,1.095642 l 0,-6.985595 1.59961,0 0,7.580139 c 1.72052,0.542908 3.541931,0.841736 5.430175,0.841736 l 37.208985,0 z"
     id="path4"
     inkscape:connector-curvature="0" /></svg>