<svg xmlns="http://www.w3.org/2000/svg" xmlns:xlink="http://www.w3.org/1999/xlink" version="1.1" baseProfile="tiny" x="0px" y="0px" viewBox="0 0 90 90" overflow="scroll" xml:space="preserve"><path d="M79.1787109,53.1962891c0-3.3513184-2.7233276-6.0935669-6.1500854-6.3001709  c1.367981-1.1593628,2.2369995-2.8528442,2.2369995-4.7418213c0-3.4853516-2.9433594-6.3203125-6.5615234-6.3203125H53.4794922  h-7.125l5.3349609-19.0234375c0.4619141-1.6591797,0.2333984-3.40625-0.6425781-4.9189453  c-0.9130859-1.5791016-2.4042969-2.7011719-4.1943359-3.1582031l-1.5654297-0.4091797  c-2.7929688-0.7255859-5.6835938,0.8662109-6.4501953,3.5595703l-2.0585938,7.4140625  c-0.1464844,0.4912109-0.2939453,1.0527344-0.4277344,1.640625l-0.8427734,2.8916016  c-2.5126953,7.2255859-8.1376953,10.9169922-10.4013672,12.1503906l-0.3085938,0.1435547  c-0.3554688,0.1640625-0.7587891,0.3496094-1.0722656,0.5527344c-7.9423828,4.203125-12.8759766,12.2304688-12.8759766,20.9492188  c0,6.5356445,3.1461792,12.6622314,8.0644531,17.12323v0.3201294h0.3629761  c4.7633057,4.1689453,11.1005249,6.8027344,17.8411255,6.8027344h13.4453125c0.0256348,0,0.0474854-0.0119019,0.0725098-0.0142822  c0.0944824,0.0040894,0.1876221,0.0142822,0.282959,0.0142822h14.4414063c3.5576172,0,6.5625-2.8945313,6.5625-6.3203125  c0-1.9906616-0.9624023-3.7664795-2.4602661-4.9257813h1.5178833c3.6191406,0,6.5625-2.8349609,6.5625-6.3203125  c0-2.0975342-1.0703125-3.9541626-2.7081909-5.1044312C77.3634033,58.3129272,79.1787109,55.960022,79.1787109,53.1962891z   M73.6660156,42.1542969c0,2.6035156-2.2255859,4.7216797-4.9619141,4.7216797H57.3925781h-0.8535156h-3.0595703  c-2.7363281,0-4.9619141-2.1181641-4.9619141-4.7216797c0-2.6025391,2.2255859-4.7207031,4.9619141-4.7207031h15.2246094  C71.4404297,37.4335938,73.6660156,39.5517578,73.6660156,42.1542969z M37.1181641,80.2724609  c-5.6825562,0-11.0609741-1.9814453-15.3383789-5.203125h6.6235352v-1.5996094h-8.5511475  c-0.7457275-0.6848145-1.4418335-1.4141235-2.0927124-2.1757813h7.8010864v-1.5996094h-9.0551147  c-0.5041504-0.7022705-0.9682007-1.4279175-1.387207-2.1757813h8.3534546v-1.5996094h-9.1656494  c-1.1884155-2.5964355-1.8568115-5.401001-1.8568115-8.2929688c0-8.125,4.6074219-15.6103516,12.0810547-19.5683594  c0.2773438-0.1767578,0.6123047-0.3310547,0.9365234-0.4804688l0.3662109-0.171875  c2.4648438-1.3408203,8.4892578-5.296875,11.1982422-13.0888672l0.8662109-2.9746094  c0.1376953-0.5947266,0.2753906-1.1230469,0.4179688-1.6015625l2.0615234-7.4238281  c0.4355469-1.5302734,1.9550781-2.5644531,3.5664063-2.5644531c0.3115234,0,0.6269531,0.0390625,0.9394531,0.1210938  l1.5693359,0.4101563c1.3740234,0.3505859,2.5136719,1.2060547,3.2099609,2.4101563  c0.6591797,1.1376953,0.8310547,2.4472656,0.4863281,3.6865234l-5.6201172,20.0380859  c-0.0041504,0.0148926,0.0013428,0.0301514-0.0019531,0.045166c-0.0040283,0.0180054-0.015686,0.0319824-0.0185547,0.0505371  c-1.2539063,8.2636719-6.1474609,17.1884766-11.1416016,20.3193359c-0.3740234,0.234375-0.4873047,0.7285156-0.2529297,1.1025391  c0.1513672,0.2421875,0.4121094,0.375,0.6787109,0.375c0.1445313,0,0.2919922-0.0390625,0.4238281-0.1220703  c5.2922974-3.3169556,10.2636108-12.1504517,11.7532959-20.7548828h3.151001  c-0.0461426,0.0396118-0.086853,0.0845947-0.1318359,0.1254272c-0.0846558,0.0767822-0.1676025,0.1547852-0.2479858,0.2357788  c-0.0701904,0.0708008-0.1381226,0.1431885-0.204895,0.2171021c-0.0774536,0.0856934-0.1521606,0.1730347-0.2247925,0.2626343  c-0.0618896,0.076355-0.1222534,0.1534424-0.180542,0.2324829c-0.069458,0.0941772-0.1350098,0.1906738-0.1990967,0.2885742  c-0.0529175,0.0808716-0.1053467,0.1615601-0.154541,0.244812c-0.0605469,0.102478-0.1159058,0.2076416-0.1705933,0.3136597  c-0.0435181,0.0843506-0.0877686,0.1679077-0.1273804,0.2542725c-0.0511475,0.1114502-0.0955811,0.2258301-0.1401367,0.3404541  c-0.0334473,0.0861206-0.0689697,0.1709595-0.0985718,0.2587891c-0.0412598,0.1224976-0.0741577,0.24823-0.1077881,0.3738403  c-0.022522,0.0841675-0.048584,0.166748-0.0675049,0.2521973c-0.0314941,0.1420898-0.0526733,0.2873535-0.0740356,0.4327393  c-0.0106812,0.0727539-0.0263672,0.1438599-0.0344849,0.2174072c-0.024231,0.22052-0.0379639,0.4439697-0.0379639,0.6705322  c0,0.2140503,0.0116577,0.4255371,0.0333252,0.6341553c0.006958,0.0667114,0.0210571,0.1310425,0.0301514,0.1971436  c0.0193481,0.140686,0.0378418,0.2816772,0.0666504,0.4193115c0.0162354,0.0773315,0.0395508,0.1519165,0.0586548,0.2282104  c0.0308228,0.1231689,0.0600586,0.2469482,0.0982666,0.3672485c0.0252075,0.0793457,0.0569458,0.1556396,0.0853271,0.2336426  c0.0413208,0.1137695,0.0811768,0.2279663,0.1289673,0.3386841c0.0333862,0.0773315,0.0725708,0.1514893,0.1090088,0.2272339  c0.0514526,0.1070557,0.1019287,0.2144165,0.1593018,0.3181152c0.0412598,0.074585,0.0876465,0.145874,0.131897,0.2186279  c0.06073,0.0999146,0.1208496,0.2000122,0.1870117,0.2963257c0.048584,0.0706787,0.1014404,0.1380005,0.1528931,0.2067261  c0.0699463,0.0934448,0.1396484,0.1867676,0.2145996,0.2762451c0.0548096,0.0654297,0.1132202,0.1276855,0.1706543,0.190918  c0.0786133,0.0866089,0.1573486,0.1727905,0.2407227,0.255127c0.0613403,0.0606689,0.1255493,0.118103,0.1893921,0.1763306  c0.0861816,0.0786743,0.1727905,0.1564331,0.2633057,0.2305908c0.0673218,0.0551147,0.1369019,0.1071777,0.206543,0.159729  c0.0931396,0.0703125,0.1870117,0.1393433,0.2840576,0.2047729c0.0732422,0.0493774,0.1482544,0.0959473,0.2235718,0.1424561  c0.0990601,0.0611572,0.1989136,0.1206055,0.3015137,0.1766968c0.0788574,0.0430908,0.1590576,0.0836182,0.2399292,0.1236572  c0.1043701,0.0516357,0.2096558,0.1010742,0.3171997,0.1473999c0.0839844,0.0361938,0.1688843,0.0701904,0.2546997,0.1030273  c0.1088867,0.041687,0.21875,0.0806274,0.3303833,0.1167603c0.0889282,0.0288086,0.1784668,0.0557861,0.269043,0.0809326  c0.112793,0.031311,0.2265625,0.0592651,0.3417358,0.0848389c0.0935059,0.020752,0.1871948,0.0400391,0.2821655,0.0568848  c0.1155396,0.0205078,0.2321777,0.0370483,0.3497925,0.0515747c0.0981445,0.012146,0.196228,0.0233765,0.2955933,0.031311  c0.0473022,0.0037842,0.0932617,0.012085,0.1408691,0.0148926c-0.7393799,0.6279297-1.3242188,1.4125977-1.7141724,2.2880859  c-0.0070801,0.015686-0.0128784,0.0317383-0.0198364,0.0474243c-0.0736694,0.1691284-0.1420898,0.3401489-0.2003174,0.515686  c-0.0169067,0.050293-0.0292969,0.1021118-0.0448608,0.1528931c-0.0444336,0.1466064-0.0884399,0.2931519-0.1217041,0.4434814  c-0.0222168,0.098877-0.0354004,0.2002563-0.0525513,0.3006592c-0.0183105,0.1091309-0.0413208,0.2167969-0.0535889,0.3274536  c-0.0244141,0.2163696-0.0380859,0.4353027-0.0380859,0.6567383c0,0.2485352,0.0183105,0.4927368,0.046814,0.7340088  c0.0059204,0.0488281,0.015686,0.0964966,0.0227661,0.1450806c0.0291748,0.2047119,0.0675659,0.4061279,0.1162109,0.604187  c0.0075073,0.0299072,0.015686,0.0593872,0.0236206,0.0891113c0.3840942,1.4691162,1.2891846,2.7345581,2.5158691,3.5995483  c-0.0300903,0.010498-0.0570068,0.0266113-0.0869141,0.0374756c-0.2799072,0.1019287-0.5535278,0.2157593-0.8138428,0.3514404  c-0.0144043,0.0075073-0.0275879,0.0166626-0.0419312,0.024292c-0.2479858,0.1315308-0.4832153,0.281189-0.7104492,0.440918  c-0.053833,0.0378418-0.1075439,0.0747681-0.1601563,0.1141357c-0.2279053,0.1705322-0.4453735,0.352478-0.6480103,0.5494385  c-0.0338745,0.032959-0.0643311,0.0684814-0.0974121,0.1021118c-0.1776123,0.1802979-0.3432007,0.3705444-0.4979248,0.5696411  c-0.0353394,0.0454712-0.0722656,0.0891113-0.1063843,0.135498c-0.1658325,0.2258301-0.3157349,0.4622803-0.4499512,0.708313  c-0.0289307,0.0529785-0.0542603,0.1073608-0.081665,0.1611938c-0.116333,0.2286987-0.2195435,0.4639893-0.3067017,0.7070313  c-0.0133667,0.0373535-0.0299683,0.072937-0.0426025,0.1106567c-0.0908203,0.2698364-0.1586914,0.548584-0.2109375,0.8327637  c-0.012085,0.0656738-0.0219116,0.1314697-0.0317993,0.1978149c-0.0438843,0.2930908-0.0743408,0.59021-0.0743408,0.8947144  c0,0.2344971,0.0157471,0.4653931,0.0419922,0.6933594c0.008728,0.0759277,0.0245972,0.1495361,0.0361328,0.2246094  c0.0231934,0.1506958,0.0479736,0.3006592,0.0821533,0.4476929c0.0200806,0.0865479,0.0454712,0.1709595,0.0692749,0.2561646  c0.0368652,0.132019,0.0758667,0.2627563,0.1213379,0.3912354c0.0309448,0.0874634,0.0647583,0.1732178,0.0996094,0.2589111  c0.0496216,0.1221924,0.1027832,0.2423096,0.1600342,0.3607178c0.0405273,0.0839233,0.0818481,0.1671143,0.1261597,0.2490845  c0.0629883,0.1165161,0.1309814,0.2296753,0.2012329,0.3419189c0.0479736,0.0767212,0.0946045,0.1539307,0.145813,0.2285156  c0.079834,0.1160278,0.1661377,0.2270508,0.25354,0.3376465c0.0505371,0.0639648,0.0978394,0.130127,0.1508789,0.1921387  c0.1227417,0.1437378,0.2532959,0.2808228,0.3886108,0.4136963c0.0255737,0.0251465,0.0487061,0.0524292,0.0747681,0.0771484  c0.1577148,0.1498413,0.3241577,0.2911987,0.4968872,0.4254761c0.0111694,0.008667,0.020813,0.0188599,0.0320435,0.0274658  h-0.7558594c-3.6191406,0-6.5625,2.8349609-6.5625,6.3203125c0,0.2197876,0.0131836,0.4371338,0.0372925,0.6519165  c0.0179443,0.1647949,0.048645,0.3259277,0.0797119,0.4869995c0.0083008,0.0418701,0.0126953,0.0847778,0.0218506,0.1263428  c0.2908936,1.3533325,1.0336304,2.5598145,2.079895,3.4554443H37.1181641z M70.3232422,75.5517578  c0,2.5585938-2.2724609,4.7207031-4.9628906,4.7207031H50.9189453c-0.2791138,0-0.5500488-0.0366821-0.8180542-0.0812378  c-0.0799561-0.0135498-0.1618042-0.0216064-0.2404175-0.0386963c-0.2446899-0.0529785-0.480896-0.1283569-0.7116089-0.2153931  c-0.0610352-0.0228271-0.1245728-0.0405273-0.1844482-0.0655518c-0.2671509-0.1127319-0.5232544-0.246521-0.7646484-0.4006348  c-0.0133667-0.0085449-0.0281372-0.0151978-0.0414429-0.0238037c-1.0460205-0.6817627-1.8165894-1.7307739-2.0908203-2.932373  c-0.0021362-0.0095825-0.0067139-0.0183716-0.0087891-0.0280151c-0.0670776-0.3032227-0.1026611-0.6160278-0.1026611-0.9349976  c0-2.6025391,2.2265625-4.7207031,4.9628906-4.7207031h5.6201172h8.8212891  C68.0966797,70.8310547,70.3232422,72.9492188,70.3232422,75.5517578z M75.9433594,64.3056641  c0,2.6025391-2.2265625,4.7207031-4.9628906,4.7207031H56.5390625h-0.7119141c-2.7285156,0-5.0332031-2.1621094-5.0332031-4.7207031  c0-2.6025391,2.2578125-4.7207031,5.0332031-4.7207031h0.7119141h0.8535156h13.5878906  C73.7167969,59.5849609,75.9433594,61.703125,75.9433594,64.3056641z M72.6162109,57.9853516h-1.6357422H57.3925781  c-0.2871094,0-0.5661621-0.0369873-0.8414917-0.0847778c-0.151001-0.0256348-0.2954102-0.0671997-0.4412231-0.1057129  c-0.168335-0.0454712-0.3365479-0.0908203-0.4977417-0.1528931c-0.1049194-0.0396118-0.2049561-0.0874023-0.3061523-0.1335449  c-0.1947021-0.090271-0.385437-0.187561-0.565918-0.3007202c-0.06604-0.0410156-0.1300049-0.0844116-0.1938477-0.1282349  c-0.1992798-0.1380615-0.3887329-0.2885132-0.5654297-0.4523926c-0.043335-0.0401611-0.0870361-0.079834-0.1289063-0.12146  c-0.1775513-0.1766357-0.3391113-0.3673706-0.4876709-0.567627c-0.0343018-0.0464478-0.071167-0.0909424-0.1037598-0.1385498  c-0.1376343-0.1999512-0.2542725-0.4129028-0.3602295-0.6311646c-0.0288086-0.0599365-0.0634766-0.1166992-0.0896606-0.1778564  c-0.0935669-0.2157593-0.161499-0.4421997-0.2213135-0.6713257c-0.0178833-0.0695801-0.0457153-0.1356201-0.0603638-0.2062378  c-0.0627441-0.2979126-0.0991821-0.6038818-0.0991821-0.9165649c0-0.307373,0.036499-0.6080933,0.098877-0.9009399  c0.0159302-0.0755615,0.0458984-0.1464233,0.0656738-0.2208252c0.0585327-0.2177124,0.1236572-0.4334106,0.2136841-0.638855  c0.0307007-0.0706177,0.0709839-0.1364746,0.1051636-0.2054443c0.1008301-0.2019653,0.2102051-0.3996582,0.3391113-0.5856323  c0.0413818-0.0599976,0.0881958-0.1160278,0.1323853-0.1741943c0.1386719-0.1818848,0.2879028-0.355957,0.451355-0.5178223  c0.0546875-0.0541382,0.1119995-0.1057129,0.1693726-0.1574097c0.1629028-0.1471558,0.3363647-0.2830811,0.5183105-0.4088135  c0.0783081-0.0537109,0.1572266-0.1064453,0.2388916-0.1559448c0.1661987-0.1016235,0.3412476-0.1895752,0.5194702-0.2721558  c0.1134033-0.0518799,0.2259521-0.1046143,0.3439941-0.1483765c0.1523438-0.057373,0.3111572-0.0995483,0.4699097-0.1422729  c0.1503906-0.039856,0.2996826-0.0820313,0.4556274-0.1084595c0.2752075-0.0470581,0.5541382-0.0835571,0.8410645-0.0835571  h11.3115234h3.9121094c2.7363281,0,4.9628906,2.1181641,4.9628906,4.7207031  C77.5791016,55.8369141,75.3525391,57.9853516,72.6162109,57.9853516z"></path></svg>