<?xml version="1.0" encoding="UTF-8" standalone="no"?>
<svg
   xmlns:dc="http://purl.org/dc/elements/1.1/"
   xmlns:cc="http://creativecommons.org/ns#"
   xmlns:rdf="http://www.w3.org/1999/02/22-rdf-syntax-ns#"
   xmlns:svg="http://www.w3.org/2000/svg"
   xmlns="http://www.w3.org/2000/svg"
   xmlns:sodipodi="http://sodipodi.sourceforge.net/DTD/sodipodi-0.dtd"
   xmlns:inkscape="http://www.inkscape.org/namespaces/inkscape"
   version="1.1"
   x="0px"
   y="0px"
   viewBox="0 0 73.720703 47.114521"
   overflow="scroll"
   xml:space="preserve"
   id="svg22"
   inkscape:version="0.91 r13725"
   sodipodi:docname="gato_scissors.svg"
   width="73.720703"
   height="47.114521"
   style="overflow:scroll"><metadata
     id="metadata30"><rdf:RDF><cc:Work
         rdf:about=""><dc:format>image/svg+xml</dc:format><dc:type
           rdf:resource="http://purl.org/dc/dcmitype/StillImage" /><dc:title></dc:title></cc:Work></rdf:RDF></metadata><defs
     id="defs28" /><sodipodi:namedview
     pagecolor="#ffffff"
     bordercolor="#666666"
     borderopacity="1"
     objecttolerance="10"
     gridtolerance="10"
     guidetolerance="10"
     inkscape:pageopacity="0"
     inkscape:pageshadow="2"
     inkscape:window-width="758"
     inkscape:window-height="480"
     id="namedview26"
     showgrid="false"
     fit-margin-top="0"
     fit-margin-left="0"
     fit-margin-right="0"
     fit-margin-bottom="0"
     inkscape:zoom="2.6222222"
     inkscape:cx="36.854136"
     inkscape:cy="23.571421"
     inkscape:window-x="0"
     inkscape:window-y="0"
     inkscape:window-maximized="0"
     inkscape:current-layer="svg22" /><path
     d="m 39.104981,6.4612019 -1.444825,0 0,-0.04102 c 0,-1.038086 -0.822265,-1.881836 -1.836425,-1.881836 l -16.337403,0.06055 C 8.7416989,5.0373739 0,14.558858 0,25.826436 0,37.564718 9.1425779,47.114522 20.380371,47.114522 l 16.652344,0 c 0.0043,0 0.0078,-0.0023 0.01196,-0.0024 0.0152,1.22e-4 0.02991,0.0024 0.04517,0.0024 l 11.599121,0 c 3.005859,0 5.451172,-2.568359 5.451172,-5.726562 0,-2.033142 -1.097168,-3.852112 -2.693909,-4.85315 1.608887,-0.986267 2.693909,-2.801758 2.693909,-4.880249 0,-1.578186 -0.661926,-3.027282 -1.703674,-4.066406 l 15.833068,0 c 3.00586,0 5.451172,-2.541992 5.451172,-5.666992 0,-3.124024 -2.445312,-5.666016 -5.451172,-5.666016 l -22.063964,0 18.193847,-5.097656 c 2.878418,-0.768555 4.631836,-3.9433601 3.84375,-6.9101561 -0.362304,-1.480469 -1.277832,-2.720704 -2.577636,-3.490235 -1.254395,-0.743164 -2.70752,-0.948242 -4.09961,-0.575195 L 39.104982,6.4612019 Z M 52.540527,41.38796 c 0,2.237304 -1.763671,4.126953 -3.851562,4.126953 l -11.599121,0 c -0.07617,0 -0.147339,-0.01941 -0.222412,-0.02411 -2.015442,-0.152039 -3.628662,-1.944092 -3.628662,-4.102844 0,-2.242188 1.727539,-4.066407 3.851074,-4.066407 l 11.599121,0 c 2.087891,0 3.851562,1.862305 3.851562,4.066407 z m 0,-9.733399 c 0,2.242188 -1.728027,4.067383 -3.851562,4.067383 l -11.599121,0 -0.688965,0 c -2.123535,0 -3.851074,-1.825195 -3.851074,-4.067383 0,-2.204102 1.763672,-4.066406 3.851074,-4.066406 l 12.288086,0 c 2.087891,0 3.851562,1.862305 3.851562,4.066406 z M 64.850586,2.1340529 c 0.92627,0.548828 1.579102,1.433594 1.842285,2.509766 0.572754,2.145508 -0.666015,4.422851 -2.71582,4.970703 L 42.09961,15.743428 c -0.345215,0.09668 -0.583985,0.41211 -0.583985,0.770508 l 0,0.541016 c 0,0.441406 0.35791,0.799804 0.799805,0.799804 l 25.954101,0 c 2.123536,0 3.851563,1.824219 3.851563,4.066407 0,2.280273 -1.691895,4.067382 -3.851563,4.067382 l -19.580566,0 -12.288086,0 c -2.95459,0 -5.450684,2.594727 -5.450684,5.666016 0,0.248413 0.02069,0.491333 0.05066,0.731384 0.0081,0.06519 0.01825,0.129334 0.02856,0.193848 0.03131,0.197022 0.07172,0.390381 0.12207,0.580078 0.01129,0.04236 0.01947,0.08582 0.03168,0.127808 0.06506,0.224304 0.144165,0.441833 0.234375,0.653503 0.02185,0.05121 0.04675,0.100281 0.06995,0.150696 0.07764,0.168457 0.16272,0.332031 0.255371,0.490784 0.02905,0.0498 0.05664,0.100158 0.08716,0.148925 0.12024,0.192383 0.249207,0.377808 0.390259,0.553162 0.02264,0.02814 0.04791,0.05359 0.07104,0.08124 0.12384,0.14801 0.255249,0.288513 0.393005,0.422485 0.0451,0.04382 0.09021,0.08691 0.136658,0.129151 0.153626,0.139648 0.313049,0.272155 0.48114,0.393432 0.01514,0.01086 0.02881,0.02356 0.04407,0.0343 0.182006,0.12854 0.37384,0.242249 0.570678,0.347534 0.02307,0.01233 0.04376,0.02875 0.06702,0.04077 -0.03717,0.02692 -0.07007,0.05939 -0.106568,0.08722 -0.114135,0.08704 -0.225891,0.176758 -0.333068,0.272522 -0.05493,0.04907 -0.107483,0.100403 -0.160523,0.151672 -0.0946,0.09149 -0.185852,0.186036 -0.273987,0.284241 -0.04913,0.05475 -0.09808,0.109253 -0.145141,0.165955 -0.09192,0.110778 -0.178162,0.226135 -0.261719,0.344116 -0.03424,0.04834 -0.0708,0.09442 -0.103577,0.143921 -0.111755,0.168579 -0.215759,0.342956 -0.309692,0.524048 -0.01801,0.03473 -0.03223,0.07172 -0.04956,0.106933 -0.07367,0.149475 -0.142151,0.30188 -0.203064,0.458618 -0.02551,0.06561 -0.04724,0.132813 -0.07043,0.199646 -0.04608,0.132813 -0.08801,0.267273 -0.124634,0.40448 -0.01953,0.07306 -0.03796,0.146302 -0.05469,0.22052 -0.03223,0.142884 -0.05762,0.288025 -0.0791,0.434876 -0.0099,0.06757 -0.02222,0.134033 -0.02978,0.202331 -0.02387,0.214722 -0.03919,0.431946 -0.03919,0.653199 0,1.62146 0.647278,3.084167 1.681213,4.126953 l -10.818908,0 0,-11.246094 -1.59961,0 0,11.246094 -0.521484,0 c -0.558594,0 -1.10846,-0.03754 -1.654785,-0.08789 l 0,-8.31543 -1.59961,0 0,8.086975 c -0.739807,-0.136291 -1.468261,-0.305664 -2.175781,-0.530212 l 0,-5.219849 -1.599609,0 0,4.621888 C 6.4702149,41.145833 1.5996089,34.076375 1.5996089,25.826436 c 0,-4.613403 1.583252,-8.906067 4.199219,-12.297363 l 0,6.520996 1.599609,0 0,-8.316406 -0.01575,0 c 0.687134,-0.697754 1.412293,-1.35376 2.192017,-1.9366461 l 0,7.4102781 1.5996091,0 0,-8.4770501 c 0.697998,-0.418091 1.427979,-0.777649 2.17627,-1.099305 l 0,7.4884651 1.599609,0 0,-8.0866091 c 1.46283,-0.468262 2.989929,-0.769775 4.571777,-0.83429 l 16.304688,-0.06055 c 0.130859,0 0.233887,0.124024 0.233887,0.282227 l 0,0.84082 0.0049,10.6064461 c -0.01416,0.123047 -0.374511,3.013672 -2.822754,3.013672 l -1.824707,0 c -0.577148,-0.03809 -1.55957,-0.211915 -2.319824,-0.901368 -0.795898,-0.720703 -1.199707,-1.867187 -1.199707,-3.40625 0,-0.441406 -0.35791,-0.799804 -0.799804,-0.799804 -0.441895,0 -0.799805,0.358398 -0.799805,0.799804 0,2.009766 0.580078,3.554688 1.724609,4.591797 1.569824,1.422852 3.642578,1.340821 3.987793,1.31543 l 1.231446,0 c 3.111816,0 4.247558,-2.90332 4.41748,-4.524414 l 0,-9.8955081 1.554688,0 c 0.07275,0 0.145508,-0.0098 0.215332,-0.0293 l 22.558105,-6.30664 c 0.964356,-0.257813 1.980957,-0.113282 2.862305,0.409179 z"
     id="path24"
     inkscape:connector-curvature="0" /></svg>