<svg xmlns="http://www.w3.org/2000/svg" xmlns:xlink="http://www.w3.org/1999/xlink" version="1.1" x="0px" y="0px" viewBox="0 0 100 100" enable-background="new 0 0 100 100" xml:space="preserve"><path fill="#000000" d="M67.587,33.405c-0.326,0-0.591-0.265-0.591-0.591c-0.002-1.274-0.998-2.33-2.269-2.404  c-0.326-0.019-0.575-0.299-0.556-0.625c0.019-0.326,0.295-0.579,0.625-0.556c1.894,0.11,3.379,1.684,3.382,3.583  C68.179,33.139,67.915,33.405,67.587,33.405L67.587,33.405z"></path><path fill="#000000" d="M63.296,64.226c-0.303,0-0.562-0.232-0.589-0.539c-0.179-2.02-1.642-2.44-1.704-2.457  c-0.313-0.085-0.502-0.407-0.42-0.721c0.082-0.313,0.399-0.504,0.713-0.425c0.095,0.023,2.333,0.617,2.589,3.498  c0.029,0.325-0.211,0.612-0.537,0.641C63.332,64.226,63.313,64.226,63.296,64.226z"></path><path fill="#000000" d="M68.178,32.814c0-0.327-0.265-0.592-0.591-0.592s-0.591,0.265-0.591,0.592l0,61.594  c0,0.327,0.265,0.592,0.591,0.592c0.327,0,0.591-0.265,0.591-0.592L68.178,32.814z"></path><path fill="#000000" d="M49.384,95c-0.327,0-0.592-0.265-0.592-0.592V83.336c0-0.327,0.265-0.591,0.592-0.591  c0.326,0,0.591,0.265,0.591,0.591v11.072C49.976,94.735,49.71,95,49.384,95z"></path><path fill="#000000" d="M52.355,86.333h-2.971c-0.327,0-0.592-0.265-0.592-0.592c0-0.327,0.265-0.591,0.592-0.591h2.971  c0.327,0,0.592,0.265,0.592,0.591C52.947,86.068,52.682,86.333,52.355,86.333z"></path><path fill="#000000" d="M65.368,82.86c-0.221,0-0.432-0.124-0.534-0.336c-0.141-0.294-0.016-0.647,0.278-0.789  c4.033-1.928,4.242-3.049,4.21-3.347c-0.067-0.625-1.314-1.127-1.872-1.259c-0.318-0.075-0.515-0.395-0.439-0.712  c0.076-0.317,0.396-0.515,0.712-0.438c0.266,0.063,2.602,0.665,2.775,2.285c0.153,1.434-1.397,2.876-4.876,4.54  C65.541,82.842,65.454,82.86,65.368,82.86z"></path><path fill="#000000" d="M65.368,87.278c-0.221,0-0.432-0.124-0.534-0.336c-0.141-0.294-0.016-0.647,0.278-0.789  c4.031-1.927,4.242-3.048,4.21-3.346c-0.066-0.627-1.291-1.12-1.874-1.261c-0.317-0.076-0.513-0.396-0.437-0.713  c0.076-0.317,0.393-0.513,0.711-0.438c0.266,0.063,2.602,0.664,2.775,2.285c0.153,1.434-1.396,2.876-4.876,4.541  C65.541,87.26,65.454,87.278,65.368,87.278z"></path><path fill="#000000" d="M65.368,91.917c-0.221,0-0.432-0.125-0.534-0.337c-0.141-0.294-0.016-0.647,0.278-0.789  c4.033-1.928,4.242-3.049,4.21-3.347c-0.067-0.625-1.314-1.127-1.872-1.26c-0.318-0.075-0.515-0.394-0.439-0.712  c0.076-0.317,0.396-0.514,0.712-0.438c0.266,0.063,2.602,0.664,2.775,2.285c0.153,1.433-1.397,2.875-4.876,4.539  C65.541,91.897,65.454,91.917,65.368,91.917z"></path><path fill="#000000" d="M64.965,26.388c0-1.608-1.308-2.916-2.916-2.916H41.453c-1.608,0-2.916,1.308-2.916,2.916v0.266  l-2.508,0.442c-1.583,0.279-2.644,1.794-2.365,3.377l0.116,0.659l-2.394,0.871c-0.73,0.266-1.311,0.802-1.634,1.508  c-0.323,0.708-0.349,1.498-0.071,2.224l8.894,23.303c0.035,0.09,0.093,0.162,0.16,0.223c0.423,1.089,1.479,1.865,2.717,1.865h12.778  c0.327,0,0.591-0.264,0.591-0.591c0-0.327-0.265-0.591-0.591-0.591H41.453c-0.956,0-1.733-0.777-1.733-1.732V26.388  c0-0.956,0.777-1.732,1.733-1.732H62.05c0.955,0,1.732,0.777,1.732,1.732l0,31.824c0,0.956-0.777,1.732-1.732,1.732h-1.049  l1.049,1.183c1.607,0,2.916-1.308,2.916-2.915L64.965,26.388z M36.235,28.261l2.302-0.406v23.438L34.83,30.268  C34.664,29.328,35.295,28.427,36.235,28.261z M30.83,34.004c0.19-0.417,0.532-0.732,0.963-0.889l2.197-0.8l3.733,21.169  l-6.935-18.17C30.625,34.886,30.639,34.42,30.83,34.004z"></path><path fill="#000000" d="M50.359,78.253c-0.245,0-0.474-0.153-0.559-0.398c-3.417-9.857,2.855-14.986,4.707-16.244l-3.558-6.92  c-0.803-1.58-0.172-3.517,1.405-4.319c1.577-0.802,3.514-0.172,4.317,1.405l4.993,8.584c0.165,0.282,0.069,0.645-0.214,0.809  c-0.282,0.163-0.645,0.068-0.808-0.214l-5.009-8.612c-0.523-1.025-1.747-1.423-2.743-0.916s-1.395,1.73-0.888,2.726l3.803,7.398  c0.147,0.286,0.039,0.637-0.245,0.791c-0.338,0.185-8.27,4.663-4.643,15.126c0.107,0.309-0.056,0.646-0.365,0.752  C50.489,78.243,50.423,78.253,50.359,78.253z"></path><path fill="#000000" d="M54.075,54.238c-0.213,0-0.417-0.116-0.523-0.315c-1.312-2.474,0.104-3.588,0.166-3.635  c0.26-0.197,0.631-0.146,0.828,0.114c0.194,0.256,0.148,0.62-0.102,0.819c-0.041,0.037-0.526,0.505-0.064,1.678l1.415-0.532  c0.306-0.117,0.646,0.039,0.762,0.345c0.115,0.306-0.04,0.646-0.345,0.762L54.283,54.2C54.214,54.226,54.144,54.238,54.075,54.238z"></path><path fill="#000000" d="M54.881,83.929h-5.281c-0.149,0-0.293-0.057-0.403-0.159c-9.559-8.894-7.087-20.111-6.103-23.337  c0.096-0.312,0.426-0.488,0.739-0.392c0.312,0.095,0.488,0.426,0.393,0.738c-0.929,3.041-3.25,13.566,5.607,21.966h5.047  c0.327,0,0.592,0.265,0.592,0.591C55.473,83.664,55.208,83.929,54.881,83.929z"></path><path fill="#000000" d="M55.586,50.969c-0.211,0-0.406-0.113-0.512-0.295l-2.052-3.537c-0.109-0.188-0.106-0.419,0.006-0.605  l2.052-3.367c0.107-0.176,0.299-0.284,0.505-0.284c0.207,0,0.398,0.108,0.505,0.284l2.052,3.367  c0.113,0.186,0.116,0.417,0.007,0.605l-2.052,3.537C55.992,50.856,55.797,50.969,55.586,50.969z M54.222,46.848l1.364,2.35  l1.364-2.35l-1.364-2.238L54.222,46.848z"></path><path fill="#000000" d="M48.251,41.288L48.251,41.288c-0.188,0-0.364-0.089-0.475-0.239l-2.944-3.97  c-0.269-0.386-0.406-0.821-0.406-1.274c0-1.218,0.991-2.208,2.208-2.208c0.638,0,1.213,0.266,1.616,0.699  c0.403-0.433,0.978-0.699,1.617-0.699c1.218,0,2.208,0.991,2.208,2.208c0,0.399-0.106,0.785-0.31,1.126  c-0.019,0.053-0.045,0.104-0.08,0.15l-2.962,3.97C48.614,41.2,48.438,41.288,48.251,41.288z M46.635,34.779  c-0.565,0-1.025,0.459-1.025,1.025c0,0.209,0.063,0.412,0.184,0.584l2.46,3.317l2.403-3.222c0.015-0.033,0.033-0.065,0.054-0.095  c0.12-0.173,0.184-0.375,0.184-0.584c0-0.565-0.46-1.025-1.026-1.025c-0.526,0-0.974,0.41-1.02,0.932  c-0.027,0.306-0.282,0.54-0.589,0.54s-0.577-0.234-0.604-0.54C47.609,35.188,47.161,34.779,46.635,34.779z"></path><path fill="#000000" d="M58.7,37.394l-2.64-3.559c-0.111-0.15-0.287-0.239-0.474-0.24h-0.001c-0.187,0-0.362,0.088-0.474,0.238  l-2.655,3.559c-0.034,0.045-0.06,0.094-0.078,0.145c-0.186,0.313-0.283,0.669-0.283,1.035c0,1.125,0.916,2.041,2.041,2.041  c0.308,0,0.596-0.071,0.858-0.191v0.705c0,0.327,0.265,0.591,0.591,0.591s0.591-0.265,0.591-0.591v-0.705  c0.262,0.12,0.55,0.191,0.858,0.191c1.125,0,2.041-0.916,2.041-2.041C59.076,38.155,58.95,37.752,58.7,37.394z M57.035,39.431  c-0.44,0-0.815-0.343-0.854-0.78c-0.027-0.305-0.296-0.54-0.603-0.54s-0.562,0.235-0.589,0.54c-0.039,0.438-0.413,0.78-0.853,0.78  c-0.474,0-0.858-0.385-0.858-0.858c0-0.175,0.053-0.344,0.154-0.487c0.02-0.029,0.037-0.059,0.051-0.09l2.101-2.817l2.155,2.907  c0.101,0.144,0.154,0.312,0.154,0.487C57.893,39.045,57.508,39.431,57.035,39.431z"></path><path fill="#000000" d="M50.409,45.563c0.034-0.154,0.051-0.312,0.051-0.474c0-1.218-0.991-2.208-2.208-2.208  s-2.208,0.991-2.208,2.208c0,0.161,0.018,0.32,0.051,0.474c-0.883,0.289-1.523,1.121-1.523,2.099c0,1.218,0.991,2.208,2.208,2.208  c0.31,0,0.607-0.071,0.881-0.191v0.733c0,0.327,0.265,0.591,0.591,0.591c0.327,0,0.591-0.265,0.591-0.591v-0.734  c0.274,0.121,0.571,0.192,0.881,0.192c1.217,0,2.208-0.99,2.208-2.208C51.932,46.684,51.292,45.852,50.409,45.563z M49.724,48.688  c-0.401,0-0.768-0.237-0.934-0.603c-0.003-0.007-0.012-0.01-0.015-0.018c-0.042-0.083-0.103-0.15-0.177-0.205  c-0.02-0.016-0.038-0.028-0.061-0.041c-0.086-0.049-0.18-0.084-0.287-0.084c-0.106,0-0.201,0.036-0.287,0.084  c-0.022,0.013-0.04,0.025-0.061,0.041c-0.074,0.056-0.136,0.124-0.178,0.207c-0.003,0.006-0.011,0.009-0.014,0.016  c-0.166,0.366-0.532,0.603-0.934,0.603c-0.565,0-1.025-0.459-1.025-1.025s0.46-1.025,1.025-1.025c0.04,0,0.079,0.003,0.118,0.007  c0.233,0.026,0.46-0.092,0.576-0.296c0.116-0.205,0.1-0.458-0.042-0.646c-0.134-0.178-0.205-0.39-0.205-0.612  c0-0.565,0.46-1.025,1.025-1.025s1.025,0.459,1.025,1.025c0,0.222-0.071,0.434-0.205,0.612c-0.141,0.188-0.157,0.442-0.041,0.646  c0.115,0.204,0.34,0.322,0.575,0.296c0.039-0.003,0.078-0.007,0.118-0.007c0.565,0,1.025,0.459,1.025,1.025  S50.289,48.688,49.724,48.688z"></path><path fill="#000000" d="M58.484,31.679H45.163c-0.327,0-0.592-0.265-0.592-0.592s0.265-0.592,0.592-0.592h13.321  c0.327,0,0.592,0.265,0.592,0.592S58.811,31.679,58.484,31.679z"></path><path fill="#000000" d="M58.484,54.104h-1.079c-0.327,0-0.591-0.265-0.591-0.592c0-0.327,0.265-0.592,0.591-0.592h1.079  c0.327,0,0.592,0.265,0.592,0.592C59.076,53.839,58.811,54.104,58.484,54.104z"></path><path fill="#000000" d="M51.208,54.104h-6.045c-0.327,0-0.592-0.265-0.592-0.592c0-0.327,0.265-0.592,0.592-0.592h6.045  c0.327,0,0.591,0.265,0.591,0.592C51.799,53.839,51.535,54.104,51.208,54.104z"></path></svg>