<?xml version="1.0" encoding="UTF-8" standalone="no"?>
<svg
   xmlns:dc="http://purl.org/dc/elements/1.1/"
   xmlns:cc="http://creativecommons.org/ns#"
   xmlns:rdf="http://www.w3.org/1999/02/22-rdf-syntax-ns#"
   xmlns:svg="http://www.w3.org/2000/svg"
   xmlns="http://www.w3.org/2000/svg"
   xmlns:sodipodi="http://sodipodi.sourceforge.net/DTD/sodipodi-0.dtd"
   xmlns:inkscape="http://www.inkscape.org/namespaces/inkscape"
   version="1.1"
   x="0px"
   y="0px"
   viewBox="0 0 48.185581 29.951853"
   enable-background="new 0 0 100 100"
   xml:space="preserve"
   id="svg2"
   inkscape:version="0.91 r13725"
   sodipodi:docname="harry_rock.svg"
   width="48.185581"
   height="29.951853"><metadata
     id="metadata34"><rdf:RDF><cc:Work
         rdf:about=""><dc:format>image/svg+xml</dc:format><dc:type
           rdf:resource="http://purl.org/dc/dcmitype/StillImage" /><dc:title></dc:title></cc:Work></rdf:RDF></metadata><defs
     id="defs32" /><sodipodi:namedview
     pagecolor="#ffffff"
     bordercolor="#666666"
     borderopacity="1"
     objecttolerance="10"
     gridtolerance="10"
     guidetolerance="10"
     inkscape:pageopacity="0"
     inkscape:pageshadow="2"
     inkscape:window-width="754"
     inkscape:window-height="480"
     id="namedview30"
     showgrid="false"
     fit-margin-top="0"
     fit-margin-left="0"
     fit-margin-right="0"
     fit-margin-bottom="0"
     inkscape:zoom="2.36"
     inkscape:cx="24.55654"
     inkscape:cy="35.883137"
     inkscape:window-x="0"
     inkscape:window-y="0"
     inkscape:window-maximized="0"
     inkscape:current-layer="svg2" /><g
     id="g3362"
     transform="matrix(0,-1,-1,0,95,64.512176)"><path
       id="path4"
       d="m 46.541,83.929 -5.281,0 c -0.176,0 -0.34,-0.077 -0.453,-0.211 -10.014,-11.892 -4.996,-25.141 -4.943,-25.274 0.118,-0.304 0.46,-0.454 0.766,-0.335 0.304,0.119 0.453,0.462 0.336,0.766 -0.05,0.125 -4.745,12.585 4.57,23.87 l 5.005,0 c 0.326,0 0.591,0.265 0.591,0.592 0,0.327 -0.265,0.592 -0.591,0.592 z"
       inkscape:connector-curvature="0"
       style="fill:#000000" /><path
       id="path6"
       d="m 57.242,82.86 c -0.221,0 -0.432,-0.124 -0.533,-0.336 -0.141,-0.295 -0.017,-0.648 0.277,-0.789 4.033,-1.927 4.243,-3.049 4.211,-3.347 -0.066,-0.625 -1.313,-1.127 -1.872,-1.26 -0.317,-0.075 -0.515,-0.395 -0.438,-0.712 0.075,-0.318 0.395,-0.513 0.712,-0.438 0.267,0.063 2.603,0.665 2.775,2.285 0.153,1.434 -1.396,2.876 -4.876,4.54 -0.083,0.039 -0.17,0.057 -0.256,0.057 z"
       inkscape:connector-curvature="0"
       style="fill:#000000" /><path
       id="path8"
       d="m 59.462,95 c -0.327,0 -0.591,-0.265 -0.591,-0.591 l 0,-18.858 c 0,-0.327 0.264,-0.592 0.591,-0.592 0.327,0 0.591,0.265 0.591,0.592 l 0,18.857 c 0,0.327 -0.264,0.592 -0.591,0.592 z"
       inkscape:connector-curvature="0"
       style="fill:#000000" /><path
       id="path10"
       d="m 41.26,95 c -0.327,0 -0.592,-0.265 -0.592,-0.591 l 0,-11.072 c 0,-0.327 0.265,-0.592 0.592,-0.592 0.326,0 0.591,0.265 0.591,0.592 l 0,11.072 C 41.851,94.735 41.586,95 41.26,95 Z"
       inkscape:connector-curvature="0"
       style="fill:#000000" /><path
       id="path12"
       d="m 44.23,86.333 -2.97,0 c -0.327,0 -0.592,-0.265 -0.592,-0.591 0,-0.327 0.265,-0.592 0.592,-0.592 l 2.971,0 c 0.326,0 0.592,0.265 0.592,0.592 -10e-4,0.326 -0.266,0.591 -0.593,0.591 z"
       inkscape:connector-curvature="0"
       style="fill:#000000" /><path
       id="path14"
       d="m 57.242,87.278 c -0.221,0 -0.432,-0.124 -0.533,-0.336 -0.141,-0.295 -0.017,-0.648 0.277,-0.789 4.031,-1.927 4.242,-3.048 4.211,-3.346 -0.065,-0.627 -1.29,-1.121 -1.873,-1.261 -0.317,-0.076 -0.514,-0.396 -0.438,-0.713 0.076,-0.317 0.394,-0.514 0.712,-0.437 0.267,0.062 2.603,0.664 2.775,2.285 0.153,1.434 -1.396,2.876 -4.876,4.54 -0.082,0.039 -0.169,0.057 -0.255,0.057 z"
       inkscape:connector-curvature="0"
       style="fill:#000000" /><path
       id="path16"
       d="m 57.242,91.917 c -0.221,0 -0.432,-0.124 -0.533,-0.337 -0.141,-0.294 -0.017,-0.647 0.277,-0.789 4.033,-1.927 4.243,-3.048 4.211,-3.346 -0.066,-0.626 -1.313,-1.127 -1.872,-1.26 -0.317,-0.075 -0.515,-0.394 -0.438,-0.711 0.075,-0.318 0.395,-0.514 0.712,-0.439 0.267,0.063 2.603,0.664 2.775,2.285 0.153,1.433 -1.396,2.875 -4.876,4.539 -0.083,0.039 -0.17,0.058 -0.256,0.058 z"
       inkscape:connector-curvature="0"
       style="fill:#000000" /><path
       id="path18"
       d="m 39.471,62.623 c -1.696,0 -3.129,-1.271 -3.334,-2.957 l -0.938,-6.517 c -0.224,-1.853 1.092,-3.53 2.932,-3.752 1.861,-0.229 3.519,1.112 3.738,2.932 l 0.939,6.518 c 0.223,1.854 -1.093,3.53 -2.932,3.752 -0.136,0.015 -0.272,0.024 -0.405,0.024 z M 38.538,50.554 c -0.088,0 -0.177,0.006 -0.266,0.017 -1.192,0.144 -2.044,1.231 -1.901,2.423 l 0.939,6.517 c 0.145,1.193 1.217,2.055 2.425,1.913 1.191,-0.144 2.044,-1.23 1.9,-2.422 l -0.938,-6.517 c -0.134,-1.107 -1.061,-1.931 -2.159,-1.931 z"
       inkscape:connector-curvature="0"
       style="fill:#000000" /><path
       id="path20"
       d="m 42.346,59.849 c -0.287,0 -0.539,-0.21 -0.583,-0.503 L 40.631,51.84 c -0.135,-0.887 0.085,-1.773 0.617,-2.497 0.533,-0.723 1.314,-1.195 2.203,-1.329 1.83,-0.273 3.548,0.989 3.824,2.819 l 0.851,5.637 c 0.049,0.323 -0.173,0.624 -0.497,0.673 -0.322,0.049 -0.624,-0.174 -0.672,-0.497 L 46.106,51.01 c -0.18,-1.186 -1.294,-2.003 -2.479,-1.827 -0.574,0.087 -1.08,0.393 -1.426,0.861 -0.346,0.469 -0.488,1.043 -0.4,1.618 l 1.131,7.506 c 0.049,0.324 -0.174,0.625 -0.496,0.673 -0.031,0.006 -0.061,0.008 -0.09,0.008 z"
       inkscape:connector-curvature="0"
       style="fill:#000000" /><path
       id="path22"
       d="m 47.63,57.087 c -0.288,0 -0.54,-0.21 -0.584,-0.503 l -0.837,-5.55 c -0.134,-0.887 0.086,-1.773 0.617,-2.497 0.533,-0.723 1.315,-1.195 2.203,-1.329 1.832,-0.275 3.548,0.989 3.825,2.82 l 0.941,6.246 c 0.049,0.323 -0.173,0.624 -0.497,0.673 -0.323,0.048 -0.623,-0.174 -0.672,-0.497 l -0.942,-6.245 c -0.18,-1.186 -1.292,-2.005 -2.479,-1.827 -0.574,0.086 -1.081,0.392 -1.426,0.86 -0.346,0.469 -0.487,1.043 -0.4,1.618 l 0.836,5.55 c 0.049,0.323 -0.173,0.624 -0.496,0.673 -0.03,0.005 -0.06,0.008 -0.089,0.008 z"
       inkscape:connector-curvature="0"
       style="fill:#000000" /><path
       id="path24"
       d="m 58.863,57.087 c -0.287,0 -0.539,-0.21 -0.584,-0.503 l -1.016,-6.735 c -0.18,-1.186 -1.293,-2.001 -2.479,-1.827 -0.574,0.087 -1.082,0.393 -1.427,0.861 -0.345,0.468 -0.487,1.042 -0.4,1.618 l 0.888,5.891 c 0.049,0.323 -0.174,0.624 -0.496,0.673 -0.323,0.05 -0.625,-0.174 -0.674,-0.497 l -0.887,-5.891 c -0.135,-0.887 0.084,-1.773 0.617,-2.497 0.532,-0.723 1.314,-1.195 2.202,-1.328 1.831,-0.275 3.548,0.989 3.825,2.819 l 1.016,6.735 c 0.049,0.323 -0.174,0.624 -0.496,0.673 -0.029,0.005 -0.059,0.008 -0.089,0.008 z"
       inkscape:connector-curvature="0"
       style="fill:#000000" /><path
       id="path26"
       d="m 59.461,76.132 c -0.089,0 -0.18,-0.021 -0.264,-0.064 -0.286,-0.146 -0.398,-0.497 -0.252,-0.782 5.217,-10.172 4.866,-14.535 3.653,-16.404 -0.927,-1.427 -2.461,-1.524 -2.848,-1.525 -0.04,0.009 -0.081,0.014 -0.123,0.014 -0.001,0 -0.001,0 -0.001,0 L 45.01,57.359 c -0.004,0 -0.007,0 -0.01,0 -1.121,0 -2.035,0.907 -2.041,2.027 -0.006,1.125 0.904,2.044 2.027,2.05 l 8.318,0.009 c 0.297,0 0.547,0.225 0.577,0.521 0.031,0.295 -0.165,0.567 -0.456,0.628 -0.279,0.062 -6.836,1.606 -5.002,10.57 0.064,0.314 -0.139,0.621 -0.453,0.686 -0.314,0.065 -0.621,-0.138 -0.686,-0.453 -1.199,-5.856 0.978,-9.179 3.319,-10.793 l -5.622,-0.006 c -1.767,-0.01 -3.195,-1.453 -3.186,-3.218 0.01,-1.758 1.443,-3.183 3.2,-3.183 0.005,0 0.011,0 0.017,0 l 14.502,0.012 c 0.023,-0.005 0.049,-0.008 0.075,-0.011 0.103,-0.007 2.548,-0.136 3.97,2.033 2.025,3.087 0.82,9.004 -3.582,17.585 -0.102,0.201 -0.305,0.316 -0.516,0.316 z"
       inkscape:connector-curvature="0"
       style="fill:#000000" /><path
       id="path28"
       d="m 45.516,60.055 c -0.009,0 -0.019,0 -0.027,-10e-4 -2.789,-0.133 -3.023,-1.911 -3.032,-1.987 -0.036,-0.319 0.192,-0.606 0.511,-0.643 0.313,-0.039 0.598,0.185 0.642,0.497 0.011,0.053 0.167,0.722 1.434,0.923 l 0.329,-1.762 c 0.059,-0.315 0.361,-0.526 0.678,-0.465 0.314,0.059 0.523,0.362 0.465,0.678 l -0.427,2.286 c -0.054,0.276 -0.294,0.474 -0.573,0.474 z"
       inkscape:connector-curvature="0"
       style="fill:#000000" /></g></svg>