<?xml version="1.0" encoding="UTF-8" standalone="no"?>
<svg
   xmlns:dc="http://purl.org/dc/elements/1.1/"
   xmlns:cc="http://creativecommons.org/ns#"
   xmlns:rdf="http://www.w3.org/1999/02/22-rdf-syntax-ns#"
   xmlns:svg="http://www.w3.org/2000/svg"
   xmlns="http://www.w3.org/2000/svg"
   xmlns:sodipodi="http://sodipodi.sourceforge.net/DTD/sodipodi-0.dtd"
   xmlns:inkscape="http://www.inkscape.org/namespaces/inkscape"
   version="1.1"
   x="0px"
   y="0px"
   viewBox="0 0 68.875999 28.787678"
   enable-background="new 0 0 100 100"
   xml:space="preserve"
   id="svg2"
   inkscape:version="0.91 r13725"
   sodipodi:docname="harry_paper.svg"
   width="68.875999"
   height="28.787678"><metadata
     id="metadata72"><rdf:RDF><cc:Work
         rdf:about=""><dc:format>image/svg+xml</dc:format><dc:type
           rdf:resource="http://purl.org/dc/dcmitype/StillImage" /><dc:title></dc:title></cc:Work></rdf:RDF></metadata><defs
     id="defs70" /><sodipodi:namedview
     pagecolor="#ffffff"
     bordercolor="#666666"
     borderopacity="1"
     objecttolerance="10"
     gridtolerance="10"
     guidetolerance="10"
     inkscape:pageopacity="0"
     inkscape:pageshadow="2"
     inkscape:window-width="754"
     inkscape:window-height="480"
     id="namedview68"
     showgrid="false"
     fit-margin-top="0"
     fit-margin-left="0"
     fit-margin-right="0"
     fit-margin-bottom="0"
     inkscape:zoom="2.36"
     inkscape:cx="37.20154"
     inkscape:cy="24.955844"
     inkscape:window-x="0"
     inkscape:window-y="0"
     inkscape:window-maximized="0"
     inkscape:current-layer="svg2" /><g
     id="g3400"
     transform="matrix(0,-1,-1,0,95,61.630295)"><path
       id="path4"
       d="m 45.789,83.929 -5.282,0 c -0.149,0 -0.293,-0.057 -0.403,-0.159 -11.343,-10.555 -6.022,-26.458 -5.968,-26.617 0.106,-0.308 0.443,-0.471 0.752,-0.366 0.309,0.107 0.473,0.443 0.366,0.752 -0.052,0.151 -5.064,15.182 5.487,25.206 l 5.047,0 c 0.327,0 0.591,0.265 0.591,0.592 0,0.327 -0.264,0.592 -0.59,0.592 z"
       inkscape:connector-curvature="0"
       style="fill:#000000" /><path
       id="path6"
       d="m 53.212,63.015 c -0.303,0 -0.561,-0.232 -0.588,-0.539 -0.183,-2.053 -1.684,-2.452 -1.699,-2.456 -0.317,-0.079 -0.509,-0.4 -0.43,-0.717 0.08,-0.317 0.399,-0.51 0.717,-0.43 0.096,0.023 2.333,0.617 2.589,3.498 0.029,0.326 -0.211,0.613 -0.537,0.642 -0.016,0.001 -0.034,0.002 -0.052,0.002 z"
       inkscape:connector-curvature="0"
       style="fill:#000000" /><path
       id="path8"
       d="m 58.709,95 c -0.327,0 -0.591,-0.265 -0.591,-0.591 l 0,-61.595 c 0,-0.327 0.265,-0.592 0.591,-0.592 0.326,0 0.591,0.265 0.591,0.592 l 0,61.595 C 59.301,94.735 59.036,95 58.709,95 Z"
       inkscape:connector-curvature="0"
       style="fill:#000000" /><path
       id="path10"
       d="m 40.507,95 c -0.326,0 -0.591,-0.265 -0.591,-0.591 l 0,-11.072 c 0,-0.327 0.265,-0.592 0.591,-0.592 0.327,0 0.592,0.265 0.592,0.592 l 0,11.072 c 0,0.326 -0.266,0.591 -0.592,0.591 z"
       inkscape:connector-curvature="0"
       style="fill:#000000" /><path
       id="path12"
       d="m 43.479,86.333 -2.972,0 c -0.326,0 -0.591,-0.265 -0.591,-0.591 0,-0.327 0.265,-0.592 0.591,-0.592 l 2.972,0 c 0.327,0 0.591,0.265 0.591,0.592 0,0.326 -0.265,0.591 -0.591,0.591 z"
       inkscape:connector-curvature="0"
       style="fill:#000000" /><path
       id="path14"
       d="m 56.49,82.86 c -0.221,0 -0.433,-0.124 -0.534,-0.336 -0.141,-0.295 -0.016,-0.648 0.278,-0.789 4.032,-1.927 4.242,-3.049 4.21,-3.347 -0.066,-0.625 -1.314,-1.127 -1.873,-1.26 -0.317,-0.075 -0.514,-0.395 -0.438,-0.712 0.076,-0.317 0.395,-0.513 0.712,-0.438 0.266,0.063 2.603,0.665 2.775,2.285 0.153,1.434 -1.396,2.876 -4.876,4.54 -0.081,0.039 -0.168,0.057 -0.254,0.057 z"
       inkscape:connector-curvature="0"
       style="fill:#000000" /><path
       id="path16"
       d="m 56.49,87.278 c -0.221,0 -0.433,-0.124 -0.534,-0.336 -0.141,-0.295 -0.016,-0.648 0.278,-0.789 4.031,-1.927 4.242,-3.048 4.21,-3.346 -0.066,-0.627 -1.291,-1.121 -1.874,-1.261 -0.317,-0.076 -0.513,-0.396 -0.437,-0.713 0.076,-0.317 0.394,-0.514 0.711,-0.437 0.266,0.062 2.603,0.664 2.775,2.285 0.153,1.434 -1.396,2.876 -4.876,4.54 -0.08,0.039 -0.167,0.057 -0.253,0.057 z"
       inkscape:connector-curvature="0"
       style="fill:#000000" /><path
       id="path18"
       d="m 56.49,91.917 c -0.221,0 -0.433,-0.124 -0.534,-0.337 -0.141,-0.294 -0.016,-0.647 0.278,-0.789 4.032,-1.927 4.242,-3.048 4.21,-3.346 -0.066,-0.626 -1.314,-1.127 -1.873,-1.26 -0.317,-0.075 -0.514,-0.394 -0.438,-0.711 0.076,-0.318 0.395,-0.514 0.712,-0.439 0.266,0.063 2.603,0.664 2.775,2.285 0.153,1.433 -1.396,2.875 -4.876,4.539 -0.081,0.039 -0.168,0.058 -0.254,0.058 z"
       inkscape:connector-curvature="0"
       style="fill:#000000" /><path
       id="path20"
       d="m 41.482,78.254 c -0.245,0 -0.474,-0.154 -0.559,-0.398 -3.417,-9.857 2.855,-14.986 4.706,-16.244 l -3.557,-6.92 c -0.803,-1.581 -0.172,-3.517 1.405,-4.32 1.579,-0.801 3.514,-0.172 4.317,1.405 l 3.802,7.399 c 0.149,0.291 0.035,0.647 -0.256,0.797 -0.291,0.148 -0.647,0.034 -0.796,-0.255 l -3.802,-7.402 c -0.508,-0.998 -1.731,-1.396 -2.728,-0.889 -0.996,0.506 -1.394,1.73 -0.887,2.726 l 3.802,7.398 c 0.147,0.286 0.039,0.637 -0.244,0.791 -0.338,0.185 -8.27,4.663 -4.643,15.126 0.107,0.309 -0.057,0.646 -0.365,0.752 -0.066,0.023 -0.131,0.034 -0.195,0.034 z"
       inkscape:connector-curvature="0"
       style="fill:#000000" /><path
       id="path22"
       d="m 45.197,54.228 c -0.21,0 -0.411,-0.114 -0.514,-0.309 -1.308,-2.467 0.102,-3.576 0.162,-3.622 0.256,-0.193 0.62,-0.144 0.814,0.112 0.191,0.252 0.146,0.609 -0.1,0.805 -0.041,0.036 -0.534,0.51 -0.064,1.699 l 1.425,-0.536 c 0.299,-0.113 0.635,0.039 0.749,0.339 0.113,0.3 -0.039,0.635 -0.339,0.749 l -1.928,0.725 c -0.068,0.026 -0.137,0.038 -0.205,0.038 z"
       inkscape:connector-curvature="0"
       style="fill:#000000" /><path
       id="path24"
       d="m 46.703,30.314 c -0.326,0 -0.591,-0.265 -0.591,-0.591 -0.003,-1.981 1.607,-3.596 3.588,-3.599 10e-4,0 0.003,0 0.004,0 0.958,0 1.859,0.373 2.538,1.05 0.68,0.678 1.055,1.58 1.056,2.54 0,0.327 -0.264,0.592 -0.591,0.592 l 0,0 c -0.327,0 -0.591,-0.264 -0.592,-0.591 0,-0.644 -0.252,-1.249 -0.708,-1.704 -0.456,-0.454 -1.06,-0.704 -1.703,-0.704 -10e-4,0 -10e-4,0 -0.003,0 -1.329,0.001 -2.409,1.084 -2.407,2.414 0.001,0.327 -0.264,0.592 -0.591,0.593 0,0 0,0 0,0 z"
       inkscape:connector-curvature="0"
       style="fill:#000000" /><path
       id="path26"
       d="m 52.707,33.413 c -0.326,0 -0.591,-0.265 -0.592,-0.591 -0.003,-1.981 1.607,-3.596 3.589,-3.599 10e-4,0 0.003,0 0.004,0 0.958,0 1.859,0.373 2.538,1.05 0.68,0.678 1.055,1.58 1.056,2.54 0,0.327 -0.264,0.592 -0.591,0.592 0,0 0,0 0,0 -0.327,0 -0.591,-0.264 -0.592,-0.591 0,-0.644 -0.252,-1.249 -0.708,-1.704 -0.455,-0.454 -1.06,-0.704 -1.702,-0.704 -0.001,0 -0.002,0 -0.003,0 -1.329,0.001 -2.409,1.084 -2.407,2.414 -10e-4,0.327 -0.265,0.592 -0.592,0.593 l 0,0 z"
       inkscape:connector-curvature="0"
       style="fill:#000000" /><path
       id="path28"
       d="m 40.699,34.575 c -0.327,0 -0.591,-0.265 -0.591,-0.591 -0.003,-1.981 1.607,-3.596 3.588,-3.599 0.001,0 0.003,0 0.004,0 0.958,0 1.859,0.373 2.538,1.05 0.68,0.678 1.055,1.58 1.056,2.54 0.001,0.327 -0.264,0.592 -0.59,0.592 0,0 -10e-4,0 -10e-4,0 -0.326,0 -0.591,-0.265 -0.591,-0.591 -0.001,-0.644 -0.252,-1.249 -0.708,-1.704 -0.456,-0.454 -1.06,-0.704 -1.703,-0.704 -10e-4,0 -0.002,0 -0.003,0 -1.329,10e-4 -2.409,1.084 -2.407,2.414 0,0.327 -0.265,0.592 -0.592,0.593 l 0,0 z"
       inkscape:connector-curvature="0"
       style="fill:#000000" /><path
       id="path30"
       d="m 34.695,42.51 c -0.326,0 -0.591,-0.265 -0.591,-0.591 -0.002,-1.981 1.607,-3.595 3.589,-3.598 0.001,0 0.003,0 0.004,0 0.958,0 1.859,0.373 2.538,1.049 0.68,0.678 1.055,1.58 1.056,2.54 0,0.327 -0.264,0.592 -0.59,0.592 l -10e-4,0 c -0.327,0 -0.591,-0.265 -0.591,-0.591 -0.001,-0.644 -0.252,-1.25 -0.708,-1.704 -0.455,-0.455 -1.06,-0.704 -1.703,-0.704 0,0 -10e-4,0 -0.002,0 -1.329,10e-4 -2.409,1.084 -2.407,2.414 -0.001,0.327 -0.266,0.593 -0.594,0.593 l 0,0 z"
       inkscape:connector-curvature="0"
       style="fill:#000000" /><path
       id="path32"
       d="m 55.957,38.348 c -10e-4,0 -10e-4,0 0,0 l -3.131,-0.006 c -0.327,-10e-4 -0.591,-0.266 -0.59,-0.593 0,-0.326 0.265,-0.59 0.591,-0.59 0,0 0.001,0 0.001,0 l 3.13,0.006 c 0.327,0 0.591,0.266 0.59,0.592 -0.001,0.326 -0.265,0.591 -0.591,0.591 z"
       inkscape:connector-curvature="0"
       style="fill:#000000" /><path
       id="path34"
       d="m 55.215,40.18 c 0,0 -0.001,0 0,0 l -2.474,-0.004 c -0.327,0 -0.591,-0.266 -0.59,-0.593 0,-0.326 0.265,-0.59 0.591,-0.59 0,0 0,0 0.001,0 l 2.473,0.004 c 0.327,10e-4 0.591,0.266 0.59,0.593 0,0.325 -0.264,0.59 -0.591,0.59 z"
       inkscape:connector-curvature="0"
       style="fill:#000000" /><path
       id="path36"
       d="m 54.443,45.912 -10e-4,0 -1.565,-0.003 c -0.327,-10e-4 -0.591,-0.267 -0.59,-0.593 10e-4,-0.326 0.266,-0.59 0.592,-0.59 0,0 0,0 0.001,0 l 1.565,0.003 c 0.327,0 0.59,0.266 0.59,0.592 -10e-4,0.326 -0.266,0.591 -0.592,0.591 z"
       inkscape:connector-curvature="0"
       style="fill:#000000" /><path
       id="path38"
       d="m 54.443,47.686 -10e-4,0 -1.565,-0.003 c -0.327,0 -0.591,-0.267 -0.59,-0.593 10e-4,-0.326 0.266,-0.59 0.592,-0.59 0,0 0,0 0.001,0 l 1.565,0.003 c 0.327,0 0.59,0.266 0.59,0.592 -10e-4,0.327 -0.266,0.591 -0.592,0.591 z"
       inkscape:connector-curvature="0"
       style="fill:#000000" /><path
       id="path40"
       d="m 43.526,39.51 -0.001,0 -2.356,-0.006 c -0.327,-10e-4 -0.59,-0.266 -0.59,-0.593 10e-4,-0.326 0.265,-0.59 0.591,-0.59 0,0 10e-4,0 10e-4,0 l 2.356,0.005 c 0.327,10e-4 0.591,0.267 0.59,0.593 0,0.327 -0.265,0.591 -0.591,0.591 z"
       inkscape:connector-curvature="0"
       style="fill:#000000" /><path
       id="path42"
       d="m 43.559,41.341 c 0,0 0,0 0,0 l -2.474,-0.004 c -0.327,0 -0.591,-0.266 -0.59,-0.593 0,-0.326 0.265,-0.59 0.591,-0.59 0,0 0,0 0.001,0 l 2.473,0.004 c 0.327,10e-4 0.591,0.266 0.59,0.593 0,0.326 -0.265,0.59 -0.591,0.59 z"
       inkscape:connector-curvature="0"
       style="fill:#000000" /><path
       id="path44"
       d="m 42.012,47.074 c 0,0 -10e-4,0 -0.002,0 l -0.791,-0.003 c -0.327,-0.002 -0.59,-0.268 -0.589,-0.594 10e-4,-0.326 0.266,-0.589 0.591,-0.589 0,0 0.001,0 0.002,0 l 0.791,0.004 c 0.327,10e-4 0.591,0.267 0.589,0.594 -0.001,0.325 -0.265,0.588 -0.591,0.588 z"
       inkscape:connector-curvature="0"
       style="fill:#000000" /><path
       id="path46"
       d="m 43.562,48.848 c 0,0 -10e-4,0 -10e-4,0 l -2.339,-0.004 c -0.327,0 -0.591,-0.266 -0.59,-0.592 0,-0.326 0.265,-0.59 0.591,-0.59 l 0,0 2.34,0.003 c 0.327,10e-4 0.591,0.266 0.59,0.593 -10e-4,0.325 -0.265,0.59 -0.591,0.59 z"
       inkscape:connector-curvature="0"
       style="fill:#000000" /><path
       id="path48"
       d="m 37.31,47.074 c 0,0 0,0 0,0 l -2.341,-0.003 c -0.327,-10e-4 -0.591,-0.266 -0.591,-0.593 10e-4,-0.326 0.266,-0.591 0.592,-0.591 l 10e-4,0 2.34,0.004 c 0.326,0 0.591,0.266 0.59,0.592 0,0.326 -0.265,0.591 -0.591,0.591 z"
       inkscape:connector-curvature="0"
       style="fill:#000000" /><path
       id="path50"
       d="m 36.535,48.848 c 0,0 0,0 0,0 l -1.566,-0.004 c -0.327,0 -0.591,-0.266 -0.59,-0.592 0.001,-0.327 0.266,-0.59 0.592,-0.59 0,0 0,0 0.001,0 l 1.565,0.003 c 0.327,10e-4 0.591,0.267 0.59,0.593 -0.001,0.325 -0.266,0.59 -0.592,0.59 z"
       inkscape:connector-curvature="0"
       style="fill:#000000" /><path
       id="path52"
       d="m 48.402,36.024 c 0,0 -10e-4,0 -0.002,0 l -1.194,-0.006 c -0.327,-10e-4 -0.59,-0.268 -0.588,-0.594 10e-4,-0.326 0.266,-0.589 0.591,-0.589 10e-4,0 0.002,0 0.002,0 l 1.194,0.005 c 0.327,0.002 0.59,0.268 0.589,0.594 -0.002,0.327 -0.266,0.59 -0.592,0.59 z"
       inkscape:connector-curvature="0"
       style="fill:#000000" /><path
       id="path54"
       d="m 48.823,37.855 -10e-4,0 -1.698,-0.004 c -0.327,-10e-4 -0.591,-0.267 -0.59,-0.593 0,-0.326 0.265,-0.59 0.591,-0.59 0,0 10e-4,0 0.002,0 l 1.698,0.004 c 0.327,0.001 0.591,0.267 0.59,0.593 -10e-4,0.326 -0.266,0.59 -0.592,0.59 z"
       inkscape:connector-curvature="0"
       style="fill:#000000" /><path
       id="path56"
       d="m 49.987,43.587 c 0,0 -0.001,0 0,0 l -2.729,-0.003 c -0.326,0 -0.59,-0.266 -0.59,-0.593 0,-0.326 0.265,-0.591 0.591,-0.591 0,0 0,0 0,0 l 2.728,0.003 c 0.327,0 0.591,0.266 0.59,0.592 0.001,0.328 -0.264,0.592 -0.59,0.592 z"
       inkscape:connector-curvature="0"
       style="fill:#000000" /><path
       id="path58"
       d="m 48.825,45.362 -0.001,0 -1.565,-0.003 c -0.327,0 -0.591,-0.266 -0.59,-0.593 0.001,-0.326 0.266,-0.59 0.591,-0.59 0,0 0,0 0,0 l 1.566,0.003 c 0.326,0 0.591,0.266 0.59,0.593 0,0.326 -0.265,0.59 -0.591,0.59 z"
       inkscape:connector-curvature="0"
       style="fill:#000000" /><path
       id="path60"
       d="m 34.695,57.927 c -0.321,0 -0.581,-0.26 -0.581,-0.581 l 0,-15.427 c 0,-0.321 0.26,-0.581 0.581,-0.581 0.321,0 0.581,0.26 0.581,0.581 l 0,15.427 c 0,0.321 -0.259,0.581 -0.581,0.581 z"
       inkscape:connector-curvature="0"
       style="fill:#000000" /><path
       id="path62"
       d="m 40.699,55.216 c -0.321,0 -0.581,-0.26 -0.581,-0.581 l 0,-20.652 c 0,-0.321 0.26,-0.581 0.581,-0.581 0.321,0 0.581,0.26 0.581,0.581 l 0,20.651 c 0,0.322 -0.26,0.582 -0.581,0.582 z"
       inkscape:connector-curvature="0"
       style="fill:#000000" /><path
       id="path64"
       d="m 46.703,51.629 c -0.321,0 -0.581,-0.26 -0.581,-0.581 l 0,-21.325 c 0,-0.321 0.26,-0.581 0.581,-0.581 0.321,0 0.581,0.26 0.581,0.581 l 0,21.325 c 0,0.321 -0.261,0.581 -0.581,0.581 z"
       inkscape:connector-curvature="0"
       style="fill:#000000" /><path
       id="path66"
       d="m 52.707,55.216 c -0.321,0 -0.581,-0.26 -0.581,-0.581 l 0,-24.92 c 0,-0.321 0.26,-0.581 0.581,-0.581 0.321,0 0.581,0.26 0.581,0.581 l 0,24.919 c 0,0.322 -0.261,0.582 -0.581,0.582 z"
       inkscape:connector-curvature="0"
       style="fill:#000000" /></g></svg>