<svg xmlns="http://www.w3.org/2000/svg" data-name="Layer 1" viewBox="0 0 5 5" x="0px" y="0px"><title>hand_nail_Beauty_Cosmetics_Fingernail_Manicure</title><path d="M1.79338,1.81534a2.99471,2.99471,0,0,1-.3058.19952,3.24884,3.24884,0,0,1-.31443.12755c-.25788.09457-.5093.19749-.76277.302-.0227.00936-.00819.04185.01446.03463.282-.08993.56154-.17942.83951-.28273a1.13333,1.13333,0,0,0,.56954-.34085A.02891.02891,0,0,0,1.79338,1.81534Z"></path><path d="M1.90715,1.95c-.007-.0211-.036-.00979-.0351.00961.00866.18364-.17464.29977-.30725.39154a1.26071,1.26071,0,0,1-.45.19547c-.03183.00735-.03749.06131.00067.062a.92891.92891,0,0,0,.574-.24432C1.82121,2.26006,1.96773,2.13314,1.90715,1.95Z"></path><path d="M3.25791,2.63122a2.93461,2.93461,0,0,0-.619.00321c-.23318.00834-.46662.00748-.69989.00436a10.86448,10.86448,0,0,0-1.29729.04194c-.02326.00245-.01775.03671.005.03551.45089-.02382.90954.00666,1.361.01125.41915.00427.83281-.04473,1.25066-.05037C3.28589,2.67674,3.28233,2.63559,3.25791,2.63122Z"></path><path d="M3.22624,2.79563a3.42234,3.42234,0,0,0-.43887.13486c-.16472.05021-.32947.10053-.49629.14341a7.02055,7.02055,0,0,1-.97957.16919c-.02457.00271-.01833.03776.0052.03716a4.32916,4.32916,0,0,0,1.01016-.13019c.13595-.03572.27034-.07648.40359-.12118a1.27748,1.27748,0,0,0-.10539.09308c-.08861.08635-.15889.22783-.27582.27618a2.97716,2.97716,0,0,1-.42686.10028c-.14916.03625-.29631.08023-.44619.11366-.02286.0051-.01815.0412.00509.03633.15778-.03307.31763-.0545.47583-.08525.06916-.01344.14268-.024.21535-.03764-.06388.05315-.12479.11174-.19276.15764a1.54649,1.54649,0,0,1-.4992.2025A10.372,10.372,0,0,0,.47614,4.162a.019.019,0,0,0,.00994.03629,10.0719,10.0719,0,0,0,1.11805-.26058,1.34271,1.34271,0,0,0,.39-.16236,1.21527,1.21527,0,0,0,.34131-.28956c.01489-.0048.02966-.00981.044-.01541A.57885.57885,0,0,0,2.597,3.26679c.09194-.11.20733-.1893.30583-.29043l.00243-.00367a1.79609,1.79609,0,0,0,.33316-.13238C3.26,2.82822,3.2545,2.79108,3.22624,2.79563Z"></path><path d="M3.01588,1.3972A1.41378,1.41378,0,0,0,2.90849.74262a.01982.01982,0,0,0-.03655.01526,1.33317,1.33317,0,0,1,.0407.2287,1.85226,1.85226,0,0,1-.29708.1429c-.01493.0057-.00855.03149.00754.02752a1.41021,1.41021,0,0,0,.29427-.11031c.0029.04612.0044.09245.00492.13929a1.65906,1.65906,0,0,1-.32377.07013,1.1092,1.1092,0,0,0-.24991.04252.73883.73883,0,0,0-.40756.32363.01585.01585,0,0,0,.02529.01908.81119.81119,0,0,1,.56173-.29266.85012.85012,0,0,0,.3945-.07584l0,.02c-.00026.04226-.00006.08452-.0001.12678a.25989.25989,0,0,1-.15979.20939,1.67027,1.67027,0,0,1-.34523.12063c-.02012.00465-.01627.03624.00451.03221a1.15886,1.15886,0,0,0,.46-.13972.29764.29764,0,0,0,.042-.038c.00451.045.00569.05554.00711.0528a.0351.0351,0,0,0,.01833.02413C3.06,1.733,3.01685,1.42769,3.01588,1.3972Z"></path><path d="M3.329.7195A.432.432,0,0,0,3.16317.71031c-.06761.00135-.13436.00888-.20176.01162C2.939.72284,2.94109.75684,2.96183.76A1.80314,1.80314,0,0,0,3.164.78524.37265.37265,0,0,0,3.3295.77318.02931.02931,0,0,0,3.329.7195Z"></path><path d="M3.54175,1.28679a.39081.39081,0,0,0-.148.09346l-.02011.018c0-.06631-.00176-.13259.00261-.19446.01037-.14708.03569-.2947.03341-.44222C3.4094.74225,3.38044.7414,3.37407.75735A1.64887,1.64887,0,0,0,3.285,1.219a1.09178,1.09178,0,0,0,.00379.42976.03135.03135,0,0,0,.05755-.00052.63752.63752,0,0,0,.02494-.15355c.02061-.02133.03959-.04517.06129-.064.04058-.03522.09021-.05918.12991-.09448C3.58083,1.31993,3.571,1.2789,3.54175,1.28679Z"></path><path d="M2.98252,2.54788c-.099-.20384-.33266-.6084-.13459-.808a.019.019,0,0,0-.02313-.03008c-.27987.18962-.02323.6483.08692.86761C2.93376,2.6213,3.00418,2.59248,2.98252,2.54788Z"></path><path d="M3.39647,1.68564c-.02054-.00358-.02644.02256-.0138.03436.26662.24873-.03252.57471-.07984.84817a.02941.02941,0,0,0,.05229.021C3.47748,2.42823,3.77319,1.75133,3.39647,1.68564Z"></path><path d="M3.20171,2.38532c-.05036-.00325-.10585.00575-.147-.03188a.47048.47048,0,0,1-.07793-.15427.44671.44671,0,0,1-.03615-.38962c.0098-.01972-.02116-.03105-.0314-.01244a.51516.51516,0,0,0,.03813.46176c.0543.13169.09369.23368.25535.21453A.04459.04459,0,0,0,3.20171,2.38532Z"></path><path d="M3.89883.61007C3.87655.53566,3.75577.4952,3.684.50213a.78208.78208,0,0,0-.2957.16545A.01675.01675,0,0,0,3.4049.69619c.07416-.03632.147-.08029.22249-.11324.09822-.04288.15939.01743.24155.05755C3.88869.65015,3.904.62725,3.89883.61007Z"></path><path d="M3.84857.71969a1.03937,1.03937,0,0,1-.1643.27362,1.12043,1.12043,0,0,0-.1343.23092c-.00851.02489.02316.05648.04557.03438A1.41126,1.41126,0,0,0,3.78716.97173a.48739.48739,0,0,0,.09993-.2475A.0194.0194,0,0,0,3.84857.71969Z"></path><path d="M3.69856,1.2206c-.01929.01167-.0002.04466.01991.03434a.8693.8693,0,0,1,.29519-.092.20848.20848,0,0,1,.15213.02285c.04072.032.04994.08949.07134.13321a.03622.03622,0,0,0,.069-.0189C4.25762.97183,3.88457,1.108,3.69856,1.2206Z"></path><path d="M4.23894,1.36961c-.22844.08976-.45466.19565-.68121.291-.04475.01883-.01591.08031.02828.06772a2.10765,2.10765,0,0,0,.67368-.32294A.02094.02094,0,0,0,4.23894,1.36961Z"></path><path d="M4.31854,1.75014c-.01886-.08334-.09237-.09849-.16948-.094a1.08517,1.08517,0,0,0-.42437.11926c-.01366.00722-.00977.03136.00765.02792.1301-.02571.43564-.15251.53565-.032C4.28478,1.79159,4.32516,1.77938,4.31854,1.75014Z"></path><path d="M4.372,1.83015a.01717.01717,0,0,0-.03391.00037.394.394,0,0,0-.014.10267.26377.26377,0,0,1-.1094.05745,1.15307,1.15307,0,0,1-.18655.04335c-.11453.02119-.232.02837-.34552.05338-.039.0086-.04487.073.00081.07484a1.43813,1.43813,0,0,0,.50647-.1017C4.349,2.00735,4.40507,2.0073,4.372,1.83015Z"></path><path d="M4.04372,2.36907c-.01782-.05475-.08816-.07976-.13929-.09377a.55675.55675,0,0,0-.23006-.004.02135.02135,0,0,0,.00046.04218,1.1115,1.1115,0,0,1,.20563.036,1.38524,1.38524,0,0,0,.131.06242C4.03616,2.41726,4.05022,2.389,4.04372,2.36907Z"></path><path d="M4.01818,2.433a.01644.01644,0,0,0-.029.008c-.04128.224-.36243.14873-.51889.09439-.04179-.01451-.0802.04422-.03986.071a.6186.6186,0,0,0,.44759.03895C3.973,2.62406,4.0931,2.54425,4.01818,2.433Z"></path><path d="M2.65177,2.20555a1.10109,1.10109,0,0,1-.65858.16023c-.02771-.003-.04143.04149-.01245.04931A.742.742,0,0,0,2.687,2.26635C2.7126,2.24084,2.691,2.18526,2.65177,2.20555Z"></path><path d="M3.33633,1.582a.18289.18289,0,0,0,.07733.14679.22264.22264,0,0,0,.16255-.05015,1.09278,1.09278,0,0,0,.13532-.10751L3.7178,1.564c.02565-.02112-.0229-.12819-.04943-.14618-.05866-.0398-.14369-.00651-.1998.02271A.27711.27711,0,0,0,3.33633,1.582Z"></path><path d="M3.431,2.34325a.149.149,0,0,0-.05028.12542c.01925.04224.07567.06166.11687.0744a.89.89,0,0,0,.13809.02725l.00778.00008c.02664.00478.06745-.08183.06462-.10779-.00625-.05739-.07176-.09259-.11949-.112A.22569.22569,0,0,0,3.431,2.34325Z"></path><path d="M3.34853,1.21907a.16966.16966,0,0,0,.13419.07538c.05056-.01548.08085-.07632.10135-.121a1.01372,1.01372,0,0,0,.05125-.15192l.00124-.00878C3.6459.98343,3.55413.92449,3.5244.92384c-.06574-.00145-.1152.06732-.14419.11835A.25706.25706,0,0,0,3.34853,1.21907Z"></path><path d="M1.46118,2.03815a.2464.2464,0,0,0,.07709.08409c.08584.03634.187-.02833.25192-.08035a.36438.36438,0,0,0,.13439-.21639.16872.16872,0,0,0-.04661-.0991A2.09638,2.09638,0,0,1,1.46118,2.03815Z"></path><path d="M3.10008,1.31129a.16966.16966,0,0,0-.05865-.1423.20654.20654,0,0,0-.15449.03217,1.01372,1.01372,0,0,0-.13433.08751L2.7462,1.2948c-.02553.01727.01.12038.03294.13931.05071.04186.13214.01852.1865-.00358A.25706.25706,0,0,0,3.10008,1.31129Z"></path><path d="M3.556,1.92649a.17459.17459,0,0,0,.02448.15649.21255.21255,0,0,0,.16232.00494,1.04323,1.04323,0,0,0,.15546-.05528l.00789-.00458c.0297-.01114.01893-.12286.00053-.14732-.04068-.05407-.12777-.05029-.18749-.04124A.26455.26455,0,0,0,3.556,1.92649Z"></path><path d="M3.37685,2.75545a.15445.15445,0,0,0-.0026-.1437c-.03724-.02746-.10216-.01257-.149-.00038a1.12447,1.12447,0,0,0-.15032.055l-.00785.00443c-.02879.011-.03312.1138-.01928.13589.0306.04883.11134.0431.16752.03322A.29666.29666,0,0,0,3.37685,2.75545Z"></path></svg>