<svg xmlns="http://www.w3.org/2000/svg" data-name="Layer 1" viewBox="0 0 5 5" x="0px" y="0px"><title>hand_nail_Beauty_Cosmetics_Fingernail_Manicure</title><path d="M3.32592.93609a.02456.02456,0,0,0-.04313.01238.31881.31881,0,0,1-.01754.11793A1.04321,1.04321,0,0,1,3.206,1.179q-.04375.07732-.09045.15332c-.02518.03978-.04993.07985-.07493.11972-.0391.06236-.07708.12541-.11594.18791-.017.02727-.0344.05427-.05364.08-.01027.01374-.02091.0273-.03185.04052S2.82,1.78841,2.80966,1.802c-.01932.02531.01119.07008.04144.05159a.23155.23155,0,0,0,.04439-.029.43151.43151,0,0,0,.03714-.04079.90967.90967,0,0,0,.05507-.07889c.04064-.06384.07941-.12916.11764-.19447.03907-.06675.0781-.13352.11548-.20123.01151-.02085.02242-.042.03315-.06331l.02767-.04808C3.32534,1.11891,3.38,1.02348,3.32592.93609Z"></path><path d="M3.806.869A.02854.02854,0,0,0,3.7778.84532a.02772.02772,0,0,0-.02752.02452.564.564,0,0,1-.15009.36046c-.07635.0939-.37575.49075-.4277.556a1.06451,1.06451,0,0,0-.14835.20765.03719.03719,0,0,0,.05747.04243,1.04654,1.04654,0,0,0,.157-.19594c.04951-.06886.39663-.51524.44447-.57678A.47965.47965,0,0,0,3.806.869Z"></path><path d="M4.264,1.07729c.00165-.041.00162-.1-.03376-.12815A.02521.02521,0,0,0,4.19216.96a.19343.19343,0,0,0-.00483.05413.2516.2516,0,0,1-.00762.05267.3985.3985,0,0,1-.03964.10076,12.52,12.52,0,0,1-.84323.99433.03845.03845,0,0,0,.05481.05253.59319.59319,0,0,0,.05041-.04c.01882-.01812.58924-.62716.69094-.777.02879-.0424.057-.08524.08357-.129a.408.408,0,0,0,.04457-.06348A.29492.29492,0,0,0,4.264,1.07729Z"></path><path d="M4.37515,1.32742c-.027.00263-.04742.03116-.06694.04934l-.06257.05786q-.06432.05908-.1289.11785c-.08491.07757-.71617.55355-.8037.62776-.02306.01955.005.05648.02848.03761.09042-.07263.72638-.54478.81563-.619q.0653-.05432.12914-.1105l.067-.05906c.02269-.02015.04817-.03541.0555-.06716A.03049.03049,0,0,0,4.37515,1.32742Z"></path><path d="M4.4515,1.42109a.024.024,0,1,0-.04763-.0059.2044.2044,0,0,1-.01417.03651c-.00439.01213-.00951.024-.01468.03579a.468.468,0,0,1-.035.065.99328.99328,0,0,1-.0899.11874c-.07206.082-.154.15487-.23152.23086q-.26659.26125-.53239.52341c-.05106.05029-.098.10294-.14534.15709-.04692.0537-.09227.10876-.14057.161-.0247.02673.00663.07193.03511.04635.0948-.08514.19764-.16006.28922-.24923.09173-.08933.18226-.18011.27338-.27014s.18206-.18037.273-.27068a3.173,3.173,0,0,0,.24108-.25287.72328.72328,0,0,0,.09789-.15342.53055.53055,0,0,0,.02893-.07931c.0039-.01428.007-.02871.00954-.04333C4.4513,1.45406,4.44894,1.43805,4.4515,1.42109Z"></path><path d="M4.04736,2.6751c-.01666-.07843-.11074-.112-.18125-.1245a.56519.56519,0,0,0-.23179.01284,1.56514,1.56514,0,0,0-.425.20359c-.025.01492-.00758.05693.0188.04227a1.29229,1.29229,0,0,1,.39146-.16043.57811.57811,0,0,1,.20365-.00067.36184.36184,0,0,1,.08225.02372.49654.49654,0,0,1,.06713.04818C4.0045,2.7409,4.05639,2.7176,4.04736,2.6751Z"></path><path d="M3.93166,2.78634a.02525.02525,0,0,0-.032-.01369c-.04283.01081-.08575.01733-.12766.0322a1.04809,1.04809,0,0,0-.11426.04656,1.5148,1.5148,0,0,0-.22323.13516c-.13888.10155-.26787.21572-.40568.3186a1.48206,1.48206,0,0,1-.24226.15291.02978.02978,0,0,0,.02215.05524,1.73826,1.73826,0,0,0,.448-.26475c.1347-.10432.26428-.21666.40883-.30756a1.2594,1.2594,0,0,1,.12031-.06829A.72085.72085,0,0,1,3.918,2.81835.02478.02478,0,0,0,3.93166,2.78634Z"></path><path d="M4.11831.87378a.62319.62319,0,0,0-.09089.09029c-.037.04554-.07263.09239-.108.13923-.071.094-.78119.82007-.86811.89959a.0226.0226,0,0,0,.0303.03351c.0898-.076.79965-.80139.87991-.88706.04011-.04281.07907-.08673.11787-.13073A.812.812,0,0,0,4.16453.92507C4.18.89751,4.15049.85175,4.11831.87378Z"></path><path d="M3.67693.787c-.08107.12468-.72426.91543-.83035,1.01971-.02054.02019.00576.055.02869.03559C2.99255,1.7432,3.647.95572,3.73742.83162,3.76609.79227,3.70322.74653,3.67693.787Z"></path><path d="M3.25232.83692c-.03059.00488-.05179.0362-.07055.05876-.02.024-.03818.049-.056.07467-.03659.05257-.29157.36556-.32794.41831a.02206.02206,0,0,0,.03547.02618c.04081-.0477.29809-.35748.33982-.40435C3.193.98814,3.21244.9654,3.23222.94294S3.28028.90035,3.28646.87A.0301.0301,0,0,0,3.25232.83692Z"></path><path d="M2.94524,1.20192c-.0491.05443-.09252.11474-.13729.17276q-.06615.08572-.13291.171c-.08992.1145-.17979.22922-.26281.34888a3.0852,3.0852,0,0,0-.39885.7468,2.29765,2.29765,0,0,0-.06508.22506,1.38877,1.38877,0,0,0-.03052.23337.02829.02829,0,0,0,.05614.00674c.01051-.06776.02752-.13423.04327-.20091a1.82558,1.82558,0,0,1,.05736-.19406,2.8348,2.8348,0,0,1,.167-.37181,6.31209,6.31209,0,0,1,.464-.71059c.04679-.06531.09425-.13013.14133-.19523.04764-.06586.27418-.347.314-.418A1.78434,1.78434,0,0,0,2.94524,1.20192Z"></path><path d="M1.4132,1.45815a.02456.02456,0,0,1,.04361.01056.31881.31881,0,0,0,.02245.11709,1.04321,1.04321,0,0,0,.0639.11q.04694.07542.09678.1494c.02682.0387.05323.07769.07987.11648.04167.06067.08226.12207.1237.1829.01808.02654.03664.05278.05694.07768.01084.0133.022.0264.03352.03915s.02032.0271.03126.04026c.02036.02448-.00824.07048-.03924.05328a.23155.23155,0,0,1-.04556-.02717.43151.43151,0,0,1-.03882-.03921.90967.90967,0,0,1-.05832-.07652C1.74,2.15,1.69855,2.08637,1.65763,2.02271c-.04182-.06506-.08361-.13014-.1238-.19622-.01237-.02035-.02416-.04105-.03577-.06187L1.4684,1.71774C1.42142,1.64078,1.36284,1.54772,1.4132,1.45815Z"></path><path d="M.9307,1.41121a.02854.02854,0,0,1,.02722-.02485.02772.02772,0,0,1,.02852.02335.564.564,0,0,0,.165.35387c.08021.09062.396.47461.45059.53763a1.06451,1.06451,0,0,1,.15691.20126.03719.03719,0,0,1-.05565.04479,1.04654,1.04654,0,0,1-.165-.1892c-.05235-.06673-.41783-.49819-.46821-.55768A.47965.47965,0,0,1,.9307,1.41121Z"></path><path d="M.48183,1.63846C.47847,1.5976.476,1.53859.51019,1.509a.02521.02521,0,0,1,.03852.00926.19343.19343,0,0,1,.00709.05388.2516.2516,0,0,0,.00982.0523.3985.3985,0,0,0,.04382.099,12.52,12.52,0,0,0,.88409.95819.03845.03845,0,0,1-.05257.05478.59319.59319,0,0,1-.052-.03787c-.01957-.01732-.615-.602-.72283-.74738C.63556,1.91.6056,1.8684.5772,1.82576A.408.408,0,0,1,.53,1.76421.29492.29492,0,0,1,.48183,1.63846Z"></path><path d="M.38126,1.893c.02711.00149.04868.02915.069.04649l.06494.0552q.06674.05634.13371.11236c.08808.07395.7387.5231.82926.59359.02386.01857-.00262.05664-.02689.03877C1.35785,2.67065.7027,2.22551.61042,2.15506q-.06751-.05154-.13365-.105l-.0694-.05621C.38386,1.97467.35776,1.96049.34911,1.92907A.03049.03049,0,0,1,.38126,1.893Z"></path><path d="M.30889,1.9898a.024.024,0,1,1,.04734-.00789.2044.2044,0,0,0,.01569.03588c.00489.01194.01051.02359.01617.03515a.468.468,0,0,0,.03771.06348.99328.99328,0,0,0,.09479.11488c.07543.07893.16032.1483.241.221q.27729.24987.55382.50068c.05312.04811.10225.09875.15179.15087.04913.05169.09674.10481.14719.155.02579.02567-.00362.07215-.03314.04778-.09828-.0811-.20417-.15165-.29939-.23692-.09539-.08542-.18964-.17232-.28444-.25847s-.18944-.1726-.28406-.259a3.173,3.173,0,0,1-.25145-.24256.72328.72328,0,0,1-.10422-.14919.53055.53055,0,0,1-.03222-.078c-.0045-.01411-.00824-.02839-.01134-.04289C.31047,2.02274.31216,2.00665.30889,1.9898Z"></path><path d="M.76513,3.22581c.01337-.07906.106-.11657.17588-.132a.56519.56519,0,0,1,.23213.00314,1.56514,1.56514,0,0,1,.4331.18564c.02556.01386.01.05656-.017.043a1.29229,1.29229,0,0,0-.39783-.14392.57811.57811,0,0,0-.2035.00785.36184.36184,0,0,0-.08119.02714.49654.49654,0,0,0-.06505.05095A.04778.04778,0,0,1,.76513,3.22581Z"></path><path d="M.88538,3.33211a.02525.02525,0,0,1,.03141-.015c.04325.009.0864.01373.1289.02683a1.04809,1.04809,0,0,1,.11611.04174,1.5148,1.5148,0,0,1,.22869.1257c.143.09565.27666.20433.41865.30135a1.48206,1.48206,0,0,0,.24844.14264.02978.02978,0,0,1-.01982.05612,1.73826,1.73826,0,0,1-.45871-.24578c-.13895-.09859-.27311-.20542-.42134-.29019a1.2594,1.2594,0,0,0-.12306-.0632A.72085.72085,0,0,0,.9004,3.36353.02478.02478,0,0,1,.88538,3.33211Z"></path><path d="M.6189,1.429a.62319.62319,0,0,1,.09459.08641c.03891.04395.07643.08928.11372.13459.07482.09091.81481.78667.905.86249a.0226.0226,0,0,1-.02888.03474C1.61042,2.47511.87084,1.78.78707,1.69779.7452,1.65669.70444,1.61444.66383,1.5721a.812.812,0,0,1-.089-.08989C.55828,1.45533.58583,1.40838.6189,1.429Z"></path><path d="M1.05626,1.32383c.08622.12117.76192.88433.87228.98408.02137.01931-.00345.05516-.02718.03676C1.78,2.25061,1.09321,1.49119.99768,1.371.9674,1.33287,1.0283,1.28454,1.05626,1.32383Z"></path><path d="M1.48258,1.356c.03077.0036.05326.034.073.05576.021.02316.0402.0474.05909.07226.03876.051.30661.353.34515.40422a.02206.02206,0,0,1-.03434.02765c-.04276-.04595-.31278-.3447-.35644-.38978-.02083-.02151-.04119-.04342-.0619-.065s-.04979-.04054-.05723-.07056A.0301.0301,0,0,1,1.48258,1.356Z"></path><path d="M2.062,2.12465c.03364.043.13059.14086.16416.18411.01353-.02653.028-.05281.03964-.08031C2.2282,2.18363,2.127,2.08438,2.089,2.04q-.07038-.08229-.13995-.16527c-.04716-.05609-.09306-.11453-.14439-.16686A1.78437,1.78437,0,0,0,1.5814,1.531c.04273.06928.28083.34065.33118.40447C1.96235,1.99858,2.01247,2.06136,2.062,2.12465Z"></path><path d="M4.06181,2.68845c.03987.01012.06407.0369.05127.06788-.01967.0476-.09619.07065-.15233.08587a1.46593,1.46593,0,0,1-.191.03378l-.011.00028a.056.056,0,0,1-.06842-.04786c-.00152-.06418.085-.10506.14925-.12788A.39446.39446,0,0,1,4.06181,2.68845Z"></path><path d="M4.28058.88648A.058.058,0,0,0,4.21663.82255c-.06187.00458-.11234.06631-.14739.11206a1.18938,1.18938,0,0,0-.0981.1605l-.0037.00972a.0498.0498,0,0,0,.0352.07375c.07484.01873.1493-.04709.19572-.09794A.30161.30161,0,0,0,4.28058.88648Z"></path><path d="M4.52262,1.3549a.05367.05367,0,0,0-.04672-.06943.22427.22427,0,0,0-.15378.07559,1.10078,1.10078,0,0,0-.11762.12835l-.00509.00817a.04609.04609,0,0,0,.01887.07324c.06465.03031.144-.01624.19518-.05418A.27914.27914,0,0,0,4.52262,1.3549Z"></path><path d="M1.38374,1.345a.03911.03911,0,0,1,.042-.04426c.04179.002.07694.04267.1014.07288a.80221.80221,0,0,1,.06905.10644l.00267.00649a.03359.03359,0,0,1-.0224.05036c-.05012.014-.10152-.029-.13374-.06249A.20343.20343,0,0,1,1.38374,1.345Z"></path><path d="M.75151,3.23722c-.03936.01193-.06231.0398-.04811.07016.02183.04665.09932.06617.1561.07881a1.46593,1.46593,0,0,0,.19232.025l.011-.00023A.056.056,0,0,0,1.129,3.36c-.00142-.06419-.08977-.10106-.15495-.12091A.39446.39446,0,0,0,.75151,3.23722Z"></path><path d="M.51,1.46519A.05068.05068,0,0,1,.56355,1.407c.05419.00174.10052.0538.13279.09246a1.03947,1.03947,0,0,1,.09153.13656l.00359.00835a.04352.04352,0,0,1-.028.06568c-.06467.01909-.13209-.03566-.17449-.07837A.26359.26359,0,0,1,.51,1.46519Z"></path><path d="M.88608,1.319a.05367.05367,0,0,1,.05666-.06159c.05738.00184.10645.057.14063.09791A1.10078,1.10078,0,0,1,1.18029,1.5l.0038.00884a.04609.04609,0,0,1-.0297.06956c-.06848.02022-.13988-.03777-.18478-.083A.27914.27914,0,0,1,.88608,1.319Z"></path><path d="M.23507,1.92665a.05367.05367,0,0,1,.04378-.07132.22427.22427,0,0,1,.15681.06909,1.10078,1.10078,0,0,1,.12289.12332l.00542.008a.04609.04609,0,0,1-.01579.074c-.06332.033-.14453-.01021-.19727-.046A.27914.27914,0,0,1,.23507,1.92665Z"></path><path d="M3.38635.79951A.04476.04476,0,0,0,3.33626.75092c-.04769.00425-.08592.05247-.11244.08817A.9179.9179,0,0,0,3.15.96408L3.14723.97162a.03843.03843,0,0,0,.028.0565c.058.01359.11466-.03806.1499-.07784A.23276.23276,0,0,0,3.38635.79951Z"></path><path d="M3.84676.775A.05367.05367,0,0,0,3.78758.71587c-.05726.00424-.104.06137-.13641.10371a1.10078,1.10078,0,0,0-.09079.14854L3.557.97712a.04609.04609,0,0,0,.03258.06825c.06927.01734.13818-.04358.18114-.09065A.27914.27914,0,0,0,3.84676.775Z"></path><path d="M4.03738,3.69324a.17365.17365,0,0,0,.04634-.14691.21445.21445,0,0,0-.063-.07464l-.05892-.05714a.3911.3911,0,0,0,.03332-.05512c.01789-.036.06083-.13371.00239-.15682-.05334-.0211-.13356.0555-.168.08461-.04466.0378-.21491.26007-.18238.27832.07716.0433.15722.0813.23636.12084C3.93789,3.71354,3.98927,3.74661,4.03738,3.69324Z"></path><path d="M2.36324,1.23988A.17365.17365,0,0,0,2.21929,1.185a.21445.21445,0,0,0-.0782.05851L2.08059,1.299a.3911.3911,0,0,0-.05308-.03649c-.03494-.02-.12992-.06855-.15641-.01156-.02418.052.04759.13658.07464.17262.03512.0468.247.22976.26717.19836.04774-.07449.09036-.15219.13447-.22888C2.37768,1.34038,2.4137,1.291,2.36324,1.23988Z"></path><path d="M1.1567,3.72981a.17365.17365,0,0,0-.15218.02394.21445.21445,0,0,0-.03878.08964l-.02492.0782a.3911.3911,0,0,0-.06419-.00529c-.04024,0-.1468.00509-.14147.06771.00487.05715.10918.09486.15056.11269.05374.02315.32857.07658.33042.03933.0044-.08837.00277-.177.00293-.26544C1.21918,3.80984,1.22591,3.74911,1.1567,3.72981Z"></path></svg>