<svg xmlns="http://www.w3.org/2000/svg" data-name="Layer 1" viewBox="0 0 5 5" x="0px" y="0px"><title>hand_nail_Beauty_Cosmetics_Fingernail_Manicure</title><path d="M2.63525,1.39427a3.61409,3.61409,0,0,0-.86051-.05787.699.699,0,0,0-.58846.21907,5.00423,5.00423,0,0,0-.42085.69722A6.35707,6.35707,0,0,1,.347,3.024a.01508.01508,0,0,0,.02406.01815,11.61974,11.61974,0,0,0,.78628-1.28823.64955.64955,0,0,1,.26431-.279.90265.90265,0,0,1,.34143-.05165c.28932-.0073.578.0156.867.01433A.02185.02185,0,0,0,2.63525,1.39427Z"></path><path d="M3.82723,3.07784c-.16733-.21712-.2637-.476-.42993-.69317a3.89958,3.89958,0,0,0-.55563-.54547c-.01757-.01538-.03722.01279-.02141.02838a4.94387,4.94387,0,0,1,.55028.61833,3.67279,3.67279,0,0,0,.42839.6205C3.816,3.12223,3.84086,3.09552,3.82723,3.07784Z"></path><path d="M4.32014,2.85367a6.11923,6.11923,0,0,1-.56305-.598,3.28649,3.28649,0,0,0-.5751-.513c-.01974-.01423-.0385.01324-.02211.02931a8.37223,8.37223,0,0,1,.59808.59816,2.44759,2.44759,0,0,0,.52843.52834A.028.028,0,0,0,4.32014,2.85367Z"></path><path d="M3.02269,2.39431a1.07768,1.07768,0,0,0-.592-.17749,1.14056,1.14056,0,0,1-.70805-.25c-.017-.01678-.04535.00278-.03034.02333a.77594.77594,0,0,0,.52052.28277c.12884.02285.2598.03025.389.05088a1.82406,1.82406,0,0,1,.39166.1226A.03029.03029,0,0,0,3.02269,2.39431Z"></path><path d="M2.82873,2.61022c-.28705-.03839-.57848-.05289-.86721-.074a.92221.92221,0,0,1-.40976-.09627c-.12693-.07127-.24624-.15792-.36668-.23943a.01856.01856,0,0,0-.02234.02962,1.7913,1.7913,0,0,0,.37816.28525,1.61527,1.61527,0,0,0-.1891.3391c-.06743.13144-.1335.2637-.19624.39745-.12563.26777-.23473.54188-.33311.82072a.018.018,0,0,0,.03342.01324c.12906-.26652.26019-.53205.39027-.79807.06151-.12579.12323-.25144.18679-.37621a2.05061,2.05061,0,0,0,.17939-.36217.815.815,0,0,0,.249.063c.3182.02777.64053.05646.96.06117A.03191.03191,0,0,0,2.82873,2.61022Z"></path><path d="M3.44445,1.27712c-.08582-.016-.16956-.035-.255-.05284a.21686.21686,0,0,0-.14.01037.02313.02313,0,0,0-.01684-.00551c-.11507.00708-.225.038-.34214.03383a.01334.01334,0,0,0-.00312.02648.7.7,0,0,0,.28174.00782l-.02112.02418c-.0359.04291-.06926.08284-.10674.12078l-.001-.0039,0-.00015-.00093-.0021-.0016-.00247a.01545.01545,0,0,0-.011-.00586.08493.08493,0,0,1-.06023-.02265.15459.15459,0,0,1-.03076-.06859.01933.01933,0,0,0-.03827.00536.2427.2427,0,0,0,.009.0558.12818.12818,0,0,0,.03145.04938.08847.08847,0,0,0,.07288.02459c-.01062.00976-.0215.01945-.03308.029a.01572.01572,0,0,0,.01557.02685c.10009-.04419.15355-.14115.24253-.19791.11567-.07379.28315.03741.41532-.00579C3.476,1.31561,3.46632,1.2812,3.44445,1.27712Z"></path><path d="M3.62792,1.3078a.40378.40378,0,0,0-.28279.09548c-.13127.07775-.33616.25486-.49081.16369-.01517-.00894-.03822.00856-.024.02421a.22282.22282,0,0,0,.2859.02267,1.806,1.806,0,0,1,.51223-.25661A.025.025,0,0,0,3.62792,1.3078Z"></path><path d="M4.2942,1.55985c-.04532.00588-.08991.01435-.13446.02283a.8232.8232,0,0,0-.18319-.162.60815.60815,0,0,0-.2277-.11207c-.0176-.00346-.02309.01981-.012.02977.06281.05618.139.09811.20615.14907.04443.0337.08429.07418.12612.11152a1.09481,1.09481,0,0,1-.11135.01323c-.10009.006-.20256.00551-.304.00235a.67187.67187,0,0,1,.15073-.04418A.02484.02484,0,0,0,3.804,1.52134c-.20107-.02867-.37231.16312-.56986.07068a.0148.0148,0,0,0-.01706.02261c.09365.11094.22222.08048.34876.03376a1.21089,1.21089,0,0,0,.74138-.04085A.025.025,0,0,0,4.2942,1.55985Z"></path><path d="M4.50795,2.53726A.60648.60648,0,0,1,3.997,2.40956c-.01319-.01128-.03436.00943-.02184.022a.63362.63362,0,0,0,.28173.17914.27079.27079,0,0,0,.27455-.03347A.02536.02536,0,0,0,4.50795,2.53726Z"></path><path d="M4.31811,2.9609a.37265.37265,0,0,1-.31567-.01772,1.11424,1.11424,0,0,1-.23505-.1456c-.0142-.01159-.03638.00975-.02319.0234.11766.12163.45373.39321.60433.17912A.02592.02592,0,0,0,4.31811,2.9609Z"></path><path d="M3.8133,3.20518a.36281.36281,0,0,1-.25492-.055.70125.70125,0,0,1-.15828-.178,2.81852,2.81852,0,0,0-.27787-.34375c-.016-.01669-.04446.00382-.02911.02238a2.564,2.564,0,0,1,.1948.2592,1.333,1.333,0,0,0,.17887.257c.0904.0879.24926.16639.36574.08395C3.85525,3.23493,3.837,3.20414,3.8133,3.20518Z"></path><path d="M3.20393,2.85451a.7896.7896,0,0,1-.48206.14257.56168.56168,0,0,0-.43231.13576A1.99822,1.99822,0,0,0,2.018,3.5824c-.10456.19325-.20364.38806-.295.58793-.0081.01773.01985.0341.03039.01707.11108-.17959.21715-.36147.3216-.545a1.66974,1.66974,0,0,1,.30674-.47025c.14754-.12286.359-.05907.53508-.09095A.42068.42068,0,0,0,3.23168,2.882C3.24313,2.86439,3.22181,2.83923,3.20393,2.85451Z"></path><path d="M3.82818,3.31313a.05993.05993,0,0,0,.069-.0591A.25309.25309,0,0,0,3.8297,3.0813a.99428.99428,0,0,0-.11988-.12708L3.7021,2.94891c-.02344-.0239-.05725-.00775-.07162.0271a.26015.26015,0,0,0,.04517.22223A.23628.23628,0,0,0,3.82818,3.31313Z"></path><path d="M4.37964,3.09083A.06126.06126,0,0,0,4.435,3.0163a.2587.2587,0,0,0-.10635-.1569,1.01631,1.01631,0,0,0-.14827-.09951l-.0089-.00354c-.02878-.01852-.05882.00524-.06525.04324a.26591.26591,0,0,0,.09535.21128A.24152.24152,0,0,0,4.37964,3.09083Z"></path><path d="M4.291,1.98544,4.32,1.97656a.51954.51954,0,0,0-.16126-.012.96829.96829,0,0,0-.23486.06139q.084.0569.16769.11434A.3202.3202,0,0,1,4.291,1.98544Z"></path><path d="M4.51454,1.99292a.205.205,0,0,0-.04291-.01735c.00339.01647-.00748.03654-.027.03166-.04285-.0107-.08367-.022-.12464-.03067L4.291,1.98544a.3202.3202,0,0,0-.19949.15487c.03879.02664.08349.05933.12217.08643L4.217,2.2264a.56533.56533,0,0,1,.17227-.08885.01682.01682,0,0,1,.013.031.69157.69157,0,0,0-.07017.03962l.01335-.00286a.29642.29642,0,0,0,.18853-.10783A.07019.07019,0,0,0,4.51454,1.99292Z"></path><polygon points="4.215 2.228 4.214 2.227 4.213 2.227 4.218 2.23 4.224 2.226 4.217 2.226 4.215 2.228"></polygon><path d="M4.51895,2.448c-.08473-.06536-.17138-.1283-.25885-.19022.02354-.01715.04739-.0339.07195-.04952a.94025.94025,0,0,1-.11865.01856c-.0382-.02684-.084-.06046-.12187-.08646q-.08365-.05743-.16769-.11434a.96829.96829,0,0,1,.23486-.06139.51954.51954,0,0,1,.16126.012.288.288,0,0,1,.15166-.001.02415.02415,0,0,0-.00854-.01438.53524.53524,0,0,0-.579.03788q-.07081-.04793-.14149-.096a.44532.44532,0,0,0,.517-.20262c.01-.0215-.02134-.03745-.0354-.01988a.5815.5815,0,0,1-.57471.1585q-.084-.05795-.16709-.117a.01585.01585,0,0,0-.01908.0253,6.60986,6.60986,0,0,0,1.02956.747C4.52033,2.50865,4.54225,2.46592,4.51895,2.448Zm-.30559-.22118"></path><path d="M4.38927,2.13755a.54735.54735,0,0,0-.16572.08817.90955.90955,0,0,0,.1085-.01752.69157.69157,0,0,1,.07017-.03962A.01682.01682,0,0,0,4.38927,2.13755Z"></path><path d="M4.217,2.2264l.00655-.00067a.54735.54735,0,0,1,.16572-.08817A.56533.56533,0,0,0,4.217,2.2264Z"></path><path d="M4.09153,2.14031c.03787.026.08367.05961.12187.08646l.00029,0C4.175,2.19964,4.13032,2.16695,4.09153,2.14031Z"></path><path d="M4.32,1.97656c.041.00865.08179.02.12464.03067.01955.00488.03042-.01519.027-.03166A.288.288,0,0,0,4.32,1.97656Z"></path><path d="M4.5679,2.66579a.06126.06126,0,0,0,.05682-.07342.2587.2587,0,0,0-.10324-.159A1.01631,1.01631,0,0,0,4.3752,2.331l-.00883-.00372c-.02841-.01908-.05891.00408-.06609.04194a.26591.26591,0,0,0,.09117.21312A.24152.24152,0,0,0,4.5679,2.66579Z"></path><path d="M4.3363,1.61916a.04345.04345,0,0,0-.02852-.05936.1835.1835,0,0,0-.13361.015.72089.72089,0,0,0-.11141.06025l-.00516.00442c-.02112.012-.01612.03866.00561.05524a.18862.18862,0,0,0,.16412.00986A.17131.17131,0,0,0,4.3363,1.61916Z"></path><path d="M2.78133,1.66733a.06126.06126,0,0,1-.04805-.07943A.2587.2587,0,0,1,2.854,1.44177a1.01631,1.01631,0,0,1,.157-.085l.00919-.00268c.0304-.01571.05806.01079.06086.04922a.26591.26591,0,0,1-.11494.2013A.24152.24152,0,0,1,2.78133,1.66733Z"></path><path d="M3.18588,1.70285a.06126.06126,0,0,1-.0395-.084.2587.2587,0,0,1,.13532-.13272,1.01631,1.01631,0,0,1,.165-.06817l.00942-.00171c.03187-.01245.05662.01679.05539.05531a.26591.26591,0,0,1-.13532.1882A.24152.24152,0,0,1,3.18588,1.70285Z"></path><path d="M2.62406,1.3608a.04039.04039,0,0,1-.0037-.06109.17055.17055,0,0,1,.11525-.04829.67.67,0,0,1,.11771-.0015l.00619.00125c.02256.00015.03058.02409.02044.04738a.1753.1753,0,0,1-.12878.08227A.15922.15922,0,0,1,2.62406,1.3608Z"></path><path d="M3.07419,2.62562A.14871.14871,0,0,0,3.09092,2.462a.287.287,0,0,0-.20071-.08066,1.28114,1.28114,0,0,0-.21284-.00068L2.666,2.3829c-.04086.00062-.05932.10082-.04477.14046.03215.08763.14205.1227.21962.1385A.31663.31663,0,0,0,3.07419,2.62562Z"></path></svg>