<svg xmlns="http://www.w3.org/2000/svg" data-name="Layer 1" viewBox="0 0 5 5" x="0px" y="0px"><title>hand_nail_Beauty_Cosmetics_Fingernail_Manicure</title><path d="M2.61643,3.69394a1.449,1.449,0,0,0-.24031-.44562c-.09955-.13589-.36023-.431-.20107-.59137.014-.01409-.00292-.03861-.01948-.02533-.15409.1236-.04975.32885.03241.4657a4.31928,4.31928,0,0,1,.397.60977C2.593,3.72794,2.62281,3.71453,2.61643,3.69394Z"></path><path d="M2.835,3.2c-.14878-.16227-.30124-.3195-.45851-.47344-.01336-.01308-.03381.00883-.02279.023.1242.15975.25129.31581.3838.46882a1.55148,1.55148,0,0,1,.3153.43143c.00992.02611.04635.01311.0448-.01227A.74823.74823,0,0,0,2.835,3.2Z"></path><path d="M3.22261,3.23116c-.17-.13336-.33991-.2667-.50883-.40152-.1615-.1289-.53-.32715-.44928-.579a.01689.01689,0,0,0-.03139-.01244c-.11714.229.10709.40434.26622.53209q.1794.144.35886.288a.99933.99933,0,0,0,.34063.21528A.02463.02463,0,0,0,3.22261,3.23116Z"></path><path d="M3.7494,3.18077c-.11618.23322-.3761.25617-.60291.293a.015.015,0,0,0,.00032.02952.54756.54756,0,0,0,.63263-.31066A.01617.01617,0,0,0,3.7494,3.18077Z"></path><path d="M3.77869,3.01431a4.78765,4.78765,0,0,0-1.268-.8108c-.01411-.00782-.03072.01427-.01939.02571a2.49169,2.49169,0,0,0,.5976.38734,2.96461,2.96461,0,0,1,.33618.20648,2.4287,2.4287,0,0,0,.32008.2357A.02907.02907,0,0,0,3.77869,3.01431Z"></path><path d="M4.264,2.21523a.42758.42758,0,0,1-.21128.18122.39488.39488,0,0,1-.25588-.007c-.04171-.02731-.08406-.05334-.12547-.07876a8.5029,8.5029,0,0,0-.88828-.40531c-.01793-.00835-.03187.01815-.01674.0298a5.06425,5.06425,0,0,0,.77123.405,2.56383,2.56383,0,0,1,.38594.24711.35023.35023,0,0,1,.13115.15115.99351.99351,0,0,0,.07509.19136c.01539.02364.04705.00382.046-.01929a.57633.57633,0,0,0-.24656-.42605.33865.33865,0,0,0,.36388-.2577A.01562.01562,0,0,0,4.264,2.21523Z"></path><path d="M3.79812,2.20814c-.15247-.03671-.239-.192-.36911-.26724a1.84063,1.84063,0,0,1-.24771-.12144.47529.47529,0,0,1-.14394-.23311.01718.01718,0,0,0-.03269.00458.40343.40343,0,0,0,.29281.38192,1.05917,1.05917,0,0,1,.268.1688.43051.43051,0,0,0,.22811.10473C3.81884,2.24937,3.82157,2.21379,3.79812,2.20814Z"></path><path d="M4.16454,1.91375c-.10238-.07581-.20774-.14855-.31314-.22009a1.336,1.336,0,0,0-.20368-.11193,1.90178,1.90178,0,0,0,.29241-.22406.02631.02631,0,0,0,.00795-.02989,1.47121,1.47121,0,0,0-.23748-.31752.016.016,0,0,0-.02533.01948,1.76156,1.76156,0,0,0,.20052.30394c-.103.07065-.20335.1455-.30345.22024a4.389,4.389,0,0,0-.45177-.144.01562.01562,0,0,0-.0115.029A6.1139,6.1139,0,0,1,3.7612,1.723c.08814.05593.17045.12193.25524.18276a.67847.67847,0,0,1,.2308.20893.0259.0259,0,0,0,.04931-.0135A.25764.25764,0,0,0,4.16454,1.91375Z"></path><path d="M3.61236.97094c-.032.01359-.06352.02949-.0948.04633A.0329.0329,0,0,0,3.502,1.002a.44683.44683,0,0,0-.32265.02554,2.7148,2.7148,0,0,0-.4076.09447,4.38888,4.38888,0,0,0-.626.46852c-.20594.13991-.47622.22329-.60986.44847-.07232.12186-.10071.26271-.17843.38275a1.02025,1.02025,0,0,1-.28524.29273c-.01575.01034-.00043.03848.01641.02918a.965.965,0,0,0,.42613-.43323.97635.97635,0,0,1,.22242-.37291,2.4412,2.4412,0,0,1,.31789-.202c.22038-.13185.40656-.30888.6208-.44948a1.03449,1.03449,0,0,1,.39474-.13827,1.50819,1.50819,0,0,1,.37-.08629c-.10589.06484-.20771.14122-.30551.21a3.17044,3.17044,0,0,0-.42987.35591c-.01378.01386.00815.03149.02245.02283.15825-.09583.30962-.20112.4625-.30513.15027-.10223.32108-.18974.46138-.30443A.04048.04048,0,0,0,3.61236.97094Z"></path><path d="M3.0357,3.72188a.79083.79083,0,0,1-.62088.15479c-.1076-.02545-.20715-.07394-.31242-.10657-.11243-.03485-.23066-.03974-.344-.07025-.16823-.04527-.30724-.16654-.48039-.07881-.21408.10846-.42864.20384-.65033.29583-.01706.00708-.01022.036.00875.03195a2.645,2.645,0,0,0,.65267-.25988c.133-.06833.2403.029.3587.08015a1.2061,1.2061,0,0,0,.332.07076,4.01207,4.01207,0,0,0,.60743.14027.60648.60648,0,0,0,.48126-.22583C3.08494,3.73273,3.05691,3.70771,3.0357,3.72188Z"></path><path d="M2.00657,2.77489c-.0538-.0882-.12134-.16814-.17966-.25352a.47578.47578,0,0,1-.09169-.17485c-.00983-.05046-.01475-.10145-.02578-.15187a.01677.01677,0,0,0-.03312.00036.45122.45122,0,0,0,.04821.33135.6946.6946,0,0,0,.25675.28205C2.0026,2.819,2.01651,2.79118,2.00657,2.77489Z"></path><path d="M2.57216,1.66049c-.12059-.09167-.30287.03061-.41007.09144a1.73308,1.73308,0,0,0-.45469.34965c-.0115.01323.00752.02832.02044.02026.12815-.07994.24815-.17157.37849-.2487.118-.06983.29643-.20727.43852-.164A.02827.02827,0,0,0,2.57216,1.66049Z"></path><path d="M2.81028,1.80777a.1296.1296,0,0,0-.02006-.02864c-.00931-.00921-.01807-.01831-.0265-.02835a.3139.3139,0,0,1-.05045-.05866c-.006-.01364-.02938-.00849-.026.00713.00316.01482.001.03.00474.0453a.13814.13814,0,0,0,.0205.04563.20216.20216,0,0,0,.03173.03614.08407.08407,0,0,0,.04461.01928C2.81093,1.85063,2.81951,1.823,2.81028,1.80777Z"></path><path d="M2.50267,1.74819a.84721.84721,0,0,0-.4091.19271A.01835.01835,0,0,0,2.11592,1.97a1.28,1.28,0,0,1,.3954-.19018C2.52944,1.77456,2.5209,1.745,2.50267,1.74819Z"></path><path d="M2.043,2.62124c-.08385-.14309-.27484-.37107-.07292-.50854.01667-.01135.00056-.03621-.01716-.02959a.22066.22066,0,0,0-.14735.2533.41774.41774,0,0,0,.21.32116A.02383.02383,0,0,0,2.043,2.62124Z"></path><path d="M4.12993,3.00432c-.03665.02065-.05877.05621-.09838.07556-.04663.02278-.09808.03325-.14418.05733a.02053.02053,0,0,0,.01581.03786c.07081-.02192.24892-.05.258-.14716C4.16265,3.0126,4.14552,2.99554,4.12993,3.00432Z"></path><path d="M2.90494,1.50633a.07234.07234,0,0,1,.026-.10977.30228.30228,0,0,1,.22988.02233,1.48368,1.48368,0,0,1,.20932.106l.0103.00789a.06212.06212,0,0,1,.011.10135c-.06715.06894-.18933.04788-.27193.02434A.37624.37624,0,0,1,2.90494,1.50633Z"></path><path d="M2.09362,2.64035a.06224.06224,0,0,1,.07285-.06412c.066.00912.11581.07868.15023.13007a1.27652,1.27652,0,0,1,.09414.1786l.0033.01066a.05345.05345,0,0,1-.04273.07659c-.08144.015-.15671-.06061-.203-.11824A.3237.3237,0,0,1,2.09362,2.64035Z"></path><path d="M2.48259,1.9851A.07989.07989,0,0,1,2.517,1.8654a.33383.33383,0,0,1,.25239.03682,1.63851,1.63851,0,0,1,.22528.12808l.01094.00925a.06861.06861,0,0,1,.00673.11238c-.07773.07248-.21138.04277-.30125.01242A.4155.4155,0,0,1,2.48259,1.9851Z"></path><path d="M2.15879,2.23153a.07989.07989,0,0,1,.04749-.11516.33383.33383,0,0,1,.24677.06451,1.63851,1.63851,0,0,1,.20972.15221l.00985.0104a.06861.06861,0,0,1-.00574.11243c-.08527.06344-.21481.01913-.30078-.021A.4155.4155,0,0,1,2.15879,2.23153Z"></path></svg>