<svg xmlns="http://www.w3.org/2000/svg" xmlns:xlink="http://www.w3.org/1999/xlink" version="1.1" x="0px" y="0px" viewBox="0 0 90 90" enable-background="new 0 0 90 90" xml:space="preserve"><path d="M66.047,42.59c-0.103,0-0.202,0-0.298,0c-0.144-2.574-0.935-4.928-2.375-7.061c-0.007-0.01-0.012-0.02-0.015-0.031  c-1.968-2.8-4.343-4.167-7.124-4.104c-1.417-0.013-2.753,0.317-4.01,0.991c-1.15-1.792-2.949-2.689-5.394-2.689  c-0.803-0.053-1.604,0.093-2.407,0.44c0.306-2.682,0.684-5.613,1.133-8.791c0.833-6.09,0.513-10.546-0.959-13.366l-0.016-0.016  c-1.776-3.552-4.19-5.13-7.249-4.734l0.015-0.016c-2.856,0.237-5.042,1.521-6.557,3.853l0.016-0.015  c-1.323,1.963-2.142,4.531-2.453,7.705c-0.279,2.8-0.526,7.01-0.74,12.628c-0.189,5.662-0.11,10.426,0.236,14.295  c0.026,0.285,0.1,0.549,0.22,0.785c-1.196,0.725-2.412,1.68-3.648,2.862c-3.529,3.384-5.275,7.104-5.237,11.164  c-0.075,2.871,1.367,6.137,4.325,9.798c1.683,2.166,4.277,3.98,7.784,5.441c-0.459,0.882-0.669,1.768-0.629,2.656  c-0.128,3.252,1.795,5.852,5.771,7.8l-0.016-0.016c2.73,1.371,5.734,2.262,9.011,2.674h0.016c3.333,0.398,6.676,0.032,10.033-1.101  l0.017-0.017c3.957-1.268,6.018-4.456,6.179-9.562c0.006-0.161-0.005-0.317-0.031-0.472c0.665-0.436,1.303-0.956,1.919-1.556  c2.32-2.242,3.474-4.879,3.46-7.91c0.006-0.307-0.046-0.795-0.158-1.462c-0.055-0.343-0.085-0.567-0.095-0.677  c0-0.049,0-0.096,0-0.143c1.01-0.541,2.02-1.301,3.036-2.279l0.015-0.015c2.456-2.357,3.661-4.92,3.617-7.69  c-0.011-2.419-0.686-4.537-2.028-6.354C69.875,43.521,68.087,42.514,66.047,42.59z M52.949,49.919l-0.017,0.047  c0.835-1.558,1.416-3.198,1.746-4.923h0.016c0.232-1.244,0.348-2.522,0.346-3.836c-0.005-1.751-0.283-3.401-0.833-4.954  c0.642-0.334,1.318-0.507,2.028-0.52c1.37,0.063,2.56,0.813,3.569,2.249l-0.016-0.031c1.096,1.63,1.641,3.448,1.636,5.457  c0.001,2.418-0.587,4.645-1.761,6.684l0.015-0.017c-1.197,2.046-2.732,3.104-4.606,3.177c-0.743,0.002-1.294-0.26-1.651-0.785V52.45  c-0.337-0.613-0.53-1.391-0.583-2.328C52.877,50.055,52.914,49.986,52.949,49.919z M31.955,27.542  c0.206-5.495,0.441-9.61,0.708-12.344c0.232-2.362,0.819-4.28,1.762-5.756l0.015-0.016c0.75-1.149,1.834-1.772,3.255-1.871  l0.016-0.016c1.217,0.016,2.219,0.807,3.004,2.375l-0.016-0.016c1.043,2.295,1.227,5.912,0.55,10.851  c-0.778,5.557-1.344,10.374-1.699,14.451c-0.047,0.479,0.059,0.923,0.314,1.337c0.259,0.414,0.616,0.707,1.07,0.88  c0.451,0.176,0.906,0.197,1.367,0.063c0.464-0.137,0.842-0.398,1.133-0.787c1.221-1.627,2.354-2.513,3.397-2.658  c0.801,0,1.404,0.262,1.808,0.787c0.413,0.661,0.753,1.227,1.023,1.698c0.092,0.21,0.165,0.393,0.22,0.551  c0.016,0.031,0.031,0.063,0.047,0.094c0.52,1.251,0.776,2.599,0.771,4.042c-0.003,1.034-0.098,2.041-0.285,3.018h0.017  c-0.257,1.297-0.703,2.527-1.337,3.697c-0.005,0.018-0.01,0.033-0.016,0.047c-0.095,0.189-0.189,0.378-0.282,0.565  c-0.991,1.603-2.213,2.441-3.666,2.518c-0.595,0.008-1.036-0.238-1.321-0.74l0.033,0.032c-0.356-0.731-0.535-1.691-0.535-2.879  c0.051-0.383,0.318-1.212,0.802-2.483c0.012-0.027,0.021-0.054,0.032-0.079c0.131-0.304,0.241-0.575,0.33-0.818  c0.203-0.561,0.177-1.111-0.079-1.65c-0.255-0.548-0.664-0.924-1.227-1.133c-0.559-0.203-1.109-0.178-1.651,0.079  c-0.545,0.255-0.924,0.666-1.131,1.227c-0.071,0.197-0.161,0.423-0.268,0.675c-0.006,0.018-0.011,0.034-0.016,0.049  c-0.328-0.402-0.716-0.77-1.163-1.102c-1.291-0.996-2.968-1.494-5.032-1.494c-0.583-0.002-1.176,0.051-1.777,0.157  C31.831,37.242,31.775,32.792,31.955,27.542z M60.543,69.023c-1.349,1.318-2.88,2.026-4.591,2.123  c-0.599,0.029-1.102,0.266-1.51,0.708c-0.405,0.442-0.594,0.963-0.566,1.558c0.028,0.6,0.265,1.102,0.708,1.509  c0.442,0.405,0.961,0.595,1.557,0.567c0.362-0.015,0.719-0.047,1.069-0.096c-0.349,2.141-1.392,3.557-3.128,4.246l0.014-0.015  c-2.718,0.92-5.428,1.224-8.129,0.911h-0.016c-2.755-0.344-5.281-1.089-7.58-2.232l-0.015-0.017  c-2.108-1.03-3.225-2.331-3.351-3.899c0.052-0.384,0.23-0.776,0.535-1.18c1.104,0.318,2.267,0.612,3.491,0.882  c0.583,0.126,1.129,0.026,1.635-0.299c0.509-0.321,0.828-0.772,0.959-1.353c0.127-0.585,0.027-1.129-0.299-1.637  c-0.321-0.507-0.771-0.827-1.352-0.958c-6.36-1.395-10.727-3.491-13.099-6.291c-2.159-2.673-3.275-5.026-3.35-7.061  c0.044-2.901,1.344-5.574,3.9-8.021h-0.016c1.62-1.549,3.182-2.591,4.686-3.129c0.619-0.175,1.221-0.264,1.809-0.267  c0.998,0,1.815,0.215,2.454,0.645c0.503,0.376,0.746,0.905,0.724,1.589c-0.032,1.021-0.473,1.954-1.321,2.799v0.015  c-1.369,1.382-2.354,2.394-2.958,3.036c-0.222,0.086-0.432,0.218-0.629,0.393c-0.413,0.372-0.648,0.834-0.708,1.385  c-0.062,0.553,0.07,1.055,0.393,1.509c0.329,0.449,0.764,0.732,1.306,0.85c0.766,0.229,1.825,0.113,3.176-0.346  c0.014-0.013,0.03-0.022,0.047-0.032c0.63-0.23,1.091-0.361,1.384-0.395c1.356,0.043,2.762,0.604,4.214,1.684l-0.031-0.016  c1.333,1.024,2.114,2.082,2.343,3.176c0.086,0.589,0.368,1.061,0.849,1.416c0.484,0.365,1.024,0.506,1.621,0.425  c0.586-0.086,1.057-0.368,1.415-0.849c0.363-0.484,0.505-1.025,0.424-1.62c-0.204-1.884-1.269-3.666-3.191-5.347  c1.452-0.01,2.778-0.413,3.978-1.211c0.089,0.174,0.182,0.342,0.283,0.504v-0.017c1.108,1.948,2.908,2.923,5.395,2.925  c0.326,0.008,0.646-0.004,0.959-0.031c0.122,1.511,0.824,2.784,2.107,3.821l0.016,0.017c1.187,0.964,2.639,1.478,4.355,1.541  c0.021,0.156,0.046,0.334,0.078,0.535v0.014c0.057,0.34,0.088,0.587,0.095,0.74C62.668,66.063,61.955,67.66,60.543,69.023z   M66.819,56.521l-0.016,0.017c-1.354,1.307-2.675,1.994-3.964,2.062c-0.772,0-1.428-0.193-1.966-0.583l-0.016-0.015  c-0.32-0.265-0.487-0.59-0.502-0.976c-0.002-0.116-0.002-0.205,0-0.269c0.02-0.066,0.046-0.139,0.078-0.22  c0.118-0.284,0.177-0.567,0.173-0.849c1.044-0.853,1.981-1.99,2.814-3.412l0.016-0.016c0.894-1.556,1.528-3.197,1.902-4.924  c0.258-0.084,0.494-0.221,0.707-0.408c0.687,0.074,1.311,0.494,1.873,1.259c0.795,1.077,1.188,2.335,1.179,3.774  C69.055,53.59,68.295,55.11,66.819,56.521z"></path></svg>