<svg xmlns="http://www.w3.org/2000/svg" data-name="Warstwa 1" viewBox="0 0 100 100" x="0px" y="0px"><title>hand_rock2</title><path d="M70.83,25H63l-3,3.17v5.59H53.59L50.83,31H44V15l-3-3H33.17L30,15.17V52H25.17L20,57.17V76.83L37.17,94H56.83L74,76.83V28.17ZM54,37.76h6V53.17l-.83.83H54ZM44,35h5.17l.83.83V54H44.83L44,53.17ZM34,50V16.83l.83-.83h4.34l.83.83V52H34ZM70,75.17,55.17,90H38.83L24,75.17V58.83L26.83,56H41.17l.83.83v2.34L39.17,62H30v4H40.83L48,58H60.83L64,54.83v-25l.83-.83h4.34l.83.83Z"></path></svg>