<?xml version="1.0" encoding="UTF-8" standalone="no"?>
<svg
   xmlns:dc="http://purl.org/dc/elements/1.1/"
   xmlns:cc="http://creativecommons.org/ns#"
   xmlns:rdf="http://www.w3.org/1999/02/22-rdf-syntax-ns#"
   xmlns:svg="http://www.w3.org/2000/svg"
   xmlns="http://www.w3.org/2000/svg"
   xmlns:sodipodi="http://sodipodi.sourceforge.net/DTD/sodipodi-0.dtd"
   xmlns:inkscape="http://www.inkscape.org/namespaces/inkscape"
   data-name="Warstwa 1"
   viewBox="0 0 84 54"
   x="0px"
   y="0px"
   id="svg2"
   version="1.1"
   inkscape:version="0.91 r13725"
   sodipodi:docname="mr_modern_paper.svg"
   width="84"
   height="54">
  <metadata
     id="metadata12">
    <rdf:RDF>
      <cc:Work
         rdf:about="">
        <dc:format>image/svg+xml</dc:format>
        <dc:type
           rdf:resource="http://purl.org/dc/dcmitype/StillImage" />
        <dc:title>hand_paper</dc:title>
      </cc:Work>
    </rdf:RDF>
  </metadata>
  <defs
     id="defs10" />
  <sodipodi:namedview
     pagecolor="#ffffff"
     bordercolor="#666666"
     borderopacity="1"
     objecttolerance="10"
     gridtolerance="10"
     guidetolerance="10"
     inkscape:pageopacity="0"
     inkscape:pageshadow="2"
     inkscape:window-width="754"
     inkscape:window-height="480"
     id="namedview8"
     showgrid="false"
     fit-margin-top="0"
     fit-margin-left="0"
     fit-margin-right="0"
     fit-margin-bottom="0"
     inkscape:zoom="2.36"
     inkscape:cx="42"
     inkscape:cy="32"
     inkscape:window-x="0"
     inkscape:window-y="0"
     inkscape:window-maximized="0"
     inkscape:current-layer="svg2" />
  <title
     id="title4">hand_paper</title>
  <path
     d="M 64,50.83 64,44 72.83,44 76,40.83 76,34 80.83,34 84,30.83 84,23.17 80.83,20 78,20 78,13.17 74.83,10 51.83,10 53,8.83 53,3.17 49.83,0 17.17,0 0,17.17 0,36.83 17.17,54 60.83,54 Z M 18.83,50 4,35.17 4,18.83 18.83,4 48.17,4 49,4.83 49,7.17 46.17,10 30,10 l 0,4 43.17,0 0.83,0.83 0,5.17 -30,0 0,4 35.17,0 0.83,0.83 0,4.34 L 79.17,30 44,30 l 0,4 28,0 0,5.17 L 71.17,40 44,40 l 0,4 16,0 0,5.17 -0.83,0.83 z"
     id="path6"
     inkscape:connector-curvature="0" />
</svg>
