<?xml version="1.0" encoding="UTF-8" standalone="no"?>
<svg
   xmlns:dc="http://purl.org/dc/elements/1.1/"
   xmlns:cc="http://creativecommons.org/ns#"
   xmlns:rdf="http://www.w3.org/1999/02/22-rdf-syntax-ns#"
   xmlns:svg="http://www.w3.org/2000/svg"
   xmlns="http://www.w3.org/2000/svg"
   xmlns:sodipodi="http://sodipodi.sourceforge.net/DTD/sodipodi-0.dtd"
   xmlns:inkscape="http://www.inkscape.org/namespaces/inkscape"
   viewBox="0 0 66 45"
   version="1.1"
   x="0px"
   y="0px"
   id="svg2"
   inkscape:version="0.91 r13725"
   sodipodi:docname="pixie_scissors.svg"
   width="66"
   height="45">
  <metadata
     id="metadata18">
    <rdf:RDF>
      <cc:Work
         rdf:about="">
        <dc:format>image/svg+xml</dc:format>
        <dc:type
           rdf:resource="http://purl.org/dc/dcmitype/StillImage" />
        <dc:title>Hand Right Two</dc:title>
      </cc:Work>
    </rdf:RDF>
  </metadata>
  <defs
     id="defs16" />
  <sodipodi:namedview
     pagecolor="#ffffff"
     bordercolor="#666666"
     borderopacity="1"
     objecttolerance="10"
     gridtolerance="10"
     guidetolerance="10"
     inkscape:pageopacity="0"
     inkscape:pageshadow="2"
     inkscape:window-width="754"
     inkscape:window-height="480"
     id="namedview14"
     showgrid="false"
     fit-margin-top="0"
     fit-margin-left="0"
     fit-margin-right="0"
     fit-margin-bottom="0"
     inkscape:zoom="3.025641"
     inkscape:cx="31.5"
     inkscape:cy="22.5"
     inkscape:window-x="0"
     inkscape:window-y="0"
     inkscape:window-maximized="0"
     inkscape:current-layer="svg2" />
  <title
     id="title4">Hand Right Two</title>
  <desc
     id="desc6">Created with Sketch.</desc>
  <g
     id="g8"
     transform="matrix(0,-1,-1,0,72,63)"
     style="fill:none;fill-rule:evenodd;stroke:none;stroke-width:1">
    <g
       id="g10"
       style="fill:#000000">
      <path
         d="m 18,43.5 0,10.5 3,0 0,-10.5 0,-10.5 -3,0 0,10.5 z m 9,25.5 27,0 0,3 -28,0 -2,0 0,-9 3,0 0,6 z m -6,-15 3,0 0,9 -3,0 0,-9 z m 6,-21 3,0 0,3 -3,0 0,-3 z m 0,3 3,0 0,3 -3,0 0,-3 z m 27,21 3,0 0,6 -3,0 0,-6 z m 3,-21 3,0 0,3 -3,0 0,-3 z m 0,3 3,0 0,3 -3,0 0,-3 z m 0,15 3,0 0,3 -3,0 0,-3 z m 0,-12 3,0 0,12 -3,0 0,-12 z m -6,21 3,0 0,6 -3,0 0,-6 z m -15,-36 3,0 0,12 -3,0 0,-12 z m -3,-9 3,0 0,9 -3,0 0,-9 z m -3,-9 3,0 0,9 -3,0 0,-9 z m 21,0 3,0 0,9 -3,0 0,-9 z m -12,0 3,0 0,9 -3,0 0,-9 z m 21,0 3,0 0,9 -3,0 0,-9 z m -18,9 3,0 0,9 -3,0 0,-9 z m 3,9 3,0 0,9 -3,0 0,-9 z m 9,0 3,0 0,9 -3,0 0,-9 z m -15,12 -3,0 0,3 3,0 0,-3 z m -9,0 -3,0 0,3 3,0 0,-3 z m -9,-9 3,0 0,3 -3,0 0,-3 z m 6,15 -6,0 0,3 6,0 0,-3 z m -3,-15 6,0 0,3 -6,0 0,-3 z m 9,18 -3,0 0,3 3,0 0,-3 z m -3,-6 -3,0 0,9 3,0 0,-9 z m 18,-24 3,0 0,9 -3,0 0,-9 z m 9,0 3,0 0,9 -3,0 0,-9 z m -27,9 6,0 0,3 -6,0 0,-3 z m 3,-21 6,0 0,3 -6,0 0,-3 z m 21,0 6,0 0,3 -6,0 0,-3 z m -15,36 -3,0 0,3 3,0 0,-3 z m -3,3 -3,0 0,3 3,0 0,-3 z m 0,3 -3,0 0,3 3,0 0,-3 z m 6,-6 -3,0 0,3 3,0 0,-3 z m 3,0 -3,0 0,3 3,0 0,-3 z m 6,12 -3,0 0,3 3,0 0,-3 z m -3,-3 -12,0 0,3 12,0 0,-3 z m 6,-9 -9,0 0,3 9,0 0,-3 z"
         id="path12"
         inkscape:connector-curvature="0" />
    </g>
  </g>
</svg>
