<?xml version="1.0" encoding="UTF-8" standalone="no"?>
<svg
   xmlns:dc="http://purl.org/dc/elements/1.1/"
   xmlns:cc="http://creativecommons.org/ns#"
   xmlns:rdf="http://www.w3.org/1999/02/22-rdf-syntax-ns#"
   xmlns:svg="http://www.w3.org/2000/svg"
   xmlns="http://www.w3.org/2000/svg"
   xmlns:sodipodi="http://sodipodi.sourceforge.net/DTD/sodipodi-0.dtd"
   xmlns:inkscape="http://www.inkscape.org/namespaces/inkscape"
   viewBox="0 0 48 48"
   version="1.1"
   x="0px"
   y="0px"
   id="svg2"
   inkscape:version="0.91 r13725"
   sodipodi:docname="pixie_paper.svg"
   width="48"
   height="48">
  <metadata
     id="metadata18">
    <rdf:RDF>
      <cc:Work
         rdf:about="">
        <dc:format>image/svg+xml</dc:format>
        <dc:type
           rdf:resource="http://purl.org/dc/dcmitype/StillImage" />
        <dc:title>Hand Left Rock</dc:title>
      </cc:Work>
    </rdf:RDF>
  </metadata>
  <defs
     id="defs16" />
  <sodipodi:namedview
     pagecolor="#ffffff"
     bordercolor="#666666"
     borderopacity="1"
     objecttolerance="10"
     gridtolerance="10"
     guidetolerance="10"
     inkscape:pageopacity="0"
     inkscape:pageshadow="2"
     inkscape:window-width="754"
     inkscape:window-height="480"
     id="namedview14"
     showgrid="false"
     fit-margin-top="0"
     fit-margin-left="0"
     fit-margin-right="0"
     fit-margin-bottom="0"
     inkscape:zoom="3.025641"
     inkscape:cx="15"
     inkscape:cy="24"
     inkscape:window-x="0"
     inkscape:window-y="0"
     inkscape:window-maximized="0"
     inkscape:current-layer="svg2" />
  <title
     id="title4">Hand Left Rock</title>
  <desc
     id="desc6">Created with Sketch.</desc>
  <g
     id="g8"
     transform="matrix(-1,0,0,1,72,-15)"
     style="fill:none;fill-rule:evenodd;stroke:none;stroke-width:1">
    <g
       id="g10"
       style="fill:#000000">
      <path
         d="m 69,30 0,24 -6,0 0,3 9,0 0,-2 0,-26.5 0,-1.5 -6,0 0,3 3,0 z m -15,27 0,3 9,0 0,-3 -9,0 z m -18,3 0,3 18,0 0,-3 -18,0 z m -6,-27 0,3 9,0 0,-3 -9,0 z m 3,24 0,3 3,0 0,-3 -3,0 z m 27,-33 0,3 6,0 0,-3 -6,0 z m -24,-3 0,3 3,0 0,-3 -3,0 z m 3,-3 0,3 3,0 0,-3 -3,0 z m 15,0 0,3 3,0 0,-3 -3,0 z m 3,3 0,3 3,0 0,-3 -3,0 z m -15,-6 0,3 12,0 0,-3 -12,0 z m -9,36 0,3 9,0 0,-3 -9,0 z m -3,-9 0,3 9,0 0,-3 -9,0 z m 0,-18 0,3 24,0 0,-3 -24,0 z m 0,27 0,6 3,0 0,-6 -3,0 z m -3,-9 0,9 3,0 0,-9 -3,0 z m -3,-6 0,6 3,0 0,-6 -3,0 z m 3,-9 0,9 3,0 0,-9 -3,0 z"
         id="path12"
         inkscape:connector-curvature="0" />
    </g>
  </g>
</svg>
