<svg xmlns="http://www.w3.org/2000/svg" xmlns:xlink="http://www.w3.org/1999/xlink" version="1.1" x="0px" y="0px" viewBox="0 0 100 100" style="enable-background:new 0 0 100 100;" xml:space="preserve"><style type="text/css">
	.st0{fill:#1D1D1B;}
</style><path class="st0" d="M47.5,41.41H45 M70,53.91h-2.5v2.5H70V53.91z M62.5,46.41H60v2.5h2.5V46.41z M62.5,48.91H60v2.5h2.5V48.91z   M62.5,51.41H60v2.5h2.5V51.41z M62.5,41.41H60v2.5h2.5V41.41z M62.5,41.41H60 M70,46.41h-2.5v2.5H70V46.41z M70,43.91h-2.5v2.5H70  V43.91z M70,41.41h-2.5v2.5H70V41.41z M70,38.91h-2.5v2.5H70V38.91z M70,36.41h-2.5v2.5H70V36.41z M70,33.91h-2.5v2.5H70V33.91z   M70,31.41h-2.5v2.5H70V31.41z M70,28.91h-2.5v2.5H70V28.91z M70,26.41h-2.5v2.5H70V26.41z M70,23.91h-2.5v2.5H70V23.91z M70,48.91  h-2.5v2.5H70V48.91z M70,51.41h-2.5v2.5H70V51.41z M70,56.41h-2.5v2.5H70V56.41z M70,58.91h-2.5v2.5H70V58.91z M70,61.41h-2.5v2.5  H70V61.41z M67.5,63.91H65v2.5h2.5V63.91z M67.5,66.41H65v2.5h2.5V66.41z M67.5,68.91H65v2.5h2.5V68.91z M65,71.41h-2.5v2.5H65  V71.41z M65,73.91h-2.5v2.5H65V73.91z M62.5,73.91H60v2.5h2.5V73.91z M60,73.91h-2.5v2.5H60V73.91z M57.5,73.91H55v2.5h2.5V73.91z   M55,73.91h-2.5v2.5H55V73.91z M52.5,73.91H50v2.5h2.5V73.91z M50,73.91h-2.5v2.5H50V73.91z M47.5,73.91H45v2.5h2.5V73.91z   M45,73.91h-2.5v2.5H45V73.91z M42.5,73.91H40v2.5h2.5V73.91z M62.5,43.91H60v2.5h2.5V43.91z M47.5,41.41H45v2.5h2.5V41.41z   M47.5,43.91H45v2.5h2.5V43.91z M47.5,46.41H45v2.5h2.5V46.41z M47.5,48.91H45v2.5h2.5V48.91z M40,41.41h-2.5 M40,41.41h-2.5v2.5H40  V41.41z M40,38.91h-2.5v2.5H40V38.91z M47.5,38.91H45v2.5h2.5V38.91z M65,21.41h-2.5v2.5H65V21.41z M50,38.91h-2.5v2.5H50V38.91z   M52.5,38.91H50v2.5h2.5V38.91z M55,41.41h-2.5v2.5H55V41.41z M55,43.91h-2.5v2.5H55V43.91z M55,46.41h-2.5v2.5H55V46.41z M55,48.91  h-2.5v2.5H55V48.91z M55,51.41h-2.5v2.5H55V51.41z M57.5,53.91H55v2.5h2.5V53.91z M60,53.91h-2.5v2.5H60V53.91z M52.5,53.91H50v2.5  h2.5V53.91z M57.5,38.91H55v2.5h2.5V38.91z M60,38.91h-2.5v2.5H60V38.91z M67.5,21.41H65v2.5h2.5V21.41z M40,43.91h-2.5v2.5H40  V43.91z M40,46.41h-2.5v2.5H40V46.41z M42.5,48.91H40v2.5h2.5V48.91z M45,48.91h-2.5v2.5H45V48.91z M47.5,51.41H45v2.5h2.5V51.41z   M50,53.91h-2.5v2.5H50V53.91z M50,56.41h-2.5v2.5H50V56.41z M47.5,58.91H45v2.5h2.5V58.91z M45,58.91h-2.5v2.5H45V58.91z   M42.5,56.41H40v2.5h2.5V56.41z M37.5,46.41H35v2.5h2.5V46.41z M35,46.41h-2.5v2.5H35V46.41z M32.5,48.91H30v2.5h2.5V48.91z   M32.5,51.41H30v2.5h2.5V51.41z M32.5,53.91H30v2.5h2.5V53.91z M32.5,56.41H30v2.5h2.5V56.41z M35,58.91h-2.5v2.5H35V58.91z   M35,61.41h-2.5v2.5H35V61.41z M37.5,63.91H35v2.5h2.5V63.91z M40,66.41h-2.5v2.5H40V66.41z M40,68.91h-2.5v2.5H40V68.91z   M42.5,71.41H40v2.5h2.5V71.41z M42.5,73.91H40v2.5h2.5V73.91z M42.5,21.41H40v2.5h2.5V21.41z M45,21.41h-2.5v2.5H45V21.41z   M47.5,23.91H45v2.5h2.5V23.91z M47.5,26.41H45v2.5h2.5V26.41z M47.5,28.91H45v2.5h2.5V28.91z M47.5,31.41H45v2.5h2.5V31.41z   M47.5,33.91H45v2.5h2.5V33.91z M47.5,38.91v-2.5H45v2.5 M40,23.91h-2.5v2.5H40V23.91z M40,26.41h-2.5v2.5H40V26.41z M40,28.91h-2.5  v2.5H40V28.91z M40,31.41h-2.5v2.5H40V31.41z M40,33.91h-2.5v2.5H40V33.91z M40,38.91v-2.5h-2.5v2.5 M62.5,28.91H60v2.5h2.5V28.91z   M62.5,26.41H60v2.5h2.5V26.41z M62.5,23.91H60v2.5h2.5V23.91z M62.5,31.41H60v2.5h2.5V31.41z M62.5,33.91H60v2.5h2.5V33.91z   M62.5,36.41H60v2.5h2.5V36.41z M62.5,38.91H60v2.5h2.5V38.91z"></path></svg>