<?xml version="1.0" encoding="UTF-8" standalone="no"?>
<svg
   xmlns:dc="http://purl.org/dc/elements/1.1/"
   xmlns:cc="http://creativecommons.org/ns#"
   xmlns:rdf="http://www.w3.org/1999/02/22-rdf-syntax-ns#"
   xmlns:svg="http://www.w3.org/2000/svg"
   xmlns="http://www.w3.org/2000/svg"
   xmlns:sodipodi="http://sodipodi.sourceforge.net/DTD/sodipodi-0.dtd"
   xmlns:inkscape="http://www.inkscape.org/namespaces/inkscape"
   version="1.1"
   x="0px"
   y="0px"
   viewBox="0 0 71.119698 52.301701"
   enable-background="new 0 0 100 100"
   xml:space="preserve"
   id="svg2"
   inkscape:version="0.91 r13725"
   sodipodi:docname="regal_rock.svg"
   width="71.119698"
   height="52.301701"><metadata
     id="metadata30"><rdf:RDF><cc:Work
         rdf:about=""><dc:format>image/svg+xml</dc:format><dc:type
           rdf:resource="http://purl.org/dc/dcmitype/StillImage" /><dc:title></dc:title></cc:Work></rdf:RDF></metadata><defs
     id="defs28" /><sodipodi:namedview
     pagecolor="#ffffff"
     bordercolor="#666666"
     borderopacity="1"
     objecttolerance="10"
     gridtolerance="10"
     guidetolerance="10"
     inkscape:pageopacity="0"
     inkscape:pageshadow="2"
     inkscape:window-width="754"
     inkscape:window-height="480"
     id="namedview26"
     showgrid="false"
     fit-margin-top="0"
     fit-margin-left="0"
     fit-margin-right="0"
     fit-margin-bottom="0"
     inkscape:zoom="2.36"
     inkscape:cx="36.325"
     inkscape:cy="23.104"
     inkscape:window-x="0"
     inkscape:window-y="0"
     inkscape:window-maximized="0"
     inkscape:current-layer="svg2" /><path
     d="m 39.95,44.2987 c -2.271,0 -3.289,-1.017 -3.621,-1.456 l -1.477,-1.265 c -1.291,-1.125 -2.246,-0.969 -2.284,-0.959 -0.053,0.009 -0.136,0.021 -0.188,0.021 l -4.564,0.085 c -1.283,0.001 -2.512,-0.712 -3.097,-1.878 -4.129,-8.236 -1.436,-16.508 -0.086,-19.683 0.537,-1.269 1.781,-2.099 3.174,-2.036 l 0.791,0.018 c 0.188,0.004 0.382,0.03 0.567,0.067 2.801,0.571 4.261,-2.138 4.274,-2.165 0.027,-0.052 0.059,-0.101 0.094,-0.147 l 9.036,-11.714 c 1.816,-3.40499999 5.221,-3.22999999 5.889,-3.15999999 0.1,0.011 0.195,0.027 0.291,0.045 C 55.701,1.4387 61.972,4.5717 63.158,5.1847 c 0.05,0.026 0.101,0.045 0.151,0.062 1.46,0.501 2.337,1.222 2.611,2.144 0.23,0.775 -0.039,1.502 -0.34,1.889 -0.043,0.055 -0.091,0.105 -0.145,0.15 -4.129,3.484 -5.818,7.577 -6.508,10.397 -0.345,1.408 -1.504,2.409 -2.953,2.55 -0.874,0.085 -1.703,-0.159 -2.356,-0.654 -0.123,0.792 -0.32,1.595 -0.593,2.405 -0.076,0.226 -0.176,0.445 -0.296,0.648 -0.688,1.167 -4.46,6.907 -10.967,5.631 -0.542,-0.106 -0.896,-0.633 -0.789,-1.174 0.106,-0.542 0.634,-0.898 1.174,-0.789 5.192,1.027 8.292,-3.722 8.859,-4.684 0.049,-0.082 0.09,-0.173 0.122,-0.269 0.962,-2.861 0.854,-5.479 -0.32,-7.783 -0.503,-0.985 -0.562,-2.03 -0.167,-2.942 0.396,-0.913 1.2,-1.585 2.265,-1.893 0.478,-0.138 0.884,-0.307 1.185,-0.449 0.29,-0.21 0.573,-0.353 0.849,-0.426 0.472,-0.128 0.972,0.111 1.171,0.561 0.199,0.45 0.043,0.978 -0.37,1.245 -0.018,0.012 -0.229,0.148 -0.591,0.33 -0.211,0.18 -0.501,0.481 -0.83,0.926 -0.075,0.101 -0.126,0.186 -0.156,0.262 -0.55,1.363 -0.307,3.931 0.104,5.879 0.021,0.096 0.054,0.197 0.095,0.289 l -0.592,0.381 c -10e-4,0.015 -10e-4,0.031 -10e-4,0.046 l 0.65,-0.302 c 0.371,0.802 1.135,0.792 1.361,0.771 0.471,-0.046 1.035,-0.342 1.204,-1.035 0.753,-3.076 2.582,-7.524 7.021,-11.33 0.003,-0.019 0.004,-0.043 -0.004,-0.067 -0.015,-0.042 -0.177,-0.417 -1.337,-0.815 -0.145,-0.049 -0.291,-0.108 -0.429,-0.18 -0.699,-0.362 -7.046,-3.583 -13.873,-4.925 -0.038,-0.008 -0.077,-0.015 -0.116,-0.02 -0.622,-0.063 -2.767,-0.105 -3.944,2.173 -0.028,0.053 -0.061,0.104 -0.097,0.151 l -9.039,11.718 c -0.782,1.422 -3.061,3.794 -6.402,3.115 -0.068,-0.014 -0.141,-0.026 -0.212,-0.028 l -0.791,-0.017 c -0.557,-0.026 -1.076,0.316 -1.288,0.818 -1.241,2.919 -3.722,10.515 0.032,18.004 0.237,0.473 0.725,0.774 1.246,0.774 0.009,0 0.018,0 0.025,0 l 4.486,-0.083 c 0.486,-0.077 2.076,-0.163 3.896,1.422 l 1.565,1.341 c 0.086,0.074 0.159,0.162 0.216,0.26 0.005,0.002 0.646,0.864 2.876,0.574 0.04,-0.005 0.079,-0.008 0.119,-0.008 l 22.837,-0.225 c 0.003,0 0.007,0 0.01,0 0.548,0 0.994,0.441 1,0.99 0.006,0.552 -0.438,1.004 -0.99,1.01 l -22.778,0.224 c -0.383,0.052 -0.736,0.072 -1.064,0.072 z"
     id="path4"
     inkscape:connector-curvature="0" /><path
     d="m 67.373,21.7317 c -0.004,0 -0.008,0 -0.012,0 l -9.314,-0.112 c -0.553,-0.007 -0.995,-0.46 -0.988,-1.012 0.007,-0.548 0.453,-0.988 1,-0.988 0.004,0 0.008,0 0.012,0 l 9.213,0.111 c 0.938,-0.19 1.568,-0.597 1.78,-1.152 0.04,-0.103 0.058,-0.243 0.055,-0.417 l -0.096,-4.691 c -0.006,-0.336 -0.119,-0.641 -0.317,-0.861 -1.013,-1.12 -3.302,-2.01 -4.099,-2.258 -0.527,-0.164 -0.821,-0.725 -0.657,-1.252 0.164,-0.527 0.722,-0.822 1.253,-0.657 0.138,0.043 3.404,1.076 4.987,2.827 0.521,0.578 0.817,1.345 0.833,2.161 l 0.096,4.692 c 0.008,0.438 -0.053,0.82 -0.186,1.168 -0.277,0.724 -1.083,2.001 -3.379,2.423 -0.06,0.012 -0.121,0.018 -0.181,0.018 z"
     id="path6"
     inkscape:connector-curvature="0" /><path
     d="m 54.933,29.9257 c -1.141,0 -2.677,-0.269 -3.149,-1.628 -0.026,-0.074 -0.043,-0.151 -0.051,-0.23 -0.069,-0.697 -0.393,-4.243 -0.019,-5.491 0.158,-0.529 0.714,-0.831 1.245,-0.67 0.529,0.159 0.829,0.716 0.671,1.245 -0.167,0.557 -0.092,2.742 0.075,4.532 0.157,0.135 0.835,0.322 1.882,0.204 0.113,-0.012 0.227,-0.021 0.338,-0.022 l 10.31,-0.166 c 1.701,0.092 1.866,-1.714 1.879,-1.918 l 0.106,-2.627 c -0.265,-1.295 -2.009,-1.31 -2.026,-1.31 -0.553,0 -1,-0.448 -1,-1 0,-0.552 0.447,-1 1,-1 1.229,0 3.651,0.647 4.02,3.096 0.009,0.062 0.013,0.126 0.01,0.189 l -0.112,2.75 c -0.09,1.605 -1.21,3.933 -3.902,3.819 l -10.255,0.167 c -0.05,0.001 -0.097,0.005 -0.144,0.011 -0.232,0.025 -0.537,0.049 -0.878,0.049 z"
     id="path8"
     inkscape:connector-curvature="0" /><path
     d="m 65.934,37.2747 c -0.032,0 -0.065,0 -0.099,-0.001 l -10.021,-1.128 c -0.96,-0.11 -2.836,-1.003 -3.072,-3.597 -0.273,-3.012 1.315,-4.042 1.497,-4.15 0.477,-0.278 1.088,-0.122 1.37,0.353 0.28,0.476 0.123,1.089 -0.353,1.37 l 0,0 c 0.005,0 -0.68,0.52 -0.522,2.246 0.14,1.533 1.127,1.763 1.324,1.793 l 9.912,1.119 c 0.006,0.001 0.013,0.001 0.019,0.001 0.343,0 0.657,-0.104 0.877,-0.323 0.396,-0.396 0.465,-1.126 0.461,-1.3 l -0.111,-3.184 c -10e-4,-0.502 -0.377,-0.7 -0.381,-0.702 -0.5,-0.234 -0.714,-0.831 -0.479,-1.33 0.234,-0.5 0.828,-0.716 1.33,-0.479 0.567,0.267 1.528,1.089 1.528,2.476 l 0.111,3.163 c 0.004,0.186 0.005,1.721 -1.047,2.771 -0.415,0.415 -1.156,0.902 -2.344,0.902 z"
     id="path10"
     inkscape:connector-curvature="0" /><path
     d="m 64.149,44.0657 c -0.051,0 -0.103,-0.002 -0.156,-0.005 l -4.924,-0.816 c -0.219,-0.036 -0.43,-0.092 -0.64,-0.172 -1.952,-0.749 -3.041,-1.646 -3.244,-2.667 -0.372,-0.722 -1.471,-3.261 0.077,-5.584 0.306,-0.46 0.926,-0.584 1.387,-0.277 0.459,0.306 0.584,0.927 0.277,1.387 -1.095,1.643 0.07,3.624 0.082,3.644 0.085,0.142 0.134,0.303 0.142,0.468 0.075,0.161 0.77,0.692 1.993,1.162 0.08,0.03 0.164,0.053 0.252,0.067 l 4.831,0.805 c 0.001,0 0.003,0 0.004,0 0.238,0 0.928,-1.238 1.21,-2.585 0.402,-1.303 -0.532,-2.36 -0.541,-2.37 -0.375,-0.406 -0.35,-1.039 0.056,-1.413 0.406,-0.374 1.04,-0.35 1.413,0.056 0.071,0.077 1.731,1.911 1.005,4.231 -0.124,0.614 -0.966,4.069 -3.224,4.069 z"
     id="path12"
     inkscape:connector-curvature="0" /><path
     d="m 8.315,48.4067 c -0.3,0 -0.593,-0.135 -0.787,-0.383 -0.458,-0.582 -0.627,-1.286 -0.489,-2.036 0.267,-1.447 1.699,-2.913 3.056,-4.01 -1.798,-0.28 -3.49,-0.777 -3.776,-0.863 -0.482,-0.146 -0.781,-0.626 -0.698,-1.122 0.382,-2.292 2.176,-3.777 3.924,-4.701 -2.092,-1.024 -3.566,-2.753 -3.662,-2.866 -0.092,-0.109 -0.159,-0.236 -0.197,-0.373 -0.089,-0.316 -0.125,-0.808 0.208,-1.351 0.659,-1.075 2.822,-1.942 4.836,-2.543 -2.083,-1.422 -3.441,-3.683 -3.526,-3.827 -0.045,-0.077 -0.081,-0.16 -0.104,-0.246 -0.129,-0.475 -0.03,-0.952 0.279,-1.343 0.902,-1.144 4.18,-1.449 7.02,-1.486 -1.182,-1.862 -2.179,-4.607 -2.786,-6.504 -0.127,-0.396 0.004,-0.829 0.329,-1.087 0.325,-0.258 0.776,-0.291 1.133,-0.078 6.41,3.799 14.305,3.367 14.388,3.362 0.553,-0.037 1.025,0.386 1.059,0.937 0.033,0.551 -0.386,1.025 -0.938,1.059 -0.31,0.019 -6.896,0.378 -13.231,-2.453 0.993,2.544 2.095,4.591 2.66,4.817 0.503,0.114 0.827,0.589 0.762,1.1 -0.065,0.511 -0.5,0.908 -1.032,0.87 -3.164,-0.098 -6.371,0.15 -7.48,0.551 0.95,1.365 2.999,3.651 5.042,3.455 0.529,-0.065 1.007,0.322 1.084,0.85 0.078,0.526 -0.271,1.021 -0.793,1.126 -3.026,0.606 -5.98,1.609 -6.804,2.278 0.875,0.885 3.135,2.878 5.361,2.438 0.025,-0.006 0.043,-0.01 0.053,-0.012 0.542,-0.106 1.063,0.242 1.173,0.781 0.11,0.538 -0.235,1.064 -0.772,1.179 -0.011,0.002 -0.022,0.005 -0.034,0.007 -0.339,0.072 -4.52,1.018 -5.709,3.532 1.478,0.377 3.791,0.85 5.05,0.661 0.474,-0.075 0.929,0.198 1.092,0.648 0.163,0.448 -0.015,0.95 -0.424,1.196 -1.583,0.954 -3.833,2.717 -4.437,3.978 4.073,-1.791 15.805,-6.898 17.756,-7.198 0.556,-0.087 1.057,0.291 1.141,0.836 0.084,0.546 -0.29,1.057 -0.836,1.141 -1.483,0.228 -12.125,4.779 -18.485,7.594 -0.132,0.058 -0.269,0.086 -0.406,0.086 z"
     id="path14"
     inkscape:connector-curvature="0" /><path
     d="m 9.499,13.3487 c -0.903,0 -1.638,-0.735 -1.638,-1.638 0,-0.903 0.735,-1.638 1.638,-1.638 0.903,0 1.638,0.735 1.638,1.638 -0.001,0.903 -0.736,1.638 -1.638,1.638 z m 0,-2 c -0.2,0 -0.362,0.163 -0.362,0.362 0,0.199 0.163,0.362 0.362,0.362 0.199,0 0.362,-0.162 0.362,-0.362 0,-0.2 -0.163,-0.362 -0.362,-0.362 z"
     id="path16"
     inkscape:connector-curvature="0" /><path
     d="m 3.565,22.9477 c -0.903,0 -1.638,-0.735 -1.638,-1.638 0,-0.903 0.735,-1.638 1.638,-1.638 0.903,0 1.638,0.735 1.638,1.638 0,0.903 -0.735,1.638 -1.638,1.638 z m 0,-2 c -0.2,0 -0.362,0.162 -0.362,0.362 0,0.2 0.162,0.362 0.362,0.362 0.2,0 0.362,-0.163 0.362,-0.362 0,-0.199 -0.162,-0.362 -0.362,-0.362 z"
     id="path18"
     inkscape:connector-curvature="0" /><path
     d="M 1.638,33.0207 C 0.735,33.0207 0,32.2867 0,31.3827 c 0,-0.904 0.735,-1.639 1.638,-1.639 0.903,0 1.638,0.735 1.638,1.639 0,0.904 -0.735,1.638 -1.638,1.638 z m 0,-2 c -0.2,0 -0.362,0.162 -0.362,0.362 0,0.199 0.163,0.361 0.362,0.361 0.199,0 0.362,-0.162 0.362,-0.361 0,-0.2 -0.162,-0.362 -0.362,-0.362 z"
     id="path20"
     inkscape:connector-curvature="0" /><path
     d="m 1.982,43.3647 c -0.903,0 -1.638,-0.734 -1.638,-1.638 0,-0.904 0.735,-1.639 1.638,-1.639 0.903,0 1.638,0.735 1.638,1.639 0,0.904 -0.735,1.638 -1.638,1.638 z m 0,-2 c -0.2,0 -0.362,0.162 -0.362,0.362 0,0.199 0.163,0.361 0.362,0.361 0.199,0 0.362,-0.162 0.362,-0.361 0,-0.2 -0.162,-0.362 -0.362,-0.362 z"
     id="path22"
     inkscape:connector-curvature="0" /><path
     d="m 4.232,52.3017 c -0.903,0 -1.638,-0.734 -1.638,-1.638 0,-0.904 0.735,-1.639 1.638,-1.639 0.903,0 1.638,0.735 1.638,1.639 0,0.904 -0.735,1.638 -1.638,1.638 z m 0,-2 c -0.2,0 -0.362,0.162 -0.362,0.362 0,0.199 0.163,0.361 0.362,0.361 0.199,0 0.362,-0.162 0.362,-0.361 0,-0.2 -0.162,-0.362 -0.362,-0.362 z"
     id="path24"
     inkscape:connector-curvature="0" /></svg>