<?xml version="1.0" encoding="UTF-8" standalone="no"?>
<svg
   xmlns:dc="http://purl.org/dc/elements/1.1/"
   xmlns:cc="http://creativecommons.org/ns#"
   xmlns:rdf="http://www.w3.org/1999/02/22-rdf-syntax-ns#"
   xmlns:svg="http://www.w3.org/2000/svg"
   xmlns="http://www.w3.org/2000/svg"
   xmlns:sodipodi="http://sodipodi.sourceforge.net/DTD/sodipodi-0.dtd"
   xmlns:inkscape="http://www.inkscape.org/namespaces/inkscape"
   version="1.1"
   x="0px"
   y="0px"
   viewBox="0 0 83.157669 46.602745"
   enable-background="new 0 0 100 100"
   xml:space="preserve"
   id="svg2"
   inkscape:version="0.91 r13725"
   sodipodi:docname="regal_paper.svg"
   width="83.157669"
   height="46.602745"><metadata
     id="metadata30"><rdf:RDF><cc:Work
         rdf:about=""><dc:format>image/svg+xml</dc:format><dc:type
           rdf:resource="http://purl.org/dc/dcmitype/StillImage" /><dc:title></dc:title></cc:Work></rdf:RDF></metadata><defs
     id="defs28" /><sodipodi:namedview
     pagecolor="#ffffff"
     bordercolor="#666666"
     borderopacity="1"
     objecttolerance="10"
     gridtolerance="10"
     guidetolerance="10"
     inkscape:pageopacity="0"
     inkscape:pageshadow="2"
     inkscape:window-width="754"
     inkscape:window-height="480"
     id="namedview26"
     showgrid="false"
     fit-margin-top="0"
     fit-margin-left="0"
     fit-margin-right="0"
     fit-margin-bottom="0"
     inkscape:zoom="2.36"
     inkscape:cx="41.157"
     inkscape:cy="21.106"
     inkscape:window-x="0"
     inkscape:window-y="0"
     inkscape:window-maximized="0"
     inkscape:current-layer="svg2" /><path
     d="m 37.292,39.694746 c -2.03,0 -2.961,-0.907 -3.278,-1.318 l -1.293,-1.107 c -1.086,-0.947 -1.884,-0.83 -1.917,-0.819 -0.049,0.008 -0.134,0.02 -0.183,0.021 l -5.292,0.1 c -0.349,0.014 -0.692,-0.178 -0.876,-0.484 -5.821,-9.685 -0.35,-19.675 -0.114,-20.095 0.18,-0.323 0.488,-0.533 0.895,-0.511 l 2.226,0.05 c 0.072,10e-4 0.143,0.011 0.213,0.028 2.477,0.597 3.763,-1.793 3.775,-1.817 0.056,-0.106 0.13,-0.202 0.22,-0.282 L 41.27,4.8887457 c 0.052,-0.046 0.109,-0.087 0.17,-0.122 2.394,-1.369 5.768,-1.129 6.327,-1.077 1.959,-0.066 4.973,-0.841 5.003,-0.849 0.033,-0.008 0.065,-0.015 0.099,-0.02 1.632,-0.251 5.386,-2.04200002 6.694,-2.71100002 0.422,-0.216 0.94,-0.106 1.237,0.267 2.874,3.60800002 0.543,7.94000002 -1.091,9.72700032 -0.092,0.1 -0.202,0.18 -0.325,0.236 -0.189,0.086 -4.446,2.005 -7.622,2.496 -0.274,0.552 -0.681,1.703 -0.136,2.976 0.02,0.044 0.035,0.089 0.047,0.136 0.04,0.149 0.952,3.693 -1.186,6.417 -1.565,1.994 -4.26,2.968 -8.065,2.884 -0.552,-0.012 -0.99,-0.469 -0.979,-1.021 0.012,-0.545 0.457,-0.979 1,-0.979 0.007,0 0.014,0 0.021,0 3.104,0.069 5.282,-0.644 6.44,-2.107 1.402,-1.774 0.937,-4.223 0.848,-4.625 -1.132,-2.766 0.513,-5.095 0.584,-5.193 0.166,-0.23 0.422,-0.378 0.704,-0.409 2.545,-0.273 6.408,-1.9110003 7.319,-2.3090003 0.577,-0.694 2.776,-3.623 1.316,-6.318 -1.507,0.737 -4.671,2.21 -6.453,2.503 -0.427,0.108 -3.399,0.847 -5.465,0.901 -0.044,0.003 -0.089,0 -0.133,-0.005 -0.028,-0.002 -3.109,-0.312 -5.106,0.769 l -9.393,8.3860003 c -0.768,1.317 -2.822,3.352 -5.814,2.689 l -1.489,-0.033 c -0.959,2.046 -4.019,9.721 0.059,17.066 l 4.626,-0.087 c 0.462,-0.068 1.896,-0.134 3.521,1.283 l 1.379,1.181 c 0.086,0.074 0.159,0.162 0.215,0.26 l 0,0 c 0.005,0 0.549,0.688 2.417,0.448 0.04,-0.006 0.079,-0.009 0.119,-0.009 l 20.129,-0.197 c 0.003,0 0.007,0 0.01,0 0.548,0 0.994,0.441 1,0.99 0.005,0.552 -0.438,1.004 -0.99,1.01 l -20.071,0.196 c -0.339,0.038 -0.653,0.056 -0.944,0.056 z"
     id="path4"
     inkscape:connector-curvature="0" /><path
     d="m 73.456,20.121746 c -0.494,0 -0.924,-0.366 -0.99,-0.869 -0.072,-0.547 0.312,-1.05 0.859,-1.123 l 5.399,-0.716 c 1.32,-0.204 2.196,-0.616 2.384,-1.129 0.226,-0.618 -0.403,-1.621 -0.744,-2.011 0,0 10e-4,0 0,0 -0.011,0 -1.266,-0.961 -5.519,-0.929 l -22.818,0 c -0.553,0 -1,-0.448 -1,-1 0,-0.552 0.447,-1 1,-1 l 22.808,0 c 5.249,-0.033 6.764,1.316 7.017,1.591 0.198,0.223 1.822,2.13 1.139,4.024 -0.461,1.279 -1.801,2.097 -3.981,2.433 l -5.42,0.719 c -0.046,0.007 -0.09,0.01 -0.134,0.01 z"
     id="path6"
     inkscape:connector-curvature="0" /><path
     d="m 75.422,27.197746 c -0.503,0 -1.059,-0.026 -1.673,-0.084 l -14.678,-0.106 c -0.552,-0.004 -0.996,-0.455 -0.992,-1.007 0.004,-0.55 0.451,-0.993 1,-0.993 0.002,0 0.005,0 0.008,0 l 14.764,0.11 c 3.382,0.316 4.3,-0.423 4.445,-0.567 0.69,-1.805 0.106,-3.296 0.009,-3.521 -1.626,-0.868 -12.235,-1.174 -21.794,-0.963 -0.558,0.001 -1.01,-0.427 -1.021,-0.978 -0.012,-0.552 0.426,-1.01 0.979,-1.022 22.137,-0.487 23.485,1.231 23.684,2.197 0.241,0.576 0.954,2.647 -0.036,5.124 -0.206,0.476 -1.09,1.81 -4.695,1.81 z"
     id="path8"
     inkscape:connector-curvature="0" /><path
     d="m 73.716,33.595746 c -0.267,0 -0.545,-0.012 -0.834,-0.034 l -15.07,0.003 c -0.553,0 -1,-0.447 -1,-1 0,-0.553 0.447,-1 1,-1 l 15.15,0 c 1.338,0.104 2.303,-0.071 2.791,-0.489 0.309,-0.264 0.338,-0.55 0.341,-0.582 l -10e-4,-1.51 c 0.021,-0.851 -1.969,-1.645 -3.353,-1.879 -0.545,-0.092 -0.912,-0.608 -0.82,-1.152 0.093,-0.544 0.608,-0.916 1.152,-0.819 0.522,0.088 5.096,0.945 5.021,3.877 l 0,1.517 c 0,0.113 -0.026,1.136 -0.948,1.987 -0.78,0.718 -1.931,1.081 -3.429,1.081 z"
     id="path10"
     inkscape:connector-curvature="0" /><path
     d="m 66.678,39.919746 c -0.245,0 -0.501,-0.008 -0.769,-0.022 -4.014,-0.22 -8.081,-0.385 -8.083,-0.385 -0.553,-0.022 -0.981,-0.487 -0.959,-1.039 0.021,-0.553 0.478,-1.007 1.039,-0.959 0,0 4.084,0.165 8.112,0.387 3.019,0.167 4.109,-0.821 4.258,-1.365 l 0.294,-1.372 c -0.177,-1.053 -1.27,-1.354 -1.281,-1.357 -0.534,-0.142 -0.853,-0.688 -0.711,-1.223 0.142,-0.535 0.688,-0.849 1.223,-0.711 0.948,0.251 2.6,1.218 2.778,3.248 0.009,0.1 0.003,0.199 -0.019,0.297 l -0.33,1.542 c -0.015,0.096 -0.588,2.959 -5.552,2.959 z"
     id="path12"
     inkscape:connector-curvature="0" /><path
     d="m 7.448,43.657746 c -0.3,0 -0.593,-0.135 -0.787,-0.382 -0.4,-0.509 -0.562,-1.14 -0.471,-1.824 0.185,-1.379 1.427,-2.894 2.632,-4.069 -1.505,-0.016 -2.857,-0.111 -2.952,-0.118 -0.281,-0.02 -0.54,-0.157 -0.714,-0.379 -0.174,-0.221 -0.247,-0.505 -0.201,-0.782 0.33,-1.979 1.822,-3.286 3.323,-4.12 -1.762,-0.924 -2.984,-2.357 -3.066,-2.454 -0.092,-0.109 -0.159,-0.236 -0.197,-0.373 -0.084,-0.302 -0.119,-0.77 0.197,-1.284 0.575,-0.939 2.342,-1.689 4.093,-2.228 -1.744,-1.272 -2.866,-3.142 -2.939,-3.265 -0.045,-0.077 -0.081,-0.159 -0.104,-0.246 -0.124,-0.456 -0.029,-0.913 0.267,-1.289 0.799,-1.013 3.595,-1.304 6.075,-1.351 -1.006,-1.65 -1.845,-3.964 -2.363,-5.583 -0.127,-0.396 0.004,-0.829 0.329,-1.087 0.325,-0.258 0.776,-0.29 1.133,-0.078 5.591,3.313 12.829,2.728 12.9,2.723 0.558,-0.044 1.035,0.359 1.083,0.909 0.048,0.55 -0.358,1.035 -0.908,1.083 -0.282,0.024 -6.195,0.509 -11.8,-1.845 0.823,2.061 1.712,3.706 2.183,3.931 0.502,0.114 0.817,0.586 0.752,1.097 -0.065,0.512 -0.499,0.901 -1.042,0.867 -2.632,-0.082 -5.328,0.111 -6.4,0.43 0.856,1.192 2.538,3.03 4.243,2.864 0.533,-0.042 1.007,0.323 1.084,0.85 0.078,0.527 -0.271,1.022 -0.793,1.126 -2.517,0.505 -5.008,1.331 -5.839,1.906 0.817,0.805 2.688,2.384 4.521,2.018 0.022,-0.005 0.038,-0.008 0.046,-0.01 0.54,-0.106 1.063,0.242 1.174,0.781 0.11,0.538 -0.235,1.064 -0.773,1.179 -0.02,0.004 -0.04,0.008 -0.06,0.012 -1.116,0.233 -3.648,1.089 -4.705,2.677 1.25,0.051 3.073,0.087 4.164,-0.082 0.457,-0.069 0.897,0.179 1.075,0.603 0.178,0.424 0.043,0.914 -0.326,1.188 -1.394,1.038 -3.337,2.858 -3.937,4.126 3.979,-1.721 14.896,-6.396 16.608,-6.66 0.539,-0.087 1.056,0.29 1.14,0.836 0.084,0.546 -0.291,1.057 -0.836,1.141 -1.298,0.2 -11.369,4.448 -17.412,7.08 -0.128,0.055 -0.263,0.082 -0.397,0.082 z"
     id="path14"
     inkscape:connector-curvature="0" /><path
     d="m 8.49,12.756746 c -0.861,0 -1.562,-0.701 -1.562,-1.562 0,-0.861 0.701,-1.5620003 1.562,-1.5620003 0.861,0 1.562,0.7010003 1.562,1.5620003 0,0.861 -0.701,1.562 -1.562,1.562 z m 0,-2 c -0.241,0 -0.438,0.196 -0.438,0.438 0,0.241 0.196,0.438 0.438,0.438 0.242,0 0.438,-0.196 0.438,-0.438 0,-0.242 -0.196,-0.438 -0.438,-0.438 z"
     id="path16"
     inkscape:connector-curvature="0" /><path
     d="m 3.26,21.217746 c -0.861,0 -1.562,-0.701 -1.562,-1.562 0,-0.861 0.701,-1.562 1.562,-1.562 0.861,0 1.562,0.701 1.562,1.562 0,0.861 -0.701,1.562 -1.562,1.562 z m 0,-2 c -0.241,0 -0.438,0.196 -0.438,0.438 0,0.242 0.196,0.438 0.438,0.438 0.242,0 0.438,-0.196 0.438,-0.438 0,-0.242 -0.196,-0.438 -0.438,-0.438 z"
     id="path18"
     inkscape:connector-curvature="0" /><path
     d="m 1.562,30.096746 c -0.861,0 -1.562,-0.701 -1.562,-1.562 0,-0.861 0.701,-1.562 1.562,-1.562 0.861,0 1.562,0.7 1.562,1.562 0,0.862 -0.701,1.562 -1.562,1.562 z m 0,-2 c -0.242,0 -0.438,0.196 -0.438,0.438 0,0.242 0.196,0.438 0.438,0.438 0.241,0 0.438,-0.196 0.438,-0.438 -10e-4,-0.242 -0.197,-0.438 -0.438,-0.438 z"
     id="path20"
     inkscape:connector-curvature="0" /><path
     d="m 1.865,39.213746 c -0.861,0 -1.562,-0.7 -1.562,-1.562 0,-0.862 0.701,-1.562 1.562,-1.562 0.861,0 1.562,0.701 1.562,1.562 0,0.861 -0.701,1.562 -1.562,1.562 z m 0,-2 c -0.241,0 -0.438,0.196 -0.438,0.438 0,0.241 0.196,0.438 0.438,0.438 0.242,0 0.438,-0.196 0.438,-0.438 -10e-4,-0.242 -0.197,-0.438 -0.438,-0.438 z"
     id="path22"
     inkscape:connector-curvature="0" /><path
     d="m 3.98,46.602746 c -0.861,0 -1.562,-0.701 -1.562,-1.562 0,-0.861 0.701,-1.562 1.562,-1.562 0.861,0 1.562,0.7 1.562,1.562 0,0.862 -0.7,1.562 -1.562,1.562 z m 0,-2 c -0.241,0 -0.438,0.196 -0.438,0.438 0,0.242 0.196,0.438 0.438,0.438 0.242,0 0.438,-0.196 0.438,-0.438 0,-0.241 -0.196,-0.438 -0.438,-0.438 z"
     id="path24"
     inkscape:connector-curvature="0" /></svg>