<svg xmlns="http://www.w3.org/2000/svg" xmlns:xlink="http://www.w3.org/1999/xlink" version="1.1" x="0px" y="0px" viewBox="0 0 100 100" enable-background="new 0 0 100 100" xml:space="preserve"><path fill="none" stroke="#000000" stroke-width="2" stroke-linecap="round" stroke-linejoin="round" stroke-miterlimit="10" d="  M46.776,39.097l5.932,0.105c0,0,2.264,0.189,3.71-1.006l2.389-1.698c0,0,1.446-1.949,4.276-1.383l17.984-0.063  c0,0,3.584-0.377,4.465,1.824l0.503,1.32c0,0,1.32,3.081-3.396,2.389"></path><path fill="none" stroke="#000000" stroke-width="2" stroke-linecap="round" stroke-linejoin="round" stroke-miterlimit="10" d="  M84.902,40.774c0,0,3.144-0.189,2.955,1.886l0.44,4.087c0,0-0.189,1.635-2.138,1.509l-2.264,0.063"></path><path fill="none" stroke="#000000" stroke-width="2" stroke-linecap="round" stroke-linejoin="round" stroke-miterlimit="10" d="  M87.04,48.383c0,0,2.201-0.252,2.578,2.138l0.189,3.333c0,0,0.314,3.144-2.138,2.955l-2.641,0.126"></path><path fill="none" stroke="#000000" stroke-width="2" stroke-linecap="round" stroke-linejoin="round" stroke-miterlimit="10" d="  M88.424,57.06c0,0,1.509,0.126,1.635,1.446l-0.063,3.647c0,0-0.189,3.899-4.465,3.207l-8.489,0.44l-2.327,0.314  c0,0-1.32,0.44-1.195,1.886"></path><path fill="none" stroke="#000000" stroke-width="2" stroke-linecap="round" stroke-linejoin="round" stroke-miterlimit="10" d="  M80.501,66.052c0,0,2.138,0.44,2.641,1.949c0,0,0.692,1.886,0,2.83c0,0-1.132,2.201-4.968,2.012L67.17,73.095  c0,0-3.836-0.252-4.527-2.201l-7.168-10.25c0,0-1.195-2.075-4.527-1.824l-4.61,0.017"></path><polyline fill="none" stroke="#000000" stroke-width="2" stroke-linecap="round" stroke-linejoin="round" stroke-miterlimit="10" points="  46.105,54.796 46.168,61.587 36.421,61.839 36.296,54.796 "></polyline><polyline fill="none" stroke="#000000" stroke-width="2" stroke-linecap="round" stroke-linejoin="round" stroke-miterlimit="10" points="  46.608,42.22 46.545,35.492 36.547,35.366 36.61,42.58 "></polyline><path fill="none" stroke="#000000" stroke-width="2" stroke-linecap="round" stroke-linejoin="round" stroke-miterlimit="10" d="  M46.294,42.786l-9.809-0.063c0,0-1.824,0.314-1.886,1.761l-0.063,5.219l0.063,2.704c0,0,0.209,2.734,3.039,2.482l6.519-0.03  c0,0,4.213,0.566,4.465-1.949l0.063-5.974C48.683,46.936,49.312,42.912,46.294,42.786z"></path><path fill="none" stroke="#000000" stroke-width="2" stroke-linecap="round" stroke-linejoin="round" stroke-miterlimit="10" d="  M73.269,40.019c0,0-5.282,9.243-2.138,22.7"></path><path fill="none" stroke="#000000" stroke-width="2" stroke-linecap="round" stroke-linejoin="round" stroke-miterlimit="10" d="  M36.182,38.336c0,0-7.813,0.476-14.239-3.332c0,0,2.261,7.06,4.006,7.456c0,0-8.765-0.278-8.289,1.467c0,0,2.697,4.561,6.029,4.244  c0,0-7.87,1.576-7.377,3.332c0,0,3.12,3.714,6.425,3.014c0,0-5.83,1.15-6.465,4.958c0,0,4.085,1.23,6.148,0.912  c0,0-6.267,3.768-4.521,5.989c0,0,15.773-6.981,17.836-7.299"></path><circle fill="none" stroke="#000000" stroke-width="2" stroke-linecap="round" stroke-linejoin="round" stroke-miterlimit="10" cx="19.025" cy="32.399" r="0.607"></circle><circle fill="none" stroke="#000000" stroke-width="2" stroke-linecap="round" stroke-linejoin="round" stroke-miterlimit="10" cx="13.377" cy="41.536" r="0.607"></circle><circle fill="none" stroke="#000000" stroke-width="2" stroke-linecap="round" stroke-linejoin="round" stroke-miterlimit="10" cx="11.543" cy="51.124" r="0.607"></circle><circle fill="none" stroke="#000000" stroke-width="2" stroke-linecap="round" stroke-linejoin="round" stroke-miterlimit="10" cx="11.87" cy="60.97" r="0.607"></circle><circle fill="none" stroke="#000000" stroke-width="2" stroke-linecap="round" stroke-linejoin="round" stroke-miterlimit="10" cx="14.012" cy="69.478" r="0.607"></circle></svg>