<svg xmlns="http://www.w3.org/2000/svg" xmlns:xlink="http://www.w3.org/1999/xlink" version="1.1" x="0px" y="0px" viewBox="0 0 100 100" enable-background="new 0 0 100 100" xml:space="preserve"><path fill="#000000" d="M64.976,11.31c-3.42,0-6.21,2.76-6.21,6.17v6.84c-0.93-0.56-2.02-0.88-3.18-0.88  c-1.48,0-2.85,0.52-3.92,1.39c-1.06-1.79-3.21-3.1-5.49-3.1c-1.6,0-3.06,0.6-4.15,1.59c-1.06-1.72-2.96-2.86-5.13-2.86h-0.06  c-3.34,0-6.06,2.72-6.06,6.06v12.559c-1.208,1.85-1.961,4.213-1.961,7.064v4.229c0,6.125,3.384,11.509,8.585,14.232v7.076h-1.213  c-1.84,0-3.34,1.51-3.34,3.36v10.29c0,1.85,1.5,3.36,3.34,3.36h29.58c1.84,0,3.34-1.51,3.34-3.36V75.04c0-1.85-1.5-3.36-3.34-3.36  h-1.211v-7.509c0,0,0.001,0,0.001-0.001c4-2.74,6.63-7.32,6.63-12.5V17.48C71.186,14.07,68.396,11.31,64.976,11.31z M52.376,33.51  v-3.9c0-1.75,1.44-3.17,3.21-3.17c1.64,0,2.99,1.22,3.18,2.79v10.9v0.02c-0.2,1.55-1.55,2.76-3.18,2.76  c-1.119,0-2.107-0.569-2.678-1.427c0.73-1.285,1.163-2.758,1.198-4.321c0.006-0.071,0.01-0.144,0.01-0.217v-1.181  c0-0.828-0.672-1.5-1.5-1.5h-0.021l0.021-0.004h-0.24C52.376,34.26,52.376,33.51,52.376,33.51z M42.966,27.9  c0-1.74,1.44-3.17,3.21-3.17c1.86,0,3.2,1.52,3.2,2.54v6.99h-6.41V27.9z M33.776,26.52c0-1.69,1.37-3.06,3.06-3.06h0.06  c1.69,0,3.06,1.37,3.06,3.06v7.744h-0.473c-1.962,0-3.97,0.602-5.708,1.767L33.776,26.52L33.776,26.52z M40.399,65.804  c0.197,0.057,0.389,0.124,0.59,0.175c0.029,0.01,0.057,0.023,0.087,0.032h0.01c1.56,0.54,3.23,0.83,4.97,0.83h9.84  c2,0,3.909-0.38,5.659-1.08v5.919H40.399V65.804z M65.766,74.68c0.19,0,0.34,0.16,0.34,0.36v10.29c0,0.2-0.15,0.36-0.34,0.36h-29.58  c-0.19,0-0.34-0.16-0.34-0.36V75.04c0-0.2,0.15-0.36,0.34-0.36H65.766z M68.186,51.67c0,3.36-1.39,6.42-3.63,8.62  c-0.88,0.87-1.89,1.61-3,2.18c-1.7,0.88-3.62,1.37-5.66,1.37h-9.84c-1.29,0-2.53-0.2-3.71-0.57h-0.004  c-0.157-0.068-0.354-0.094-0.506-0.17c-5.838-1.312-10.02-6.799-10.02-12.73v-4.23c0-2.15,0.67-4.36,1.96-6.04v-0.003  c1.295-1.685,3.213-2.832,5.708-2.832h11.612c-0.012,0.25-0.058,0.491-0.1,0.732c0.006,0.001,0.012,0.001,0.019,0.002  c-0.057,0.328-0.137,0.647-0.243,0.956c-0.007-0.001-0.013-0.001-0.02-0.002c-0.27,0.787-0.676,1.514-1.22,2.131  c-1.154,1.305-2.835,2.134-4.689,2.134h-3.158c-0.828,0-1.5,0.672-1.5,1.5v3.618c0,0.828,0.672,1.5,1.5,1.5  c3.661,0,6.64,2.979,6.64,6.639c0,0.828,0.672,1.5,1.5,1.5s1.5-0.672,1.5-1.5c0-4.805-3.534-8.8-8.14-9.522v-0.734h1.658  c2.34,0,4.489-0.9,6.131-2.36c0.001,0.001,0.002,0.002,0.003,0.003c1.13,1.26,2.78,2.05,4.61,2.05c3.42,0,6.21-2.76,6.21-6.16  l-0.03-22.27c0-1.75,1.44-3.17,3.21-3.17c1.77,0,3.21,1.42,3.21,3.17L68.186,51.67L68.186,51.67z"></path></svg>