<svg xmlns="http://www.w3.org/2000/svg" data-name="Warstwa 1" viewBox="0 0 100 100" x="0px" y="0px"><title>hands_care_heart</title><path d="M84.32,14H77.56l-5,7L78,36.37V37H73.17L68,42.17v10l-8.32,8.32-1.42,4.35L60,76V94H80V76.83l14-14V37.59ZM90,61.17l-14,14V90H64V75.88l-1.64-10.7.83-2.53L72,53.83v-10L74.83,41H78V55.17l-5.41,5.41,2.83,2.83L82,56.83V35.63l-4.93-14L79.63,18h2.05L90,38.41Z"></path><path d="M32,52.17v-10L26.83,37H22v-.63L27.42,21l-5-7H15.68L6,37.59V62.83l14,14V94H40V76l1.74-11.19-1.42-4.35Zm4,23.7V90H24V75.17l-14-14V38.41L18.32,18h2.05l2.56,3.62L18,35.63V56.83l6.59,6.59,2.83-2.83L22,55.17V41h3.17L28,43.83v10l8.81,8.81.83,2.53Z"></path><path d="M68,12.76,62.47,10h-7.3L50,15.17,44.83,10h-7.3L32,12.76V26.94L50,44.82,68,26.94ZM64,25.28,50,39.18,36,25.28v-10L38.47,14h4.7L50,20.83,56.83,14h4.7L64,15.24Z"></path></svg>