<svg xmlns="http://www.w3.org/2000/svg" data-name="Warstwa 1" viewBox="0 0 100 100" x="0px" y="0px"><title>hand_file</title><path d="M63.63,78H63V73.17L57.83,68h-10l-8.32-8.32-4.35-1.42L24,60H6V80H23.17l14,14H62.41L86,83.32V76.56l-7-5ZM82,80.68,61.59,90H38.83l-14-14H10V64H24.13l10.7-1.64,2.53.83L46.17,72h10L59,74.83V78H44.83l-5.42-5.41-2.82,2.82L43.17,82h21.2l14-5.93L82,78.63Z"></path><path d="M80.83,6H50V58H94V19.17ZM90,54H54V10H79.17L90,20.83Z"></path><rect x="60" y="28" width="24" height="4"></rect><rect x="60" y="36" width="24" height="4"></rect><rect x="60" y="44" width="14" height="4"></rect></svg>