<?xml version="1.0" encoding="UTF-8" standalone="no"?>
<svg
   xmlns:dc="http://purl.org/dc/elements/1.1/"
   xmlns:cc="http://creativecommons.org/ns#"
   xmlns:rdf="http://www.w3.org/1999/02/22-rdf-syntax-ns#"
   xmlns:svg="http://www.w3.org/2000/svg"
   xmlns="http://www.w3.org/2000/svg"
   xmlns:sodipodi="http://sodipodi.sourceforge.net/DTD/sodipodi-0.dtd"
   xmlns:inkscape="http://www.inkscape.org/namespaces/inkscape"
   version="1.0"
   x="0px"
   y="0px"
   viewBox="0 0 74.620003 41.199959"
   xml:space="preserve"
   id="svg16"
   inkscape:version="0.92.2 5c3e80d, 2017-08-06"
   sodipodi:docname="bones_rock.svg"
   width="74.620003"
   height="41.199959"><metadata
     id="metadata26"><rdf:RDF><cc:Work
         rdf:about=""><dc:format>image/svg+xml</dc:format><dc:type
           rdf:resource="http://purl.org/dc/dcmitype/StillImage" /><dc:title /></cc:Work></rdf:RDF></metadata><defs
     id="defs24" /><sodipodi:namedview
     pagecolor="#ffffff"
     bordercolor="#666666"
     borderopacity="1"
     objecttolerance="10"
     gridtolerance="10"
     guidetolerance="10"
     inkscape:pageopacity="0"
     inkscape:pageshadow="2"
     inkscape:window-width="754"
     inkscape:window-height="480"
     id="namedview22"
     showgrid="false"
     fit-margin-top="0"
     fit-margin-left="0"
     fit-margin-right="0"
     fit-margin-bottom="0"
     inkscape:zoom="2.36"
     inkscape:cx="-8.3498482"
     inkscape:cy="25.75622"
     inkscape:window-x="0"
     inkscape:window-y="0"
     inkscape:window-maximized="0"
     inkscape:current-layer="svg16" /><path
     d="M 5.51997,35.77997 V 35.41998 C 5.51997,34 6.07002,32.70996 6.95997,31.75 5.02998,30.92999 3.68,29.00995 3.68,26.77997 V 26.41998 C 3.68,25 4.22999,23.70996 5.12,22.75 3.19001,21.92999 1.83997,20.00995 1.83997,17.77997 V 17.41998 C 1.83997,16 2.38996,14.70996 3.27997,13.75 1.34998,12.92999 0,11.00995 0,8.77997 V 8.41998 C 0,5.42999 2.42999,3 5.41998,3 H 19.14996 C 20.75,1.15997 23.10998,0 25.72998,0 h 8.37 c 4.13,0 7.78998,2.08997 9.97003,5.25995 h 12.56 c 3.63,0 6.57996,2.95001 6.57996,6.58002 V 17.37 L 64.87,17.38996 c 0.20996,-2.5 2.31,-4.45996 4.85999,-4.45996 2.70001,0 4.89001,2.19 4.89001,4.88995 0,1.25 -0.48999,2.44 -1.33002,3.33002 C 74.13001,22.03998 74.62,23.21998 74.62,24.47999 74.62,27.18 72.43,29.37 69.72999,29.37 67.20002,29.37 65.12,27.44996 64.87,24.99 h -1.66003 v 3.45996 c 0.92999,0.33002 1.67004,1.07001 2,2 H 66.24 c 1.51001,0 2.73999,1.24005 2.73999,2.75 0,1.51001 -1.22998,2.74005 -2.73999,2.74005 H 44.07002 c -2.18005,3.16998 -5.84003,5.25995 -9.97003,5.25995 H 10.94001 c -2.98999,0 -5.42004,-2.43 -5.42004,-5.41999 z M 9.09999,23.19996 c -1.77997,0 -3.21997,1.44 -3.21997,3.22003 v 0.35999 c 0,1.78003 1.44,3.22003 3.21997,3.22003 h 10.69 c 1.77002,0 3.21002,-1.44 3.21002,-3.22003 v -0.35999 c 0,-0.81 -0.29999,-1.54999 -0.79004,-2.10999 C 21.18,24.69995 20.05,24.91999 18.88001,24.91999 H 18.09998 C 17.48999,24.91999 17,24.43 17,23.81995 v -0.62 H 9.09999 Z m -1.83997,-9 c -1.78003,0 -3.22003,1.44 -3.22003,3.22003 v 0.35999 c 0,1.78003 1.44,3.22003 3.22003,3.22003 h 9.73999 v -6.80005 z m -1.84002,-9 c -1.78003,0 -3.21997,1.44 -3.21997,3.22003 v 0.35999 c 0,1.78003 1.43994,3.22003 3.21997,3.22003 H 17.00002 V 8.72998 c 0,-1.26001 0.26996,-2.45001 0.75,-3.53003 H 5.42 Z m 64.30999,21.97003 c 1.47998,0 2.69,-1.21002 2.69,-2.69 0,-0.65002 -0.25,-1.28003 -0.66998,-1.76001 H 71.74 c -1.77002,-0.37 -3.06,-1.94 -3.06,-3.76001 0,-0.60999 0.48999,-1.09998 1.09998,-1.09998 0.60004,0 1.10004,0.48999 1.10004,1.09998 0,0.39001 0.13995,0.76001 0.38,1.04004 0.71997,-0.5 1.15997,-1.31 1.15997,-2.18005 0,-1.48999 -1.21002,-2.68994 -2.69,-2.68994 -1.47998,0 -2.69,1.13995 -2.69,2.62994 0,0.06 0,0.12006 -0.02002,0.17004 0.02002,0.15997 0.02002,0.34998 0.02002,0.57001 0,0.60999 -0.48999,1.09998 -1.09998,1.09998 H 65.87 l -2.66003,-0.03998 -2.19995,-0.03003 -1.64001,-0.02002 c -0.91003,0 -1.64001,0.73004 -1.64001,1.64001 0,0.90002 0.72998,1.64001 1.64001,1.64001 h 8.20996 c 0.61005,0 1.10004,0.48999 1.10004,1.09998 0,0.60004 -0.48999,1.10004 -1.10004,1.10004 h -0.48999 c 0.23999,1.23998 1.33002,2.17999 2.64001,2.17999 z m -3.48999,6.57 c 0.29999,0 0.53998,-0.23999 0.53998,-0.54004 0,-0.29999 -0.23999,-0.53998 -0.53998,-0.53998 H 64.3 c -0.60999,0 -1.09998,-0.5 -1.09998,-1.09998 0,-0.61005 -0.49005,-1.10004 -1.09003,-1.10004 -0.60999,0 -1.09998,-0.48999 -1.09998,-1.09998 v -4.37 H 59.37 c -2.12,0 -3.84003,-1.73004 -3.84003,-3.84003 0,-2.12 1.72003,-3.83997 3.84003,-3.83997 l 1.64001,0.01996 v -5.48999 c 0,-2.41998 -1.97003,-4.38 -4.38,-4.38 -0.38,0 -0.75,0.04999 -1.10004,0.15002 -1.13,0.27997 -2.09998,1.02002 -2.69,2.02997 h 2.15002 c 0.19,0 0.37,0.02002 0.53998,0.06 1.25,0.25 2.20001,1.36005 2.20001,2.68005 0,1.32996 -0.95001,2.43994 -2.20001,2.68994 -0.16998,0.04004 -0.34998,0.06006 -0.53998,0.06006 H 54.44 v 0.53998 c 0,1.32001 -0.94,2.42999 -2.19,2.69 v 11 c 0,2.03998 1.39996,3.75 3.27997,4.22998 0.35004,0.10004 0.72003,0.15002 1.10004,0.15002 H 66.24 Z m -14.5,0 c -1.04999,-1.16003 -1.69,-2.69 -1.69,-4.38 V 17.31 c 0,-0.60004 0.48999,-1.10004 1.09998,-1.10004 h 0.55005 c 0.29999,0 0.53998,-0.23999 0.53998,-0.53998 v -1.64001 c 0,-0.60999 0.5,-1.09998 1.09998,-1.09998 h 1.65002 c 0.29999,0 0.53998,-0.25 0.53998,-0.54999 0,-0.30005 -0.23999,-0.54004 -0.53998,-0.54004 H 51.26003 C 50.93001,11.83996 50.62002,11.69 50.40999,11.44 50.20003,11.17999 50.12001,10.84997 50.18001,10.51996 50.42,9.34998 50.95998,8.29999 51.73,7.45996 h -6.45001 c 0.59003,1.42999 0.92004,3 0.92004,4.64001 v 17 c 0,1.64001 -0.33002,3.21002 -0.92004,4.64001 H 51.74 Z M 34.09999,39 c 2.81,0 5.35004,-1.17004 7.15002,-3.06 0.32996,-0.34003 0.63995,-0.71002 0.90997,-1.10004 0.25,-0.34998 0.47998,-0.71997 0.67999,-1.09998 C 43.57996,32.35998 44,30.77996 44,29.09997 v -17 c 0,-1.67999 -0.42004,-3.26001 -1.16003,-4.64001 -0.20001,-0.38 -0.42999,-0.75 -0.67999,-1.09998 -0.27002,-0.39001 -0.58002,-0.76001 -0.90997,-1.10004 -1.79999,-1.88995 -4.34003,-3.06 -7.15002,-3.06 H 33.32002 V 2.17998 c -0.07001,0.01001 -0.14001,0.01996 -0.22003,0.01996 h -7.37 c -1.41998,0 -2.73999,0.46002 -3.81,1.24005 C 21.24,3.91997 20.65998,4.52996 20.21998,5.23998 19.57002,6.24999 19.20002,7.44994 19.20002,8.72997 v 13.97998 c 1.18994,-0.06 2.31,-0.40997 3.27997,-0.97998 1.03998,-0.59998 1.90997,-1.47003 2.52002,-2.51001 0.63995,-1.06 1,-2.29999 1,-3.62 v -5.5 c 0,-0.60999 0.48999,-1.09998 1.09998,-1.09998 h 3 c 0.60999,0 1.10004,0.48999 1.10004,1.09998 v 1.54999 c 0,2.87 2.27997,5.22003 5.12,5.34003 0.07996,0.01001 0.14996,0.01001 0.22998,0.01001 0.60999,0 1.09998,0.48999 1.09998,1.09998 0,0.60999 -0.48999,1.09998 -1.09998,1.09998 -4.16003,0 -7.54999,-3.38995 -7.54999,-7.54999 v -0.45001 h -0.79999 v 4.40003 c 0,3.16998 -1.59003,5.97998 -4.02002,7.66998 0.64001,0.89001 1.02002,1.97003 1.02002,3.15002 v 0.35999 c 0,1.77002 -0.85004,3.34003 -2.16003,4.32001 1.31,0.97998 2.16003,2.54999 2.16003,4.32001 v 0.35999 c 0,1.21002 -0.40002,2.32001 -1.07001,3.22003 h 9.96997 z m -14.31,0 c 1.77002,0 3.21002,-1.44 3.21002,-3.22003 v -0.35999 c 0,-1.78003 -1.44,-3.22003 -3.21002,-3.22003 h -8.84998 c -1.78003,0 -3.22003,1.44 -3.22003,3.22003 v 0.35999 C 7.71998,37.56 9.15998,39 10.94001,39 Z"
     id="path18"
     inkscape:connector-curvature="0" /><path
     d="m 55.58502,11.23372 v 0.22003 h 0.01996 c -0.01001,-0.07001 -0.01996,-0.14001 -0.01996,-0.22003 z"
     id="path20"
     inkscape:connector-curvature="0" /></svg>