<?xml version="1.0" encoding="UTF-8" standalone="no"?>
<svg
   xmlns:dc="http://purl.org/dc/elements/1.1/"
   xmlns:cc="http://creativecommons.org/ns#"
   xmlns:rdf="http://www.w3.org/1999/02/22-rdf-syntax-ns#"
   xmlns:svg="http://www.w3.org/2000/svg"
   xmlns="http://www.w3.org/2000/svg"
   xmlns:sodipodi="http://sodipodi.sourceforge.net/DTD/sodipodi-0.dtd"
   xmlns:inkscape="http://www.inkscape.org/namespaces/inkscape"
   version="1.0"
   x="0px"
   y="0px"
   viewBox="0 0 87.789482 41.199982"
   xml:space="preserve"
   id="svg28"
   inkscape:version="0.92.2 5c3e80d, 2017-08-06"
   sodipodi:docname="bones_scissors.svg"
   width="87.789482"
   height="41.199982"><metadata
     id="metadata36"><rdf:RDF><cc:Work
         rdf:about=""><dc:format>image/svg+xml</dc:format><dc:type
           rdf:resource="http://purl.org/dc/dcmitype/StillImage" /><dc:title /></cc:Work></rdf:RDF></metadata><defs
     id="defs34" /><sodipodi:namedview
     pagecolor="#ffffff"
     bordercolor="#666666"
     borderopacity="1"
     objecttolerance="10"
     gridtolerance="10"
     guidetolerance="10"
     inkscape:pageopacity="0"
     inkscape:pageshadow="2"
     inkscape:window-width="754"
     inkscape:window-height="480"
     id="namedview32"
     showgrid="false"
     fit-margin-top="0"
     fit-margin-left="0"
     fit-margin-right="0"
     fit-margin-bottom="0"
     inkscape:zoom="2.36"
     inkscape:cx="71.775222"
     inkscape:cy="20.6"
     inkscape:window-x="0"
     inkscape:window-y="0"
     inkscape:window-maximized="0"
     inkscape:current-layer="svg28" /><path
     d="m 18.749489,35.77998 v -0.35999 c 0,-1.42999 0.54999,-2.72003 1.450011,-3.67999 -1.910031,-0.84003 -3.24005,-2.75 -3.24005,-4.96002 v -0.35999 c 0,-0.89001 0.22003,-1.72998 0.61005,-2.47003 L 5.8794999,24.56001 c -1.48999,0.07001 -2.920039,-0.42999 -4.030029,-1.42999 -1.10999004,-1 -1.76001004,-2.37006 -1.83997004,-3.86005 C -0.17048914,16.18 2.2294709,13.56996 5.2894699,13.40998 L 18.769449,12.70997 6.7194599,11.13001 c -3.010009,-0.39001 -5.21997,-3.18005 -4.81,-6.25 0.390011,-3.05005 3.200009,-5.21002 6.25,-4.81006 L 32.2595,3.20996 C 33.84947,1.25 36.289469,0 39.0095,0 h 8.369999 c 4.130001,0 7.78998,2.08997 9.96997,5.25995 0,0 12.29999,0 12.560001,0 3.619999,0 6.570009,2.95001 6.570009,6.58002 v 5.57002 h 1.57001 c 0.25,-2.46002 2.33002,-4.38 4.85999,-4.38 2.690001,0 4.880001,2.19 4.880001,4.89001 0,1.25 -0.47998,2.44 -1.32001,3.33002 0.84003,0.88995 1.32001,2.06995 1.32001,3.32996 0,2.70001 -2.19,4.89001 -4.880001,4.89001 -2.52997,0 -4.60999,-1.91998 -4.85999,-4.38 h -1.57001 v 3.35999 c 0.92999,0.33002 1.66998,1.07001 2,2 h 1.03003 c 1.51996,0 2.75,1.24005 2.75,2.75 0,1.51001 -1.23004,2.74005 -2.75,2.74005 H 57.34946 c -2.17999,3.16998 -5.83997,5.25995 -9.96997,5.25995 H 24.15946 c -2.97998,-10e-6 -5.409971,-2.43001 -5.409971,-5.42 z m 1.76996,-11.98999 c -0.81995,0.58002 -1.359989,1.53998 -1.359989,2.63 v 0.35999 c 0,1.78003 1.439999,3.22003 3.21002,3.22003 h 10.689999 c 1.770021,0 3.219971,-1.44 3.219971,-3.22003 v -0.35999 c 0,-0.81 -0.29999,-1.54999 -0.79999,-2.10999 -1.02997,0.38995 -2.14996,0.60999 -3.320011,0.60999 h -0.77997 c -0.61005,0 -1.10004,-0.48999 -1.10004,-1.10004 V 23.27997 Z M 5.4094599,15.56996 c -1.820009,0.09003 -3.239989,1.59003 -3.239989,3.41003 v 0.18 c 0.04999,0.90997 0.45001,1.75 1.13,2.35999 0.679989,0.61005 1.549988,0.92004 2.460019,0.88 L 19.79948,21.65999 30.27946,21.11 v -6.84003 z m 2.47003,-13.35998 c -1.86999,-0.23999 -3.59003,1.08001 -3.83002,2.95001 -0.02002,0.15002 -0.03003,0.29999 -0.03003,0.45001 0,1.70001 1.28003,3.15997 2.98004,3.38 L 30.27945,12.02998 V 8.72999 c 0,-1.23999 0.26001,-2.42999 0.73004,-3.5 z M 82.909459,27.26997 c 1.480041,0 2.679991,-1.20996 2.679991,-2.69 0,-0.64996 -0.25,-1.27997 -0.66998,-1.76001 h -0.01001 c -1.769961,-0.37 -3.060001,-1.93994 -3.060001,-3.75995 0,-0.61005 0.48999,-1.10004 1.10004,-1.10004 0.60999,0 1.099981,0.48999 1.099981,1.10004 0,0.38995 0.14001,0.75995 0.38,1.03998 C 85.14945,19.61 85.58945,18.8 85.58945,17.92 c 0,-1.48999 -1.19995,-2.69 -2.679991,-2.69 -1.48999,0 -2.69,1.20001 -2.69,2.69 0,0.28998 -0.01996,0.51001 -0.06,0.67999 C 80.119479,19.17 79.649449,19.61 79.069489,19.61 H 72.53946 c -0.89996,0 -1.63,0.72998 -1.63,1.64001 0,0.89996 0.73004,1.63995 1.63,1.63995 h 8.220029 c 0.60999,0 1.09998,0.49005 1.09998,1.10004 0,0.59998 -0.48999,1.09998 -1.09998,1.09998 h -0.49005 c 0.24006,1.23999 1.33002,2.17999 2.64002,2.17999 z M 79.509499,33.74 c 0.29999,0 0.54999,-0.23999 0.54999,-0.54004 0,-0.29999 -0.25,-0.53998 -0.54999,-0.53998 h -1.94 c -0.60004,0 -1.10004,-0.5 -1.10004,-1.09998 0,-0.61005 -0.48999,-1.10004 -1.08997,-1.10004 -0.60004,0 -1.10004,-0.48999 -1.10004,-1.09998 v -4.27002 h -1.73999 c -2.10999,0 -3.83002,-1.72998 -3.83002,-3.83997 0,-2.12 1.72003,-3.84003 3.83002,-3.84003 h 1.73999 v -5.57001 c 0,-2.41998 -1.95996,-4.38 -4.37,-4.38 -1.58997,0 -3.01996,0.85999 -3.78998,2.17999 h 2.14001 c 1.50995,0 2.75,1.23004 2.75,2.74005 0,1.51996 -1.24005,2.75 -2.75,2.75 h -0.54004 v 0.53998 c 0,1.32001 -0.94,2.42999 -2.19,2.69 v 11 c 0,2.41998 1.96002,4.38 4.38,4.38 h 9.60006 z m -14.490049,0 C 63.969459,32.57997 63.32951,31.05 63.32951,29.36 V 17.31001 c 0,-0.60004 0.489989,-1.10004 1.099979,-1.10004 h 0.549991 c 0.28998,0 0.53998,-0.23999 0.53998,-0.53998 v -1.64001 c 0,-0.60999 0.49005,-1.09998 1.10004,-1.09998 h 1.64001 c 0.29999,0 0.54999,-0.25 0.54999,-0.54999 0,-0.30005 -0.25,-0.54004 -0.54999,-0.54004 h -3.720031 c -0.33002,0 -0.64001,-0.14996 -0.849979,-0.39996 C 63.47948,11.18 63.389509,10.83997 63.45946,10.51997 63.69951,9.34999 64.23949,8.3 65.00951,7.45997 H 58.5595 c 0.58997,1.42999 0.91998,3 0.91998,4.64001 v 17 c 0,1.64001 -0.33002,3.21002 -0.91998,4.64001 h 6.45995 z m -17.63996,5.26001 c 2.81,0 5.34998,-1.17004 7.14996,-3.06 0.63,-0.65002 1.16003,-1.39001 1.59003,-2.20001 0.73999,-1.38 1.15997,-2.96002 1.15997,-4.64001 v -17 c 0,-1.67999 -0.41998,-3.26001 -1.15997,-4.64001 -0.42999,-0.81 -0.96002,-1.54999 -1.59003,-2.20001 -1.79999,-1.88995 -4.33997,-3.06 -7.14996,-3.06 h -8.37 c -1.52002,0 -2.91003,0.52002 -4.02002,1.40002 -0.67999,0.52002 -1.25,1.17999 -1.66998,1.92999 -0.54004,0.95001 -0.84003,2.03998 -0.84003,3.20001 V 20.99 v 0.01001 1.70996 c 1.15002,-0.04999 2.22998,-0.38 3.16998,-0.91998 h 0.01001 c 0.04004,-0.01001 0.07001,-0.03998 0.10004,-0.06 2.10999,-1.22998 3.51996,-3.52002 3.51996,-6.13 v -5.5 c 0,-0.60999 0.48999,-1.09998 1.10004,-1.09998 h 3 c 0.59998,0 1.09998,0.48999 1.09998,1.09998 v 1.54999 c 0,2.95001 2.40002,5.35004 5.35004,5.35004 0.60999,0 1.09998,0.48999 1.09998,1.09998 0,0.60999 -0.48999,1.09998 -1.09998,1.09998 -4.17004,0 -7.55005,-3.38995 -7.55005,-7.54999 v -0.45001 h -0.79999 v 4.40001 c 0,3.16998 -1.58997,5.97998 -4.02002,7.66998 0.640009,0.89001 1.02002,1.97003 1.02002,3.15002 v 0.35999 c 0,1.78003 -0.85999,3.35004 -2.17999,4.34003 1.28998,0.98999 2.13,2.54999 2.13,4.29999 v 0.35999 c 0,1.21002 -0.40002,2.32001 -1.07001,3.22003 h 10.02002 z m -14.36999,0 c 1.76996,0 3.21997,-1.44 3.21997,-3.22003 v -0.35999 c 0,-1.76001 -1.41998,-3.19 -3.16998,-3.22003 h -8.90002 c -1.76996,0 -3.20996,1.44 -3.20996,3.22003 v 0.35999 c 0,1.78003 1.44,3.22003 3.20996,3.22003 z"
     id="path30"
     inkscape:connector-curvature="0" /></svg>