<?xml version="1.0" encoding="UTF-8" standalone="no"?>
<svg
   xmlns:dc="http://purl.org/dc/elements/1.1/"
   xmlns:cc="http://creativecommons.org/ns#"
   xmlns:rdf="http://www.w3.org/1999/02/22-rdf-syntax-ns#"
   xmlns:svg="http://www.w3.org/2000/svg"
   xmlns="http://www.w3.org/2000/svg"
   xmlns:sodipodi="http://sodipodi.sourceforge.net/DTD/sodipodi-0.dtd"
   xmlns:inkscape="http://www.inkscape.org/namespaces/inkscape"
   version="1.0"
   x="0px"
   y="0px"
   viewBox="0 0 88.01577 60.593964"
   xml:space="preserve"
   id="svg2"
   inkscape:version="0.92.2 5c3e80d, 2017-08-06"
   sodipodi:docname="bones_paper.svg"
   width="88.01577"
   height="60.593964"><metadata
     id="metadata14"><rdf:RDF><cc:Work
         rdf:about=""><dc:format>image/svg+xml</dc:format><dc:type
           rdf:resource="http://purl.org/dc/dcmitype/StillImage" /><dc:title /></cc:Work></rdf:RDF></metadata><defs
     id="defs12" /><sodipodi:namedview
     pagecolor="#ffffff"
     bordercolor="#666666"
     borderopacity="1"
     objecttolerance="10"
     gridtolerance="10"
     guidetolerance="10"
     inkscape:pageopacity="0"
     inkscape:pageshadow="2"
     inkscape:window-width="754"
     inkscape:window-height="480"
     id="namedview10"
     showgrid="false"
     fit-margin-top="0"
     fit-margin-left="0"
     fit-margin-right="0"
     fit-margin-bottom="0"
     inkscape:zoom="2.36"
     inkscape:cx="44.007901"
     inkscape:cy="30.296972"
     inkscape:window-x="0"
     inkscape:window-y="0"
     inkscape:window-maximized="0"
     inkscape:current-layer="svg2" /><g
     id="g4"
     transform="matrix(0,1,1,0,-5.992129,-19.703027)"><path
       d="m 49.24643,49.44084 h -1.5498 c -0.60742,0 -1.09961,0.49268 -1.09961,1.1001 0,0.60742 0.49219,1.1001 1.09961,1.1001 h 1.5498 c 2.9502,0 5.35059,2.3999 5.35059,5.3501 0,0.60742 0.49219,1.1001 1.09961,1.1001 0.60742,0 1.09961,-0.49268 1.09961,-1.1001 -10e-6,-4.1631 -3.38673,-7.5503 -7.54981,-7.5503 z"
       id="path6"
       inkscape:connector-curvature="0" /><path
       d="m 75.52676,13.74785 c -2.48004,-0.37 -4.85004,0.98004 -5.87,3.16003 l 0.21997,-4 C 70.0367,9.83787 67.66671,7.20787 64.59676,7.04789 61.51674,6.86784 58.89674,9.25785 58.73671,12.32786 L 58.21675,21.71787 57.20674,11.13785 C 57.09675,9.65787 56.40675,8.30783 55.27675,7.33786 c -1.13,-0.97003 -2.58002,-1.44 -4.06,-1.33002 -3.07001,0.23999 -5.37,2.92999 -5.14001,5.98004 l 0.34998,5.17999 -0.40997,-2.28003 c -0.26001,-1.46997 -1.07001,-2.75 -2.29004,-3.60999 -1.21997,-0.84998 -2.69995,-1.17999 -4.16998,-0.91998 -1.46997,0.25995 -2.75,1.07001 -3.59998,2.28998 -0.85999,1.21997 -1.19,2.71002 -0.92999,4.16998 l 4.26996,24.22003 v 5.32001 l -2.54999,-1.38 c -2.70001,-1.79004 -5.92999,-2.42004 -9.10998,-1.79004 -3.19,0.64001 -5.94,2.48004 -7.75,5.17999 -0.17999,0.28003 -0.22998,0.62006 -0.14001,0.93005 0.09003,0.31995 0.32001,0.56995 0.63,0.69995 5.64001,2.37 10.95001,5.49005 15.78003,9.26001 l 1.72998,1.35004 0.01001,0.01 c 0.95001,1.33002 2.14996,2.43005 3.51001,3.25 0,0 0,11.94001 0,12.20002 0,3.63 2.94995,6.58002 6.57996,6.58002 h 5.53003 v 1.62 c -2.46002,0.25 -4.38,2.33002 -4.38,4.85999 0,2.69 2.19,4.88 4.89001,4.88 1.25,0 2.44,-0.47998 3.32996,-1.32001 0.89001,0.84003 2.07001,1.32001 3.33002,1.32001 2.70001,0 4.89002,-2.19 4.89002,-4.88 0,-2.52997 -1.91999,-4.60999 -4.38001,-4.85999 v -1.62 h 3.40003 c 0.32996,0.92999 1.06995,1.66998 2.00995,2 v 1.03003 c 0,1.50995 1.23004,2.73999 2.74005,2.73999 1.50995,0 2.73999,-1.23004 2.73999,-2.73999 V 63.09793 c 2.87,-2.21002 4.70996,-5.66998 4.70996,-9.56 V 39.26791 l 3.44,-19.19 c 0.45,-3.03997 -1.67,-5.89001 -4.70998,-6.33001 z m -12.15002,75.38 c 0,1.48004 -1.21002,2.67999 -2.69,2.67999 -0.65002,0 -1.27997,-0.25 -1.76001,-0.66998 v -0.01001 c -0.37,-1.76996 -1.94,-3.06 -3.76001,-3.06 -0.60999,0 -1.09998,0.48999 -1.09998,1.10004 0,0.60999 0.48999,1.09998 1.09998,1.09998 0.39001,0 0.76001,0.14001 1.04004,0.38 -0.48999,0.71997 -1.29999,1.15997 -2.17999,1.15997 -1.49005,0 -2.69,-1.19995 -2.69,-2.67999 0,-1.48999 1.19995,-2.69 2.69,-2.69 0.28998,0 0.50995,-0.01996 0.67999,-0.06 0.57001,-0.03998 1.01001,-0.51001 1.01001,-1.08997 v -6.53003 c 0,-0.89996 0.72998,-1.63 1.63995,-1.63 0.90002,0 1.64001,0.73004 1.64001,1.63 v 8.22003 c 0,0.60999 0.48999,1.09998 1.10004,1.09998 0.59998,0 1.09998,-0.48999 1.09998,-1.09998 V 86.4879 c 1.23998,0.23999 2.17999,1.32996 2.17999,2.63995 z m 6.51001,-3.44995 c 0,0.29999 -0.23999,0.53998 -0.53998,0.53998 -0.30005,0 -0.55005,-0.23999 -0.55005,-0.53998 v -1.94 c 0,-0.61005 -0.48999,-1.10004 -1.09998,-1.10004 -0.59998,0 -1.09003,-0.48999 -1.09003,-1.08997 0,-0.61005 -0.48999,-1.10004 -1.09998,-1.10004 h -4.31 v -1.69 c 0,-2.10999 -1.72998,-3.82996 -3.84003,-3.82996 -2.12,0 -3.83997,1.71997 -3.83997,3.82996 v 1.69 H 47.9867 c -2.41998,0 -4.38,-1.96997 -4.38,-4.38 0,-1.58997 0.86005,-3.01996 2.17999,-3.78998 v 2.15002 c 0,1.50995 1.23004,2.73999 2.74005,2.73999 1.51996,0 2.75,-1.23004 2.75,-2.73999 v -0.55005 h 0.53998 c 1.32001,0 2.42999,-0.94 2.69,-2.19 h 11 c 2.41998,0 4.38,1.97003 4.38,4.38 v 9.61006 z m 0,-14.5 c -1.16003,-1.05005 -2.69,-1.69 -4.38,-1.69 h -12.05 c -0.60004,0 -1.10004,0.5 -1.10004,1.09998 v 0.54999 c 0,0.29999 -0.23999,0.54004 -0.53998,0.54004 h -1.64001 c -0.60999,0 -1.09998,0.5 -1.09998,1.09998 v 1.65002 c 0,0.29999 -0.25,0.53998 -0.54999,0.53998 -0.30005,0 -0.54004,-0.23999 -0.54004,-0.53998 v -3.73004 c 0,-0.33002 -0.14996,-0.64001 -0.39996,-0.84998 -0.26001,-0.21002 -0.60004,-0.29004 -0.92004,-0.22003 -1.16998,0.23999 -2.21997,0.78003 -3.06,1.55005 V 64.9179 c 1.29004,0.46997 2.67004,0.71997 4.09003,0.71997 h 17 c 1.84998,0 3.60999,-0.41998 5.19,-1.17999 v 6.72002 z m 8.21002,-51.45001 -2.22003,12.39996 -1.27997,7.15002 -0.05005,0.27997 c -0.02997,0.19 -0.01001,0.38 0.05005,0.55005 v 13.42999 c 0,2.51996 -0.95001,4.82001 -2.51001,6.57996 -0.64001,0.72003 -1.38,1.34003 -2.20001,1.85004 -1.51001,0.92999 -3.28998,1.46997 -5.19,1.46997 h -17 c -1.42999,0 -2.82001,-0.31 -4.09003,-0.88995 -0.78998,-0.35004 -1.52997,-0.81 -2.19995,-1.37 -0.71002,-0.57001 -1.33002,-1.25 -1.86005,-2.02002 -0.01996,-0.02002 -0.02997,-0.04004 -0.06,-0.06 -0.04999,-0.06 -0.10999,-0.12 -0.17999,-0.17999 l -1.79999,-1.40002 c -4.59998,-3.58997 -9.64001,-6.60999 -14.97998,-8.98999 3.25995,-3.69 8.83997,-4.5 13.03998,-1.69 0.03003,0.02002 0.06,0.02997 0.09003,0.04999 l 7.39996,4.01001 c 0.54004,0.28998 1.21002,0.09003 1.5,-0.45001 0.28003,-0.52997 0.09003,-1.20001 -0.45001,-1.48999 l -2.64996,-1.42999 v -6.59003 c 0,-0.06 0,-0.12 -0.02002,-0.19 L 37.15677,16.44787 c -0.16003,-0.89996 0.03998,-1.81 0.56995,-2.56 0.52002,-0.73999 1.30005,-1.23999 2.20001,-1.39996 0.90002,-0.16003 1.81,0.03998 2.56,0.56 0.75,0.52997 1.23999,1.31 1.40002,2.20996 l 3.78998,21.31 c 0.01001,0.07001 0.03003,0.13 0.04999,0.19 v 0.01001 l 0.03003,0.39001 c 0.03998,0.57001 0.51001,1.01001 1.08002,1.01001 0.01996,0 0.04999,0 0.07001,-0.01001 0.59998,-0.04004 1.04999,-0.54999 1.00995,-1.15002 L 48.23674,11.83789 c -0.14996,-1.88 1.26001,-3.53003 3.14001,-3.66998 0.91998,-0.08002 1.79999,0.20996 2.48999,0.81 0.69,0.58997 1.12,1.41998 1.19,2.34998 l 2.35999,24.82001 v 0.06 c 0,0.56 0.44,1.03998 1.02002,1.08002 h 0.06 c 0.57001,0 1.04999,-0.45001 1.08002,-1.03003 l 1.32001,-23.81 c 0.08997,-1.88 1.67999,-3.33002 3.58997,-3.23999 1.88,0.09998 3.33002,1.71002 3.23004,3.59003 l -1.30005,23.85998 c -0.08997,0.58997 0.31,1.14001 0.90002,1.22998 0.40997,0.06 0.78003,-0.09998 1.02002,-0.39001 0.02997,-0.04999 0.07001,-0.09998 0.08997,-0.14996 0.04004,-0.04999 0.06,-0.10999 0.08002,-0.17999 0.02002,-0.04004 0.02997,-0.10004 0.03998,-0.15002 0.01001,-0.01001 0.01001,-0.02997 0.01001,-0.03998 l 0.01001,-0.10004 2.76001,-18.10998 c 0.27997,-1.87 2.02002,-3.15997 3.88,-2.89001 1.86997,0.27998 3.15995,2.01997 2.88999,3.84999 z"
       id="path8"
       inkscape:connector-curvature="0" /></g></svg>