<?xml version="1.0" encoding="UTF-8" standalone="no"?>
<svg
   xmlns:dc="http://purl.org/dc/elements/1.1/"
   xmlns:cc="http://creativecommons.org/ns#"
   xmlns:rdf="http://www.w3.org/1999/02/22-rdf-syntax-ns#"
   xmlns:svg="http://www.w3.org/2000/svg"
   xmlns="http://www.w3.org/2000/svg"
   xmlns:sodipodi="http://sodipodi.sourceforge.net/DTD/sodipodi-0.dtd"
   xmlns:inkscape="http://www.inkscape.org/namespaces/inkscape"
   version="1.1"
   x="0px"
   y="0px"
   viewBox="0 0 115.86282 37.706425"
   enable-background="new 0 0 100 100"
   xml:space="preserve"
   id="svg26"
   inkscape:version="0.92.2 5c3e80d, 2017-08-06"
   sodipodi:docname="comic_hans_scissors.svg"
   width="115.86282"
   height="37.706425"><metadata
     id="metadata36"><rdf:RDF><cc:Work
         rdf:about=""><dc:format>image/svg+xml</dc:format><dc:type
           rdf:resource="http://purl.org/dc/dcmitype/StillImage" /><dc:title /></cc:Work></rdf:RDF></metadata><defs
     id="defs34" /><sodipodi:namedview
     pagecolor="#ffffff"
     bordercolor="#666666"
     borderopacity="1"
     objecttolerance="10"
     gridtolerance="10"
     guidetolerance="10"
     inkscape:pageopacity="0"
     inkscape:pageshadow="2"
     inkscape:window-width="1156"
     inkscape:window-height="615"
     id="namedview32"
     showgrid="false"
     fit-margin-top="0"
     fit-margin-left="0"
     fit-margin-right="0"
     fit-margin-bottom="0"
     inkscape:zoom="2.36"
     inkscape:cx="30.712896"
     inkscape:cy="20.111441"
     inkscape:window-x="0"
     inkscape:window-y="0"
     inkscape:window-maximized="0"
     inkscape:current-layer="svg26" /><g
     id="g28"
     transform="matrix(0.70710678,0.70710678,0.70710678,-0.70710678,-15.61788,18.733002)"
     style="fill:#ff5555"><path
       d="m 95.047,89.961 c -0.075,-0.16 -1.893,-3.973 -4.829,-6.491 -2.822,-2.42 -3.351,-4.154 -3.316,-4.617 0.068,-0.894 -0.353,-1.794 -0.693,-2.366 0.375,-0.838 0.543,-1.939 0.431,-3.444 -0.149,-2.016 -1.426,-3.172 -3.502,-3.172 -0.254,0 -0.51,0.022 -0.764,0.052 C 78.736,66.165 59.292,45.488 56.781,42.816 56.582,33.502 52.078,25.486 47.884,21.057 c -1.498,-1.582 -3.044,-2.245 -4.6,-1.969 -1.962,0.347 -3.311,2.149 -3.975,3.271 -1.399,-0.537 -2.69,-0.548 -3.851,-0.037 -1.074,0.474 -1.829,1.324 -2.339,2.133 C 31.136,20.864 28.206,16.77 25.575,13.093 24.303,11.314 23.1,9.634 22.085,8.126 c -2.103,-3.123 -3.879,-3.251 -5,-2.807 -1.678,0.664 -2.491,3.04 -2.198,4.843 0.351,2.16 2.819,5.784 5.677,9.98 0.766,1.125 1.553,2.28 2.318,3.437 1.184,1.789 2.337,3.332 3.265,4.571 0.244,0.327 0.498,0.666 0.738,0.992 -1.973,-1.114 -4.936,-2.968 -7.312,-4.454 -1.956,-1.224 -3.979,-2.489 -5.604,-3.455 -3.241,-1.928 -5.571,-2.458 -7.125,-1.62 -0.932,0.502 -1.478,1.476 -1.537,2.742 -0.142,3.055 4.681,6.604 6.761,7.987 2.422,1.611 7.53,4.712 11.854,7.305 -1.005,-0.074 -1.893,0.032 -2.521,0.418 -0.649,0.399 -1.022,1.062 -1.05,1.867 -0.118,3.454 2.88,6.274 8.912,8.382 3.769,1.318 7.503,1.922 8.416,2.058 8.085,4.849 14.371,15.392 18.969,23.105 0.548,0.918 1.071,1.792 1.581,2.635 -0.517,0.666 -1.166,1.779 -0.926,3.003 0.209,1.064 1.01,1.887 2.372,2.454 0.386,0.996 1.636,1.901 3.041,2.911 0.72,0.518 1.464,1.053 1.773,1.408 1.33,1.525 3.577,7.225 4.331,9.292 0.147,0.405 0.531,0.657 0.939,0.657 0.114,0 0.229,-0.02 0.343,-0.061 0.519,-0.189 0.786,-0.763 0.597,-1.282 -0.29,-0.796 -2.889,-7.84 -4.702,-9.92 -0.461,-0.53 -1.264,-1.107 -2.113,-1.719 -0.263,-0.189 -0.605,-0.435 -0.946,-0.693 0.376,0.018 0.767,0.03 1.193,0.03 5.7,0 14.53,-1.643 17.146,-2.532 l 0.398,-0.135 c 1.183,-0.4 2.262,-0.77 3.116,-1.363 0.072,0.198 0.125,0.389 0.114,0.539 -0.125,1.676 1.373,4.025 4.008,6.284 2.606,2.234 4.307,5.792 4.323,5.827 0.171,0.361 0.53,0.573 0.905,0.573 0.143,0 0.288,-0.031 0.426,-0.096 0.501,-0.233 0.715,-0.828 0.48,-1.328 z M 38.528,48.549 C 38.414,48.482 38.287,48.438 38.156,48.42 33.701,47.814 22.178,45.12 22.353,40 c 0.006,-0.175 0.049,-0.201 0.098,-0.231 1.024,-0.63 5.378,0.647 8.802,2.235 0.486,0.224 1.058,0.03 1.306,-0.442 0.248,-0.472 0.082,-1.055 -0.377,-1.326 -0.144,-0.085 -14.439,-8.521 -19.005,-11.559 -3.518,-2.34 -5.932,-4.902 -5.87,-6.229 0.025,-0.553 0.189,-0.914 0.487,-1.074 0.306,-0.167 1.588,-0.542 5.154,1.578 1.605,0.955 3.619,2.214 5.565,3.432 9.154,5.727 10.043,6.094 10.929,5.568 0.306,-0.181 0.513,-0.474 0.583,-0.824 0.179,-0.896 -0.54,-1.856 -2.275,-4.177 -0.912,-1.219 -2.047,-2.736 -3.199,-4.477 -0.771,-1.164 -1.562,-2.327 -2.333,-3.459 -2.496,-3.664 -5.076,-7.453 -5.356,-9.175 -0.169,-1.042 0.324,-2.41 0.96,-2.662 0.463,-0.187 1.392,0.263 2.605,2.064 1.032,1.532 2.242,3.223 3.523,5.014 3.049,4.261 6.505,9.091 8.323,12.914 0.18,0.378 0.573,0.604 0.995,0.565 0.417,-0.038 0.767,-0.334 0.875,-0.739 0.006,-0.021 0.599,-2.178 2.131,-2.848 0.822,-0.359 1.836,-0.226 3.016,0.395 0.247,0.13 0.537,0.151 0.799,0.058 0.263,-0.092 0.475,-0.291 0.585,-0.546 0.301,-0.696 1.49,-2.739 2.959,-3 0.855,-0.145 1.794,0.313 2.799,1.375 3.991,4.216 8.282,11.893 8.355,20.795 0.002,0.251 0.099,0.493 0.271,0.677 0.875,0.931 19.692,20.948 25.069,26.567 -0.41,0.145 -0.73,0.28 -0.887,0.351 L 59.95,75.089 C 59.44,74.246 58.916,73.372 58.368,72.453 53.628,64.502 47.135,53.612 38.528,48.549 Z m 42.509,29.083 -0.402,0.137 c -2.44,0.83 -11.088,2.425 -16.501,2.425 -2.054,0 -3.07,-0.227 -3.562,-0.415 -0.54,-0.209 -1.205,-0.56 -1.303,-1.044 -0.101,-0.507 0.36,-1.205 0.709,-1.603 L 79.775,72.75 c 0.073,-0.017 0.145,-0.041 0.212,-0.073 0.018,-0.008 1.726,-0.807 3.151,-0.807 1.174,0 1.447,0.505 1.508,1.32 0.101,1.363 -0.011,2.191 -0.408,2.773 -0.021,0.03 -0.049,0.055 -0.067,0.087 -0.537,0.701 -1.529,1.04 -3.134,1.582 z"
       id="path30"
       inkscape:connector-curvature="0"
       style="fill:#ff5555" /></g></svg>