<?xml version="1.0" encoding="UTF-8" standalone="no"?>
<svg
   xmlns:dc="http://purl.org/dc/elements/1.1/"
   xmlns:cc="http://creativecommons.org/ns#"
   xmlns:rdf="http://www.w3.org/1999/02/22-rdf-syntax-ns#"
   xmlns:svg="http://www.w3.org/2000/svg"
   xmlns="http://www.w3.org/2000/svg"
   xmlns:sodipodi="http://sodipodi.sourceforge.net/DTD/sodipodi-0.dtd"
   xmlns:inkscape="http://www.inkscape.org/namespaces/inkscape"
   version="1.1"
   x="0px"
   y="0px"
   viewBox="0 0 73.720703 58.65237"
   overflow="scroll"
   xml:space="preserve"
   id="svg12"
   inkscape:version="0.92.2 5c3e80d, 2017-08-06"
   sodipodi:docname="gato_rock.svg"
   width="73.720703"
   height="58.65237"
   style="overflow:scroll"><metadata
     id="metadata20"><rdf:RDF><cc:Work
         rdf:about=""><dc:format>image/svg+xml</dc:format><dc:type
           rdf:resource="http://purl.org/dc/dcmitype/StillImage" /><dc:title /></cc:Work></rdf:RDF></metadata><defs
     id="defs18" /><sodipodi:namedview
     pagecolor="#ffffff"
     bordercolor="#666666"
     borderopacity="1"
     objecttolerance="10"
     gridtolerance="10"
     guidetolerance="10"
     inkscape:pageopacity="0"
     inkscape:pageshadow="2"
     inkscape:window-width="756"
     inkscape:window-height="480"
     id="namedview16"
     showgrid="false"
     fit-margin-top="0"
     fit-margin-left="0"
     fit-margin-right="0"
     fit-margin-bottom="0"
     inkscape:zoom="2.6222222"
     inkscape:cx="49.442516"
     inkscape:cy="29.340332"
     inkscape:window-x="0"
     inkscape:window-y="0"
     inkscape:window-maximized="0"
     inkscape:current-layer="svg12" /><path
     d="M 7.191406,58.652371 C 3.226074,58.652371 0,55.249539 0,51.066433 0,48.09158 1.635925,45.518521 4.005066,44.276394 1.635925,43.020474 0,40.41885 0,37.410672 0,34.439419 1.631897,31.868924 3.996399,30.625027 1.631897,29.38107 0,26.810452 0,23.838894 0,20.839871 1.658203,18.241726 4.058594,17.011258 1.658203,15.780789 0,13.182156 0,10.183133 0,6.000027 3.226074,2.597195 7.191406,2.597195 H 22.646485 V 2.308133 c 0,-1.258423 0.974548,-2.280518 2.179382,-2.303833 0.0063,-3.06e-4 0.01221,-0.0018 0.01849,-0.002 C 24.851957,0.002239 24.859067,0 24.866697,0 l 22.368164,4.89e-4 c 14.852053,0.697292 26.485842,13.560085 26.485842,29.283718 0,16.193848 -12.394043,29.368164 -27.628418,29.368164 H 23.209473 c -0.0059,0 -0.0108,-0.0032 -0.01666,-0.0034 -0.02106,1.83e-4 -0.04138,0.0034 -0.06244,0.0034 H 7.191408 Z M 1.59961,51.066433 c 0,3.300782 2.508789,5.986329 5.591797,5.986329 h 15.938964 c 0.06629,0 0.130677,-0.0082 0.196411,-0.01062 2.986695,-0.150024 5.395386,-2.797546 5.395386,-5.975708 0,-3.300293 -2.508789,-5.985839 -5.591797,-5.985839 H 7.191406 c -3.083007,0 -5.591796,2.685547 -5.591796,5.985838 z m 0,-13.655761 c 0,3.347168 2.508789,6.070312 5.591797,6.070312 h 15.938964 0.868164 c 3.083008,0 5.591797,-2.723144 5.591797,-6.070312 0,-3.300293 -2.508789,-5.98584 -5.591797,-5.98584 H 15.871094 7.191407 c -3.083008,0 -5.591797,2.685547 -5.591797,5.98584 z M 7.191406,17.852566 c -3.083007,0 -5.591796,2.685547 -5.591796,5.986328 0,3.300782 2.508789,5.986328 5.591796,5.986328 h 8.679688 8.127441 c 1.867676,0 3.292969,-0.521972 4.23584,-1.550781 1.167359,-1.27417 1.351441,-3.048035 1.36792,-3.887207 h -1.263916 c -4.00293,0 -5.470703,-3.920898 -5.691894,-6.077637 v -0.531616 l -6.775391,0.07458 H 7.191406 Z M 1.59961,10.183133 c 0,3.300781 2.508789,5.986328 5.591797,5.986328 H 22.646485 V 5.156277 c 0,-0.339233 0.02563,-0.653991 0.05865,-0.959472 H 7.191402 c -3.083007,0 -5.591796,2.685546 -5.591796,5.986328 z m 44.492675,46.869629 c 1.704834,0 3.370118,-0.181092 4.984375,-0.516541 V 42.873562 h 1.59961 v 13.2771 c 0.738952,-0.206238 1.464294,-0.448181 2.176269,-0.72052 v -9.713806 h 1.59961 v 9.035705 c 0.743652,-0.345642 1.46997,-0.725525 2.175781,-1.141174 v -5.558105 h 1.599609 v 4.530029 c 7.150513,-4.954712 11.893554,-13.544251 11.893554,-23.298584 0,-5.667236 -1.596862,-10.938416 -4.341796,-15.331848 v 6.553528 H 66.179688 V 11.661893 C 65.50116,10.786526 64.777283,9.952237 64.003418,9.171841 v 8.491272 H 62.403809 V 7.690884 C 61.706543,7.094205 60.982361,6.531338 60.228027,6.012234 v 9.562012 H 58.628418 V 5.003995 C 55.219971,3.010464 51.342651,1.794522 47.197266,1.599637 H 25.255799 c -0.342408,0.490051 -1.009705,1.683471 -1.009705,3.55664 l -0.004,11.789429 c 1.83e-4,0.0068 0.0039,0.01239 0.004,0.01916 0,0.0015 0,0.0029 0,0.0044 0,0.007 -0.0038,0.01282 -0.004,0.01984 l -4.28e-4,1.235535 c 0.02051,0.186523 0.538575,4.562988 4.09668,4.562988 h 2.438965 c 0.806152,-0.04492 2.32959,-0.282715 3.511719,-1.373535 1.175293,-1.084473 1.771484,-2.777344 1.771484,-5.03125 0,-0.441895 0.35791,-0.799805 0.799805,-0.799805 0.441894,0 0.799805,0.35791 0.799805,0.799805 0,2.728515 -0.774415,4.821777 -2.301758,6.221679 -1.392029,1.275269 -3.069824,1.651001 -4.155701,1.754395 -0.01056,1.050415 -0.229797,3.285583 -1.777893,4.984863 -0.550781,0.604187 -1.216431,1.070007 -1.980042,1.411926 2.229615,1.289734 3.745179,3.788758 3.745179,6.654969 0,0.356201 -0.03088,0.704101 -0.07513,1.047546 -0.01086,0.08423 -0.02252,0.16742 -0.03595,0.250733 -0.0542,0.337097 -0.12201,0.669189 -0.216126,0.989807 -0.0037,0.01276 -0.009,0.02472 -0.01282,0.03741 -0.09277,0.310181 -0.208557,0.608765 -0.336121,0.900574 -0.03278,0.07495 -0.0658,0.149109 -0.100769,0.222778 -0.13977,0.294495 -0.291199,0.58136 -0.464172,0.8526 -0.01282,0.02014 -0.02795,0.03839 -0.04095,0.05835 -0.164978,0.25354 -0.346619,0.492798 -0.538269,0.7229 -0.05103,0.06134 -0.101868,0.121949 -0.154724,0.181519 -0.210327,0.236938 -0.430481,0.463379 -0.667297,0.670288 -0.02387,0.02081 -0.0498,0.03839 -0.07385,0.0589 -0.220337,0.1875 -0.452698,0.358459 -0.692993,0.517822 -0.06488,0.04303 -0.12915,0.08588 -0.195374,0.12677 -0.266235,0.164307 -0.540344,0.315064 -0.82666,0.442505 -0.0082,0.0037 -0.01556,0.0091 -0.02386,0.01276 0.04724,0.02899 0.08917,0.06604 0.135742,0.09613 0.173462,0.111999 0.341675,0.230957 0.505066,0.357605 0.06946,0.05383 0.138977,0.106567 0.206482,0.162903 0.199646,0.166687 0.392089,0.342285 0.573852,0.529968 0.01611,0.01666 0.03406,0.03113 0.04999,0.04791 0.194946,0.205078 0.375305,0.424804 0.547058,0.65216 0.05102,0.06751 0.09802,0.137695 0.146851,0.207031 0.122131,0.173401 0.237121,0.351868 0.345092,0.536133 0.04425,0.0755 0.08923,0.150025 0.131043,0.227295 0.132873,0.245484 0.256225,0.497193 0.362854,0.758789 0.0044,0.0108 0.01013,0.02081 0.01447,0.03162 0.109558,0.272095 0.199524,0.554383 0.278687,0.841553 0.02319,0.08405 0.04181,0.169556 0.06232,0.254761 0.05212,0.217102 0.09497,0.437317 0.128906,0.661377 0.01355,0.08917 0.02832,0.17749 0.03882,0.2677 0.03558,0.305298 0.05969,0.614258 0.05969,0.929565 0,0.289368 -0.0188,0.573914 -0.04883,0.854981 -0.0059,0.0542 -0.01624,0.106873 -0.02332,0.160767 -0.03058,0.239318 -0.07074,0.474975 -0.122009,0.706726 -0.0068,0.02991 -0.01459,0.05933 -0.02173,0.08911 -0.392944,1.682068 -1.315673,3.142639 -2.574463,4.174744 h 18.560852 z"
     id="path14"
     inkscape:connector-curvature="0"
     style="fill:#ff9955" /></svg>