<?xml version="1.0" encoding="UTF-8" standalone="no"?>
<svg
   xmlns:dc="http://purl.org/dc/elements/1.1/"
   xmlns:cc="http://creativecommons.org/ns#"
   xmlns:rdf="http://www.w3.org/1999/02/22-rdf-syntax-ns#"
   xmlns:svg="http://www.w3.org/2000/svg"
   xmlns="http://www.w3.org/2000/svg"
   xmlns:sodipodi="http://sodipodi.sourceforge.net/DTD/sodipodi-0.dtd"
   xmlns:inkscape="http://www.inkscape.org/namespaces/inkscape"
   version="1.1"
   x="0px"
   y="0px"
   viewBox="0 0 90 90"
   overflow="scroll"
   xml:space="preserve"
   id="svg204"
   sodipodi:docname="gato_waiting.svg"
   inkscape:version="0.92.2 5c3e80d, 2017-08-06"><metadata
     id="metadata210"><rdf:RDF><cc:Work
         rdf:about=""><dc:format>image/svg+xml</dc:format><dc:type
           rdf:resource="http://purl.org/dc/dcmitype/StillImage" /></cc:Work></rdf:RDF></metadata><defs
     id="defs208" /><sodipodi:namedview
     pagecolor="#ffffff"
     bordercolor="#666666"
     borderopacity="1"
     objecttolerance="10"
     gridtolerance="10"
     guidetolerance="10"
     inkscape:pageopacity="0"
     inkscape:pageshadow="2"
     inkscape:window-width="640"
     inkscape:window-height="480"
     id="namedview206"
     showgrid="false"
     inkscape:zoom="2.6222222"
     inkscape:cx="41.884761"
     inkscape:cy="45"
     inkscape:window-x="0"
     inkscape:window-y="0"
     inkscape:window-maximized="0"
     inkscape:current-layer="svg204" /><path
     d="m 10.849609,53.196289 c 0,-3.351318 2.723328,-6.093567 6.150086,-6.300171 -1.367981,-1.159363 -2.237,-2.852844 -2.237,-4.741821 0,-3.485352 2.94336,-6.320313 6.561524,-6.320313 h 15.224609 7.125 L 38.338867,16.810547 c -0.461914,-1.65918 -0.233398,-3.40625 0.642578,-4.918945 0.913086,-1.579102 2.404297,-2.7011723 4.194336,-3.1582035 l 1.56543,-0.4091797 c 2.792969,-0.7255859 5.683594,0.8662109 6.450195,3.5595702 L 53.25,19.297852 c 0.146484,0.491211 0.293945,1.052734 0.427734,1.640625 l 0.842774,2.891601 c 2.512695,7.225586 8.137695,10.916992 10.401367,12.150391 l 0.308594,0.143555 c 0.355468,0.164062 0.758789,0.349609 1.072265,0.552734 7.942383,4.203125 12.875977,12.230469 12.875977,20.949219 0,6.535644 -3.146179,12.662231 -8.064453,17.12323 v 0.320129 h -0.362976 c -4.763306,4.168945 -11.100525,6.802735 -17.841126,6.802735 H 39.464844 c -0.02564,0 -0.04749,-0.0119 -0.07251,-0.01428 -0.09448,0.0041 -0.187622,0.01428 -0.282959,0.01428 H 24.667969 c -3.557618,0 -6.5625,-2.894532 -6.5625,-6.320313 0,-1.990662 0.962402,-3.766479 2.460266,-4.925781 h -1.517884 c -3.61914,0 -6.5625,-2.834961 -6.5625,-6.320313 0,-2.097534 1.070313,-3.954162 2.708191,-5.104431 -2.528625,-0.888306 -4.343933,-3.241211 -4.343933,-6.004944 z m 5.512696,-11.041992 c 0,2.603515 2.225586,4.72168 4.961914,4.72168 h 11.311523 0.853516 3.05957 c 2.736328,0 4.961914,-2.118165 4.961914,-4.72168 0,-2.602539 -2.225586,-4.720703 -4.961914,-4.720703 H 21.324219 c -2.736328,0 -4.961914,2.118164 -4.961914,4.720703 z m 36.547851,38.118164 c 5.682556,0 11.060974,-1.981445 15.338379,-5.203125 H 61.625 v -1.59961 h 8.551147 c 0.745728,-0.684814 1.441834,-1.414123 2.092713,-2.175781 h -7.801087 v -1.599609 h 9.055115 c 0.50415,-0.702271 0.968201,-1.427918 1.387207,-2.175782 H 66.55664 v -1.599609 h 9.16565 c 1.188415,-2.596435 1.856811,-5.401001 1.856811,-8.292969 0,-8.125 -4.607422,-15.610351 -12.081054,-19.568359 -0.277344,-0.176758 -0.612305,-0.331055 -0.936524,-0.480469 L 64.195312,37.405273 C 61.730469,36.064453 55.706055,32.108398 52.99707,24.316406 l -0.866211,-2.97461 C 51.993164,20.74707 51.855469,20.21875 51.71289,19.740234 L 49.651367,12.316406 C 49.21582,10.786132 47.696289,9.7519528 46.084961,9.7519528 c -0.311524,0 -0.626953,0.039063 -0.939453,0.1210938 l -1.569336,0.4101564 c -1.374024,0.350586 -2.513672,1.206055 -3.209961,2.410156 -0.65918,1.137696 -0.831055,2.447266 -0.486328,3.686524 L 45.5,36.417968 c 0.0042,0.01489 -0.0013,0.03015 0.002,0.04517 0.004,0.01801 0.01569,0.03198 0.01855,0.05054 1.253906,8.263671 6.147461,17.188476 11.141601,20.319335 0.374024,0.234375 0.487305,0.728516 0.25293,1.10254 -0.151367,0.242187 -0.412109,0.375 -0.678711,0.375 -0.144531,0 -0.291992,-0.03906 -0.423828,-0.122071 C 50.520203,54.871521 45.548889,46.038025 44.059204,37.433593 h -3.151001 c 0.04614,0.03961 0.08685,0.0846 0.131836,0.125428 0.08466,0.07678 0.167603,0.154785 0.247986,0.235778 0.07019,0.0708 0.138122,0.143189 0.204895,0.217103 0.07745,0.08569 0.15216,0.173034 0.224792,0.262634 0.06189,0.07635 0.122254,0.153442 0.180542,0.232483 0.06946,0.09418 0.13501,0.190674 0.199097,0.288574 0.05292,0.08087 0.105347,0.16156 0.154541,0.244812 0.06055,0.102478 0.115906,0.207642 0.170593,0.31366 0.04352,0.08435 0.08777,0.167907 0.127381,0.254272 0.05115,0.11145 0.09558,0.22583 0.140136,0.340454 0.03345,0.08612 0.06897,0.17096 0.09857,0.258789 0.04126,0.122498 0.07416,0.24823 0.107788,0.373841 0.02252,0.08417 0.04858,0.166748 0.0675,0.252197 0.03149,0.14209 0.05267,0.287354 0.07404,0.432739 0.01068,0.07275 0.02637,0.14386 0.03448,0.217407 0.02423,0.22052 0.03796,0.44397 0.03796,0.670533 0,0.21405 -0.01166,0.425537 -0.03333,0.634155 -0.007,0.06671 -0.02106,0.131042 -0.03015,0.197144 -0.01935,0.140686 -0.03784,0.281677 -0.06665,0.419311 -0.01624,0.07733 -0.03955,0.151917 -0.05865,0.22821 -0.03082,0.123169 -0.06006,0.246949 -0.09827,0.367249 -0.02521,0.07935 -0.05695,0.15564 -0.08533,0.233643 -0.04132,0.113769 -0.08118,0.227966 -0.128967,0.338684 -0.03339,0.07733 -0.07257,0.151489 -0.109009,0.227234 -0.05145,0.107055 -0.101929,0.214416 -0.159302,0.318115 -0.04126,0.07458 -0.08765,0.145874 -0.131897,0.218628 -0.06073,0.09991 -0.120849,0.200012 -0.187011,0.296325 -0.04858,0.07068 -0.101441,0.138001 -0.152894,0.206727 -0.06995,0.09344 -0.139648,0.186767 -0.214599,0.276245 -0.05481,0.06543 -0.11322,0.127685 -0.170654,0.190918 -0.07861,0.08661 -0.157349,0.17279 -0.240723,0.255127 -0.06134,0.06067 -0.125549,0.118103 -0.189392,0.17633 -0.08618,0.07867 -0.172791,0.156433 -0.263306,0.230591 -0.06732,0.05512 -0.136902,0.107178 -0.206543,0.159729 -0.09314,0.07031 -0.187012,0.139343 -0.284058,0.204773 -0.07324,0.04938 -0.148254,0.09595 -0.223571,0.142456 -0.09906,0.06116 -0.198914,0.120606 -0.301514,0.176697 -0.07886,0.04309 -0.159058,0.08362 -0.239929,0.123657 -0.10437,0.05164 -0.209656,0.101074 -0.3172,0.1474 -0.08398,0.03619 -0.168884,0.07019 -0.2547,0.103027 -0.108886,0.04169 -0.21875,0.08063 -0.330383,0.116761 -0.08893,0.02881 -0.178467,0.05579 -0.269043,0.08093 -0.112793,0.03131 -0.226562,0.05927 -0.341736,0.08484 -0.09351,0.02075 -0.187195,0.04004 -0.282165,0.05689 -0.11554,0.02051 -0.232178,0.03705 -0.349793,0.05157 -0.09814,0.01215 -0.196228,0.02338 -0.295593,0.03131 -0.0473,0.0038 -0.09326,0.01209 -0.140869,0.01489 0.73938,0.62793 1.324219,1.412598 1.714172,2.288086 0.0071,0.01569 0.01288,0.03174 0.01984,0.04742 0.07367,0.169129 0.142089,0.340149 0.200317,0.515686 0.01691,0.05029 0.0293,0.102112 0.04486,0.152893 0.04443,0.146607 0.08844,0.293152 0.121704,0.443482 0.02222,0.09888 0.0354,0.200256 0.05255,0.300659 0.01831,0.109131 0.04132,0.216797 0.05359,0.327454 0.02441,0.216369 0.03809,0.435302 0.03809,0.656738 0,0.248535 -0.01831,0.492737 -0.04681,0.734009 -0.0059,0.04883 -0.01569,0.0965 -0.02277,0.14508 -0.02917,0.204712 -0.06757,0.406128 -0.116211,0.604187 -0.0075,0.02991 -0.01569,0.05939 -0.02362,0.08911 -0.384094,1.469116 -1.289184,2.734558 -2.515869,3.599548 0.03009,0.0105 0.05701,0.02661 0.08691,0.03748 0.279908,0.101928 0.553528,0.215759 0.813843,0.35144 0.01441,0.0075 0.02759,0.01666 0.04193,0.02429 0.247986,0.131531 0.483216,0.281189 0.71045,0.440918 0.05383,0.03784 0.107544,0.07477 0.160156,0.114136 0.227905,0.170532 0.445373,0.352478 0.64801,0.549438 0.03387,0.03296 0.06433,0.06848 0.09741,0.102112 0.177613,0.180298 0.343201,0.370544 0.497925,0.569641 0.03534,0.04547 0.07227,0.08911 0.106384,0.135498 0.165833,0.22583 0.315735,0.46228 0.449952,0.708313 0.02893,0.05298 0.05426,0.107361 0.08167,0.161194 0.116333,0.228699 0.219543,0.463989 0.306701,0.707031 0.01337,0.03735 0.02997,0.07294 0.0426,0.110657 0.09082,0.269836 0.158691,0.548584 0.210937,0.832764 0.01208,0.06567 0.02191,0.131469 0.0318,0.197814 0.04388,0.293091 0.07434,0.59021 0.07434,0.894715 0,0.234497 -0.01575,0.465393 -0.04199,0.693359 -0.0087,0.07593 -0.0246,0.149536 -0.03613,0.22461 -0.02319,0.150695 -0.04797,0.300659 -0.08215,0.447693 -0.02008,0.08655 -0.04547,0.170959 -0.06928,0.256164 -0.03686,0.132019 -0.07587,0.262756 -0.121338,0.391236 -0.03094,0.08746 -0.06476,0.173217 -0.09961,0.258911 -0.04962,0.122192 -0.102783,0.242309 -0.160034,0.360717 -0.04053,0.08392 -0.08185,0.167115 -0.12616,0.249085 -0.06299,0.116516 -0.130981,0.229675 -0.201233,0.341919 -0.04797,0.07672 -0.0946,0.153931 -0.145813,0.228515 -0.07983,0.116028 -0.166138,0.227051 -0.25354,0.337647 -0.05054,0.06397 -0.09784,0.130127 -0.150879,0.192139 -0.122741,0.143737 -0.253296,0.280822 -0.388611,0.413696 -0.02557,0.02515 -0.04871,0.05243 -0.07477,0.07715 -0.157714,0.149842 -0.324157,0.291199 -0.496887,0.425476 -0.01117,0.0087 -0.02081,0.01886 -0.03204,0.02747 h 0.755859 c 3.619141,0 6.5625,2.834961 6.5625,6.320313 0,0.219787 -0.01318,0.437134 -0.03729,0.651916 -0.01794,0.164795 -0.04865,0.325928 -0.07971,0.487 -0.0083,0.04187 -0.0127,0.08478 -0.02185,0.126343 -0.290894,1.353332 -1.03363,2.559814 -2.079895,3.455444 h 9.457031 z M 19.705078,75.551758 c 0,2.558594 2.272461,4.720703 4.962891,4.720703 h 14.441406 c 0.279114,0 0.550049,-0.03668 0.818054,-0.08124 0.07996,-0.01355 0.161804,-0.02161 0.240418,-0.0387 0.24469,-0.05298 0.480896,-0.128357 0.711609,-0.215393 0.06104,-0.02283 0.124572,-0.04053 0.184448,-0.06555 0.267151,-0.112732 0.523254,-0.246521 0.764648,-0.400635 0.01337,-0.0085 0.02814,-0.0152 0.04144,-0.0238 1.046021,-0.681762 1.816589,-1.730774 2.09082,-2.932373 0.0021,-0.0096 0.0067,-0.01837 0.0088,-0.02801 0.06708,-0.303222 0.102662,-0.616028 0.102662,-0.934997 0,-2.602539 -2.226563,-4.720703 -4.962891,-4.720703 h -5.620117 -8.821289 c -2.736328,0 -4.962891,2.118164 -4.962891,4.720703 z M 14.084961,64.305664 c 0,2.602539 2.226562,4.720703 4.96289,4.720703 h 14.441407 0.711914 c 2.728515,0 5.033203,-2.162109 5.033203,-4.720703 0,-2.602539 -2.257813,-4.720703 -5.033203,-4.720703 h -0.711914 -0.853516 -13.58789 c -2.736329,0 -4.962891,2.118164 -4.962891,4.720703 z m 3.327148,-6.320312 h 1.635743 13.58789 c 0.28711,0 0.566162,-0.03699 0.841492,-0.08478 0.151001,-0.02564 0.29541,-0.0672 0.441223,-0.105713 0.168335,-0.04547 0.336548,-0.09082 0.497742,-0.152893 0.104919,-0.03961 0.204956,-0.0874 0.306152,-0.133545 0.194702,-0.09027 0.385437,-0.187561 0.565918,-0.30072 0.06604,-0.04102 0.130005,-0.08441 0.193848,-0.128235 0.199279,-0.138062 0.388733,-0.288513 0.565429,-0.452393 0.04334,-0.04016 0.08704,-0.07983 0.128907,-0.12146 0.177551,-0.176635 0.339111,-0.36737 0.487671,-0.567627 0.0343,-0.04645 0.07117,-0.09094 0.103759,-0.13855 0.137635,-0.199951 0.254273,-0.412902 0.36023,-0.631164 0.02881,-0.05994 0.06348,-0.116699 0.08966,-0.177857 0.09357,-0.215759 0.161499,-0.442199 0.221314,-0.671325 0.01788,-0.06958 0.04572,-0.13562 0.06036,-0.206238 0.06274,-0.297913 0.09918,-0.603882 0.09918,-0.916565 0,-0.307373 -0.0365,-0.608093 -0.09888,-0.90094 -0.01593,-0.07556 -0.0459,-0.146423 -0.06567,-0.220825 -0.05853,-0.217712 -0.123657,-0.433411 -0.213684,-0.638855 -0.0307,-0.07062 -0.07098,-0.136475 -0.105164,-0.205444 -0.10083,-0.201966 -0.210205,-0.399659 -0.339111,-0.585633 -0.04138,-0.06 -0.0882,-0.116027 -0.132385,-0.174194 -0.138672,-0.181885 -0.287903,-0.355957 -0.451355,-0.517822 -0.05469,-0.05414 -0.112,-0.105713 -0.169373,-0.15741 -0.162903,-0.147156 -0.336365,-0.283081 -0.51831,-0.408814 -0.07831,-0.05371 -0.157227,-0.106445 -0.238892,-0.155944 -0.166199,-0.101624 -0.341248,-0.189576 -0.51947,-0.272156 -0.113403,-0.05188 -0.225952,-0.104614 -0.343994,-0.148377 -0.152344,-0.05737 -0.311157,-0.09955 -0.46991,-0.142273 -0.150391,-0.03986 -0.299683,-0.08203 -0.455627,-0.108459 -0.275208,-0.04706 -0.554139,-0.08356 -0.841065,-0.08356 h -11.311523 -3.91211 c -2.736328,0 -4.96289,2.118164 -4.96289,4.720703 0,2.640625 2.226562,4.789063 4.96289,4.789063 z"
     id="path202"
     style="fill:#ff9955"
     inkscape:connector-curvature="0" /></svg>