<?xml version="1.0" encoding="UTF-8" standalone="no"?>
<svg
   xmlns:dc="http://purl.org/dc/elements/1.1/"
   xmlns:cc="http://creativecommons.org/ns#"
   xmlns:rdf="http://www.w3.org/1999/02/22-rdf-syntax-ns#"
   xmlns:svg="http://www.w3.org/2000/svg"
   xmlns="http://www.w3.org/2000/svg"
   xmlns:sodipodi="http://sodipodi.sourceforge.net/DTD/sodipodi-0.dtd"
   xmlns:inkscape="http://www.inkscape.org/namespaces/inkscape"
   version="1.1"
   x="0px"
   y="0px"
   viewBox="0 0 68.919594 32.026764"
   enable-background="new 0 0 100 100"
   xml:space="preserve"
   id="svg2"
   inkscape:version="0.92.2 5c3e80d, 2017-08-06"
   sodipodi:docname="harry_scissors.svg"
   width="68.919594"
   height="32.026764"><metadata
     id="metadata68"><rdf:RDF><cc:Work
         rdf:about=""><dc:format>image/svg+xml</dc:format><dc:type
           rdf:resource="http://purl.org/dc/dcmitype/StillImage" /><dc:title /></cc:Work></rdf:RDF></metadata><defs
     id="defs66" /><sodipodi:namedview
     pagecolor="#ffffff"
     bordercolor="#666666"
     borderopacity="1"
     objecttolerance="10"
     gridtolerance="10"
     guidetolerance="10"
     inkscape:pageopacity="0"
     inkscape:pageshadow="2"
     inkscape:window-width="754"
     inkscape:window-height="480"
     id="namedview64"
     showgrid="false"
     fit-margin-top="0"
     fit-margin-left="0"
     fit-margin-right="0"
     fit-margin-bottom="0"
     inkscape:zoom="2.36"
     inkscape:cx="17.056009"
     inkscape:cy="18.349197"
     inkscape:window-x="312"
     inkscape:window-y="36"
     inkscape:window-maximized="0"
     inkscape:current-layer="svg2" /><g
     id="g3396"
     transform="rotate(-90,19.967102,46.047509)"
     style="fill:#803300"><path
       id="path4"
       d="m 47.006,83.927 h -5.282 c -0.149,0 -0.294,-0.057 -0.403,-0.159 -11.343,-10.553 -6.158,-26.456 -6.105,-26.615 0.105,-0.309 0.439,-0.477 0.75,-0.372 0.309,0.104 0.476,0.439 0.372,0.749 -0.051,0.151 -4.936,15.186 5.62,25.213 h 5.049 c 0.327,0 0.592,0.265 0.592,0.592 -10e-4,0.327 -0.266,0.592 -0.593,0.592 z"
       inkscape:connector-curvature="0"
       style="fill:#803300" /><path
       id="path6"
       d="m 54.43,63.012 c -0.303,0 -0.562,-0.232 -0.589,-0.54 -0.18,-2.021 -1.642,-2.44 -1.704,-2.458 -0.313,-0.084 -0.501,-0.407 -0.42,-0.721 0.083,-0.314 0.396,-0.505 0.714,-0.425 0.095,0.023 2.332,0.618 2.59,3.499 0.028,0.325 -0.212,0.613 -0.537,0.641 -0.018,0.003 -0.037,0.004 -0.054,0.004 z"
       inkscape:connector-curvature="0"
       style="fill:#803300" /><path
       id="path8"
       d="m 59.928,95 c -0.327,0 -0.592,-0.265 -0.592,-0.592 V 52.16 c 0,-0.327 0.265,-0.592 0.592,-0.592 0.327,0 0.592,0.265 0.592,0.592 V 94.409 C 60.52,94.735 60.255,95 59.928,95 Z"
       inkscape:connector-curvature="0"
       style="fill:#803300" /><path
       id="path10"
       d="m 41.724,95 c -0.327,0 -0.592,-0.265 -0.592,-0.592 V 83.336 c 0,-0.327 0.265,-0.592 0.592,-0.592 0.326,0 0.592,0.265 0.592,0.592 V 94.408 C 42.315,94.735 42.05,95 41.724,95 Z"
       inkscape:connector-curvature="0"
       style="fill:#803300" /><path
       id="path12"
       d="m 44.695,86.332 h -2.972 c -0.327,0 -0.592,-0.265 -0.592,-0.592 0,-0.326 0.265,-0.591 0.592,-0.591 h 2.972 c 0.327,0 0.592,0.265 0.592,0.591 0,0.327 -0.265,0.592 -0.592,0.592 z"
       inkscape:connector-curvature="0"
       style="fill:#803300" /><path
       id="path14"
       d="m 57.707,82.859 c -0.22,0 -0.432,-0.124 -0.533,-0.336 -0.141,-0.295 -0.016,-0.648 0.278,-0.789 4.034,-1.928 4.243,-3.05 4.212,-3.348 -0.067,-0.625 -1.313,-1.127 -1.873,-1.26 -0.318,-0.075 -0.514,-0.394 -0.438,-0.712 0.075,-0.316 0.391,-0.518 0.712,-0.438 0.266,0.063 2.603,0.664 2.775,2.285 0.153,1.434 -1.397,2.877 -4.877,4.54 -0.083,0.04 -0.17,0.058 -0.256,0.058 z"
       inkscape:connector-curvature="0"
       style="fill:#803300" /><path
       id="path16"
       d="m 57.707,87.278 c -0.22,0 -0.432,-0.125 -0.533,-0.336 -0.141,-0.295 -0.016,-0.648 0.278,-0.789 4.034,-1.929 4.243,-3.05 4.212,-3.348 -0.067,-0.625 -1.313,-1.127 -1.873,-1.26 -0.318,-0.075 -0.514,-0.394 -0.438,-0.712 0.075,-0.317 0.391,-0.517 0.712,-0.438 0.266,0.063 2.603,0.664 2.775,2.285 0.153,1.434 -1.397,2.876 -4.877,4.54 -0.083,0.039 -0.17,0.058 -0.256,0.058 z"
       inkscape:connector-curvature="0"
       style="fill:#803300" /><path
       id="path18"
       d="m 57.707,91.917 c -0.22,0 -0.432,-0.125 -0.533,-0.337 -0.141,-0.294 -0.016,-0.647 0.278,-0.789 4.034,-1.928 4.243,-3.049 4.212,-3.347 -0.067,-0.625 -1.313,-1.127 -1.873,-1.26 -0.318,-0.075 -0.514,-0.395 -0.438,-0.712 0.075,-0.317 0.391,-0.517 0.712,-0.438 0.266,0.063 2.603,0.664 2.775,2.285 0.153,1.434 -1.397,2.876 -4.877,4.54 -0.083,0.039 -0.17,0.058 -0.256,0.058 z"
       inkscape:connector-curvature="0"
       style="fill:#803300" /><path
       id="path20"
       d="m 42.698,78.252 c -0.246,0 -0.475,-0.154 -0.559,-0.398 -3.418,-9.858 2.855,-14.987 4.706,-16.245 l -3.557,-6.921 c -0.804,-1.58 -0.173,-3.517 1.403,-4.319 1.581,-0.802 3.515,-0.172 4.318,1.405 l 3.802,7.4 c 0.149,0.291 0.034,0.647 -0.257,0.796 -0.286,0.148 -0.646,0.035 -0.796,-0.256 l -3.803,-7.402 c -0.509,-0.998 -1.73,-1.395 -2.729,-0.889 -0.995,0.507 -1.394,1.73 -0.887,2.727 l 3.803,7.399 c 0.147,0.285 0.038,0.636 -0.243,0.79 -0.34,0.185 -8.271,4.664 -4.645,15.128 0.107,0.309 -0.056,0.646 -0.365,0.752 -0.062,0.023 -0.126,0.033 -0.191,0.033 z"
       inkscape:connector-curvature="0"
       style="fill:#803300" /><path
       id="path22"
       d="m 46.414,54.224 c -0.21,0 -0.409,-0.114 -0.514,-0.309 -1.309,-2.468 0.103,-3.576 0.162,-3.623 0.258,-0.193 0.62,-0.144 0.815,0.112 0.19,0.252 0.145,0.609 -0.101,0.805 -0.041,0.036 -0.536,0.511 -0.064,1.699 l 1.425,-0.536 c 0.297,-0.115 0.635,0.039 0.748,0.339 0.113,0.3 -0.039,0.635 -0.34,0.749 l -1.928,0.726 c -0.065,0.026 -0.134,0.038 -0.203,0.038 z"
       inkscape:connector-curvature="0"
       style="fill:#803300" /><path
       id="path24"
       d="m 65.304,32.224 c -0.054,0 -0.109,-0.008 -0.163,-0.023 -0.314,-0.09 -0.495,-0.417 -0.405,-0.731 0.178,-0.619 0.104,-1.27 -0.209,-1.833 -0.312,-0.563 -0.824,-0.971 -1.443,-1.149 -0.621,-0.176 -1.269,-0.104 -1.833,0.208 -0.563,0.312 -0.971,0.824 -1.148,1.443 -0.09,0.314 -0.422,0.496 -0.731,0.406 -0.314,-0.09 -0.495,-0.418 -0.405,-0.731 0.265,-0.923 0.873,-1.688 1.713,-2.152 0.84,-0.465 1.813,-0.575 2.731,-0.31 0.923,0.265 1.688,0.873 2.152,1.712 0.465,0.839 0.575,1.81 0.311,2.732 -0.076,0.259 -0.313,0.428 -0.57,0.428 z"
       inkscape:connector-curvature="0"
       style="fill:#803300" /><path
       id="path26"
       d="m 52.716,49.947 c -1.224,0 -2.152,-0.892 -2.37,-2.276 -0.051,-0.323 0.171,-0.625 0.492,-0.676 0.333,-0.048 0.627,0.17 0.677,0.493 0.048,0.3 0.273,1.275 1.201,1.275 0.003,0 0.007,0 0.01,0 0.218,-10e-4 0.877,-0.005 1.272,-1.35 0.091,-0.313 0.422,-0.494 0.733,-0.401 0.312,0.092 0.493,0.42 0.4,0.734 -0.529,1.811 -1.597,2.196 -2.399,2.201 -0.004,0 -0.01,0 -0.016,0 z"
       inkscape:connector-curvature="0"
       style="fill:#803300" /><path
       id="path28"
       d="m 42.023,30.737 c -0.285,0 -0.536,-0.208 -0.583,-0.499 -0.15,-0.948 0.077,-1.898 0.642,-2.675 0.563,-0.777 1.397,-1.287 2.346,-1.438 0.947,-0.149 1.897,0.078 2.673,0.642 0.777,0.564 1.287,1.397 1.438,2.345 0.051,0.323 -0.169,0.625 -0.492,0.677 -0.312,0.052 -0.624,-0.169 -0.676,-0.492 -0.101,-0.636 -0.443,-1.195 -0.965,-1.573 -0.52,-0.378 -1.158,-0.53 -1.793,-0.43 -0.637,0.101 -1.195,0.443 -1.573,0.964 -0.378,0.521 -0.531,1.158 -0.43,1.793 0.051,0.323 -0.169,0.626 -0.491,0.677 -0.033,0.007 -0.064,0.009 -0.096,0.009 z"
       inkscape:connector-curvature="0"
       style="fill:#803300" /><path
       id="path30"
       d="m 45.302,51.202 c -0.285,0 -0.537,-0.208 -0.583,-0.498 L 41.44,30.239 c -0.052,-0.323 0.169,-0.626 0.491,-0.678 0.318,-0.044 0.626,0.168 0.678,0.491 l 3.277,20.464 c 0.052,0.323 -0.168,0.626 -0.491,0.678 -0.031,0.005 -0.062,0.008 -0.093,0.008 z"
       inkscape:connector-curvature="0"
       style="fill:#803300" /><path
       id="path32"
       d="m 54.565,48.171 c -0.054,0 -0.107,-0.007 -0.161,-0.022 -0.314,-0.089 -0.498,-0.416 -0.409,-0.73 l 4.969,-17.604 c 0.089,-0.313 0.415,-0.497 0.73,-0.409 0.314,0.089 0.497,0.416 0.408,0.73 L 55.134,47.74 c -0.073,0.261 -0.311,0.431 -0.569,0.431 z"
       inkscape:connector-curvature="0"
       style="fill:#803300" /><path
       id="path34"
       d="m 59.928,52.751 c -0.05,0 -0.101,-0.006 -0.15,-0.02 -0.316,-0.084 -0.505,-0.407 -0.421,-0.723 l 5.312,-20.142 c 0.083,-0.315 0.407,-0.505 0.722,-0.421 0.316,0.084 0.505,0.407 0.421,0.723 L 60.5,52.31 c -0.07,0.266 -0.31,0.441 -0.572,0.441 z"
       inkscape:connector-curvature="0"
       style="fill:#803300" /><path
       id="path36"
       d="m 50.93,48.171 c -0.285,0 -0.536,-0.206 -0.584,-0.497 L 47.37,29.301 c -0.052,-0.323 0.167,-0.627 0.49,-0.679 0.318,-0.054 0.625,0.167 0.678,0.489 l 2.977,18.374 c 0.052,0.323 -0.167,0.626 -0.49,0.678 -0.032,0.006 -0.064,0.008 -0.095,0.008 z"
       inkscape:connector-curvature="0"
       style="fill:#803300" /><path
       id="path38"
       d="m 61.051,36.745 c -0.048,0 -0.096,-0.006 -0.144,-0.018 L 57.87,35.963 c -0.317,-0.08 -0.509,-0.401 -0.43,-0.718 0.081,-0.316 0.409,-0.508 0.718,-0.429 l 3.037,0.764 c 0.317,0.08 0.509,0.401 0.43,0.718 -0.068,0.267 -0.31,0.447 -0.574,0.447 z"
       inkscape:connector-curvature="0"
       style="fill:#803300" /><path
       id="path40"
       d="m 59.889,38.342 c -0.048,0 -0.095,-0.006 -0.144,-0.018 l -2.398,-0.603 c -0.317,-0.079 -0.51,-0.401 -0.43,-0.717 0.079,-0.317 0.396,-0.512 0.718,-0.43 l 2.398,0.603 c 0.317,0.08 0.509,0.401 0.43,0.718 -0.068,0.268 -0.309,0.447 -0.574,0.447 z"
       inkscape:connector-curvature="0"
       style="fill:#803300" /><path
       id="path42"
       d="m 57.753,43.718 c -0.048,0 -0.097,-0.006 -0.144,-0.018 l -1.52,-0.382 c -0.317,-0.08 -0.509,-0.401 -0.43,-0.718 0.081,-0.316 0.405,-0.508 0.718,-0.429 l 1.519,0.382 c 0.318,0.08 0.51,0.401 0.43,0.718 -0.067,0.268 -0.307,0.447 -0.573,0.447 z"
       inkscape:connector-curvature="0"
       style="fill:#803300" /><path
       id="path44"
       d="m 59.13,46.073 c -0.054,0 -0.107,-0.007 -0.163,-0.023 l -3.42,-0.979 c -0.314,-0.09 -0.495,-0.417 -0.405,-0.732 0.089,-0.313 0.414,-0.496 0.731,-0.406 l 3.42,0.979 c 0.314,0.09 0.495,0.417 0.405,0.732 -0.074,0.26 -0.311,0.429 -0.568,0.429 z"
       inkscape:connector-curvature="0"
       style="fill:#803300" /><path
       id="path46"
       d="m 42.831,34.569 c -0.277,0 -0.524,-0.196 -0.58,-0.479 -0.061,-0.321 0.148,-0.631 0.47,-0.693 l 2.222,-0.431 c 0.317,-0.059 0.63,0.146 0.692,0.468 0.062,0.321 -0.147,0.631 -0.469,0.693 l -2.222,0.431 c -0.038,0.008 -0.075,0.011 -0.113,0.011 z"
       inkscape:connector-curvature="0"
       style="fill:#803300" /><path
       id="path48"
       d="m 43.102,36.384 c -0.273,0 -0.518,-0.19 -0.578,-0.468 -0.067,-0.319 0.136,-0.633 0.455,-0.702 l 3.903,-0.833 c 0.324,-0.065 0.634,0.136 0.703,0.455 0.067,0.319 -0.136,0.634 -0.455,0.702 l -3.903,0.833 c -0.043,0.009 -0.084,0.013 -0.125,0.013 z"
       inkscape:connector-curvature="0"
       style="fill:#803300" /><path
       id="path50"
       d="m 44.338,41.986 c -0.277,0 -0.525,-0.196 -0.58,-0.479 -0.062,-0.321 0.147,-0.631 0.469,-0.693 l 1.535,-0.298 c 0.309,-0.061 0.631,0.146 0.693,0.468 0.062,0.321 -0.147,0.631 -0.469,0.693 l -1.535,0.298 c -0.037,0.007 -0.075,0.011 -0.113,0.011 z"
       inkscape:connector-curvature="0"
       style="fill:#803300" /><path
       id="path52"
       d="m 44.607,43.8 c -0.284,0 -0.536,-0.208 -0.583,-0.498 -0.052,-0.323 0.168,-0.626 0.491,-0.678 l 1.059,-0.169 c 0.315,-0.046 0.625,0.168 0.677,0.491 0.052,0.323 -0.168,0.626 -0.491,0.678 l -1.058,0.169 C 44.67,43.797 44.64,43.8 44.607,43.8 Z"
       inkscape:connector-curvature="0"
       style="fill:#803300" /><path
       id="path54"
       d="m 38.495,60.675 c -1.52,0 -2.842,-1.082 -3.145,-2.573 l -1.26,-5.549 c -0.354,-1.748 0.771,-3.446 2.506,-3.797 1.758,-0.358 3.44,0.809 3.785,2.507 l 1.26,5.55 c 0.354,1.749 -0.771,3.446 -2.505,3.797 -0.214,0.044 -0.429,0.065 -0.641,0.065 z m -1.258,-10.8 c -0.133,0 -0.27,0.013 -0.406,0.041 -1.096,0.222 -1.806,1.294 -1.583,2.39 l 1.26,5.549 c 0.221,1.087 1.277,1.82 2.394,1.597 1.096,-0.222 1.806,-1.294 1.584,-2.39 l -1.26,-5.549 c -0.194,-0.955 -1.03,-1.638 -1.989,-1.638 z"
       inkscape:connector-curvature="0"
       style="fill:#803300" /><path
       id="path56"
       d="m 44.007,60.778 c -1.543,0 -2.908,-1.119 -3.166,-2.689 l -1.697,-8.96 c -0.142,-0.86 0.058,-1.71 0.557,-2.407 0.5,-0.697 1.242,-1.157 2.088,-1.296 0.851,-0.142 1.695,0.06 2.392,0.559 0.697,0.5 1.158,1.241 1.297,2.087 l 0.466,2.457 c 0.062,0.321 -0.15,0.63 -0.472,0.691 -0.318,0.055 -0.629,-0.15 -0.69,-0.471 l -0.468,-2.47 c -0.092,-0.548 -0.382,-1.016 -0.821,-1.332 -0.44,-0.315 -0.979,-0.44 -1.511,-0.353 -0.534,0.088 -1.003,0.379 -1.318,0.819 -0.315,0.44 -0.441,0.977 -0.354,1.511 l 1.696,8.96 c 0.184,1.117 1.236,1.862 2.333,1.685 0.271,-0.045 0.525,-0.141 0.754,-0.286 0.278,-0.176 0.643,-0.091 0.816,0.183 0.175,0.276 0.093,0.642 -0.183,0.816 -0.363,0.23 -0.766,0.383 -1.195,0.455 -0.177,0.027 -0.351,0.041 -0.524,0.041 z"
       inkscape:connector-curvature="0"
       style="fill:#803300" /><path
       id="path58"
       d="m 44.433,60.743 c -0.283,0 -0.534,-0.206 -0.582,-0.496 -0.054,-0.322 0.165,-0.626 0.487,-0.68 0.558,-0.091 1.039,-0.401 1.354,-0.872 0.182,-0.271 0.549,-0.345 0.82,-0.162 0.271,0.181 0.344,0.549 0.162,0.82 -0.492,0.734 -1.273,1.237 -2.145,1.38 -0.032,0.008 -0.064,0.01 -0.096,0.01 z"
       inkscape:connector-curvature="0"
       style="fill:#803300" /><path
       id="path60"
       d="m 38.558,59.097 v 0 c -1.019,0 -1.764,-0.66 -1.994,-1.764 -0.065,-0.31 0.13,-0.615 0.439,-0.685 l 2.58,-0.591 c 0.299,-0.067 0.591,0.102 0.682,0.388 0.211,0.652 0.183,1.227 -0.086,1.708 -0.381,0.683 -1.09,0.875 -1.169,0.895 -0.032,0.008 -0.208,0.049 -0.452,0.049 z m -0.643,-1.466 c 0.149,0.205 0.36,0.304 0.643,0.304 v 0 c 0.103,0 0.174,-0.015 0.179,-0.016 v 0 c -0.002,0 0.297,-0.088 0.431,-0.337 0.039,-0.074 0.063,-0.158 0.071,-0.254 z"
       inkscape:connector-curvature="0"
       style="fill:#803300" /><path
       id="path62"
       d="m 44.144,59.242 c -0.292,0 -0.685,-0.057 -1.061,-0.294 -0.479,-0.3 -0.792,-0.794 -0.934,-1.47 -0.065,-0.31 0.131,-0.615 0.439,-0.685 l 2.334,-0.534 c 0.317,-0.072 0.624,0.125 0.695,0.437 0.021,0.094 0.02,0.187 -0.003,0.274 0.231,0.09 0.389,0.324 0.368,0.585 -0.078,1.043 -0.908,1.521 -1.387,1.639 -0.035,0.008 -0.209,0.048 -0.451,0.048 z m -0.641,-1.467 c 0.058,0.079 0.123,0.142 0.197,0.188 0.273,0.173 0.612,0.102 0.617,0.101 0.072,-0.02 0.471,-0.153 0.507,-0.591 z"
       inkscape:connector-curvature="0"
       style="fill:#803300" /></g></svg>