<?xml version="1.0" encoding="UTF-8" standalone="no"?>
<svg
   xmlns:dc="http://purl.org/dc/elements/1.1/"
   xmlns:cc="http://creativecommons.org/ns#"
   xmlns:rdf="http://www.w3.org/1999/02/22-rdf-syntax-ns#"
   xmlns:svg="http://www.w3.org/2000/svg"
   xmlns="http://www.w3.org/2000/svg"
   xmlns:sodipodi="http://sodipodi.sourceforge.net/DTD/sodipodi-0.dtd"
   xmlns:inkscape="http://www.inkscape.org/namespaces/inkscape"
   data-name="Layer 1"
   viewBox="0 0 5 5"
   x="0px"
   y="0px"
   version="1.1"
   id="svg4024"
   sodipodi:docname="manny_paper.svg"
   inkscape:version="0.92.2 5c3e80d, 2017-08-06">
  <metadata
     id="metadata4030">
    <rdf:RDF>
      <cc:Work
         rdf:about="">
        <dc:format>image/svg+xml</dc:format>
        <dc:type
           rdf:resource="http://purl.org/dc/dcmitype/StillImage" />
      </cc:Work>
    </rdf:RDF>
  </metadata>
  <defs
     id="defs4028" />
  <sodipodi:namedview
     pagecolor="#ffffff"
     bordercolor="#666666"
     borderopacity="1"
     objecttolerance="10"
     gridtolerance="10"
     guidetolerance="10"
     inkscape:pageopacity="0"
     inkscape:pageshadow="2"
     inkscape:window-width="1099"
     inkscape:window-height="689"
     id="namedview4026"
     showgrid="false"
     inkscape:zoom="66.75088"
     inkscape:cx="3.2059594"
     inkscape:cy="2.62721"
     inkscape:window-x="0"
     inkscape:window-y="0"
     inkscape:window-maximized="0"
     inkscape:current-layer="svg4024" />
  <title
     id="title3966">hand_nail_Beauty_Cosmetics_Fingernail_Manicure</title>
  <path
     d="m 2.3350019,1.39427 a 3.61409,3.61409 0 0 1 0.86051,-0.05787 0.699,0.699 0 0 1 0.58846,0.21907 5.00423,5.00423 0 0 1 0.42085,0.69722 6.35707,6.35707 0 0 0 0.41843,0.77131 0.01508,0.01508 0 0 1 -0.02406,0.01815 11.61974,11.61974 0 0 1 -0.78628,-1.28823 0.64955,0.64955 0 0 0 -0.26431,-0.279 0.90265,0.90265 0 0 0 -0.34143,-0.05165 c -0.28932,-0.0073 -0.578,0.0156 -0.867,0.01433 a 0.02185,0.02185 0 0 1 -0.00517,-0.04333 z"
     id="path3968"
     style="fill:#ff00ff"
     inkscape:connector-curvature="0" />
  <path
     d="m 1.1430219,3.07784 c 0.16733,-0.21712 0.2637,-0.476 0.42993,-0.69317 a 3.89958,3.89958 0 0 1 0.55563,-0.54547 c 0.01757,-0.01538 0.03722,0.01279 0.02141,0.02838 a 4.94387,4.94387 0 0 0 -0.55028,0.61833 3.67279,3.67279 0 0 1 -0.42839,0.6205 c -0.01707,0.01582 -0.04193,-0.01089 -0.0283,-0.02857 z"
     id="path3970"
     style="fill:#ff00ff"
     inkscape:connector-curvature="0" />
  <path
     d="m 0.65011193,2.85367 a 6.11923,6.11923 0 0 0 0.56304997,-0.598 3.28649,3.28649 0 0 1 0.5751,-0.513 c 0.01974,-0.01423 0.0385,0.01324 0.02211,0.02931 a 8.37223,8.37223 0 0 0 -0.59808,0.59816 2.44759,2.44759 0 0 1 -0.52842997,0.52834 0.02804906,0.02804906 0 0 1 -0.03375,-0.04481 z"
     id="path3972"
     style="fill:#ff00ff"
     inkscape:connector-curvature="0" />
  <path
     d="m 1.9475619,2.39431 a 1.07768,1.07768 0 0 1 0.592,-0.17749 1.14056,1.14056 0 0 0 0.70805,-0.25 c 0.017,-0.01678 0.04535,0.00278 0.03034,0.02333 a 0.77594,0.77594 0 0 1 -0.52052,0.28277 c -0.12884,0.02285 -0.2598,0.03025 -0.389,0.05088 a 1.82406,1.82406 0 0 0 -0.39166,0.1226 0.03029,0.03029 0 0 1 -0.02921,-0.05209 z"
     id="path3974"
     style="fill:#ff00ff"
     inkscape:connector-curvature="0" />
  <path
     d="m 2.1415219,2.61022 c 0.28705,-0.03839 0.57848,-0.05289 0.86721,-0.074 a 0.92221,0.92221 0 0 0 0.40976,-0.09627 c 0.12693,-0.07127 0.24624,-0.15792 0.36668,-0.23943 a 0.01856,0.01856 0 0 1 0.02234,0.02962 1.7913,1.7913 0 0 1 -0.37816,0.28525 1.61527,1.61527 0 0 1 0.1891,0.3391 c 0.06743,0.13144 0.1335,0.2637 0.19624,0.39745 0.12563,0.26777 0.23473,0.54188 0.33311,0.82072 a 0.018,0.018 0 0 1 -0.03342,0.01324 c -0.12906,-0.26652 -0.26019,-0.53205 -0.39027,-0.79807 -0.06151,-0.12579 -0.12323,-0.25144 -0.18679,-0.37621 a 2.05061,2.05061 0 0 1 -0.17939,-0.36217 0.815,0.815 0 0 1 -0.249,0.063 c -0.3182,0.02777 -0.64053,0.05646 -0.96,0.06117 a 0.03191578,0.03191578 0 0 1 -0.00741,-0.0634 z"
     id="path3976"
     style="fill:#ff00ff"
     inkscape:connector-curvature="0" />
  <path
     d="m 1.5258019,1.27712 c 0.08582,-0.016 0.16956,-0.035 0.255,-0.05284 a 0.21686,0.21686 0 0 1 0.14,0.01037 0.02313,0.02313 0 0 1 0.01684,-0.00551 c 0.11507,0.00708 0.225,0.038 0.34214,0.03383 a 0.01334,0.01334 0 0 1 0.00312,0.02648 0.7,0.7 0 0 1 -0.28174,0.00782 l 0.02112,0.02418 c 0.0359,0.04291 0.06926,0.08284 0.10674,0.12078 l 10e-4,-0.0039 v -1.5e-4 l 9.3e-4,-0.0021 0.0016,-0.00247 a 0.01545,0.01545 0 0 1 0.011,-0.00586 0.08493,0.08493 0 0 0 0.06023,-0.02265 0.15459,0.15459 0 0 0 0.03076,-0.06859 0.01933,0.01933 0 0 1 0.03827,0.00536 0.2427,0.2427 0 0 1 -0.009,0.0558 0.12818,0.12818 0 0 1 -0.03145,0.04938 0.08847,0.08847 0 0 1 -0.07288,0.02459 c 0.01062,0.00976 0.0215,0.01945 0.03308,0.029 a 0.01572,0.01572 0 0 1 -0.01557,0.02685 c -0.10009,-0.04419 -0.15355,-0.14115 -0.24253,-0.19791 -0.11567,-0.07379 -0.28315,0.03741 -0.41532,-0.00579 -0.02489,-0.00818 -0.01521,-0.04259 0.00666,-0.04667 z"
     id="path3978"
     style="fill:#ff00ff"
     inkscape:connector-curvature="0" />
  <path
     d="m 1.3423319,1.3078 a 0.40378,0.40378 0 0 1 0.28279,0.09548 c 0.13127,0.07775 0.33616,0.25486 0.49081,0.16369 0.01517,-0.00894 0.03822,0.00856 0.024,0.02421 a 0.22282,0.22282 0 0 1 -0.2859,0.02267 1.806,1.806 0 0 0 -0.51223,-0.25661 0.025,0.025 0 0 1 5.3e-4,-0.04944 z"
     id="path3980"
     style="fill:#ff00ff"
     inkscape:connector-curvature="0" />
  <path
     d="m 0.67605193,1.55985 c 0.04532,0.00588 0.08991,0.01435 0.13446,0.02283 a 0.8232,0.8232 0 0 1 0.18319,-0.162 0.60815,0.60815 0 0 1 0.22769997,-0.11207 c 0.0176,-0.00346 0.02309,0.01981 0.012,0.02977 -0.06281,0.05618 -0.139,0.09811 -0.20615,0.14907 -0.04443,0.0337 -0.08429,0.07418 -0.12611997,0.11152 A 1.09481,1.09481 0 0 0 1.0124819,1.6122 c 0.10009,0.006 0.20256,0.00551 0.304,0.00235 a 0.67187,0.67187 0 0 0 -0.15073,-0.04418 0.02484,0.02484 0 0 1 5e-4,-0.04903 c 0.20107,-0.02867 0.37231,0.16312 0.56986,0.07068 a 0.0148,0.0148 0 0 1 0.01706,0.02261 c -0.09365,0.11094 -0.22222,0.08048 -0.34876,0.03376 a 1.21089,1.21089 0 0 1 -0.74137997,-0.04085 0.025,0.025 0 0 1 0.01302,-0.04769 z"
     id="path3982"
     style="fill:#ff00ff"
     inkscape:connector-curvature="0" />
  <path
     d="m 0.46230193,2.53726 a 0.60648,0.60648 0 0 0 0.51095,-0.1277 c 0.01319,-0.01128 0.03436,0.00943 0.02184,0.022 a 0.63362,0.63362 0 0 1 -0.28173,0.17914 0.27079,0.27079 0 0 1 -0.27455,-0.03347 0.02536,0.02536 0 0 1 0.02349,-0.03997 z"
     id="path3984"
     style="fill:#ff00ff"
     inkscape:connector-curvature="0" />
  <path
     d="m 0.65214193,2.9609 a 0.37265,0.37265 0 0 0 0.31567,-0.01772 1.11424,1.11424 0 0 0 0.23504997,-0.1456 c 0.0142,-0.01159 0.03638,0.00975 0.02319,0.0234 -0.11766,0.12163 -0.45372997,0.39321 -0.60432997,0.17912 a 0.02592,0.02592 0 0 1 0.03042,-0.0392 z"
     id="path3986"
     style="fill:#ff00ff"
     inkscape:connector-curvature="0" />
  <path
     d="m 1.1569519,3.20518 a 0.36281,0.36281 0 0 0 0.25492,-0.055 0.70125,0.70125 0 0 0 0.15828,-0.178 2.81852,2.81852 0 0 1 0.27787,-0.34375 c 0.016,-0.01669 0.04446,0.00382 0.02911,0.02238 a 2.564,2.564 0 0 0 -0.1948,0.2592 1.333,1.333 0 0 1 -0.17887,0.257 c -0.0904,0.0879 -0.24926,0.16639 -0.36574,0.08395 -0.02272,-0.01603 -0.00447,-0.04682 0.01923,-0.04578 z"
     id="path3988"
     style="fill:#ff00ff"
     inkscape:connector-curvature="0" />
  <path
     d="m 1.7663219,2.85451 a 0.7896,0.7896 0 0 0 0.48206,0.14257 0.56168,0.56168 0 0 1 0.43231,0.13576 1.99822,1.99822 0 0 1 0.27156,0.44956 c 0.10456,0.19325 0.20364,0.38806 0.295,0.58793 0.0081,0.01773 -0.01985,0.0341 -0.03039,0.01707 -0.11108,-0.17959 -0.21715,-0.36147 -0.3216,-0.545 a 1.66974,1.66974 0 0 0 -0.30674,-0.47025 c -0.14754,-0.12286 -0.359,-0.05907 -0.53508,-0.09095 A 0.42068,0.42068 0 0 1 1.7385719,2.882 c -0.01145,-0.01761 0.00987,-0.04277 0.02775,-0.02749 z"
     id="path3990"
     style="fill:#ff00ff"
     inkscape:connector-curvature="0" />
  <path
     d="m 1.1420719,3.31313 a 0.05993,0.05993 0 0 1 -0.069,-0.0591 0.25309,0.25309 0 0 1 0.06748,-0.17273 0.99428,0.99428 0 0 1 0.11988,-0.12708 l 0.00772,-0.00531 c 0.02344,-0.0239 0.05725,-0.00775 0.07162,0.0271 a 0.26015,0.26015 0 0 1 -0.04517,0.22223 0.23628,0.23628 0 0 1 -0.15253,0.11489 z"
     id="path3992"
     style="fill:#ff00ff"
     inkscape:connector-curvature="0" />
  <path
     d="m 0.59061193,3.09083 a 0.06126,0.06126 0 0 1 -0.05536,-0.07453 0.2587,0.2587 0 0 1 0.10635,-0.1569 1.01631,1.01631 0 0 1 0.14827,-0.09951 l 0.0089,-0.00354 c 0.02878,-0.01852 0.05882,0.00524 0.06525,0.04324 a 0.26591,0.26591 0 0 1 -0.09535,0.21128 0.24152,0.24152 0 0 1 -0.17806,0.07996 z"
     id="path3994"
     style="fill:#ff00ff"
     inkscape:connector-curvature="0" />
  <path
     d="m 0.67925193,1.98544 -0.029,-0.00888 a 0.51954,0.51954 0 0 1 0.16126,-0.012 0.96829,0.96829 0 0 1 0.23485997,0.06139 q -0.084,0.0569 -0.16768997,0.11434 a 0.3202,0.3202 0 0 0 -0.19943,-0.15485 z"
     id="path3996"
     style="fill:#ff00ff"
     inkscape:connector-curvature="0" />
  <path
     d="m 0.45571193,1.99292 a 0.205,0.205 0 0 1 0.04291,-0.01735 c -0.00339,0.01647 0.00748,0.03654 0.027,0.03166 0.04285,-0.0107 0.08367,-0.022 0.12464,-0.03067 l 0.02899,0.00888 a 0.3202,0.3202 0 0 1 0.19949,0.15487 c -0.03879,0.02664 -0.08349,0.05933 -0.12217,0.08643 l -0.00332,-3.4e-4 a 0.56533,0.56533 0 0 0 -0.17227,-0.08885 0.01682,0.01682 0 0 0 -0.013,0.031 0.69157,0.69157 0 0 1 0.07017,0.03962 l -0.01335,-0.00286 a 0.29642,0.29642 0 0 1 -0.18853,-0.10783 0.07019,0.07019 0 0 1 0.01944,-0.10456 z"
     id="path3998"
     style="fill:#ff00ff"
     inkscape:connector-curvature="0" />
  <polygon
     points="4.214,2.227 4.213,2.227 4.218,2.23 4.224,2.226 4.217,2.226 4.215,2.228 "
     id="polygon4000"
     style="fill:#ff00ff"
     transform="matrix(-1,0,0,1,4.9702519,0)" />
  <path
     d="m 0.45130193,2.448 c 0.08473,-0.06536 0.17138,-0.1283 0.25885,-0.19022 -0.02354,-0.01715 -0.04739,-0.0339 -0.07195,-0.04952 a 0.94025,0.94025 0 0 0 0.11865,0.01856 c 0.0382,-0.02684 0.084,-0.06046 0.12187,-0.08646 q 0.08365,-0.05743 0.16768997,-0.11434 a 0.96829,0.96829 0 0 0 -0.23485997,-0.06139 0.51954,0.51954 0 0 0 -0.16126,0.012 0.288,0.288 0 0 0 -0.15166,-0.001 0.02415,0.02415 0 0 1 0.00854,-0.01438 0.53524,0.53524 0 0 1 0.57899997,0.03788 q 0.07081,-0.04793 0.14149,-0.096 A 0.44532,0.44532 0 0 1 0.71066193,1.70051 c -0.01,-0.0215 0.02134,-0.03745 0.0354,-0.01988 a 0.5815,0.5815 0 0 0 0.57470997,0.1585 q 0.084,-0.05795 0.16709,-0.117 a 0.01585,0.01585 0 0 1 0.01908,0.0253 6.60986,6.60986 0 0 1 -1.02955997,0.747 c -0.02746,0.01422 -0.04938,-0.02851 -0.02608,-0.04643 z m 0.30559,-0.22118"
     id="path4002"
     style="fill:#ff00ff"
     inkscape:connector-curvature="0" />
  <path
     d="m 0.58098193,2.13755 a 0.54735,0.54735 0 0 1 0.16572,0.08817 0.90955,0.90955 0 0 1 -0.1085,-0.01752 0.69157,0.69157 0 0 0 -0.07017,-0.03962 0.01682,0.01682 0 0 1 0.01295,-0.03103 z"
     id="path4004"
     style="fill:#ff00ff"
     inkscape:connector-curvature="0" />
  <path
     d="m 0.75325193,2.2264 -0.00655,-6.7e-4 a 0.54735,0.54735 0 0 0 -0.16572,-0.08817 0.56533,0.56533 0 0 1 0.17227,0.08884 z"
     id="path4006"
     style="fill:#ff00ff"
     inkscape:connector-curvature="0" />
  <path
     d="m 0.87872193,2.14031 c -0.03787,0.026 -0.08367,0.05961 -0.12187,0.08646 h -2.9e-4 c 0.03869,-0.02713 0.08337,-0.05982 0.12216,-0.08646 z"
     id="path4008"
     style="fill:#ff00ff"
     inkscape:connector-curvature="0" />
  <path
     d="m 0.65025193,1.97656 c -0.041,0.00865 -0.08179,0.02 -0.12464,0.03067 -0.01955,0.00488 -0.03042,-0.01519 -0.027,-0.03166 a 0.288,0.288 0 0 1 0.15164,9.9e-4 z"
     id="path4010"
     style="fill:#ff00ff"
     inkscape:connector-curvature="0" />
  <path
     d="m 0.40235193,2.66579 a 0.06126,0.06126 0 0 1 -0.05682,-0.07342 0.2587,0.2587 0 0 1 0.10324,-0.159 1.01631,1.01631 0 0 1 0.14628,-0.10237 l 0.00883,-0.00372 c 0.02841,-0.01908 0.05891,0.00408 0.06609,0.04194 a 0.26591,0.26591 0 0 1 -0.09117,0.21312 0.24152,0.24152 0 0 1 -0.17645,0.08345 z"
     id="path4012"
     style="fill:#ff00ff"
     inkscape:connector-curvature="0" />
  <path
     d="m 0.63395193,1.61916 a 0.04345,0.04345 0 0 1 0.02852,-0.05936 0.1835,0.1835 0 0 1 0.13361,0.015 0.72089,0.72089 0 0 1 0.11141,0.06025 l 0.00516,0.00442 c 0.02112,0.012 0.01612,0.03866 -0.00561,0.05524 a 0.18862,0.18862 0 0 1 -0.16412,0.00986 0.17131,0.17131 0 0 1 -0.10897,-0.08541 z"
     id="path4014"
     style="fill:#ff00ff"
     inkscape:connector-curvature="0" />
  <path
     d="m 2.1889219,1.66733 a 0.06126,0.06126 0 0 0 0.04805,-0.07943 0.2587,0.2587 0 0 0 -0.12072,-0.14613 1.01631,1.01631 0 0 0 -0.157,-0.085 l -0.00919,-0.00268 c -0.0304,-0.01571 -0.05806,0.01079 -0.06086,0.04922 a 0.26591,0.26591 0 0 0 0.11494,0.2013 0.24152,0.24152 0 0 0 0.18478,0.06272 z"
     id="path4016"
     style="fill:#ff00ff"
     inkscape:connector-curvature="0" />
  <path
     d="m 1.7843719,1.70285 a 0.06126,0.06126 0 0 0 0.0395,-0.084 0.2587,0.2587 0 0 0 -0.13532,-0.13272 1.01631,1.01631 0 0 0 -0.165,-0.06817 l -0.00942,-0.00171 c -0.03187,-0.01245 -0.05662,0.01679 -0.05539,0.05531 a 0.26591,0.26591 0 0 0 0.13532,0.1882 0.24152,0.24152 0 0 0 0.19031,0.04309 z"
     id="path4018"
     style="fill:#ff00ff"
     inkscape:connector-curvature="0" />
  <path
     d="m 2.3461919,1.3608 a 0.04039,0.04039 0 0 0 0.0037,-0.06109 0.17055,0.17055 0 0 0 -0.11525,-0.04829 0.67,0.67 0 0 0 -0.11771,-0.0015 l -0.00619,0.00125 c -0.02256,1.5e-4 -0.03058,0.02409 -0.02044,0.04738 a 0.1753,0.1753 0 0 0 0.12878,0.08227 0.15922,0.15922 0 0 0 0.12711,-0.02002 z"
     id="path4020"
     style="fill:#ff00ff"
     inkscape:connector-curvature="0" />
  <path
     d="m 1.8960619,2.62562 a 0.14871,0.14871 0 0 1 -0.01673,-0.16362 0.287,0.287 0 0 1 0.20071,-0.08066 1.28114,1.28114 0 0 1 0.21284,-6.8e-4 l 0.01137,0.00224 c 0.04086,6.2e-4 0.05932,0.10082 0.04477,0.14046 -0.03215,0.08763 -0.14205,0.1227 -0.21962,0.1385 a 0.31663,0.31663 0 0 1 -0.23334,-0.03624 z"
     id="path4022"
     style="fill:#ff00ff"
     inkscape:connector-curvature="0" />
</svg>
