<?xml version="1.0" encoding="UTF-8" standalone="no"?>
<svg
   xmlns:dc="http://purl.org/dc/elements/1.1/"
   xmlns:cc="http://creativecommons.org/ns#"
   xmlns:rdf="http://www.w3.org/1999/02/22-rdf-syntax-ns#"
   xmlns:svg="http://www.w3.org/2000/svg"
   xmlns="http://www.w3.org/2000/svg"
   xmlns:sodipodi="http://sodipodi.sourceforge.net/DTD/sodipodi-0.dtd"
   xmlns:inkscape="http://www.inkscape.org/namespaces/inkscape"
   data-name="Layer 1"
   viewBox="0 0 5 5"
   x="0px"
   y="0px"
   version="1.1"
   id="svg4542"
   sodipodi:docname="manny_waiting.svg"
   inkscape:version="0.92.2 5c3e80d, 2017-08-06">
  <metadata
     id="metadata4548">
    <rdf:RDF>
      <cc:Work
         rdf:about="">
        <dc:format>image/svg+xml</dc:format>
        <dc:type
           rdf:resource="http://purl.org/dc/dcmitype/StillImage" />
      </cc:Work>
    </rdf:RDF>
  </metadata>
  <defs
     id="defs4546" />
  <sodipodi:namedview
     pagecolor="#ffffff"
     bordercolor="#666666"
     borderopacity="1"
     objecttolerance="10"
     gridtolerance="10"
     guidetolerance="10"
     inkscape:pageopacity="0"
     inkscape:pageshadow="2"
     inkscape:window-width="1122"
     inkscape:window-height="663"
     id="namedview4544"
     showgrid="false"
     inkscape:zoom="47.2"
     inkscape:cx="-2.7330508"
     inkscape:cy="2.5"
     inkscape:window-x="0"
     inkscape:window-y="0"
     inkscape:window-maximized="0"
     inkscape:current-layer="svg4542" />
  <title
     id="title4488">hand_nail_Beauty_Cosmetics_Fingernail_Manicure</title>
  <path
     d="m 2.9867067,1.81534 a 2.99471,2.99471 0 0 0 0.3058,0.19952 3.24884,3.24884 0 0 0 0.31443,0.12755 c 0.25788,0.09457 0.5093,0.19749 0.76277,0.302 0.0227,0.00936 0.00819,0.04185 -0.01446,0.03463 -0.282,-0.08993 -0.56154,-0.17942 -0.83951,-0.28273 a 1.13333,1.13333 0 0 1 -0.56954,-0.34085 0.02891,0.02891 0 0 1 0.04051,-0.04012 z"
     id="path4490"
     style="fill:#ff00ff"
     inkscape:connector-curvature="0" />
  <path
     d="m 2.8729367,1.95 c 0.007,-0.0211 0.036,-0.00979 0.0351,0.00961 -0.00866,0.18364 0.17464,0.29977 0.30725,0.39154 a 1.26071,1.26071 0 0 0 0.45,0.19547 c 0.03183,0.00735 0.03749,0.06131 -6.7e-4,0.062 a 0.92891,0.92891 0 0 1 -0.574,-0.24432 C 2.9588767,2.26006 2.8123567,2.13314 2.8729367,1.95 Z"
     id="path4492"
     style="fill:#ff00ff"
     inkscape:connector-curvature="0" />
  <path
     d="m 1.5221767,2.63122 a 2.93461,2.93461 0 0 1 0.619,0.00321 c 0.23318,0.00834 0.46662,0.00748 0.69989,0.00436 a 10.86448,10.86448 0 0 1 1.29729,0.04194 c 0.02326,0.00245 0.01775,0.03671 -0.005,0.03551 -0.45089,-0.02382 -0.90954,0.00666 -1.361,0.01125 -0.41915,0.00427 -0.83281,-0.04473 -1.25066,-0.05037 -0.0275,-3.8e-4 -0.02394,-0.04153 4.8e-4,-0.0459 z"
     id="path4494"
     style="fill:#ff00ff"
     inkscape:connector-curvature="0" />
  <path
     d="m 1.5538467,2.79563 a 3.42234,3.42234 0 0 1 0.43887,0.13486 c 0.16472,0.05021 0.32947,0.10053 0.49629,0.14341 a 7.02055,7.02055 0 0 0 0.97957,0.16919 c 0.02457,0.00271 0.01833,0.03776 -0.0052,0.03716 a 4.32916,4.32916 0 0 1 -1.01016,-0.13019 c -0.13595,-0.03572 -0.27034,-0.07648 -0.40359,-0.12118 a 1.27748,1.27748 0 0 1 0.10539,0.09308 c 0.08861,0.08635 0.15889,0.22783 0.27582,0.27618 a 2.97716,2.97716 0 0 0 0.42686,0.10028 c 0.14916,0.03625 0.29631,0.08023 0.44619,0.11366 0.02286,0.0051 0.01815,0.0412 -0.00509,0.03633 -0.15778,-0.03307 -0.31763,-0.0545 -0.47583,-0.08525 -0.06916,-0.01344 -0.14268,-0.024 -0.21535,-0.03764 0.06388,0.05315 0.12479,0.11174 0.19276,0.15764 a 1.54649,1.54649 0 0 0 0.4992,0.2025 10.372,10.372 0 0 1 1.00437,0.27634 0.019,0.019 0 0 1 -0.00994,0.03629 10.0719,10.0719 0 0 1 -1.11805,-0.26058 1.34271,1.34271 0 0 1 -0.39,-0.16236 1.21527,1.21527 0 0 1 -0.34131,-0.28956 c -0.01489,-0.0048 -0.02966,-0.00981 -0.044,-0.01541 a 0.57885,0.57885 0 0 1 -0.21756,-0.20359 c -0.09194,-0.11 -0.20733,-0.1893 -0.30583,-0.29043 l -0.00243,-0.00367 a 1.79609,1.79609 0 0 1 -0.33316,-0.13238 c -0.02158,-0.01209 -0.01608,-0.04923 0.01218,-0.04468 z"
     id="path4496"
     style="fill:#ff00ff"
     inkscape:connector-curvature="0" />
  <path
     d="m 1.7642067,1.3972 a 1.41378,1.41378 0 0 1 0.10739,-0.65458 0.01982,0.01982 0 0 1 0.03655,0.01526 1.33317,1.33317 0 0 0 -0.0407,0.2287 1.85226,1.85226 0 0 0 0.29708,0.1429 c 0.01493,0.0057 0.00855,0.03149 -0.00754,0.02752 a 1.41021,1.41021 0 0 1 -0.29427,-0.11031 c -0.0029,0.04612 -0.0044,0.09245 -0.00492,0.13929 a 1.65906,1.65906 0 0 0 0.32377,0.07013 1.1092,1.1092 0 0 1 0.24991,0.04252 0.73883,0.73883 0 0 1 0.40756,0.32363 0.01585,0.01585 0 0 1 -0.02529,0.01908 0.81119,0.81119 0 0 0 -0.56173,-0.29266 0.85012,0.85012 0 0 1 -0.3945,-0.07584 v 0.02 c 2.6e-4,0.04226 6e-5,0.08452 10e-5,0.12678 a 0.25989,0.25989 0 0 0 0.15979,0.20939 1.67027,1.67027 0 0 0 0.34523,0.12063 c 0.02012,0.00465 0.01627,0.03624 -0.00451,0.03221 a 1.15886,1.15886 0 0 1 -0.46,-0.13972 0.29764,0.29764 0 0 1 -0.042,-0.038 c -0.00451,0.045 -0.00569,0.05554 -0.00711,0.0528 a 0.0351,0.0351 0 0 1 -0.01833,0.02413 C 1.7200867,1.733 1.7632367,1.42769 1.7642067,1.3972 Z"
     id="path4498"
     style="fill:#ff00ff"
     inkscape:connector-curvature="0" />
  <path
     d="m 1.4510867,0.7195 a 0.432,0.432 0 0 1 0.16583,-0.00919 c 0.06761,0.00135 0.13436,0.00888 0.20176,0.01162 0.02241,9.1e-4 0.02032,0.03491 -4.2e-4,0.03807 a 1.80314,1.80314 0 0 1 -0.20217,0.02524 0.37265,0.37265 0 0 1 -0.1655,-0.01206 0.02931,0.02931 0 0 1 5e-4,-0.05368 z"
     id="path4500"
     style="fill:#ff00ff"
     inkscape:connector-curvature="0" />
  <path
     d="m 1.2383367,1.28679 a 0.39081,0.39081 0 0 1 0.148,0.09346 l 0.02011,0.018 c 0,-0.06631 0.00176,-0.13259 -0.00261,-0.19446 -0.01037,-0.14708 -0.03569,-0.2947 -0.03341,-0.44222 2.6e-4,-0.01932 0.02922,-0.02017 0.03559,-0.00422 a 1.64887,1.64887 0 0 1 0.08907,0.46165 1.09178,1.09178 0 0 1 -0.00379,0.42976 0.03135,0.03135 0 0 1 -0.05755,-5.2e-4 0.63752,0.63752 0 0 1 -0.02494,-0.15355 c -0.02061,-0.02133 -0.03959,-0.04517 -0.06129,-0.064 -0.04058,-0.03522 -0.09021,-0.05918 -0.12991,-0.09448 -0.01835,-0.01628 -0.00852,-0.05731 0.02073,-0.04942 z"
     id="path4502"
     style="fill:#ff00ff"
     inkscape:connector-curvature="0" />
  <path
     d="m 1.7975667,2.54788 c 0.099,-0.20384 0.33266,-0.6084 0.13459,-0.808 a 0.019,0.019 0 0 1 0.02313,-0.03008 c 0.27987,0.18962 0.02323,0.6483 -0.08692,0.86761 -0.02204,0.04389 -0.09246,0.01507 -0.0708,-0.02953 z"
     id="path4504"
     style="fill:#ff00ff"
     inkscape:connector-curvature="0" />
  <path
     d="m 1.3836167,1.68564 c 0.02054,-0.00358 0.02644,0.02256 0.0138,0.03436 -0.26662,0.24873 0.03252,0.57471 0.07984,0.84817 a 0.02941,0.02941 0 0 1 -0.05229,0.021 c -0.12236,-0.16094 -0.41807,-0.83784 -0.04135,-0.90353 z"
     id="path4506"
     style="fill:#ff00ff"
     inkscape:connector-curvature="0" />
  <path
     d="m 1.5783767,2.38532 c 0.05036,-0.00325 0.10585,0.00575 0.147,-0.03188 a 0.47048,0.47048 0 0 0 0.07793,-0.15427 0.44671,0.44671 0 0 0 0.03615,-0.38962 c -0.0098,-0.01972 0.02116,-0.03105 0.0314,-0.01244 a 0.51516,0.51516 0 0 1 -0.03813,0.46176 c -0.0543,0.13169 -0.09369,0.23368 -0.25535,0.21453 a 0.04459,0.04459 0 0 1 10e-4,-0.08808 z"
     id="path4508"
     style="fill:#ff00ff"
     inkscape:connector-curvature="0" />
  <path
     d="M 0.88125671,0.61007 C 0.90353671,0.53566 1.0243167,0.4952 1.0960867,0.50213 a 0.78208,0.78208 0 0 1 0.2957,0.16545 0.01675,0.01675 0 0 1 -0.0166,0.02861 c -0.07416,-0.03632 -0.147,-0.08029 -0.22249,-0.11324 -0.09822,-0.04288 -0.15938999,0.01743 -0.24154999,0.05755 -0.01975,0.00965 -0.03506,-0.01325 -0.02989,-0.03043 z"
     id="path4510"
     style="fill:#ff00ff"
     inkscape:connector-curvature="0" />
  <path
     d="m 0.93151671,0.71969 a 1.03937,1.03937 0 0 0 0.16429999,0.27362 1.12043,1.12043 0 0 1 0.1343,0.23092 c 0.00851,0.02489 -0.02316,0.05648 -0.04557,0.03438 a 1.41126,1.41126 0 0 1 -0.19161999,-0.28688 0.48739,0.48739 0 0 1 -0.09993,-0.2475 0.0194,0.0194 0 0 1 0.03852,-0.00454 z"
     id="path4512"
     style="fill:#ff00ff"
     inkscape:connector-curvature="0" />
  <path
     d="m 1.0815267,1.2206 c 0.01929,0.01167 2e-4,0.04466 -0.01991,0.03434 a 0.8693,0.8693 0 0 0 -0.29518999,-0.092 0.20848,0.20848 0 0 0 -0.15213,0.02285 c -0.04072,0.032 -0.04994,0.08949 -0.07134,0.13321 a 0.03622,0.03622 0 0 1 -0.069,-0.0189 c 0.04851,-0.32827 0.42156,-0.1921 0.60756999,-0.0795 z"
     id="path4514"
     style="fill:#ff00ff"
     inkscape:connector-curvature="0" />
  <path
     d="m 0.54114671,1.36961 c 0.22844,0.08976 0.45466,0.19565 0.68120999,0.291 0.04475,0.01883 0.01591,0.08031 -0.02828,0.06772 a 2.10765,2.10765 0 0 1 -0.67367999,-0.32294 0.02094,0.02094 0 0 1 0.02075,-0.03578 z"
     id="path4516"
     style="fill:#ff00ff"
     inkscape:connector-curvature="0" />
  <path
     d="m 0.46154671,1.75014 c 0.01886,-0.08334 0.09237,-0.09849 0.16948,-0.094 A 1.08517,1.08517 0 0 1 1.0553967,1.7754 c 0.01366,0.00722 0.00977,0.03136 -0.00765,0.02792 -0.13009999,-0.02571 -0.43563999,-0.15251 -0.53564999,-0.032 -0.01679,0.02027 -0.05717,0.00806 -0.05055,-0.02118 z"
     id="path4518"
     style="fill:#ff00ff"
     inkscape:connector-curvature="0" />
  <path
     d="m 0.40808671,1.83015 a 0.01717,0.01717 0 0 1 0.03391,3.7e-4 0.394,0.394 0 0 1 0.014,0.10267 0.26377,0.26377 0 0 0 0.1094,0.05745 1.15307,1.15307 0 0 0 0.18655,0.04335 c 0.11453,0.02119 0.232,0.02837 0.34551999,0.05338 0.039,0.0086 0.04487,0.073 -8.1e-4,0.07484 A 1.43813,1.43813 0 0 1 0.59018671,2.06051 c -0.1591,-0.05316 -0.21517,-0.05321 -0.1821,-0.23036 z"
     id="path4520"
     style="fill:#ff00ff"
     inkscape:connector-curvature="0" />
  <path
     d="m 0.73636671,2.36907 c 0.01782,-0.05475 0.08816,-0.07976 0.13929,-0.09377 a 0.55675,0.55675 0 0 1 0.23005999,-0.004 0.02135,0.02135 0 0 1 -4.6e-4,0.04218 1.1115,1.1115 0 0 0 -0.20562999,0.036 1.38524,1.38524 0 0 1 -0.131,0.06242 c -0.0247,0.00536 -0.03876,-0.0229 -0.03226,-0.04283 z"
     id="path4522"
     style="fill:#ff00ff"
     inkscape:connector-curvature="0" />
  <path
     d="m 0.76190671,2.433 a 0.01644,0.01644 0 0 1 0.029,0.008 c 0.04128,0.224 0.36242999,0.14873 0.51888999,0.09439 0.04179,-0.01451 0.0802,0.04422 0.03986,0.071 A 0.6186,0.6186 0 0 1 0.90206671,2.64534 c -0.09498,-0.02128 -0.21508,-0.10109 -0.14016,-0.21234 z"
     id="path4524"
     style="fill:#ff00ff"
     inkscape:connector-curvature="0" />
  <path
     d="m 2.1283167,2.20555 a 1.10109,1.10109 0 0 0 0.65858,0.16023 c 0.02771,-0.003 0.04143,0.04149 0.01245,0.04931 a 0.742,0.742 0 0 1 -0.70626,-0.14874 c -0.0256,-0.02551 -0.004,-0.08109 0.03523,-0.0608 z"
     id="path4526"
     style="fill:#ff00ff"
     inkscape:connector-curvature="0" />
  <path
     d="m 1.4437567,1.582 a 0.18289,0.18289 0 0 1 -0.07733,0.14679 0.22264,0.22264 0 0 1 -0.16255,-0.05015 1.09278,1.09278 0 0 1 -0.13532,-0.10751 L 1.0622867,1.564 c -0.02565,-0.02112 0.0229,-0.12819 0.04943,-0.14618 0.05866,-0.0398 0.14369,-0.00651 0.1998,0.02271 a 0.27711,0.27711 0 0 1 0.13224,0.14147 z"
     id="path4528"
     style="fill:#ff00ff"
     inkscape:connector-curvature="0" />
  <path
     d="m 1.3490867,2.34325 a 0.149,0.149 0 0 1 0.05028,0.12542 c -0.01925,0.04224 -0.07567,0.06166 -0.11687,0.0744 a 0.89,0.89 0 0 1 -0.13809,0.02725 l -0.00778,8e-5 c -0.02664,0.00478 -0.06745,-0.08183 -0.06462,-0.10779 0.00625,-0.05739 0.07176,-0.09259 0.11949,-0.112 a 0.22569,0.22569 0 0 1 0.15759,-0.00736 z"
     id="path4530"
     style="fill:#ff00ff"
     inkscape:connector-curvature="0" />
  <path
     d="m 1.4315567,1.21907 a 0.16966,0.16966 0 0 1 -0.13419,0.07538 c -0.05056,-0.01548 -0.08085,-0.07632 -0.10135,-0.121 a 1.01372,1.01372 0 0 1 -0.05125,-0.15192 l -0.00124,-0.00878 c -0.00934,-0.02932 0.08243,-0.08826 0.11216,-0.08891 0.06574,-0.00145 0.1152,0.06732 0.14419,0.11835 a 0.25706,0.25706 0 0 1 0.03168,0.17688 z"
     id="path4532"
     style="fill:#ff00ff"
     inkscape:connector-curvature="0" />
  <path
     d="m 3.3189067,2.03815 a 0.2464,0.2464 0 0 1 -0.07709,0.08409 c -0.08584,0.03634 -0.187,-0.02833 -0.25192,-0.08035 a 0.36438,0.36438 0 0 1 -0.13439,-0.21639 0.16872,0.16872 0 0 1 0.04661,-0.0991 2.09638,2.09638 0 0 0 0.41679,0.31175 z"
     id="path4534"
     style="fill:#ff00ff"
     inkscape:connector-curvature="0" />
  <path
     d="m 1.6800067,1.31129 a 0.16966,0.16966 0 0 1 0.05865,-0.1423 0.20654,0.20654 0 0 1 0.15449,0.03217 1.01372,1.01372 0 0 1 0.13433,0.08751 l 0.00641,0.00613 c 0.02553,0.01727 -0.01,0.12038 -0.03294,0.13931 -0.05071,0.04186 -0.13214,0.01852 -0.1865,-0.00358 a 0.25706,0.25706 0 0 1 -0.13444,-0.11924 z"
     id="path4536"
     style="fill:#ff00ff"
     inkscape:connector-curvature="0" />
  <path
     d="m 1.2240867,1.92649 a 0.17459,0.17459 0 0 1 -0.02448,0.15649 0.21255,0.21255 0 0 1 -0.16232,0.00494 1.04323,1.04323 0 0 1 -0.15545999,-0.05528 l -0.00789,-0.00458 c -0.0297,-0.01114 -0.01893,-0.12286 -5.3e-4,-0.14732 C 0.91408671,1.82667 1.0011767,1.83045 1.0608967,1.8395 a 0.26455,0.26455 0 0 1 0.16319,0.08699 z"
     id="path4538"
     style="fill:#ff00ff"
     inkscape:connector-curvature="0" />
  <path
     d="m 1.4032367,2.75545 a 0.15445,0.15445 0 0 1 0.0026,-0.1437 c 0.03724,-0.02746 0.10216,-0.01257 0.149,-3.8e-4 a 1.12447,1.12447 0 0 1 0.15032,0.055 l 0.00785,0.00443 c 0.02879,0.011 0.03312,0.1138 0.01928,0.13589 -0.0306,0.04883 -0.11134,0.0431 -0.16752,0.03322 a 0.29666,0.29666 0 0 1 -0.16153,-0.08446 z"
     id="path4540"
     style="fill:#ff00ff"
     inkscape:connector-curvature="0" />
</svg>
