<?xml version="1.0" encoding="UTF-8" standalone="no"?>
<svg
   xmlns:dc="http://purl.org/dc/elements/1.1/"
   xmlns:cc="http://creativecommons.org/ns#"
   xmlns:rdf="http://www.w3.org/1999/02/22-rdf-syntax-ns#"
   xmlns:svg="http://www.w3.org/2000/svg"
   xmlns="http://www.w3.org/2000/svg"
   xmlns:sodipodi="http://sodipodi.sourceforge.net/DTD/sodipodi-0.dtd"
   xmlns:inkscape="http://www.inkscape.org/namespaces/inkscape"
   data-name="Layer 1"
   viewBox="0 0 5 5"
   x="0px"
   y="0px"
   version="1.1"
   id="svg4162"
   sodipodi:docname="manny_rock.svg"
   inkscape:version="0.92.2 5c3e80d, 2017-08-06">
  <metadata
     id="metadata4168">
    <rdf:RDF>
      <cc:Work
         rdf:about="">
        <dc:format>image/svg+xml</dc:format>
        <dc:type
           rdf:resource="http://purl.org/dc/dcmitype/StillImage" />
      </cc:Work>
    </rdf:RDF>
  </metadata>
  <defs
     id="defs4166" />
  <sodipodi:namedview
     pagecolor="#ffffff"
     bordercolor="#666666"
     borderopacity="1"
     objecttolerance="10"
     gridtolerance="10"
     guidetolerance="10"
     inkscape:pageopacity="0"
     inkscape:pageshadow="2"
     inkscape:window-width="1037"
     inkscape:window-height="647"
     id="namedview4164"
     showgrid="false"
     inkscape:zoom="47.2"
     inkscape:cx="-0.11652542"
     inkscape:cy="2.5"
     inkscape:window-x="0"
     inkscape:window-y="0"
     inkscape:window-maximized="0"
     inkscape:current-layer="svg4162" />
  <title
     id="title4120">hand_nail_Beauty_Cosmetics_Fingernail_Manicure</title>
  <path
     d="m 2.2981897,3.69394 a 1.449,1.449 0 0 1 0.24031,-0.44562 c 0.09955,-0.13589 0.36023,-0.431 0.20107,-0.59137 -0.014,-0.01409 0.00292,-0.03861 0.01948,-0.02533 0.15409,0.1236 0.04975,0.32885 -0.03241,0.4657 a 4.31928,4.31928 0 0 0 -0.397,0.60977 c -0.00802,0.02085 -0.03783,0.00744 -0.03145,-0.01315 z"
     id="path4122"
     style="fill:#ff00ff"
     inkscape:connector-curvature="0" />
  <path
     d="m 2.0796197,3.2 c 0.14878,-0.16227 0.30124,-0.3195 0.45851,-0.47344 0.01336,-0.01308 0.03381,0.00883 0.02279,0.023 -0.1242,0.15975 -0.25129,0.31581 -0.3838,0.46882 a 1.55148,1.55148 0 0 0 -0.3153,0.43143 c -0.00992,0.02611 -0.04635,0.01311 -0.0448,-0.01227 A 0.74823,0.74823 0 0 1 2.0796197,3.2 Z"
     id="path4124"
     style="fill:#ff00ff"
     inkscape:connector-curvature="0" />
  <path
     d="m 1.6920097,3.23116 c 0.17,-0.13336 0.33991,-0.2667 0.50883,-0.40152 0.1615,-0.1289 0.53,-0.32715 0.44928,-0.579 a 0.01689,0.01689 0 0 1 0.03139,-0.01244 c 0.11714,0.229 -0.10709,0.40434 -0.26622,0.53209 q -0.1794,0.144 -0.35886,0.288 a 0.99933,0.99933 0 0 1 -0.34063,0.21528 0.02463,0.02463 0 0 1 -0.02379,-0.04241 z"
     id="path4126"
     style="fill:#ff00ff"
     inkscape:connector-curvature="0" />
  <path
     d="m 1.1652197,3.18077 c 0.11618,0.23322 0.3761,0.25617 0.60291,0.293 a 0.015,0.015 0 0 1 -3.2e-4,0.02952 0.54756,0.54756 0 0 1 -0.63263,-0.31066 0.01617,0.01617 0 0 1 0.03004,-0.01186 z"
     id="path4128"
     style="fill:#ff00ff"
     inkscape:connector-curvature="0" />
  <path
     d="m 1.1359297,3.01431 a 4.78765,4.78765 0 0 1 1.268,-0.8108 c 0.01411,-0.00782 0.03072,0.01427 0.01939,0.02571 a 2.49169,2.49169 0 0 1 -0.5976,0.38734 2.96461,2.96461 0 0 0 -0.33618,0.20648 2.4287,2.4287 0 0 1 -0.32008,0.2357 0.02907,0.02907 0 0 1 -0.03353,-0.04443 z"
     id="path4130"
     style="fill:#ff00ff"
     inkscape:connector-curvature="0" />
  <path
     d="m 0.6506197,2.21523 a 0.42758,0.42758 0 0 0 0.21128,0.18122 0.39488,0.39488 0 0 0 0.25588,-0.007 c 0.04171,-0.02731 0.08406,-0.05334 0.12547,-0.07876 a 8.5029,8.5029 0 0 1 0.88828,-0.40531 c 0.01793,-0.00835 0.03187,0.01815 0.01674,0.0298 a 5.06425,5.06425 0 0 1 -0.77123,0.405 2.56383,2.56383 0 0 0 -0.38594,0.24711 0.35023,0.35023 0 0 0 -0.13115,0.15115 0.99351,0.99351 0 0 1 -0.07509,0.19136 c -0.01539,0.02364 -0.04705,0.00382 -0.046,-0.01929 a 0.57633,0.57633 0 0 1 0.24656,-0.42605 0.33865,0.33865 0 0 1 -0.36388,-0.2577 0.01564119,0.01564119 0 0 1 0.02908,-0.01153 z"
     id="path4132"
     style="fill:#ff00ff"
     inkscape:connector-curvature="0" />
  <path
     d="m 1.1164997,2.20814 c 0.15247,-0.03671 0.239,-0.192 0.36911,-0.26724 a 1.84063,1.84063 0 0 0 0.24771,-0.12144 0.47529,0.47529 0 0 0 0.14394,-0.23311 0.01718,0.01718 0 0 1 0.03269,0.00458 0.40343,0.40343 0 0 1 -0.29281,0.38192 1.05917,1.05917 0 0 0 -0.268,0.1688 0.43051,0.43051 0 0 1 -0.22811,0.10473 c -0.02525,0.00299 -0.02798,-0.03259 -0.00453,-0.03824 z"
     id="path4134"
     style="fill:#ff00ff"
     inkscape:connector-curvature="0" />
  <path
     d="m 0.7500797,1.91375 c 0.10238,-0.07581 0.20774,-0.14855 0.31314,-0.22009 a 1.336,1.336 0 0 1 0.20368,-0.11193 1.90178,1.90178 0 0 1 -0.29241,-0.22406 0.02631,0.02631 0 0 1 -0.00795,-0.02989 1.47121,1.47121 0 0 1 0.23748,-0.31752 0.016,0.016 0 0 1 0.02533,0.01948 1.76156,1.76156 0 0 1 -0.20052,0.30394 c 0.103,0.07065 0.20335,0.1455 0.30345,0.22024 a 4.389,4.389 0 0 1 0.45177,-0.144 0.01562,0.01562 0 0 1 0.0115,0.029 6.1139,6.1139 0 0 0 -0.64213,0.28408 c -0.08814,0.05593 -0.17045,0.12193 -0.25524,0.18276 a 0.67847,0.67847 0 0 0 -0.2308,0.20893 0.0259,0.0259 0 0 1 -0.04931,-0.0135 0.25764,0.25764 0 0 1 0.13201,-0.18744 z"
     id="path4136"
     style="fill:#ff00ff"
     inkscape:connector-curvature="0" />
  <path
     d="m 1.3022597,0.97094 c 0.032,0.01359 0.06352,0.02949 0.0948,0.04633 a 0.0329,0.0329 0 0 1 0.01556,-0.01527 0.44683,0.44683 0 0 1 0.32265,0.02554 2.7148,2.7148 0 0 1 0.4076,0.09447 4.38888,4.38888 0 0 1 0.626,0.46852 c 0.20594,0.13991 0.47622,0.22329 0.60986,0.44847 0.07232,0.12186 0.10071,0.26271 0.17843,0.38275 a 1.02025,1.02025 0 0 0 0.28524,0.29273 c 0.01575,0.01034 4.3e-4,0.03848 -0.01641,0.02918 a 0.965,0.965 0 0 1 -0.42613,-0.43323 0.97635,0.97635 0 0 0 -0.22242,-0.37291 2.4412,2.4412 0 0 0 -0.31789,-0.202 c -0.22038,-0.13185 -0.40656,-0.30888 -0.6208,-0.44948 a 1.03449,1.03449 0 0 0 -0.39474,-0.13827 1.50819,1.50819 0 0 0 -0.37,-0.08629 c 0.10589,0.06484 0.20771,0.14122 0.30551,0.21 a 3.17044,3.17044 0 0 1 0.42987,0.35591 c 0.01378,0.01386 -0.00815,0.03149 -0.02245,0.02283 -0.15825,-0.09583 -0.30962,-0.20112 -0.4625,-0.30513 -0.15027,-0.10223 -0.32108,-0.18974 -0.46138,-0.30443 a 0.04048,0.04048 0 0 1 0.0392,-0.06972 z"
     id="path4138"
     style="fill:#ff00ff"
     inkscape:connector-curvature="0" />
  <path
     d="m 1.8789197,3.72188 a 0.79083,0.79083 0 0 0 0.62088,0.15479 c 0.1076,-0.02545 0.20715,-0.07394 0.31242,-0.10657 0.11243,-0.03485 0.23066,-0.03974 0.344,-0.07025 0.16823,-0.04527 0.30724,-0.16654 0.48039,-0.07881 0.21408,0.10846 0.42864,0.20384 0.65033,0.29583 0.01706,0.00708 0.01022,0.036 -0.00875,0.03195 a 2.645,2.645 0 0 1 -0.65267,-0.25988 c -0.133,-0.06833 -0.2403,0.029 -0.3587,0.08015 a 1.2061,1.2061 0 0 1 -0.332,0.07076 4.01207,4.01207 0 0 1 -0.60743,0.14027 0.60648,0.60648 0 0 1 -0.48126,-0.22583 c -0.01645,-0.02156 0.01158,-0.04658 0.03279,-0.03241 z"
     id="path4140"
     style="fill:#ff00ff"
     inkscape:connector-curvature="0" />
  <path
     d="m 2.9080497,2.77489 c 0.0538,-0.0882 0.12134,-0.16814 0.17966,-0.25352 a 0.47578,0.47578 0 0 0 0.09169,-0.17485 c 0.00983,-0.05046 0.01475,-0.10145 0.02578,-0.15187 a 0.01677,0.01677 0 0 1 0.03312,3.6e-4 0.45122,0.45122 0 0 1 -0.04821,0.33135 0.6946,0.6946 0 0 1 -0.25675,0.28205 C 2.9120197,2.819 2.8981097,2.79118 2.9080497,2.77489 Z"
     id="path4142"
     style="fill:#ff00ff"
     inkscape:connector-curvature="0" />
  <path
     d="m 2.3424597,1.66049 c 0.12059,-0.09167 0.30287,0.03061 0.41007,0.09144 a 1.73308,1.73308 0 0 1 0.45469,0.34965 c 0.0115,0.01323 -0.00752,0.02832 -0.02044,0.02026 -0.12815,-0.07994 -0.24815,-0.17157 -0.37849,-0.2487 -0.118,-0.06983 -0.29643,-0.20727 -0.43852,-0.164 a 0.02827,0.02827 0 0 1 -0.02731,-0.04865 z"
     id="path4144"
     style="fill:#ff00ff"
     inkscape:connector-curvature="0" />
  <path
     d="m 2.1043397,1.80777 a 0.1296,0.1296 0 0 1 0.02006,-0.02864 c 0.00931,-0.00921 0.01807,-0.01831 0.0265,-0.02835 a 0.3139,0.3139 0 0 0 0.05045,-0.05866 c 0.006,-0.01364 0.02938,-0.00849 0.026,0.00713 -0.00316,0.01482 -10e-4,0.03 -0.00474,0.0453 a 0.13814,0.13814 0 0 1 -0.0205,0.04563 0.20216,0.20216 0 0 1 -0.03173,0.03614 0.08407,0.08407 0 0 1 -0.04461,0.01928 c -0.02208,0.00503 -0.03066,-0.0226 -0.02143,-0.03783 z"
     id="path4146"
     style="fill:#ff00ff"
     inkscape:connector-curvature="0" />
  <path
     d="m 2.4119497,1.74819 a 0.84721,0.84721 0 0 1 0.4091,0.19271 0.01835,0.01835 0 0 1 -0.02235,0.0291 1.28,1.28 0 0 0 -0.3954,-0.19018 C 2.3851797,1.77456 2.3937197,1.745 2.4119497,1.74819 Z"
     id="path4148"
     style="fill:#ff00ff"
     inkscape:connector-curvature="0" />
  <path
     d="m 2.8716197,2.62124 c 0.08385,-0.14309 0.27484,-0.37107 0.07292,-0.50854 -0.01667,-0.01135 -5.6e-4,-0.03621 0.01716,-0.02959 a 0.22066,0.22066 0 0 1 0.14735,0.2533 0.41774,0.41774 0 0 1 -0.21,0.32116 0.02383,0.02383 0 0 1 -0.02743,-0.03633 z"
     id="path4150"
     style="fill:#ff00ff"
     inkscape:connector-curvature="0" />
  <path
     d="m 0.7846897,3.00432 c 0.03665,0.02065 0.05877,0.05621 0.09838,0.07556 0.04663,0.02278 0.09808,0.03325 0.14418,0.05733 a 0.02053,0.02053 0 0 1 -0.01581,0.03786 c -0.07081,-0.02192 -0.24892,-0.05 -0.258,-0.14716 -0.00147,-0.01531 0.01566,-0.03237 0.03125,-0.02359 z"
     id="path4152"
     style="fill:#ff00ff"
     inkscape:connector-curvature="0" />
  <path
     d="m 2.0096797,1.50633 a 0.07234,0.07234 0 0 0 -0.026,-0.10977 0.30228,0.30228 0 0 0 -0.22988,0.02233 1.48368,1.48368 0 0 0 -0.20932,0.106 l -0.0103,0.00789 a 0.06212,0.06212 0 0 0 -0.011,0.10135 c 0.06715,0.06894 0.18933,0.04788 0.27193,0.02434 a 0.37624,0.37624 0 0 0 0.21457,-0.15214 z"
     id="path4154"
     style="fill:#ff00ff"
     inkscape:connector-curvature="0" />
  <path
     d="m 2.8209997,2.64035 a 0.06224,0.06224 0 0 0 -0.07285,-0.06412 c -0.066,0.00912 -0.11581,0.07868 -0.15023,0.13007 a 1.27652,1.27652 0 0 0 -0.09414,0.1786 l -0.0033,0.01066 a 0.05345,0.05345 0 0 0 0.04273,0.07659 c 0.08144,0.015 0.15671,-0.06061 0.203,-0.11824 a 0.3237,0.3237 0 0 0 0.07479,-0.21356 z"
     id="path4156"
     style="fill:#ff00ff"
     inkscape:connector-curvature="0" />
  <path
     d="m 2.4320297,1.9851 a 0.07989,0.07989 0 0 0 -0.03441,-0.1197 0.33383,0.33383 0 0 0 -0.25239,0.03682 1.63851,1.63851 0 0 0 -0.22528,0.12808 l -0.01094,0.00925 a 0.06861,0.06861 0 0 0 -0.00673,0.11238 c 0.07773,0.07248 0.21138,0.04277 0.30125,0.01242 a 0.4155,0.4155 0 0 0 0.2285,-0.17925 z"
     id="path4158"
     style="fill:#ff00ff"
     inkscape:connector-curvature="0" />
  <path
     d="m 2.7558297,2.23153 a 0.07989,0.07989 0 0 0 -0.04749,-0.11516 0.33383,0.33383 0 0 0 -0.24677,0.06451 1.63851,1.63851 0 0 0 -0.20972,0.15221 l -0.00985,0.0104 a 0.06861,0.06861 0 0 0 0.00574,0.11243 c 0.08527,0.06344 0.21481,0.01913 0.30078,-0.021 a 0.4155,0.4155 0 0 0 0.20731,-0.20339 z"
     id="path4160"
     style="fill:#ff00ff"
     inkscape:connector-curvature="0" />
</svg>
