<?xml version="1.0" encoding="UTF-8" standalone="no"?>
<svg
   xmlns:dc="http://purl.org/dc/elements/1.1/"
   xmlns:cc="http://creativecommons.org/ns#"
   xmlns:rdf="http://www.w3.org/1999/02/22-rdf-syntax-ns#"
   xmlns:svg="http://www.w3.org/2000/svg"
   xmlns="http://www.w3.org/2000/svg"
   xmlns:sodipodi="http://sodipodi.sourceforge.net/DTD/sodipodi-0.dtd"
   xmlns:inkscape="http://www.inkscape.org/namespaces/inkscape"
   version="1.1"
   x="0px"
   y="0px"
   viewBox="0 0 73.988869 66.184372"
   enable-background="new 0 0 90 90"
   xml:space="preserve"
   id="svg2"
   inkscape:version="0.92.2 5c3e80d, 2017-08-06"
   sodipodi:docname="mickey_rock.svg"
   width="73.988869"
   height="66.184372"><metadata
     id="metadata10"><rdf:RDF><cc:Work
         rdf:about=""><dc:format>image/svg+xml</dc:format><dc:type
           rdf:resource="http://purl.org/dc/dcmitype/StillImage" /><dc:title /></cc:Work></rdf:RDF></metadata><defs
     id="defs8" /><sodipodi:namedview
     pagecolor="#ffffff"
     bordercolor="#666666"
     borderopacity="1"
     objecttolerance="10"
     gridtolerance="10"
     guidetolerance="10"
     inkscape:pageopacity="0"
     inkscape:pageshadow="2"
     inkscape:window-width="754"
     inkscape:window-height="480"
     id="namedview6"
     showgrid="false"
     fit-margin-top="0"
     fit-margin-left="0"
     fit-margin-right="0"
     fit-margin-bottom="0"
     inkscape:zoom="2.6222222"
     inkscape:cx="61.79418"
     inkscape:cy="17.486508"
     inkscape:window-x="387"
     inkscape:window-y="117"
     inkscape:window-maximized="0"
     inkscape:current-layer="svg2" /><path
     d="m 24.98629,63.708625 c -2.003,-1.734 -2.992,-3.816 -2.967,-6.243 0,-0.064 0,-0.128 0,-0.192 -2.535,-0.347 -4.866,-1.284 -6.996,-2.813 l -0.02,-0.02 c -3.251,-2.404 -4.844,-5.301 -4.778,-8.69 0.003,-0.811 0.092,-1.602 0.27,-2.371 -0.296,-0.192 -0.6110005,-0.398 -0.9430005,-0.615 -0.039,-0.035 -0.078,-0.066 -0.116,-0.097 -2.146,-1.501 -3.22,-3.903 -3.218,-7.208 -0.076,-1.843 0.572,-3.719 1.945,-5.626 -0.655,-0.378 -1.284,-0.795 -1.888,-1.252 -0.313,-0.22 -0.673,-0.503 -1.079,-0.848 -0.148,-0.128 -0.283,-0.27 -0.405,-0.425 -0.028,-0.038 -0.061,-0.083 -0.097,-0.135 -3.188,-2.917 -4.74899999,-5.816 -4.68199999,-8.689 -0.167,-2.975 1.36799999,-5.859 4.60499999,-8.6539996 l 0.02,-0.018 c 5.298,-4.744 12.0230005,-5.682 20.1760005,-2.813 0.181,-0.197 0.367,-0.396 0.559,-0.598 v 0.02 c 4.146,-4.325 8.707,-6.46499998 13.682,-6.41799998 3.513,-0.095 7.509,1.67699998 11.986,5.31899998 l 0.02,0.02 c 2.653,2.049 4.875,5.2209996 6.667,9.5189996 1.081,-0.577 2.166,-0.84 3.257,-0.79 3.985,-0.157 7.171,2.199 9.559,7.073 l -0.02,-0.02 c 1.679,3.345 2.771,7.026 3.275,11.042 v 0.018 c 0.488,4.083 0.039,8.194 -1.349,12.333 l -0.02,0.02 c -1.444,4.51 -4.92,7.007 -10.425,7.496 -0.563,1.105 -1.296,2.262 -2.197,3.469 l -0.019,0.02 c -3.102,4.425 -8.317,6.025 -15.647,4.798 -0.537,0.611 -1.154,1.228 -1.851,1.851 v 0.02 c -3.059,2.744 -6.238,4.073 -9.539,3.989 h -0.038 c -3.379,-0.066 -5.942,-0.876 -7.689,-2.429 -0.01,-0.019 -0.024,-0.031 -0.038,-0.043 z m 7.072,-20.657 c -0.038,0.022 -0.076,0.048 -0.115,0.077 -0.258,0.153 -0.515,0.309 -0.771,0.462 -1.92,1.156 -3.943,1.972 -6.069,2.447 -1.55,0.349 -3.143,0.522 -4.779,0.52 -1.664,-0.001 -3.257,-0.226 -4.779,-0.674 0.11,1.635 0.978,3.055 2.602,4.259 l 0.02,0.02 c 1.819,1.299 3.861,1.948 6.128,1.946 2.688,-0.001 5.194,-0.709 7.516,-2.119 l -0.02,0.018 c 2.361,-1.469 3.575,-3.363 3.642,-5.685 10e-4,-0.931 -0.294,-1.624 -0.886,-2.08 h -0.039 c -0.259,-0.166 -0.548,-0.296 -0.867,-0.386 -0.483,0.411 -1.011,0.81 -1.583,1.195 z m -7.399,-11.369 c -0.107,0.032 -0.21,0.057 -0.309,0.077 -0.282,0.051 -0.565,0.102 -0.848,0.153 l 0.135,-0.038 c -2.104,0.501 -4.225,0.681 -6.359,0.539 h -0.019 c -1.278,-0.074 -2.557,-0.259 -3.836,-0.559 -1.166,1.257 -1.795,2.458 -1.889,3.603 0.002,1.256 0.329,2.212 0.983,2.872 l 0.059,0.058 c 0.02,0.012 0.038,0.025 0.058,0.039 0.357,0.23 0.691,0.456 1.002,0.675 h 0.019 c 0.353,0.25 0.681,0.476 0.983,0.674 0.031,0.016 0.063,0.035 0.096,0.058 0.151,0.059 0.299,0.136 0.443,0.231 0.104,0.032 0.207,0.069 0.309,0.115 1.498,0.709 3.11,1.063 4.837,1.06 1.24,-0.002 2.448,-0.137 3.623,-0.403 1.572,-0.348 3.069,-0.945 4.49,-1.793 0.256,-0.154 0.513,-0.309 0.771,-0.463 0.684,-0.479 1.262,-0.993 1.734,-1.541 v 0.02 c 0.962,-1.145 1.443,-2.448 1.445,-3.913 -0.001,-0.989 -0.335,-1.721 -1.003,-2.196 v -0.02 c -0.86,-0.478 -1.979,-0.715 -3.353,-0.712 -0.967,0.579 -2.091,1.066 -3.371,1.464 z m -16.5350005,-17.844 -0.019,0.02 c -1.763,1.518 -2.688,3.034 -2.775,4.546 0.143,1.585 1.164,3.235 3.064,4.953 0.087,0.084 0.17,0.175 0.25,0.27 0.068,0.083 0.133,0.16 0.192,0.232 0.176,0.142 0.336,0.263 0.481,0.366 0.032,0.027 0.064,0.053 0.097,0.077 1.0030005,0.771 2.1140005,1.388 3.3340005,1.851 0.403,0.117 0.814,0.233 1.233,0.346 1.201,0.333 2.402,0.531 3.604,0.598 h 0.019 c 1.611,0.114 3.211,-0.015 4.799,-0.386 0.045,-0.013 0.091,-0.025 0.135,-0.038 0.232,-0.043 0.464,-0.087 0.694,-0.135 0.23,-0.074 0.456,-0.15 0.674,-0.232 -0.886,-0.488 -1.656,-1.162 -2.312,-2.023 -0.011,-0.02 -0.023,-0.039 -0.04,-0.057 -0.854,-1.138 -1.407,-2.507 -1.656,-4.104 -0.529,0.22 -1.3,0.554 -2.313,1.001 -0.678,0.301 -1.358,0.32 -2.043,0.059 -0.68,-0.267 -1.168,-0.735 -1.464,-1.408 -0.302,-0.676 -0.321,-1.356 -0.059,-2.043 0.268,-0.679 0.736,-1.167 1.407,-1.463 2.349,-1.043 3.769,-1.596 4.259,-1.658 0.083,-0.01 0.167,-0.016 0.25,-0.02 0.1,-0.009 0.196,-0.015 0.289,-0.02 0.014,-0.046 0.026,-0.092 0.039,-0.134 0.006,-0.03 0.013,-0.062 0.02,-0.096 0.284,-0.918 0.689,-1.843 1.214,-2.776 -5.325,-1.484 -9.782,-0.727 -13.3730005,2.274 z m 47.4050005,38.501 0.02,-0.02 c 2.014,-2.718 2.707,-4.901 2.082,-6.552 -0.345,-0.65 -0.41,-1.325 -0.193,-2.023 0.214,-0.703 0.644,-1.229 1.291,-1.579 0.648,-0.345 1.323,-0.409 2.023,-0.192 0.702,0.215 1.229,0.646 1.58,1.29 0.598,0.962 0.945,2.002 1.04,3.122 1.983,-0.589 3.332,-1.782 4.047,-3.585 l -0.019,0.02 c 1.128,-3.356 1.5,-6.689 1.118,-10 v -0.02 c -0.423,-3.377 -1.336,-6.473 -2.737,-9.289 l -0.019,-0.018 c -1.264,-2.583 -2.856,-3.952 -4.779,-4.105 -0.47,0.063 -0.951,0.281 -1.445,0.655 0.39,1.352 0.75,2.777 1.079,4.278 0.154,0.715 0.032,1.384 -0.366,2.004 -0.394,0.624 -0.946,1.015 -1.657,1.176 -0.716,0.155 -1.384,0.033 -2.004,-0.366 -0.622,-0.395 -1.014,-0.945 -1.175,-1.658 -1.704,-7.783 -4.267,-13.114 -7.689,-15.9939996 l -0.02,-0.02 c -3.274,-2.666 -6.159,-4.048 -8.652,-4.143 -3.556,0.054 -6.831,1.647 -9.828,4.7799996 -0.526,0.546 -1.003,1.093 -1.426,1.638 -0.013,0.018 -0.025,0.038 -0.038,0.057 -0.054,0.075 -0.111,0.146 -0.174,0.212 -1.057,1.347 -1.795,2.665 -2.216,3.95 l 0.02,-0.096 c -0.126,0.445 -0.223,0.888 -0.289,1.329 0.002,0.035 0.002,0.066 0,0.097 -0.022,0.241 -0.036,0.491 -0.039,0.751 0.001,1.236 0.271,2.258 0.81,3.063 l -0.038,-0.038 c 0.464,0.61 1.119,0.899 1.965,0.867 0.387,0.005 0.76,-0.041 1.118,-0.135 l 0.058,-0.02 h 0.02 c 0.794,-0.27 1.539,-0.759 2.235,-1.463 h 0.019 c 1.712,-1.695 2.958,-2.91 3.739,-3.644 0.108,-0.253 0.263,-0.489 0.462,-0.712 0.456,-0.506 1.021,-0.795 1.696,-0.867 0.678,-0.075 1.294,0.084 1.85,0.482 0.551,0.403 0.898,0.937 1.041,1.599 0.278,0.95 0.13,2.24 -0.443,3.874 l -0.02,0.039 c -0.283,0.772 -0.443,1.337 -0.482,1.695 0.051,1.656 0.73,3.371 2.043,5.146 l 0.02,0.018 c 1.237,1.624 2.516,2.57 3.835,2.833 0.723,0.097 1.307,0.438 1.754,1.021 0.451,0.584 0.632,1.239 0.539,1.966 -0.097,0.723 -0.437,1.307 -1.021,1.754 -0.584,0.45 -1.239,0.631 -1.967,0.539 -2.344,-0.22 -4.559,-1.549 -6.648,-3.988 0.039,0.348 0.059,0.707 0.059,1.078 0,1.528 -0.275,2.96 -0.829,4.298 0.19,0.108 0.376,0.225 0.56,0.347 2.209,1.345 3.313,3.521 3.314,6.532 0.004,0.294 -0.002,0.583 -0.02,0.867 1.691,0.229 3.13,1.089 4.316,2.583 l 0.019,0.019 c 1.259,1.515 1.888,3.428 1.889,5.743 0.009,0.578 -0.049,1.156 -0.173,1.734 3.94,0.309 6.857,-0.668 8.745,-2.929 z m -22.7,8.518 c 2.03,-0.044 4.002,-0.925 5.917,-2.641 v 0.02 c 0.846,-0.772 1.52,-1.531 2.023,-2.273 l 0.038,-0.059 c 0.033,-0.049 0.065,-0.094 0.097,-0.135 0.465,-0.751 0.709,-1.496 0.732,-2.235 10e-4,-0.963 -0.236,-1.768 -0.714,-2.408 l -0.019,-0.02 c -0.324,-0.411 -0.723,-0.63 -1.195,-0.655 -0.12,-0.002 -0.217,-0.002 -0.289,0 -0.043,0.017 -0.088,0.036 -0.135,0.057 -0.151,0.077 -0.306,0.141 -0.463,0.193 -1.007,1.421 -2.414,2.693 -4.22,3.816 l -0.02,0.018 c -2.225,1.351 -4.576,2.231 -7.053,2.641 -0.061,0.091 -0.132,0.18 -0.212,0.27 l 0.019,0.02 c 0.025,0.845 0.385,1.576 1.08,2.196 1.02,0.755 2.478,1.153 4.374,1.196 h 0.04 z"
     id="path4"
     inkscape:connector-curvature="0"
     style="fill:#ccaaff" /></svg>