<?xml version="1.0" encoding="UTF-8" standalone="no"?>
<svg
   xmlns:dc="http://purl.org/dc/elements/1.1/"
   xmlns:cc="http://creativecommons.org/ns#"
   xmlns:rdf="http://www.w3.org/1999/02/22-rdf-syntax-ns#"
   xmlns:svg="http://www.w3.org/2000/svg"
   xmlns="http://www.w3.org/2000/svg"
   xmlns:sodipodi="http://sodipodi.sourceforge.net/DTD/sodipodi-0.dtd"
   xmlns:inkscape="http://www.inkscape.org/namespaces/inkscape"
   data-name="Warstwa 1"
   viewBox="0 0 82.120003 54"
   x="0px"
   y="0px"
   id="svg2"
   version="1.1"
   inkscape:version="0.92.2 5c3e80d, 2017-08-06"
   sodipodi:docname="mr_modern_scissors.svg"
   width="82.120003"
   height="54">
  <metadata
     id="metadata12">
    <rdf:RDF>
      <cc:Work
         rdf:about="">
        <dc:format>image/svg+xml</dc:format>
        <dc:type
           rdf:resource="http://purl.org/dc/dcmitype/StillImage" />
        <dc:title>hand_scissors</dc:title>
      </cc:Work>
    </rdf:RDF>
  </metadata>
  <defs
     id="defs10" />
  <sodipodi:namedview
     pagecolor="#ffffff"
     bordercolor="#666666"
     borderopacity="1"
     objecttolerance="10"
     gridtolerance="10"
     guidetolerance="10"
     inkscape:pageopacity="0"
     inkscape:pageshadow="2"
     inkscape:window-width="754"
     inkscape:window-height="480"
     id="namedview8"
     showgrid="false"
     fit-margin-top="0"
     fit-margin-left="0"
     fit-margin-right="0"
     fit-margin-bottom="0"
     inkscape:zoom="2.36"
     inkscape:cx="8.0818722"
     inkscape:cy="32"
     inkscape:window-x="0"
     inkscape:window-y="0"
     inkscape:window-maximized="0"
     inkscape:current-layer="svg2" />
  <title
     id="title4">hand_scissors</title>
  <path
     d="M 1.12,31.22 17.6,24 H 3.3 L 0.12,20.83 V 13.17 L 3.29,10 H 40.12 V 3.17 L 43.29,0 H 64.95 L 82.12,17.17 V 36.83 L 64.95,54 H 36.29 l -3,-3 L 30.59,34.79 7.99,43.47 3.83,42.35 0,35.72 Z m 5.3,7.66 1.3,0.35 26,-10 3.27,19.77 1,1 h 25.3 L 78.12,35.17 V 18.83 L 63.29,4 H 44.95 L 44.12,4.83 V 10 h 10 v 4 H 4.95 l -0.83,0.83 v 4.34 L 4.95,20 h 25.17 v 2.87 l -25.6,11.25 -0.27,1 z"
     id="path6"
     inkscape:connector-curvature="0"
     style="fill:#44aa00" />
</svg>
