<?xml version="1.0" encoding="UTF-8" standalone="no"?>
<svg
   xmlns:dc="http://purl.org/dc/elements/1.1/"
   xmlns:cc="http://creativecommons.org/ns#"
   xmlns:rdf="http://www.w3.org/1999/02/22-rdf-syntax-ns#"
   xmlns:svg="http://www.w3.org/2000/svg"
   xmlns="http://www.w3.org/2000/svg"
   xmlns:sodipodi="http://sodipodi.sourceforge.net/DTD/sodipodi-0.dtd"
   xmlns:inkscape="http://www.inkscape.org/namespaces/inkscape"
   data-name="Warstwa 1"
   viewBox="0 0 84 54"
   x="0px"
   y="0px"
   id="svg2"
   version="1.1"
   inkscape:version="0.92.2 5c3e80d, 2017-08-06"
   sodipodi:docname="mr_modern_paper.svg"
   width="84"
   height="54">
  <metadata
     id="metadata12">
    <rdf:RDF>
      <cc:Work
         rdf:about="">
        <dc:format>image/svg+xml</dc:format>
        <dc:type
           rdf:resource="http://purl.org/dc/dcmitype/StillImage" />
        <dc:title>hand_paper</dc:title>
      </cc:Work>
    </rdf:RDF>
  </metadata>
  <defs
     id="defs10" />
  <sodipodi:namedview
     pagecolor="#ffffff"
     bordercolor="#666666"
     borderopacity="1"
     objecttolerance="10"
     gridtolerance="10"
     guidetolerance="10"
     inkscape:pageopacity="0"
     inkscape:pageshadow="2"
     inkscape:window-width="754"
     inkscape:window-height="480"
     id="namedview8"
     showgrid="false"
     fit-margin-top="0"
     fit-margin-left="0"
     fit-margin-right="0"
     fit-margin-bottom="0"
     inkscape:zoom="2.36"
     inkscape:cx="30.224599"
     inkscape:cy="32"
     inkscape:window-x="148"
     inkscape:window-y="55"
     inkscape:window-maximized="0"
     inkscape:current-layer="svg2" />
  <title
     id="title4">hand_paper</title>
  <path
     d="M 20,50.83 V 44 H 11.17 L 8,40.83 V 34 H 3.17 L 0,30.83 V 23.17 L 3.17,20 H 6 V 13.17 L 9.17,10 h 23 L 31,8.83 V 3.17 L 34.17,0 H 66.83 L 84,17.17 V 36.83 L 66.83,54 H 23.17 Z M 65.17,50 80,35.17 V 18.83 L 65.17,4 H 35.83 L 35,4.83 V 7.17 L 37.83,10 H 54 v 4 H 10.83 L 10,14.83 V 20 h 30 v 4 H 4.83 L 4,24.83 v 4.34 L 4.83,30 H 40 v 4 H 12 v 5.17 L 12.83,40 H 40 v 4 H 24 v 5.17 L 24.83,50 Z"
     id="path6"
     inkscape:connector-curvature="0"
     style="fill:#44aa00" />
</svg>
