<?xml version="1.0" encoding="UTF-8" standalone="no"?>
<svg
   xmlns:dc="http://purl.org/dc/elements/1.1/"
   xmlns:cc="http://creativecommons.org/ns#"
   xmlns:rdf="http://www.w3.org/1999/02/22-rdf-syntax-ns#"
   xmlns:svg="http://www.w3.org/2000/svg"
   xmlns="http://www.w3.org/2000/svg"
   xmlns:sodipodi="http://sodipodi.sourceforge.net/DTD/sodipodi-0.dtd"
   xmlns:inkscape="http://www.inkscape.org/namespaces/inkscape"
   version="1.1"
   x="0px"
   y="0px"
   viewBox="0 0 84.863 112.5"
   enable-background="new 0 0 84.863 90"
   xml:space="preserve"
   id="svg3852"
   sodipodi:docname="paper.svg"
   inkscape:version="0.92.2 5c3e80d, 2017-08-06"><metadata
     id="metadata3858"><rdf:RDF><cc:Work
         rdf:about=""><dc:format>image/svg+xml</dc:format><dc:type
           rdf:resource="http://purl.org/dc/dcmitype/StillImage" /></cc:Work></rdf:RDF></metadata><defs
     id="defs3856" /><sodipodi:namedview
     pagecolor="#ffffff"
     bordercolor="#666666"
     borderopacity="1"
     objecttolerance="10"
     gridtolerance="10"
     guidetolerance="10"
     inkscape:pageopacity="0"
     inkscape:pageshadow="2"
     inkscape:window-width="1285"
     inkscape:window-height="683"
     id="namedview3854"
     showgrid="false"
     inkscape:zoom="2.0977778"
     inkscape:cx="-16.440323"
     inkscape:cy="56.25"
     inkscape:window-x="0"
     inkscape:window-y="0"
     inkscape:window-maximized="0"
     inkscape:current-layer="svg3852" /><path
     d="M 29.413159,77.148778 H 65.54234 c 3.569569,0 6.466263,-2.892072 6.466263,-6.462566 -9.25e-4,-1.312477 -0.405759,-2.520511 -1.074938,-3.538144 h 4.110273 c 3.571418,0 6.464414,-2.895769 6.466263,-6.466263 -9.24e-4,-1.411375 -0.457519,-2.715534 -1.22652,-3.778456 2.725702,-0.759758 4.725844,-3.25439 4.725844,-6.220405 -9.24e-4,-3.568645 -2.893921,-6.461641 -6.467187,-6.46349 h -1.11006 c 0.670103,-1.018556 1.074013,-2.225666 1.075862,-3.535371 -0.0018,-3.571417 -2.893921,-6.465338 -6.465339,-6.467187 h -20.3471 c 1.17476,-0.830003 2.112904,-2.287593 2.088873,-4.104727 -0.0018,-1.095272 -0.297618,-2.286669 -0.901173,-3.612086 -0.201493,-0.44273 -0.625738,-0.740349 -1.111909,-0.779168 0,0 -0.04621,-0.0037 -0.207039,-0.02588 -1.122076,-0.157128 -6.536508,-1.14241 -13.325344,-6.445929 -0.266193,-0.208887 -0.598934,-0.307785 -0.936296,-0.280057 -0.05823,0.0074 -8.374901,0.688589 -16.807107,3.438322 -4.218414,1.380874 -8.475648,3.268254 -11.7744037,5.94959 C 5.4401084,31.011493 3.072103,34.601397 3.072103,39.097095 v 0.0268 c 0.00185,0.08688 0.00185,0.133096 0.00185,0.146036 l -0.00185,23.038603 c 0.00185,8.19744 6.6446489,14.842088 14.839316,14.842088 h 11.484179 c 0.0065,0 0.01202,0.0018 0.01756,0.0018 z M 40.371423,34.215972 h -8.302808 l 0.320726,-1.081408 c 0.111837,-0.111837 0.500959,-0.421471 1.804194,-0.44273 1.211731,-0.0037 3.190615,0.340135 6.177888,1.524138 z M 5.7506664,62.308538 c 0,0 -0.00185,-23.149517 -0.00185,-23.183715 0.01294,-3.534447 1.7672234,-6.310059 4.6648416,-8.689156 4.333025,-3.545538 11.154211,-5.817418 16.857019,-7.113259 2.854177,-0.653466 5.427372,-1.074013 7.284251,-1.332812 1.113757,-0.155279 1.960397,-0.249555 2.460433,-0.301315 6.407109,4.888517 11.716173,6.233344 13.705224,6.585495 0.280981,0.756061 0.3845,1.36701 0.382652,1.838393 -0.02311,0.994525 -0.36047,1.460362 -1.025951,1.966868 -1.249627,0.938144 -3.840384,1.179381 -4.986491,1.153501 -0.137717,0 -0.253252,-0.0018 -0.342908,-0.0037 -5.060433,-2.444721 -8.314822,-3.207252 -10.555277,-3.214646 -2.983576,-0.06655 -4.183291,1.635052 -4.272947,2.044508 l -0.932598,3.117596 c -0.061,0.207963 -0.124778,1.095272 -0.124778,1.095272 0,0 -0.01294,0.476004 -0.128475,1.303235 -0.333665,2.538997 -1.693281,7.668751 -5.841449,9.517311 -0.489869,0.225524 -0.780093,0.711695 -0.780093,1.216352 0,0.188553 0.03974,0.378031 0.125702,0.55919 0.30871,0.671951 1.103591,0.965872 1.775542,0.656238 3.734091,-1.7321 5.589121,-5.114965 6.523568,-7.918306 0.677498,-2.046356 0.898401,-3.841308 0.968646,-4.709207 H 72.0428 c 2.091646,0.0037 3.782154,1.696054 3.785851,3.786775 0.0037,1.613793 -1.013011,2.991895 -2.438251,3.536295 0,0 -29.45403,-9.24e-4 -29.46697,-9.24e-4 -0.741273,-0.0028 -1.342979,0.591539 -1.346676,1.330963 -0.0046,0.739424 0.592463,1.343904 1.332811,1.347601 h 34.632772 c 2.093494,0.0037 3.784002,1.696053 3.787699,3.784926 -0.0037,2.091646 -1.694205,3.783078 -3.787699,3.786775 H 41.915894 c -0.738499,0 -1.339281,0.599858 -1.339281,1.339282 0,0.740348 0.600782,1.340206 1.339281,1.340206 v -0.0018 h 34.475644 c 1.426164,0.545326 2.441024,1.918806 2.439175,3.534447 -0.0037,2.09257 -1.696054,3.784002 -3.786775,3.7877 H 40.518383 c -0.7385,0 -1.340206,0.598933 -1.340206,1.339281 0,0.740349 0.601706,1.341131 1.340206,1.341131 v -0.0018 h 26.375254 c 1.423391,0.547174 2.437326,1.922502 2.435478,3.538144 -0.0037,2.090721 -1.69513,3.780305 -3.786775,3.784002 H 29.409462 17.911419 C 11.196524,74.457275 5.7636063,69.025281 5.7506664,62.308538 Z"
     id="path3846"
     inkscape:connector-curvature="0"
     style="stroke-width:0.92427999" /></svg>