<?xml version="1.0" encoding="UTF-8" standalone="no"?>
<svg
   xmlns:dc="http://purl.org/dc/elements/1.1/"
   xmlns:cc="http://creativecommons.org/ns#"
   xmlns:rdf="http://www.w3.org/1999/02/22-rdf-syntax-ns#"
   xmlns:svg="http://www.w3.org/2000/svg"
   xmlns="http://www.w3.org/2000/svg"
   xmlns:sodipodi="http://sodipodi.sourceforge.net/DTD/sodipodi-0.dtd"
   xmlns:inkscape="http://www.inkscape.org/namespaces/inkscape"
   version="1.1"
   x="0px"
   y="0px"
   viewBox="0 0 66 51"
   enable-background="new 0 0 78 78"
   xml:space="preserve"
   id="svg2"
   inkscape:version="0.92.2 5c3e80d, 2017-08-06"
   sodipodi:docname="pixie_paper.svg"
   width="66"
   height="51"><metadata
     id="metadata40"><rdf:RDF><cc:Work
         rdf:about=""><dc:format>image/svg+xml</dc:format><dc:type
           rdf:resource="http://purl.org/dc/dcmitype/StillImage" /><dc:title>Hand Left Paper</dc:title></cc:Work></rdf:RDF></metadata><defs
     id="defs38" /><sodipodi:namedview
     pagecolor="#ffffff"
     bordercolor="#666666"
     borderopacity="1"
     objecttolerance="10"
     gridtolerance="10"
     guidetolerance="10"
     inkscape:pageopacity="0"
     inkscape:pageshadow="2"
     inkscape:window-width="754"
     inkscape:window-height="480"
     id="namedview36"
     showgrid="false"
     fit-margin-top="0"
     fit-margin-left="0"
     fit-margin-right="0"
     fit-margin-bottom="0"
     inkscape:zoom="3.025641"
     inkscape:cx="2.6819471"
     inkscape:cy="24"
     inkscape:window-x="348"
     inkscape:window-y="77"
     inkscape:window-maximized="0"
     inkscape:current-layer="svg2" /><title
     id="title4">Hand Left Paper</title><desc
     id="desc6">Created with Sketch.</desc><g
     id="g8"
     transform="translate(-6,-12)"
     style="fill:#008080"><rect
       x="45"
       y="18"
       width="6"
       height="3"
       id="rect10"
       style="fill:#008080" /><rect
       x="51"
       y="21"
       width="6"
       height="3"
       id="rect12"
       style="fill:#008080" /><rect
       x="57"
       y="24"
       width="6"
       height="3"
       id="rect14"
       style="fill:#008080" /><rect
       x="18"
       y="60"
       width="36"
       height="3"
       id="rect16"
       style="fill:#008080" /><rect
       x="6"
       y="36"
       width="3"
       height="6"
       id="rect18"
       style="fill:#008080" /><rect
       x="42"
       y="15"
       width="3"
       height="3"
       id="rect20"
       style="fill:#008080" /><path
       d="m 48,24 c -3,0 -6,0 -9,0 v -3 h -3 v 3 H 15 v 3 c 11,0 22,0 33,0 z"
       id="path22"
       inkscape:connector-curvature="0"
       style="fill:#008080" /><rect
       x="54"
       y="57"
       width="9"
       height="3"
       id="rect24"
       style="fill:#008080" /><path
       d="m 45,54 v -3 c -11,0 -22,0 -33,0 v 3 h 3 c 0,2 0,4 0,6 h 3 c 0,-2 0,-4 0,-6 9,0 18,0 27,0 z"
       id="path26"
       inkscape:connector-curvature="0"
       style="fill:#008080" /><path
       d="m 69,27 h -6 v 3 h 6 v 24 h -6 v 3 h 9 c 0,-10 0,-20 0,-30 z"
       id="path28"
       inkscape:connector-curvature="0"
       style="fill:#008080" /><path
       d="m 39,33 c -8,0 -16,0 -24,0 v -6 h -3 v 6 H 9 v 3 c 10,0 20,0 30,0 z"
       id="path30"
       inkscape:connector-curvature="0"
       style="fill:#008080" /><path
       d="m 39,45 v -3 c -10,0 -20,0 -30,0 0,3 0,6 0,9 h 3 v -6 z"
       id="path32"
       inkscape:connector-curvature="0"
       style="fill:#008080" /><path
       d="m 42,15 v -3 c -3,0 -6,0 -9,0 v 9 h 3 v -6 z"
       id="path34"
       inkscape:connector-curvature="0"
       style="fill:#008080" /></g></svg>