<?xml version="1.0" encoding="UTF-8" standalone="no"?>
<svg
   xmlns:dc="http://purl.org/dc/elements/1.1/"
   xmlns:cc="http://creativecommons.org/ns#"
   xmlns:rdf="http://www.w3.org/1999/02/22-rdf-syntax-ns#"
   xmlns:svg="http://www.w3.org/2000/svg"
   xmlns="http://www.w3.org/2000/svg"
   xmlns:sodipodi="http://sodipodi.sourceforge.net/DTD/sodipodi-0.dtd"
   xmlns:inkscape="http://www.inkscape.org/namespaces/inkscape"
   viewBox="0 0 48 48"
   version="1.1"
   x="0px"
   y="0px"
   id="svg2"
   inkscape:version="0.92.2 5c3e80d, 2017-08-06"
   sodipodi:docname="pixie_rock.svg"
   width="48"
   height="48">
  <metadata
     id="metadata18">
    <rdf:RDF>
      <cc:Work
         rdf:about="">
        <dc:format>image/svg+xml</dc:format>
        <dc:type
           rdf:resource="http://purl.org/dc/dcmitype/StillImage" />
        <dc:title>Hand Left Rock</dc:title>
      </cc:Work>
    </rdf:RDF>
  </metadata>
  <defs
     id="defs16" />
  <sodipodi:namedview
     pagecolor="#ffffff"
     bordercolor="#666666"
     borderopacity="1"
     objecttolerance="10"
     gridtolerance="10"
     guidetolerance="10"
     inkscape:pageopacity="0"
     inkscape:pageshadow="2"
     inkscape:window-width="754"
     inkscape:window-height="480"
     id="namedview14"
     showgrid="false"
     fit-margin-top="0"
     fit-margin-left="0"
     fit-margin-right="0"
     fit-margin-bottom="0"
     inkscape:zoom="3.025641"
     inkscape:cx="27.063559"
     inkscape:cy="27.271521"
     inkscape:window-x="0"
     inkscape:window-y="0"
     inkscape:window-maximized="0"
     inkscape:current-layer="svg2" />
  <title
     id="title4">Hand Left Rock</title>
  <desc
     id="desc6">Created with Sketch.</desc>
  <g
     id="g8"
     transform="translate(-24,-15)"
     style="fill:#008080;fill-rule:evenodd;stroke:none;stroke-width:1">
    <g
       id="g10"
       style="fill:#008080">
      <path
         d="m 69,30 v 24 h -6 v 3 h 9 V 55 28.5 27 h -6 v 3 z M 54,57 v 3 h 9 v -3 z m -18,3 v 3 H 54 V 60 Z M 30,33 v 3 h 9 v -3 z m 3,24 v 3 h 3 V 57 Z M 60,24 v 3 h 6 V 24 Z M 36,21 v 3 h 3 v -3 z m 3,-3 v 3 h 3 v -3 z m 15,0 v 3 h 3 v -3 z m 3,3 v 3 h 3 V 21 Z M 42,15 v 3 h 12 v -3 z m -9,36 v 3 h 9 v -3 z m -3,-9 v 3 h 9 v -3 z m 0,-18 v 3 h 24 v -3 z m 0,27 v 6 h 3 v -6 z m -3,-9 v 9 h 3 v -9 z m -3,-6 v 6 h 3 v -6 z m 3,-9 v 9 h 3 v -9 z"
         id="path12"
         inkscape:connector-curvature="0"
         style="fill:#008080" />
    </g>
  </g>
</svg>
