<?xml version="1.0" encoding="UTF-8" standalone="no"?>
<svg
   xmlns:dc="http://purl.org/dc/elements/1.1/"
   xmlns:cc="http://creativecommons.org/ns#"
   xmlns:rdf="http://www.w3.org/1999/02/22-rdf-syntax-ns#"
   xmlns:svg="http://www.w3.org/2000/svg"
   xmlns="http://www.w3.org/2000/svg"
   xmlns:sodipodi="http://sodipodi.sourceforge.net/DTD/sodipodi-0.dtd"
   xmlns:inkscape="http://www.inkscape.org/namespaces/inkscape"
   viewBox="0 0 66 45"
   version="1.1"
   x="0px"
   y="0px"
   id="svg2"
   inkscape:version="0.92.2 5c3e80d, 2017-08-06"
   sodipodi:docname="pixie_scissors.svg"
   width="66"
   height="45">
  <metadata
     id="metadata18">
    <rdf:RDF>
      <cc:Work
         rdf:about="">
        <dc:format>image/svg+xml</dc:format>
        <dc:type
           rdf:resource="http://purl.org/dc/dcmitype/StillImage" />
        <dc:title>Hand Right Two</dc:title>
      </cc:Work>
    </rdf:RDF>
  </metadata>
  <defs
     id="defs16" />
  <sodipodi:namedview
     pagecolor="#ffffff"
     bordercolor="#666666"
     borderopacity="1"
     objecttolerance="10"
     gridtolerance="10"
     guidetolerance="10"
     inkscape:pageopacity="0"
     inkscape:pageshadow="2"
     inkscape:window-width="754"
     inkscape:window-height="480"
     id="namedview14"
     showgrid="false"
     fit-margin-top="0"
     fit-margin-left="0"
     fit-margin-right="0"
     fit-margin-bottom="0"
     inkscape:zoom="3.025641"
     inkscape:cx="48.009367"
     inkscape:cy="22.5"
     inkscape:window-x="0"
     inkscape:window-y="0"
     inkscape:window-maximized="0"
     inkscape:current-layer="svg2" />
  <title
     id="title4">Hand Right Two</title>
  <desc
     id="desc6">Created with Sketch.</desc>
  <g
     id="g8"
     transform="rotate(-90,28.5,34.5)"
     style="fill:#008080;fill-rule:evenodd;stroke:none;stroke-width:1">
    <g
       id="g10"
       style="fill:#008080">
      <path
         d="M 18,43.5 V 54 h 3 V 43.5 33 H 18 Z M 27,69 h 27 v 3 H 26 24 v -9 h 3 z M 21,54 h 3 v 9 h -3 z m 6,-21 h 3 v 3 h -3 z m 0,3 h 3 v 3 h -3 z m 27,21 h 3 v 6 h -3 z m 3,-21 h 3 v 3 h -3 z m 0,3 h 3 v 3 h -3 z m 0,15 h 3 v 3 h -3 z m 0,-12 h 3 v 12 h -3 z m -6,21 h 3 v 6 H 51 Z M 36,27 h 3 v 12 h -3 z m -3,-9 h 3 v 9 H 33 Z M 30,9 h 3 v 9 h -3 z m 21,0 h 3 v 9 H 51 Z M 39,9 h 3 v 9 h -3 z m 21,0 h 3 v 9 h -3 z m -18,9 h 3 v 9 h -3 z m 3,9 h 3 v 9 h -3 z m 9,0 h 3 v 9 H 54 Z M 39,39 h -3 v 3 h 3 z m -9,0 h -3 v 3 h 3 z m -9,-9 h 3 v 3 h -3 z m 6,15 h -6 v 3 h 6 z M 24,30 h 6 v 3 h -6 z m 9,18 h -3 v 3 h 3 z m -3,-6 h -3 v 9 h 3 z M 48,18 h 3 v 9 h -3 z m 9,0 h 3 v 9 h -3 z m -27,9 h 6 v 3 H 30 Z M 33,6 h 6 v 3 h -6 z m 21,0 h 6 V 9 H 54 Z M 39,42 h -3 v 3 h 3 z m -3,3 h -3 v 3 h 3 z m 0,3 h -3 v 3 h 3 z m 6,-6 h -3 v 3 h 3 z m 3,0 h -3 v 3 h 3 z m 6,12 h -3 v 3 h 3 z M 48,51 H 36 v 3 h 12 z m 6,-9 h -9 v 3 h 9 z"
         id="path12"
         inkscape:connector-curvature="0"
         style="fill:#008080" />
    </g>
  </g>
</svg>
