<?xml version="1.0" encoding="UTF-8" standalone="no"?>
<svg
   xmlns:dc="http://purl.org/dc/elements/1.1/"
   xmlns:cc="http://creativecommons.org/ns#"
   xmlns:rdf="http://www.w3.org/1999/02/22-rdf-syntax-ns#"
   xmlns:svg="http://www.w3.org/2000/svg"
   xmlns="http://www.w3.org/2000/svg"
   xmlns:sodipodi="http://sodipodi.sourceforge.net/DTD/sodipodi-0.dtd"
   xmlns:inkscape="http://www.inkscape.org/namespaces/inkscape"
   version="1.1"
   x="0px"
   y="0px"
   viewBox="0 0 78.961891 38.714268"
   enable-background="new 0 0 100 100"
   xml:space="preserve"
   id="svg2"
   inkscape:version="0.92.2 5c3e80d, 2017-08-06"
   sodipodi:docname="regal_scissors.svg"
   width="78.961891"
   height="38.714268"><metadata
     id="metadata32"><rdf:RDF><cc:Work
         rdf:about=""><dc:format>image/svg+xml</dc:format><dc:type
           rdf:resource="http://purl.org/dc/dcmitype/StillImage" /><dc:title /></cc:Work></rdf:RDF></metadata><defs
     id="defs30" /><sodipodi:namedview
     pagecolor="#ffffff"
     bordercolor="#666666"
     borderopacity="1"
     objecttolerance="10"
     gridtolerance="10"
     guidetolerance="10"
     inkscape:pageopacity="0"
     inkscape:pageshadow="2"
     inkscape:window-width="1126"
     inkscape:window-height="647"
     id="namedview28"
     showgrid="false"
     fit-margin-top="0"
     fit-margin-left="0"
     fit-margin-right="0"
     fit-margin-bottom="0"
     inkscape:zoom="2.36"
     inkscape:cx="-13.128508"
     inkscape:cy="19.858186"
     inkscape:window-x="0"
     inkscape:window-y="0"
     inkscape:window-maximized="0"
     inkscape:current-layer="svg2" /><g
     id="g3360"
     transform="matrix(0,1,1,0,-11.020106,-30.92181)"
     style="fill:#ffcc00"><path
       id="path4"
       d="m 57.607,47.729 c -0.372,0 -0.753,-0.053 -1.113,-0.191 -0.652,-0.25 -1.143,-0.737 -1.419,-1.409 -0.21,-0.511 0.033,-1.095 0.544,-1.305 0.514,-0.209 1.096,0.034 1.306,0.544 0.083,0.201 0.187,0.264 0.286,0.302 0.454,0.174 1.269,-0.059 1.684,-0.231 3.028,-2.789 2.428,-6.124 2.304,-6.668 -0.816,-1.542 -3.034,-1.162 -3.131,-1.145 -0.532,0.095 -1.062,-0.259 -1.163,-0.802 -0.1,-0.542 0.254,-1.062 0.795,-1.164 0.161,-0.03 3.899,-0.701 5.345,2.33 0.024,0.051 0.044,0.104 0.06,0.158 0.058,0.203 1.36,5.012 -2.99,8.886 -0.069,0.062 -0.148,0.114 -0.232,0.155 -0.149,0.07 -1.169,0.54 -2.276,0.54 z"
       inkscape:connector-curvature="0"
       style="fill:#ffcc00" /><path
       id="path6"
       d="m 46.515,57.147 c -0.621,0 -1.275,-0.074 -1.962,-0.244 -0.536,-0.133 -0.863,-0.675 -0.73,-1.211 0.132,-0.536 0.672,-0.862 1.211,-0.73 4.075,1.005 6.767,-2.497 6.879,-2.646 1.974,-2.862 2.714,-7.586 2.722,-7.633 0.153,-2.805 -1.479,-3.117 -1.496,-3.12 -0.105,-0.018 -0.208,-0.053 -0.303,-0.104 -0.354,-0.189 -0.56,-0.146 -0.697,-0.087 -0.683,0.292 -1.265,1.648 -1.425,2.222 -0.278,1.404 -1.786,2.411 -2.442,2.789 -0.341,0.393 -1.255,0.66 -4.591,0.363 -0.55,-0.049 -0.956,-0.535 -0.907,-1.085 0.049,-0.55 0.533,-0.951 1.085,-0.907 1.158,0.103 2.601,0.153 3.1,0.076 0.042,-0.031 0.088,-0.058 0.136,-0.082 0.489,-0.248 1.546,-0.971 1.676,-1.619 0.097,-0.355 0.839,-2.85 2.583,-3.595 0.514,-0.22 1.319,-0.374 2.29,0.093 1.206,0.295 3.18,1.702 2.979,5.263 -0.042,0.306 -0.824,5.317 -3.084,8.593 -0.146,0.194 -2.783,3.664 -7.024,3.664 z"
       inkscape:connector-curvature="0"
       style="fill:#ffcc00" /><path
       id="path8"
       d="m 52.336,59.357 c -0.229,0 -0.459,-0.078 -0.647,-0.238 -0.421,-0.357 -0.473,-0.988 -0.114,-1.409 0.437,-0.563 1.097,-4.055 1.438,-6.959 0.064,-0.548 0.555,-0.944 1.11,-0.876 0.548,0.064 0.94,0.562 0.876,1.11 -0.237,2.019 -0.897,6.84 -1.901,8.021 -0.198,0.231 -0.479,0.351 -0.762,0.351 z"
       inkscape:connector-curvature="0"
       style="fill:#ffcc00" /><path
       id="path10"
       d="m 55.222,42.234 c -0.146,0 -0.289,-0.023 -0.42,-0.069 -0.521,-0.186 -0.792,-0.758 -0.605,-1.278 0.137,-0.385 0.485,-0.633 0.867,-0.662 0.09,-0.114 0.271,-0.404 0.46,-1.059 l 1.049,-3.509 C 56.57,35.382 56.421,34.453 54.605,34.065 l -1.392,-0.204 c -0.276,-0.053 -1.391,-0.227 -1.616,0.592 l -0.478,3.979 c -0.011,0.093 -0.035,0.184 -0.071,0.27 -0.065,0.16 -0.118,0.368 -0.139,0.527 0.067,-0.009 0.154,-0.024 0.263,-0.052 0.534,-0.139 1.08,0.186 1.217,0.721 0.137,0.535 -0.186,1.08 -0.721,1.217 -1.299,0.334 -1.986,-0.077 -2.332,-0.478 -0.721,-0.837 -0.363,-2.092 -0.187,-2.568 l 0.47,-3.915 c 0.004,-0.035 0.01,-0.07 0.018,-0.104 0.477,-2.085 2.605,-2.432 3.928,-2.157 l 1.396,0.205 c 3.16,0.675 3.727,2.822 3.594,3.864 -0.007,0.054 -0.019,0.107 -0.034,0.159 l -1.078,3.61 c -0.354,1.227 -0.848,1.991 -1.505,2.327 -0.229,0.117 -0.478,0.176 -0.716,0.176 z"
       inkscape:connector-curvature="0"
       style="fill:#ffcc00" /><path
       id="path12"
       d="m 48.727,45.563 c -0.352,0 -0.693,-0.186 -0.875,-0.515 -0.093,-0.165 -2.326,-4.017 -8.293,-4.064 -0.553,-0.004 -0.997,-0.456 -0.992,-1.008 0.005,-0.552 0.413,-0.997 1.008,-0.992 7.186,0.058 9.916,4.894 10.029,5.099 0.266,0.484 0.088,1.092 -0.396,1.357 -0.154,0.084 -0.319,0.123 -0.481,0.123 z"
       inkscape:connector-curvature="0"
       style="fill:#ffcc00" /><path
       id="path14"
       d="m 50.976,70.716 c -5.343,0 -10.205,-1.769 -10.518,-1.885 -0.473,-0.176 -0.741,-0.676 -0.626,-1.166 0.119,-0.506 0.217,-3.409 0.243,-5.924 0.028,-0.576 -0.429,-1.716 -0.776,-2.386 l -2.347,-3.469 c -1.559,-1.255 -1.616,-5.192 -1.564,-6.882 -0.024,-0.491 -0.925,-8.649 -1.525,-14 -0.425,-2.103 -1.06,-7.484 -1.086,-7.712 -0.635,-2.939 -1.793,-9.982 -1.842,-10.281 -0.028,-0.17 -0.011,-0.344 0.047,-0.505 0.732,-2.004 2.221,-2.447 3.173,-2.402 0.522,-0.198 1.069,-0.212 1.599,-0.037 1.39,0.456 2.199,2.078 2.287,2.261 0.035,0.073 0.061,0.149 0.077,0.228 l 3.451,16.607 c 0.056,0.106 0.108,0.195 0.155,0.27 0.959,-2.871 4.955,-14.95 5.513,-18.669 0.259,-1.726 0.946,-2.876 2.042,-3.42 1.484,-0.736 3.054,-0.012 3.398,0.164 2.062,0.895 1.853,3.754 1.399,5.313 l -1.186,4.729 -1.824,8.265 c -0.064,1.069 -0.676,11.008 -1.204,14.071 -0.094,0.543 -0.607,0.912 -1.155,0.815 -0.544,-0.094 -0.909,-0.611 -0.815,-1.155 0.528,-3.062 1.176,-13.822 1.183,-13.93 0.003,-0.053 0.01,-0.105 0.021,-0.156 l 1.848,-8.37 1.202,-4.792 c 0.26,-0.91 0.433,-2.669 -0.28,-2.962 -0.034,-0.014 -0.067,-0.03 -0.1,-0.048 -0.004,-0.002 -0.948,-0.484 -1.605,-0.15 -0.589,0.297 -0.84,1.209 -0.947,1.922 -0.658,4.385 -5.593,19.008 -5.803,19.628 -0.021,0.064 -0.049,0.125 -0.083,0.184 -0.246,0.422 -0.807,0.891 -1.522,0.883 -1.198,-0.039 -1.864,-1.372 -2.083,-1.81 -0.039,-0.077 -0.067,-0.159 -0.084,-0.244 L 36.188,17.094 c -0.224,-0.414 -0.675,-1.004 -1.059,-1.128 -0.097,-0.032 -0.194,-0.036 -0.345,0.045 -0.211,0.113 -0.456,0.146 -0.688,0.094 -0.154,-0.025 -0.73,-0.039 -1.142,0.86 0.225,1.359 1.225,7.351 1.793,10.001 0.021,0.148 0.667,5.621 1.089,7.73 0.476,4.208 1.55,13.851 1.55,14.339 -0.071,2.393 0.32,4.946 0.805,5.283 0.101,0.07 0.248,0.197 0.316,0.299 l 2.479,3.664 c 0.021,0.03 0.039,0.061 0.056,0.093 0.184,0.347 1.095,2.141 1.031,3.428 -0.006,0.686 -0.045,3.73 -0.179,5.401 2.513,0.789 10.838,3.019 16.239,-0.138 l 0.046,-3.334 c 10e-4,-0.038 0.003,-0.076 0.008,-0.113 0.032,-0.247 0.34,-2.362 1.713,-3.541 0.274,-0.543 1.148,-2.436 1.188,-4.595 L 60.927,43.93 c -0.008,-0.552 0.434,-1.006 0.986,-1.014 0.533,-0.024 1.006,0.434 1.014,0.986 l 0.161,11.584 c -0.058,3.107 -1.471,5.629 -1.531,5.734 -0.068,0.121 -0.162,0.227 -0.274,0.31 -0.701,0.519 -1.026,1.782 -1.104,2.292 l -0.053,3.815 c -0.005,0.331 -0.173,0.638 -0.448,0.82 -2.577,1.706 -5.715,2.259 -8.702,2.259 z"
       inkscape:connector-curvature="0"
       style="fill:#ffcc00" /><path
       id="path16"
       d="m 52.691,85.539 c -0.282,0 -0.566,-0.08 -0.827,-0.237 -0.851,-0.512 -1.54,-2.047 -2.045,-3.601 -1.154,1.536 -2.767,2.522 -2.876,2.588 -0.077,0.047 -0.159,0.082 -0.245,0.106 -0.436,0.121 -0.893,0.031 -1.254,-0.25 -0.917,-0.711 -1.237,-3.047 -1.308,-5.442 -1.497,0.902 -3.522,1.654 -4.954,2.126 -0.373,0.123 -0.785,0.016 -1.051,-0.276 -0.265,-0.291 -0.335,-0.71 -0.179,-1.071 2.237,-5.158 1.872,-11.366 1.868,-11.428 -0.035,-0.552 0.383,-1.026 0.935,-1.062 0.545,-0.032 1.026,0.384 1.062,0.935 0.015,0.24 0.31,5.261 -1.258,10.268 1.873,-0.759 3.391,-1.582 3.616,-2.013 0.11,-0.504 0.578,-0.824 1.087,-0.752 0.511,0.061 0.884,0.528 0.872,1.043 -0.053,2.292 0.124,4.648 0.4,5.678 1.062,-0.797 2.589,-2.281 2.439,-3.73 -0.055,-0.529 0.315,-1.009 0.841,-1.091 0.521,-0.082 1.024,0.263 1.133,0.784 0.457,2.188 1.189,4.372 1.708,5.187 0.834,-0.884 2.006,-2.512 1.703,-3.978 -0.004,-0.021 -0.007,-0.035 -0.009,-0.043 -0.11,-0.538 0.233,-1.064 0.771,-1.18 0.534,-0.115 1.066,0.226 1.185,0.764 0.004,0.019 0.008,0.036 0.012,0.055 0.224,1.028 1.046,3.397 2.544,4.281 0.277,-1.17 0.583,-2.822 0.435,-3.733 -0.076,-0.472 0.191,-0.931 0.64,-1.098 0.443,-0.165 0.949,0.007 1.2,0.415 0.589,0.96 1.607,2.29 2.482,3.024 -1.747,-3.566 -5.396,-11.287 -5.502,-13.774 -0.023,-0.552 0.404,-1.019 0.956,-1.042 0.558,-0.035 1.019,0.404 1.042,0.956 0.085,2 3.814,10.067 6.146,14.682 0.214,0.423 0.102,0.938 -0.269,1.232 -0.511,0.408 -1.13,0.563 -1.789,0.446 -1.098,-0.192 -2.203,-1.168 -3.08,-2.171 -0.221,1.296 -0.545,2.433 -0.606,2.643 -0.141,0.482 -0.619,0.792 -1.116,0.707 -1.776,-0.281 -2.978,-1.571 -3.761,-2.903 -0.839,1.553 -2.074,2.623 -2.16,2.697 -0.108,0.092 -0.234,0.16 -0.371,0.2 -0.138,0.039 -0.277,0.058 -0.417,0.058 z"
       inkscape:connector-curvature="0"
       style="fill:#ffcc00" /><path
       id="path18"
       d="m 36.807,83.797 c -0.828,0 -1.505,-0.671 -1.513,-1.5 -0.003,-0.405 0.152,-0.786 0.435,-1.073 0.284,-0.288 0.662,-0.448 1.066,-0.451 0.447,-0.021 0.782,0.15 1.07,0.433 0.289,0.283 0.45,0.662 0.453,1.066 0.007,0.833 -0.665,1.517 -1.498,1.525 -0.004,-10e-4 -0.008,0 -0.013,0 z m -0.006,-2 c -0.268,0.003 -0.484,0.224 -0.481,0.492 10e-4,0.128 0.054,0.253 0.146,0.344 0.091,0.089 0.25,0.138 0.345,0.14 z m 0.007,0 c -10e-4,0 -0.002,0 -0.003,0 l 0.007,0.976 c 0,0 0.001,0 0.002,0 0.125,-10e-4 0.251,-0.054 0.341,-0.146 0.09,-0.092 0.141,-0.218 0.14,-0.346 -0.003,-0.268 -0.221,-0.484 -0.487,-0.484 z"
       inkscape:connector-curvature="0"
       style="fill:#ffcc00" /><path
       id="path20"
       d="m 44.555,88.5 c -0.828,0 -1.505,-0.67 -1.513,-1.499 -0.006,-0.836 0.668,-1.52 1.501,-1.525 0.005,0 0.011,0 0.016,0 0.395,0 0.77,0.153 1.055,0.433 0.289,0.283 0.45,0.662 0.453,1.066 0.003,0.404 -0.151,0.786 -0.435,1.074 -0.284,0.288 -0.663,0.448 -1.067,0.451 v 0 c -0.003,0 -0.006,0 -0.01,0 z m 0,-2 c -10e-4,0 -0.002,0 -0.003,0 v 0 c -0.129,0.001 -0.254,0.054 -0.345,0.146 -0.091,0.092 -0.141,0.218 -0.14,0.347 10e-4,0.128 0.054,0.253 0.146,0.344 0.092,0.09 0.238,0.136 0.348,0.14 0.266,-0.002 0.483,-0.222 0.481,-0.49 C 45.04,86.716 44.822,86.5 44.555,86.5 Z"
       inkscape:connector-curvature="0"
       style="fill:#ffcc00" /><path
       id="path22"
       d="m 52.655,89.982 c -0.398,0 -0.774,-0.153 -1.059,-0.434 -0.289,-0.283 -0.449,-0.662 -0.452,-1.067 -0.004,-0.401 0.149,-0.783 0.434,-1.071 0.283,-0.289 0.662,-0.449 1.067,-0.452 0.411,-0.022 0.784,0.151 1.072,0.435 0.288,0.284 0.448,0.663 0.451,1.067 0.003,0.403 -0.151,0.783 -0.435,1.071 -0.283,0.287 -0.66,0.447 -1.062,0.451 v 0 c -0.005,0 -0.01,0 -0.016,0 z m -0.003,-2 c -0.129,0.001 -0.254,0.055 -0.344,0.146 -0.09,0.092 -0.141,0.218 -0.14,0.346 10e-4,0.129 0.054,0.254 0.146,0.345 0.091,0.089 0.2,0.093 0.345,0.14 0.129,-0.001 0.255,-0.054 0.345,-0.146 0.091,-0.092 0.142,-0.219 0.141,-0.348 C 53.144,88.34 53.091,88.214 52.999,88.124 52.906,88.032 52.809,88 52.652,87.982 Z"
       inkscape:connector-curvature="0"
       style="fill:#ffcc00" /><path
       id="path24"
       d="m 60.96,89.64 c -0.398,0 -0.774,-0.153 -1.059,-0.434 -0.289,-0.283 -0.449,-0.662 -0.452,-1.067 -0.006,-0.834 0.668,-1.518 1.501,-1.523 0.375,-0.032 0.784,0.151 1.072,0.435 0.288,0.284 0.448,0.663 0.451,1.067 0.004,0.4 -0.149,0.782 -0.434,1.07 -0.282,0.288 -0.66,0.448 -1.063,0.452 v 0 c -0.005,0 -0.01,0 -0.016,0 z m -0.003,-2 c -0.128,0.001 -0.253,0.055 -0.343,0.146 -0.091,0.092 -0.142,0.219 -0.141,0.349 10e-4,0.125 0.054,0.25 0.146,0.341 0.091,0.09 0.211,0.115 0.345,0.14 0.27,-0.002 0.487,-0.222 0.485,-0.49 -10e-4,-0.129 -0.054,-0.255 -0.146,-0.345 -0.092,-0.092 -0.244,-0.168 -0.346,-0.141 z"
       inkscape:connector-curvature="0"
       style="fill:#ffcc00" /><path
       id="path26"
       d="m 68.125,87.775 c -0.829,0 -1.507,-0.671 -1.513,-1.501 -0.003,-0.403 0.151,-0.784 0.435,-1.072 0.284,-0.288 0.663,-0.448 1.067,-0.451 0.369,-0.033 0.783,0.151 1.071,0.435 0.288,0.284 0.448,0.662 0.451,1.066 0.004,0.401 -0.149,0.783 -0.434,1.071 -0.283,0.289 -0.662,0.449 -1.067,0.452 -0.003,0 -0.006,0 -0.01,0 z m 0,-2 c -0.104,-0.025 -0.257,0.053 -0.348,0.146 -0.091,0.092 -0.142,0.219 -0.141,0.348 0.001,0.125 0.054,0.251 0.146,0.342 0.092,0.09 0.237,0.164 0.346,0.14 0.129,-0.001 0.254,-0.054 0.345,-0.146 0.09,-0.092 0.141,-0.217 0.14,-0.345 -0.003,-0.268 -0.22,-0.485 -0.488,-0.485 z"
       inkscape:connector-curvature="0"
       style="fill:#ffcc00" /></g></svg>