<?xml version="1.0" encoding="UTF-8" standalone="no"?>
<svg
   xmlns:dc="http://purl.org/dc/elements/1.1/"
   xmlns:cc="http://creativecommons.org/ns#"
   xmlns:rdf="http://www.w3.org/1999/02/22-rdf-syntax-ns#"
   xmlns:svg="http://www.w3.org/2000/svg"
   xmlns="http://www.w3.org/2000/svg"
   xmlns:sodipodi="http://sodipodi.sourceforge.net/DTD/sodipodi-0.dtd"
   xmlns:inkscape="http://www.inkscape.org/namespaces/inkscape"
   version="1.1"
   x="0px"
   y="0px"
   viewBox="0 0 100 100"
   enable-background="new 0 0 100 100"
   xml:space="preserve"
   id="svg5754"
   sodipodi:docname="regal_waiting.svg"
   inkscape:version="0.92.2 5c3e80d, 2017-08-06"><metadata
     id="metadata5760"><rdf:RDF><cc:Work
         rdf:about=""><dc:format>image/svg+xml</dc:format><dc:type
           rdf:resource="http://purl.org/dc/dcmitype/StillImage" /></cc:Work></rdf:RDF></metadata><defs
     id="defs5758" /><sodipodi:namedview
     pagecolor="#ffffff"
     bordercolor="#666666"
     borderopacity="1"
     objecttolerance="10"
     gridtolerance="10"
     guidetolerance="10"
     inkscape:pageopacity="0"
     inkscape:pageshadow="2"
     inkscape:window-width="1040"
     inkscape:window-height="623"
     id="namedview5756"
     showgrid="false"
     inkscape:zoom="2.36"
     inkscape:cx="-20.550847"
     inkscape:cy="50"
     inkscape:window-x="0"
     inkscape:window-y="0"
     inkscape:window-maximized="0"
     inkscape:current-layer="svg5754" /><path
     stroke-miterlimit="10"
     d="m 54.219,39.097 -5.932,0.105 c 0,0 -2.264,0.189 -3.71,-1.006 l -2.389,-1.698 c 0,0 -1.446,-1.949 -4.276,-1.383 L 19.928,35.052 c 0,0 -3.584,-0.377 -4.465,1.824 l -0.503,1.32 c 0,0 -1.32,3.081 3.396,2.389"
     id="path5724"
     style="fill:none;fill-opacity:1;stroke:#ffcc00;stroke-width:2;stroke-linecap:round;stroke-linejoin:round;stroke-miterlimit:10"
     inkscape:connector-curvature="0" /><path
     stroke-miterlimit="10"
     d="m 16.093,40.774 c 0,0 -3.144,-0.189 -2.955,1.886 l -0.44,4.087 c 0,0 0.189,1.635 2.138,1.509 l 2.264,0.063"
     id="path5726"
     style="fill:none;fill-opacity:1;stroke:#ffcc00;stroke-width:2;stroke-linecap:round;stroke-linejoin:round;stroke-miterlimit:10"
     inkscape:connector-curvature="0" /><path
     stroke-miterlimit="10"
     d="m 13.955,48.383 c 0,0 -2.201,-0.252 -2.578,2.138 l -0.189,3.333 c 0,0 -0.314,3.144 2.138,2.955 l 2.641,0.126"
     id="path5728"
     style="fill:none;fill-opacity:1;stroke:#ffcc00;stroke-width:2;stroke-linecap:round;stroke-linejoin:round;stroke-miterlimit:10"
     inkscape:connector-curvature="0" /><path
     stroke-miterlimit="10"
     d="m 12.571,57.06 c 0,0 -1.509,0.126 -1.635,1.446 l 0.063,3.647 c 0,0 0.189,3.899 4.465,3.207 l 8.489,0.44 2.327,0.314 c 0,0 1.32,0.44 1.195,1.886"
     id="path5730"
     style="fill:none;fill-opacity:1;stroke:#ffcc00;stroke-width:2;stroke-linecap:round;stroke-linejoin:round;stroke-miterlimit:10"
     inkscape:connector-curvature="0" /><path
     stroke-miterlimit="10"
     d="m 20.494,66.052 c 0,0 -2.138,0.44 -2.641,1.949 0,0 -0.692,1.886 0,2.83 0,0 1.132,2.201 4.968,2.012 l 11.004,0.252 c 0,0 3.836,-0.252 4.527,-2.201 l 7.168,-10.25 c 0,0 1.195,-2.075 4.527,-1.824 l 4.61,0.017"
     id="path5732"
     style="fill:none;stroke:#ffcc00;stroke-width:2;stroke-linecap:round;stroke-linejoin:round;stroke-miterlimit:10"
     inkscape:connector-curvature="0" /><polyline
     stroke-miterlimit="10"
     points="  46.105,54.796 46.168,61.587 36.421,61.839 36.296,54.796 "
     id="polyline5734"
     style="fill:none;fill-opacity:1;stroke:#ffcc00;stroke-width:2;stroke-linecap:round;stroke-linejoin:round;stroke-miterlimit:10"
     transform="matrix(-1,0,0,1,100.995,0)" /><polyline
     stroke-miterlimit="10"
     points="  46.608,42.22 46.545,35.492 36.547,35.366 36.61,42.58 "
     id="polyline5736"
     style="fill:none;fill-opacity:1;stroke:#ffcc00;stroke-width:2;stroke-linecap:round;stroke-linejoin:round;stroke-miterlimit:10"
     transform="matrix(-1,0,0,1,100.995,0)" /><path
     stroke-miterlimit="10"
     d="m 54.701,42.786 9.809,-0.063 c 0,0 1.824,0.314 1.886,1.761 l 0.063,5.219 -0.063,2.704 c 0,0 -0.209,2.734 -3.039,2.482 l -6.519,-0.03 c 0,0 -4.213,0.566 -4.465,-1.949 L 52.31,46.936 c 0.002,0 -0.627,-4.024 2.391,-4.15 z"
     id="path5738"
     style="fill:none;fill-opacity:1;stroke:#ffcc00;stroke-width:2;stroke-linecap:round;stroke-linejoin:round;stroke-miterlimit:10"
     inkscape:connector-curvature="0" /><path
     stroke-miterlimit="10"
     d="m 27.726,40.019 c 0,0 5.282,9.243 2.138,22.7"
     id="path5740"
     style="fill:none;fill-opacity:1;stroke:#ffcc00;stroke-width:2;stroke-linecap:round;stroke-linejoin:round;stroke-miterlimit:10"
     inkscape:connector-curvature="0" /><path
     stroke-miterlimit="10"
     d="m 64.813,38.336 c 0,0 7.813,0.476 14.239,-3.332 0,0 -2.261,7.06 -4.006,7.456 0,0 8.765,-0.278 8.289,1.467 0,0 -2.697,4.561 -6.029,4.244 0,0 7.87,1.576 7.377,3.332 0,0 -3.12,3.714 -6.425,3.014 0,0 5.83,1.15 6.465,4.958 0,0 -4.085,1.23 -6.148,0.912 0,0 6.267,3.768 4.521,5.989 0,0 -15.773,-6.981 -17.836,-7.299"
     id="path5742"
     style="fill:none;fill-opacity:1;stroke:#ffcc00;stroke-width:2;stroke-linecap:round;stroke-linejoin:round;stroke-miterlimit:10"
     inkscape:connector-curvature="0" /><circle
     stroke-miterlimit="10"
     cx="-81.970001"
     cy="32.398998"
     r="0.60699999"
     id="circle5744"
     style="fill:none;fill-opacity:1;stroke:#ffcc00;stroke-width:2;stroke-linecap:round;stroke-linejoin:round;stroke-miterlimit:10"
     transform="scale(-1,1)" /><circle
     stroke-miterlimit="10"
     cx="-87.618004"
     cy="41.535999"
     r="0.60699999"
     id="circle5746"
     style="fill:none;fill-opacity:1;stroke:#ffcc00;stroke-width:2;stroke-linecap:round;stroke-linejoin:round;stroke-miterlimit:10"
     transform="scale(-1,1)" /><circle
     stroke-miterlimit="10"
     cx="-89.452003"
     cy="51.124001"
     r="0.60699999"
     id="circle5748"
     style="fill:none;fill-opacity:1;stroke:#ffcc00;stroke-width:2;stroke-linecap:round;stroke-linejoin:round;stroke-miterlimit:10"
     transform="scale(-1,1)" /><circle
     stroke-miterlimit="10"
     cx="-89.125"
     cy="60.970001"
     r="0.60699999"
     id="circle5750"
     style="fill:none;fill-opacity:1;stroke:#ffcc00;stroke-width:2;stroke-linecap:round;stroke-linejoin:round;stroke-miterlimit:10"
     transform="scale(-1,1)" /><circle
     stroke-miterlimit="10"
     cx="-86.983002"
     cy="69.477997"
     r="0.60699999"
     id="circle5752"
     style="fill:none;fill-opacity:1;stroke:#ffcc00;stroke-width:2;stroke-linecap:round;stroke-linejoin:round;stroke-miterlimit:10"
     transform="scale(-1,1)" /></svg>