<?xml version="1.0" encoding="UTF-8" standalone="no"?>
<svg
   xmlns:dc="http://purl.org/dc/elements/1.1/"
   xmlns:cc="http://creativecommons.org/ns#"
   xmlns:rdf="http://www.w3.org/1999/02/22-rdf-syntax-ns#"
   xmlns:svg="http://www.w3.org/2000/svg"
   xmlns="http://www.w3.org/2000/svg"
   xmlns:sodipodi="http://sodipodi.sourceforge.net/DTD/sodipodi-0.dtd"
   xmlns:inkscape="http://www.inkscape.org/namespaces/inkscape"
   version="1.1"
   x="0px"
   y="0px"
   viewBox="0 0 84.863 112.5"
   enable-background="new 0 0 84.863 90"
   xml:space="preserve"
   id="svg82"
   sodipodi:docname="rock.svg"
   inkscape:version="0.92.2 5c3e80d, 2017-08-06"><metadata
     id="metadata88"><rdf:RDF><cc:Work
         rdf:about=""><dc:format>image/svg+xml</dc:format><dc:type
           rdf:resource="http://purl.org/dc/dcmitype/StillImage" /></cc:Work></rdf:RDF></metadata><defs
     id="defs86" /><sodipodi:namedview
     pagecolor="#ffffff"
     bordercolor="#666666"
     borderopacity="1"
     objecttolerance="10"
     gridtolerance="10"
     guidetolerance="10"
     inkscape:pageopacity="0"
     inkscape:pageshadow="2"
     inkscape:window-width="1180"
     inkscape:window-height="735"
     id="namedview84"
     showgrid="false"
     inkscape:zoom="4.2755556"
     inkscape:cx="42.431499"
     inkscape:cy="56.25"
     inkscape:window-x="0"
     inkscape:window-y="0"
     inkscape:window-maximized="0"
     inkscape:current-layer="svg82" /><path
     d="m 59.889025,86.486975 c 3.866,-0.002 6.998,-3.133 6.998,-6.996 -10e-4,-1.447 -0.454,-2.779 -1.205,-3.894 3.426,-0.452 6.071,-3.377 6.073,-6.928 -0.001,-1.529 -0.496,-2.938 -1.328,-4.09 2.948,-0.822 5.113,-3.521 5.113,-6.731 -0.002,-3.34 -2.34,-6.129 -5.477,-6.825 -0.359,-0.06 -0.281,-0.03 -0.442,-0.044 -0.372,-0.011 -1.197,-0.019 -2.34,-0.023 0.765,-1.121 1.226,-2.467 1.227,-3.928 -0.004,-3.342 -2.343,-6.129 -5.476,-6.824 l -0.313,-0.034 h -4.294 c 1.272,-0.894 2.297,-2.47 2.271,-4.443 -0.003,-1.185 -0.322,-2.474 -0.974,-3.907 -0.22,-0.479 -0.678,-0.802 -1.203,-0.844 0,0 -0.052,-0.002 -0.226,-0.026 -1.213,-0.171 -7.074,-1.239 -14.419,-6.975 -0.288,-0.226 -0.648,-0.333 -1.012,-0.303 -0.063,0.008 -8.993,0.746 -18.049,3.722 -4.532,1.494 -9.105,3.538 -12.649,6.438 -3.5340004,2.877 -6.0760004,6.771 -6.0670004,11.645 0.002,0.094 0.002,0.144 0.002,0.16 l -0.004,0.377 c -0.174,0.941 -0.269,1.912 -0.267,2.906 l -0.001,21.645 c 0.002,8.866 7.1890004,16.055 16.0590004,16.055 z m 1.436,-10.82 c 1.551,0.584 2.664,2.068 2.664,3.824 h -0.002 c -0.004,2.262 -1.834,4.092 -4.099,4.096 h -9.467 c -0.256,0 -0.512,-0.027 -0.771,-0.074 h -0.002 c -1.887,-0.361 -3.323,-2.024 -3.32,-4.021 -10e-4,-1.158 0.482,-2.199 1.256,-2.943 0.339,-0.326 0.736,-0.588 1.171,-0.783 0.078,-0.034 0.156,-0.067 0.237,-0.098 0.057,-0.021 0.111,-0.053 0.17,-0.07 10e-4,0 10e-4,0 0.002,0 0.404,-0.133 0.822,-0.202 1.258,-0.204 l 9.467,0.002 c 0.259,-0.002 0.526,0.028 0.795,0.077 0.152,0.029 0.307,0.072 0.471,0.125 0.058,0.016 0.111,0.048 0.17,0.069 z m 7.531,-7.006 v 0.01 c -0.004,2.262 -1.836,4.094 -4.098,4.098 h -18.664 c -1.414,-0.004 -2.658,-0.719 -3.396,-1.809 -0.44,-0.652 -0.699,-1.441 -0.701,-2.289 -0.002,-1.383 0.688,-2.604 1.741,-3.346 0.302,-0.211 0.636,-0.381 0.99,-0.506 0.037,-0.015 0.072,-0.033 0.111,-0.047 0.396,-0.127 0.816,-0.197 1.252,-0.199 l 18.665,0.002 c 0.441,0 0.86,0.07 1.265,0.199 0.043,0.016 0.084,0.037 0.127,0.053 1.572,0.569 2.708,2.067 2.708,3.834 z m 0.294,-14.791 c 0.167,0.004 0.298,0.006 0.382,0.008 h 0.005 c 1.782,0.445 3.108,2.056 3.106,3.972 -0.003,2.261 -1.832,4.091 -4.091,4.097 -0.063,0 -23.252,-0.047 -23.61,-0.035 -0.178,0.004 -0.324,0.01 -0.448,0.018 -0.053,0.008 -0.085,0.01 -0.118,0.012 -0.025,-0.002 -0.05,-0.008 -0.076,-0.01 -0.168,-0.008 -0.332,-0.029 -0.496,-0.057 -0.076,-0.012 -0.156,-0.016 -0.231,-0.033 -0.187,-0.041 -0.362,-0.104 -0.538,-0.172 -0.071,-0.027 -0.146,-0.045 -0.217,-0.074 -0.166,-0.074 -0.318,-0.168 -0.473,-0.264 -0.068,-0.041 -0.144,-0.074 -0.209,-0.119 -0.141,-0.098 -0.266,-0.213 -0.392,-0.326 -0.065,-0.061 -0.14,-0.111 -0.202,-0.176 -0.111,-0.115 -0.206,-0.246 -0.305,-0.373 -0.061,-0.078 -0.129,-0.148 -0.184,-0.229 -0.086,-0.131 -0.151,-0.273 -0.223,-0.414 -0.048,-0.095 -0.104,-0.181 -0.146,-0.275 -0.063,-0.15 -0.101,-0.314 -0.146,-0.474 -0.026,-0.096 -0.065,-0.187 -0.086,-0.284 -0.049,-0.244 -0.072,-0.498 -0.076,-0.756 0,-0.019 -0.005,-0.035 -0.005,-0.055 10e-4,-0.152 0.029,-0.298 0.047,-0.445 0.227,-2.015 1.896,-3.5 4.049,-3.516 0.027,-0.002 24.347,-0.024 24.683,-0.02 z m -6.606,-10.801 c 1.76,0.459 3.069,2.057 3.065,3.961 0.002,1.747 -1.095,3.234 -2.634,3.826 h -15.606 c -0.082,-0.031 -0.163,-0.064 -0.243,-0.101 -0.087,-0.039 -0.174,-0.077 -0.258,-0.122 -0.1,-0.052 -0.191,-0.113 -0.284,-0.173 -0.082,-0.054 -0.166,-0.104 -0.243,-0.164 -0.087,-0.064 -0.166,-0.137 -0.246,-0.208 -0.074,-0.066 -0.151,-0.129 -0.222,-0.2 -0.075,-0.077 -0.142,-0.161 -0.212,-0.243 -0.063,-0.076 -0.13,-0.149 -0.188,-0.23 -0.063,-0.089 -0.117,-0.185 -0.174,-0.279 -0.052,-0.083 -0.105,-0.164 -0.15,-0.251 -0.053,-0.102 -0.094,-0.211 -0.137,-0.319 -0.035,-0.086 -0.076,-0.17 -0.104,-0.26 -0.042,-0.124 -0.067,-0.254 -0.097,-0.383 -0.018,-0.079 -0.043,-0.156 -0.057,-0.237 -0.033,-0.202 -0.048,-0.41 -0.05,-0.621 0,-0.011 -0.003,-0.022 -0.003,-0.033 0,-0.242 0.021,-0.479 0.063,-0.708 0.012,-0.07 0.037,-0.135 0.053,-0.204 0.035,-0.157 0.07,-0.313 0.124,-0.463 0.03,-0.086 0.075,-0.167 0.11,-0.251 0.056,-0.123 0.104,-0.249 0.17,-0.365 0.051,-0.09 0.113,-0.17 0.17,-0.256 0.066,-0.101 0.129,-0.206 0.205,-0.3 0.067,-0.084 0.146,-0.159 0.222,-0.238 0.077,-0.083 0.153,-0.17 0.237,-0.248 0.084,-0.075 0.176,-0.138 0.264,-0.206 0.089,-0.068 0.175,-0.14 0.271,-0.201 0.097,-0.061 0.197,-0.11 0.298,-0.163 0.1,-0.052 0.195,-0.108 0.299,-0.154 0.104,-0.044 0.216,-0.077 0.324,-0.113 0.096,-0.032 0.19,-0.066 0.289,-0.091 h 14.744 z m -16.36,-2.898 h -8.983 l 0.346,-1.169 c 0.121,-0.122 0.546,-0.457 1.954,-0.478 1.31,-0.006 3.451,0.366 6.683,1.647 z m -24.298,43.551 c -7.268,-0.012 -13.1470004,-5.893 -13.1590004,-13.157 v -21.642 c 0,-0.85 0.08,-1.68 0.238,-2.487 l 0.024,-0.257 0.006,-0.481 c 0.002,-0.033 0.002,-0.063 0.002,-0.091 0,-0.055 -0.002,-0.099 -0.002,-0.125 0.01,-3.83 1.8960004,-6.833 5.0080004,-9.404 4.649,-3.835 11.972,-6.292 18.095,-7.692 3.061,-0.706 5.826,-1.163 7.814,-1.442 1.194,-0.167 2.104,-0.27 2.639,-0.325 6.935,5.288 12.68,6.744 14.832,7.125 0.303,0.818 0.416,1.479 0.416,1.988 -0.028,1.077 -0.394,1.58 -1.113,2.128 -1.351,1.015 -4.156,1.278 -5.397,1.249 -0.15,0 -0.273,-10e-4 -0.372,-0.004 -5.472,-2.645 -8.994,-3.471 -11.415,-3.479 -3.229,-0.072 -4.528,1.771 -4.625,2.214 l -1.006,3.373 c -0.063,0.214 -0.134,3.17 -0.854,5.469 -0.819,2.622 -2.379,5.387 -5.338,6.746 -0.527,0.243 -0.842,0.769 -0.842,1.315 0,0.204 0.043,0.409 0.135,0.605 0.336,0.727 1.194,1.043 1.922,0.709 4.013,-1.858 5.951,-5.492 6.891,-8.514 0.555,-1.787 0.785,-3.402 0.881,-4.472 h 6.371 c -0.065,0.096 -0.115,0.202 -0.177,0.301 -0.078,0.125 -0.153,0.251 -0.223,0.382 -0.108,0.202 -0.201,0.413 -0.289,0.626 -0.056,0.131 -0.112,0.259 -0.158,0.393 -0.083,0.245 -0.146,0.499 -0.201,0.755 -0.025,0.113 -0.061,0.223 -0.08,0.339 -0.063,0.379 -0.102,0.766 -0.104,1.163 v 0 c 0,0.026 0.006,0.053 0.006,0.08 0.005,0.352 0.031,0.699 0.086,1.037 0.019,0.114 0.055,0.222 0.078,0.334 0.053,0.245 0.104,0.49 0.181,0.725 0.042,0.129 0.103,0.249 0.151,0.375 0.08,0.208 0.16,0.416 0.261,0.613 0.065,0.129 0.146,0.249 0.22,0.374 0.087,0.146 0.161,0.298 0.257,0.437 -2.709,0.563 -4.84,2.695 -5.411,5.403 -0.004,0.018 -0.008,0.036 -0.011,0.054 -0.042,0.199 -0.071,0.402 -0.096,0.608 -0.003,0.027 -0.009,0.056 -0.013,0.084 -0.021,0.229 -0.037,0.462 -0.037,0.698 0,0.02 0.005,0.037 0.005,0.057 0.003,0.269 0.021,0.531 0.054,0.792 0.011,0.091 0.025,0.179 0.041,0.269 0.032,0.2 0.073,0.398 0.122,0.592 0.021,0.082 0.038,0.164 0.063,0.244 0.074,0.262 0.162,0.519 0.268,0.767 0.013,0.032 0.029,0.061 0.043,0.092 0.098,0.223 0.207,0.436 0.326,0.645 0.039,0.068 0.08,0.138 0.121,0.203 0.111,0.183 0.23,0.355 0.357,0.525 0.038,0.051 0.074,0.102 0.112,0.151 0.171,0.216 0.353,0.42 0.546,0.613 0.021,0.023 0.045,0.041 0.066,0.063 0.175,0.17 0.359,0.33 0.553,0.481 0.052,0.041 0.104,0.08 0.158,0.119 0.188,0.141 0.385,0.271 0.588,0.393 0.025,0.017 0.049,0.035 0.076,0.052 -0.168,0.18 -0.322,0.369 -0.472,0.563 -0.028,0.041 -0.056,0.082 -0.085,0.123 -0.184,0.254 -0.353,0.521 -0.499,0.797 -0.011,0.021 -0.022,0.037 -0.032,0.056 -0.15,0.289 -0.274,0.592 -0.385,0.899 -0.021,0.058 -0.041,0.113 -0.06,0.172 -0.099,0.304 -0.179,0.617 -0.234,0.938 -0.01,0.062 -0.017,0.123 -0.026,0.185 -0.049,0.327 -0.08,0.661 -0.082,1.004 0,0.008 -0.002,0.018 -0.002,0.026 0,0.051 0.007,0.099 0.008,0.146 0.004,0.174 0.011,0.348 0.025,0.518 0.01,0.092 0.024,0.183 0.037,0.272 0.018,0.128 0.033,0.257 0.059,0.382 0.019,0.096 0.041,0.19 0.063,0.287 0.027,0.114 0.056,0.231 0.089,0.348 0.028,0.096 0.06,0.188 0.09,0.281 0.037,0.112 0.078,0.223 0.121,0.334 0.036,0.09 0.073,0.178 0.111,0.266 0.05,0.111 0.104,0.22 0.157,0.326 0.041,0.082 0.083,0.166 0.128,0.246 0.063,0.112 0.132,0.223 0.201,0.332 0.044,0.067 0.085,0.141 0.131,0.207 0.107,0.157 0.224,0.313 0.345,0.461 0.038,0.047 0.079,0.092 0.118,0.139 0.107,0.123 0.217,0.246 0.332,0.363 0.057,0.059 0.12,0.113 0.181,0.17 0.093,0.088 0.186,0.176 0.282,0.258 0.069,0.06 0.143,0.115 0.214,0.172 0.095,0.072 0.189,0.146 0.287,0.216 0.077,0.053 0.156,0.104 0.235,0.155 0.101,0.064 0.199,0.127 0.303,0.187 0.082,0.047 0.165,0.094 0.249,0.137 0.106,0.057 0.216,0.107 0.327,0.158 0.083,0.039 0.167,0.078 0.253,0.113 0.122,0.049 0.247,0.094 0.372,0.137 0.078,0.024 0.154,0.057 0.234,0.08 0.2,0.063 0.404,0.115 0.612,0.158 -0.097,0.141 -0.172,0.295 -0.259,0.44 -0.072,0.123 -0.151,0.242 -0.217,0.369 -0.1,0.194 -0.178,0.401 -0.26,0.608 -0.05,0.127 -0.108,0.248 -0.152,0.38 -0.075,0.229 -0.125,0.473 -0.178,0.715 -0.023,0.114 -0.063,0.227 -0.08,0.344 -0.059,0.363 -0.092,0.734 -0.092,1.115 0,0.377 0.035,0.744 0.094,1.104 0.003,0.031 0.006,0.062 0.011,0.091 0.06,0.344 0.147,0.676 0.254,0.998 0.015,0.043 0.024,0.086 0.041,0.127 0.108,0.313 0.243,0.612 0.394,0.903 0.024,0.045 0.047,0.09 0.07,0.133 0.156,0.285 0.332,0.558 0.524,0.816 0.014,0.018 0.024,0.041 0.039,0.059 h -22.97 v -0.002 z"
     id="path76"
     inkscape:connector-curvature="0" /></svg>