<?xml version="1.0" encoding="UTF-8" standalone="no"?>
<svg
   xmlns:dc="http://purl.org/dc/elements/1.1/"
   xmlns:cc="http://creativecommons.org/ns#"
   xmlns:rdf="http://www.w3.org/1999/02/22-rdf-syntax-ns#"
   xmlns:svg="http://www.w3.org/2000/svg"
   xmlns="http://www.w3.org/2000/svg"
   xmlns:sodipodi="http://sodipodi.sourceforge.net/DTD/sodipodi-0.dtd"
   xmlns:inkscape="http://www.inkscape.org/namespaces/inkscape"
   version="1.1"
   x="0px"
   y="0px"
   viewBox="0 0 84.863 112.5"
   enable-background="new 0 0 84.863 90"
   xml:space="preserve"
   id="svg96"
   sodipodi:docname="scissors.svg"
   inkscape:version="0.92.2 5c3e80d, 2017-08-06"><metadata
     id="metadata102"><rdf:RDF><cc:Work
         rdf:about=""><dc:format>image/svg+xml</dc:format><dc:type
           rdf:resource="http://purl.org/dc/dcmitype/StillImage" /></cc:Work></rdf:RDF></metadata><defs
     id="defs100" /><sodipodi:namedview
     pagecolor="#ffffff"
     bordercolor="#666666"
     borderopacity="1"
     objecttolerance="10"
     gridtolerance="10"
     guidetolerance="10"
     inkscape:pageopacity="0"
     inkscape:pageshadow="2"
     inkscape:window-width="1263"
     inkscape:window-height="684"
     id="namedview98"
     showgrid="false"
     inkscape:zoom="2.0977778"
     inkscape:cx="-16.440323"
     inkscape:cy="56.25"
     inkscape:window-x="0"
     inkscape:window-y="0"
     inkscape:window-maximized="0"
     inkscape:current-layer="svg96" /><path
     d="m 52.108883,71.081881 v 0 c 0.04218,-0.302622 0.06511,-0.602492 0.06511,-0.901446 -9.17e-4,-0.990398 -0.237512,-1.937695 -0.652012,-2.788704 0.01559,0 0.0321,0.0037 0.04769,0.0037 3.15185,0 5.891951,-2.317348 6.344966,-5.521469 0.04127,-0.298953 0.06236,-0.59699 0.06236,-0.897777 -9.17e-4,-1.024328 -0.255853,-1.997303 -0.695113,-2.869403 l 20.9836,2.734599 c 0.2907,0.04127 0.592405,0.05961 0.886773,0.05961 3.152767,0 5.891034,-2.317348 6.344967,-5.521469 0.04127,-0.298036 0.06328,-0.59699 0.06328,-0.895943 0,-3.152768 -2.314597,-5.897454 -5.527888,-6.345884 L 49.542102,43.552484 78.784521,35.571526 c 2.862984,-0.767558 4.75391,-3.357266 4.75391,-6.194573 0,-0.548387 -0.07061,-1.107778 -0.220088,-1.664419 -0.772144,-2.861149 -3.358183,-4.752076 -6.193656,-4.750242 -0.549304,0 -1.108696,0.07153 -1.665336,0.221005 l -22.230768,5.360988 c -0.09537,-0.544719 -0.253101,-1.11328 -0.48236,-1.711187 -0.08987,-0.236595 -0.179739,-0.472273 -0.291617,-0.717122 -0.201748,-0.43926 -0.620833,-0.734545 -1.103194,-0.773061 0,0 -0.04769,-0.0037 -0.208167,-0.02568 -1.111446,-0.155896 -6.484356,-1.135289 -13.219979,-6.39632 h -0.0018 c -0.124716,-0.09721 -0.266857,-0.167818 -0.414499,-0.214586 -0.011,-0.0028 -0.02018,-0.0092 -0.0321,-0.01376 -0.143974,-0.04127 -0.294368,-0.05594 -0.44843,-0.04677 -0.01192,0 -0.02017,-0.0046 -0.03118,-0.0037 -0.05777,0.0073 -8.309256,0.683191 -16.675369,3.412288 -4.186265,1.370051 -8.411047,3.243554 -11.6848623,5.902956 -3.2591431,2.634642 -5.6076703,6.198241 -5.6076703,10.664202 v 0.02017 c 0.00183,0.07336 0.00183,0.126551 0.00183,0.163232 l -0.00183,22.83968 c 0.00183,8.133185 6.5962343,14.725751 14.7285026,14.725751 l 27.113063,0.170569 c 0.304456,0.04127 0.604326,0.06236 0.898695,0.06052 3.150016,-0.0018 5.886449,-2.319182 6.341298,-5.519635 z m 3.209624,-10.11123 v 0.0055 c 0,0.172403 -0.01192,0.34939 -0.03852,0.528212 -0.259521,1.875337 -1.875337,3.232549 -3.712158,3.232549 -0.178822,0 -0.354893,-0.01376 -0.530964,-0.03576 L 48.322441,64.319665 37.599548,62.812059 36.290939,62.629569 34.08822,62.319611 c -0.02751,-0.0037 -0.05227,-0.01467 -0.07795,-0.01834 -1.832236,-0.29712 -3.155518,-1.887259 -3.152767,-3.694735 0,-0.176988 0.0092,-0.354893 0.03301,-0.528212 0.230176,-1.644245 1.496602,-2.884993 3.04364,-3.170191 0.01192,-0.0018 0.02293,-0.0055 0.03576,-0.0092 0.212752,-0.0376 0.426421,-0.05594 0.647427,-0.05594 0.167817,0 0.337469,0.011 0.514456,0.03576 l 5.822257,0.818912 7.355539,1.033499 3.775434,0.53188 c 0.360395,0.05044 0.696947,0.15773 1.012407,0.298954 0.03485,0.01467 0.07245,0.02384 0.105459,0.04127 1.269177,0.614414 2.115601,1.927608 2.115601,3.367354 z M 32.118433,32.702123 c 0.01467,-0.01376 0.0321,-0.03118 0.05594,-0.04952 0.06236,-0.0486 0.165066,-0.110961 0.318211,-0.172402 0.02751,-0.01009 0.05135,-0.02018 0.08162,-0.0321 0.0018,-9.17e-4 0.0073,-0.0018 0.0092,-0.0028 0.274194,-0.0917 0.689611,-0.171485 1.32695,-0.180656 0.07428,0 0.161399,0.0055 0.240264,0.0073 0.09629,0.0028 0.19166,0.0046 0.296202,0.01192 0.08712,0.0055 0.18249,0.01834 0.275111,0.02659 0.123799,0.01192 0.246682,0.02476 0.377818,0.04218 0.09904,0.01375 0.210001,0.0321 0.31546,0.04952 0.140307,0.02293 0.285198,0.0486 0.437426,0.07795 0.116463,0.02293 0.235678,0.0486 0.358561,0.0752 0.06236,0.01467 0.13297,0.0321 0.197162,0.04677 l -4.495306,0.806991 z M 17.755827,73.711021 C 11.091732,73.701851 5.698648,68.306932 5.6848925,61.644672 V 38.823333 c 0,-0.06786 -0.00183,-0.133887 -0.00183,-0.181573 0.011921,-3.508577 1.7533713,-6.26335 4.6282765,-8.622882 4.299061,-3.517747 11.067698,-5.770903 16.726723,-7.056586 2.831804,-0.648344 5.383913,-1.067429 7.227154,-1.322365 1.106862,-0.154062 1.946866,-0.247599 2.441148,-0.298953 0.112795,0.08528 0.221005,0.161398 0.332884,0.245765 0.232009,0.174237 0.465853,0.346639 0.695112,0.511706 0.163233,0.116463 0.32188,0.227425 0.481444,0.339303 0.230176,0.159564 0.458517,0.320045 0.685025,0.471356 0.154062,0.101791 0.30629,0.199914 0.458518,0.298953 0.226507,0.147643 0.453015,0.295286 0.675855,0.433758 0.144891,0.08987 0.287032,0.174237 0.431923,0.260438 0.224674,0.134804 0.447513,0.271443 0.668519,0.397993 0.134804,0.07795 0.266857,0.151311 0.400744,0.225591 0.223757,0.124717 0.444762,0.248517 0.661183,0.364063 0.126551,0.06603 0.244848,0.127468 0.366814,0.190743 0.217337,0.113713 0.438343,0.227425 0.650178,0.331967 0.112795,0.05777 0.222839,0.107293 0.333801,0.161398 0.214586,0.102708 0.430089,0.206333 0.636422,0.300788 0.100874,0.04585 0.198997,0.08712 0.298953,0.13297 0.210919,0.09262 0.42092,0.186158 0.623584,0.270525 0.08987,0.0376 0.174237,0.07061 0.262273,0.106376 0.206332,0.08345 0.410831,0.167818 0.607077,0.243015 0.07611,0.02934 0.149477,0.05502 0.224673,0.08253 0.199914,0.0752 0.399828,0.149477 0.589654,0.215503 0.06236,0.02109 0.120132,0.04035 0.181573,0.06236 0.194412,0.06603 0.386989,0.132053 0.570396,0.189826 0.05319,0.01742 0.100874,0.03026 0.153145,0.04677 0.184324,0.05777 0.366814,0.113712 0.5383,0.163232 0.04035,0.01192 0.07611,0.02018 0.115546,0.0321 0.174237,0.04952 0.346639,0.09629 0.50712,0.137555 0.04035,0.01009 0.0752,0.01926 0.11463,0.02751 0.152228,0.03852 0.302621,0.07611 0.440177,0.107293 0.06144,0.01467 0.113712,0.02476 0.171485,0.0376 0.105459,0.02293 0.21367,0.04769 0.308124,0.06694 0.150394,0.03026 0.287949,0.05594 0.411749,0.07887 0.178822,0.480526 0.279696,0.89686 0.332884,1.260006 9.17e-4,0.01009 0.0018,0.02109 0.0037,0.03118 0.02659,0.190744 0.04402,0.372317 0.04402,0.530964 0,0.310875 -0.04402,0.563976 -0.113713,0.783148 -0.112795,0.341137 -0.2907,0.61533 -0.544719,0.863847 -0.106376,0.104542 -0.222839,0.205416 -0.35856,0.303539 -0.356727,0.267774 -0.829,0.47319 -1.339789,0.637339 -1.267343,0.40533 -2.801543,0.529129 -3.611285,0.509872 -0.135721,0 -0.248516,-0.0018 -0.337469,-0.0037 h -0.0037 C 44.2288,32.721381 44.09583,32.662691 43.954606,32.595747 43.651068,32.452689 43.345695,32.308715 43.056829,32.175745 42.447917,31.900634 41.877521,31.659454 41.324549,31.433863 37.990209,30.079402 35.63618,29.610797 33.9039,29.606212 c -0.308124,-0.0064 -0.586902,0.01559 -0.857428,0.0431 -2.004639,0.203582 -3.006041,1.251753 -3.296741,1.772629 -0.04677,0.08528 -0.07336,0.154979 -0.0862,0.206333 l -0.01467,0.0431 -0.02751,0.07611 -0.749218,2.534686 -0.131136,0.441094 c -0.03668,0.118297 -0.05227,0.239346 -0.0541,0.360395 0,0.0064 -0.0018,0.01376 -0.0018,0.01926 0,0.02384 0.0092,0.04585 0.011,0.06969 0.0028,0.04677 0.0064,0.09354 0.01376,0.138472 -0.0092,0.407164 -0.0917,2.317348 -0.751052,4.431114 -0.751052,2.401716 -2.181627,4.939152 -4.8933,6.184486 -0.487863,0.223757 -0.775812,0.7052 -0.775812,1.208652 0,0.185241 0.03943,0.373234 0.1238,0.55389 0.308124,0.668518 1.095857,0.957384 1.762542,0.650178 3.679145,-1.703852 5.45911,-5.038192 6.319289,-7.806721 0.546553,-1.760708 0.748301,-3.343511 0.825332,-4.315568 l 4.517315,-0.810659 1.967958,-0.353059 3.304078,-0.825331 c 0.280613,0.120131 0.552055,0.232927 0.850092,0.368648 0.460351,0.210001 0.93721,0.431923 1.433326,0.674021 l 0.0073,0.0028 c 0.01926,0.01009 0.04035,0.02017 0.06144,0.03026 0.160481,0.07703 0.320046,0.119215 0.496116,0.132053 0.01926,9.17e-4 0.179739,0.011 0.451182,0.01559 0.08987,0.0018 0.192577,0.0028 0.305372,0.0028 v 0 c 0.25677,-0.0046 0.579567,-0.01467 0.928957,-0.0321 0.159564,-0.0083 0.318211,-0.01834 0.492448,-0.03118 0.184324,-0.01467 0.375984,-0.03118 0.574064,-0.0541 1.387474,-0.154979 3.065649,-0.537382 4.492556,-1.517693 0.251267,-0.176988 0.488779,-0.388823 0.715287,-0.617165 0.506203,-0.508954 0.931708,-1.136206 1.175639,-1.89276 l 23.021252,-5.551732 c 0.362229,-0.09537 0.685943,-0.138472 1.008739,-0.138472 1.656166,0.0018 3.180278,1.108696 3.626874,2.78687 0.08987,0.324631 0.129302,0.649261 0.129302,0.97114 0,1.658 -1.106861,3.182113 -2.787787,3.629626 l -31.966013,8.723756 -2.188964,0.59699 c -0.137555,0.0376 -0.25952,0.09996 -0.373233,0.174236 -0.43926,0.287949 -0.675855,0.815245 -0.576815,1.350793 -0.0037,0.01926 -0.01192,0.03668 -0.01559,0.05594 -0.107293,0.726292 0.392491,1.402147 1.116949,1.512191 l 0.790485,0.118298 3.113334,0.467688 31.659724,4.758496 c 1.891844,0.261355 3.249056,1.878088 3.249056,3.717661 0,0.172402 -0.01284,0.347556 -0.03668,0.526378 -0.263189,1.877171 -1.877171,3.233466 -3.714909,3.233466 -0.177905,-0.0018 -0.35581,-0.01284 -0.530047,-0.0376 L 35.50321,52.245978 c -0.295286,-0.04127 -0.593322,-0.06144 -0.88769,-0.05961 -0.370483,-0.0018 -0.741882,0.03026 -1.102277,0.09354 -2.673157,0.458518 -4.856618,2.599795 -5.255529,5.427931 -0.04127,0.301705 -0.06144,0.604327 -0.06144,0.897778 0,2.719009 1.730445,5.126227 4.260546,6.028589 -0.856511,0.926206 -1.457169,2.104596 -1.646996,3.448053 -0.04402,0.2907 -0.06144,0.580483 -0.06144,0.860179 v 0.03943 c 0,1.851494 0.811576,3.542507 2.118351,4.7264 H 17.755827 Z M 45.236621,73.906349 43.644648,73.682593 42.7377,73.555125 38.319425,72.933375 36.635748,72.69678 c -0.232927,-0.03026 -0.460352,-0.08804 -0.68961,-0.165983 -1.505772,-0.512623 -2.54569,-1.952368 -2.542022,-3.547093 0,-0.178821 0.01009,-0.355809 0.03576,-0.530046 0.22284,-1.595641 1.42599,-2.804294 2.908836,-3.132592 0.0431,-0.0092 0.08253,-0.02476 0.124717,-0.0321 0.01467,-0.0037 0.02568,-0.0092 0.03943,-0.01101 0.220089,-0.04127 0.43926,-0.05777 0.659349,-0.05777 0.164149,0 0.331966,0.011 0.509871,0.03576 l 5.511382,0.775812 3.092243,0.434675 c 0.238429,0.0321 0.477775,0.0917 0.704283,0.172402 0.139389,0.04677 0.276027,0.105459 0.410832,0.170569 0.05319,0.02659 0.09904,0.05869 0.149476,0.08895 1.186644,0.642842 1.967958,1.891844 1.967958,3.271065 v 0.01192 c 0,0.172403 -0.011,0.349391 -0.03668,0.528213 v 0.0018 c -0.262272,1.873503 -1.876254,3.231632 -3.712158,3.231632 -0.179739,-9.17e-4 -0.356727,-0.01376 -0.532798,-0.03668 z"
     id="path90"
     inkscape:connector-curvature="0"
     style="stroke-width:0.91703522" /></svg>