<?xml version="1.0" encoding="UTF-8" standalone="no"?>
<svg
   xmlns:dc="http://purl.org/dc/elements/1.1/"
   xmlns:cc="http://creativecommons.org/ns#"
   xmlns:rdf="http://www.w3.org/1999/02/22-rdf-syntax-ns#"
   xmlns:svg="http://www.w3.org/2000/svg"
   xmlns="http://www.w3.org/2000/svg"
   xmlns:sodipodi="http://sodipodi.sourceforge.net/DTD/sodipodi-0.dtd"
   xmlns:inkscape="http://www.inkscape.org/namespaces/inkscape"
   viewBox="0 0 100 100"
   x="0px"
   y="0px"
   version="1.1"
   id="svg3365"
   sodipodi:docname="spock_rock.svg"
   inkscape:version="0.92.2 5c3e80d, 2017-08-06">
  <metadata
     id="metadata3371">
    <rdf:RDF>
      <cc:Work
         rdf:about="">
        <dc:format>image/svg+xml</dc:format>
        <dc:type
           rdf:resource="http://purl.org/dc/dcmitype/StillImage" />
      </cc:Work>
    </rdf:RDF>
  </metadata>
  <defs
     id="defs3369" />
  <sodipodi:namedview
     pagecolor="#ffffff"
     bordercolor="#666666"
     borderopacity="1"
     objecttolerance="10"
     gridtolerance="10"
     guidetolerance="10"
     inkscape:pageopacity="0"
     inkscape:pageshadow="2"
     inkscape:window-width="640"
     inkscape:window-height="480"
     id="namedview3367"
     showgrid="false"
     inkscape:zoom="2.36"
     inkscape:cx="68.087347"
     inkscape:cy="13.127216"
     inkscape:window-x="0"
     inkscape:window-y="0"
     inkscape:window-maximized="0"
     inkscape:current-layer="svg3365" />
  <title
     id="title3353">HANDS_1px_grid</title>
  <path
     d="M36.5,72.6V70a1.5,1.5,0,0,0-3,0v4A1.5,1.5,0,0,0,35,75.5,8.51,8.51,0,0,1,43.5,84a1.5,1.5,0,0,0,3,0A11.52,11.52,0,0,0,36.5,72.6Z"
     id="path3355"
     style="fill:#800080" />
  <path
     d="M66.47,55.6c0-.2,0-.4,0-.6V37A6.5,6.5,0,0,0,55,32.85a6.49,6.49,0,0,0-11.35,2.77A6.5,6.5,0,0,0,33.5,41v1.53A6.49,6.49,0,0,0,23.5,48V62a6.54,6.54,0,0,0,0,.68,1.5,1.5,0,0,0,0,.32v6a1.5,1.5,0,0,0,3,0V67.47a6.48,6.48,0,0,0,9.61-3.27,6.48,6.48,0,0,0,10.24-3.82,6.47,6.47,0,0,0,7.38-.06,6.47,6.47,0,0,0,4,7.78A11.48,11.48,0,0,0,53.5,77a1.5,1.5,0,0,0,3,0A8.51,8.51,0,0,1,65,68.5a1.5,1.5,0,0,0,0-3H60a3.48,3.48,0,0,1-2.6-5.82.42.42,0,0,0,.23-.23A3.48,3.48,0,0,1,60,58.5h5A8.51,8.51,0,0,1,73.5,67v7A8.51,8.51,0,0,1,65,82.5,1.5,1.5,0,0,0,63.5,84v5a1.5,1.5,0,0,0,3,0V85.4A11.52,11.52,0,0,0,76.5,74V67A11.51,11.51,0,0,0,66.47,55.6ZM33.5,62a3.5,3.5,0,0,1-7,0V48a3.5,3.5,0,0,1,7,0V62Zm10-3a3.5,3.5,0,0,1-7,0V41a3.5,3.5,0,0,1,7,0V59Zm6.5-.5A3.5,3.5,0,0,1,46.5,55V37a3.5,3.5,0,0,1,7,0V55A3.5,3.5,0,0,1,50,58.5Zm6.78-2.14A3.49,3.49,0,0,1,56.5,55V37a3.5,3.5,0,0,1,7,0V55a3.51,3.51,0,0,1,0,.5H60A6.45,6.45,0,0,0,56.78,56.36Z"
     id="path3357"
     style="fill:#800080" />
  <path
     d="M30.83,92.75a1.26,1.26,0,0,0-.26-.13,1.31,1.31,0,0,0-.28-.09,1.5,1.5,0,1,0-.29,3,1.36,1.36,0,0,0,.29,0l.28-.08.26-.14a1.47,1.47,0,0,0,.23-.19,2.17,2.17,0,0,0,.19-.23,1.28,1.28,0,0,0,.13-.26,1.31,1.31,0,0,0,.09-.28,1.36,1.36,0,0,0,0-.29,1.5,1.5,0,0,0-.44-1.06A1.44,1.44,0,0,0,30.83,92.75Z"
     id="path3359"
     style="fill:#800080" />
  <path
     d="M63.94,92.94a2.06,2.06,0,0,0-.19.23,1.27,1.27,0,0,0-.13.26,1.31,1.31,0,0,0-.09.28,1.36,1.36,0,0,0,0,.29,1.5,1.5,0,0,0,2.56,1.06,1.52,1.52,0,0,0,.33-.49,2.25,2.25,0,0,0,.08-.28,1.36,1.36,0,0,0,0-.29,1.52,1.52,0,0,0-.44-1.06A1.55,1.55,0,0,0,63.94,92.94Z"
     id="path3361"
     style="fill:#800080" />
  <path
     d="M30,82.5A3.5,3.5,0,0,1,26.5,79V74a1.5,1.5,0,0,0-3,0v5a6.51,6.51,0,0,0,5,6.32V89a1.5,1.5,0,0,0,3,0V84A1.5,1.5,0,0,0,30,82.5Z"
     id="path3363"
     style="fill:#800080" />
</svg>
