<?xml version="1.0" encoding="UTF-8" standalone="no"?>
<svg
   xmlns:dc="http://purl.org/dc/elements/1.1/"
   xmlns:cc="http://creativecommons.org/ns#"
   xmlns:rdf="http://www.w3.org/1999/02/22-rdf-syntax-ns#"
   xmlns:svg="http://www.w3.org/2000/svg"
   xmlns="http://www.w3.org/2000/svg"
   xmlns:sodipodi="http://sodipodi.sourceforge.net/DTD/sodipodi-0.dtd"
   xmlns:inkscape="http://www.inkscape.org/namespaces/inkscape"
   viewBox="0 0 100 100"
   x="0px"
   y="0px"
   version="1.1"
   id="svg3533"
   sodipodi:docname="spock_waiting.svg"
   inkscape:version="0.92.2 5c3e80d, 2017-08-06">
  <metadata
     id="metadata3539">
    <rdf:RDF>
      <cc:Work
         rdf:about="">
        <dc:format>image/svg+xml</dc:format>
        <dc:type
           rdf:resource="http://purl.org/dc/dcmitype/StillImage" />
      </cc:Work>
    </rdf:RDF>
  </metadata>
  <defs
     id="defs3537" />
  <sodipodi:namedview
     pagecolor="#ffffff"
     bordercolor="#666666"
     borderopacity="1"
     objecttolerance="10"
     gridtolerance="10"
     guidetolerance="10"
     inkscape:pageopacity="0"
     inkscape:pageshadow="2"
     inkscape:window-width="640"
     inkscape:window-height="480"
     id="namedview3535"
     showgrid="false"
     showguides="false"
     inkscape:zoom="2.36"
     inkscape:cx="-6.5807679"
     inkscape:cy="50"
     inkscape:window-x="0"
     inkscape:window-y="0"
     inkscape:window-maximized="0"
     inkscape:current-layer="svg3533" />
  <title
     id="title3521">HANDS_1px_grid</title>
  <path
     d="M36.46,72.1V69.5a1.5,1.5,0,0,0-3,0v4A1.5,1.5,0,0,0,35,75a8.51,8.51,0,0,1,8.5,8.5,1.5,1.5,0,0,0,3,0A11.52,11.52,0,0,0,36.46,72.1Z"
     id="path3523"
     style="fill:#800080" />
  <path
     d="M66.43,55.1a1.5,1.5,0,0,0,.12-.58,53.68,53.68,0,0,0-.63-8.18L63.36,29.81l4.51-12.4a10.66,10.66,0,0,0,.57-6.73A5.8,5.8,0,0,0,64.8,6.85a6.46,6.46,0,0,0-5,.22A6.29,6.29,0,0,0,57.64,8.8,6.5,6.5,0,0,0,48,15.52l2.15,12.59-3.9,10.73A6.5,6.5,0,0,0,33.46,40.5V42a6.49,6.49,0,0,0-10,5.47v14a6.48,6.48,0,0,0,.06.82l0,.18v6a1.5,1.5,0,0,0,3,0V67a6.48,6.48,0,0,0,9.57-3.3A6.48,6.48,0,0,0,46,61h7.53c0,.17,0,.33,0,.5a6.51,6.51,0,0,0,4.23,6.09,11.48,11.48,0,0,0-4.23,8.91,1.5,1.5,0,0,0,3,0A8.51,8.51,0,0,1,65,68a1.5,1.5,0,0,0,0-3H60a3.5,3.5,0,0,1,0-7h5a8.51,8.51,0,0,1,8.5,8.5v7A8.51,8.51,0,0,1,65,82a1.5,1.5,0,0,0-1.5,1.5v5a1.5,1.5,0,0,0,3,0V84.9a11.52,11.52,0,0,0,10-11.4v-7A11.51,11.51,0,0,0,66.43,55.1ZM60.35,10.27l0,0a3.31,3.31,0,0,1,.69-.44,3.47,3.47,0,0,1,2.68-.12,2.79,2.79,0,0,1,1.8,1.89A8,8,0,0,1,65,16.39L62.4,23.66,60.8,13.33a6.45,6.45,0,0,0-1-2.5A3.72,3.72,0,0,1,60.35,10.27ZM33.46,61.5a3.5,3.5,0,0,1-7,0v-14a3.5,3.5,0,0,1,7,0v14ZM40,62a3.5,3.5,0,0,1-3.5-3.5v-18a3.5,3.5,0,0,1,7,0v18A3.5,3.5,0,0,1,40,62Zm20-7a6.5,6.5,0,0,0-5.47,3h-8V47l4.7-12.92L53.54,48H53a1.5,1.5,0,0,0,0,3h4a1.5,1.5,0,0,0,0-3h-.41L50.95,15a3.5,3.5,0,0,1,6.9-1.2L63,46.8a50.67,50.67,0,0,1,.59,7.72,1.48,1.48,0,0,0,.09.48Z"
     id="path3525"
     style="fill:#800080" />
  <path
     d="M28.94,92.44a1.5,1.5,0,0,0,0,2.12,1.5,1.5,0,0,0,2.12,0,1.5,1.5,0,0,0,0-2.12A1.55,1.55,0,0,0,28.94,92.44Z"
     id="path3527"
     style="fill:#800080" />
  <path
     d="M66.38,92.93l-.13-.26a1.45,1.45,0,0,0-.19-.23l-.23-.19-.26-.14L65.29,92a1.5,1.5,0,0,0-1.35.41,1.44,1.44,0,0,0-.19.23l-.14.26a2.35,2.35,0,0,0-.08.28,1.32,1.32,0,0,0,0,.29A1.5,1.5,0,0,0,65,95a1.36,1.36,0,0,0,.29,0l.28-.08.26-.14.23-.19a1.52,1.52,0,0,0,.44-1.06,1.32,1.32,0,0,0,0-.29A1.29,1.29,0,0,0,66.38,92.93Z"
     id="path3529"
     style="fill:#800080" />
  <path
     d="M30,82a3.5,3.5,0,0,1-3.5-3.5v-5a1.5,1.5,0,0,0-3,0v5a6.51,6.51,0,0,0,5,6.32V88.5a1.5,1.5,0,0,0,3,0v-5A1.5,1.5,0,0,0,30,82Z"
     id="path3531"
     style="fill:#800080" />
</svg>
