<?xml version="1.0" encoding="UTF-8" standalone="no"?>
<svg
   xmlns:dc="http://purl.org/dc/elements/1.1/"
   xmlns:cc="http://creativecommons.org/ns#"
   xmlns:rdf="http://www.w3.org/1999/02/22-rdf-syntax-ns#"
   xmlns:svg="http://www.w3.org/2000/svg"
   xmlns="http://www.w3.org/2000/svg"
   xmlns:sodipodi="http://sodipodi.sourceforge.net/DTD/sodipodi-0.dtd"
   xmlns:inkscape="http://www.inkscape.org/namespaces/inkscape"
   viewBox="0 0 100 100"
   x="0px"
   y="0px"
   version="1.1"
   id="svg2976"
   sodipodi:docname="spock_paper.svg"
   inkscape:version="0.92.2 5c3e80d, 2017-08-06">
  <metadata
     id="metadata2982">
    <rdf:RDF>
      <cc:Work
         rdf:about="">
        <dc:format>image/svg+xml</dc:format>
        <dc:type
           rdf:resource="http://purl.org/dc/dcmitype/StillImage" />
      </cc:Work>
    </rdf:RDF>
  </metadata>
  <defs
     id="defs2980" />
  <sodipodi:namedview
     pagecolor="#ffffff"
     bordercolor="#666666"
     borderopacity="1"
     objecttolerance="10"
     gridtolerance="10"
     guidetolerance="10"
     inkscape:pageopacity="0"
     inkscape:pageshadow="2"
     inkscape:window-width="640"
     inkscape:window-height="480"
     id="namedview2978"
     showgrid="false"
     inkscape:zoom="2.36"
     inkscape:cx="39.356347"
     inkscape:cy="50"
     inkscape:window-x="0"
     inkscape:window-y="0"
     inkscape:window-maximized="0"
     inkscape:current-layer="svg2976" />
  <title
     id="title2962">HANDS_1px_grid</title>
  <path
     d="M36.5,72.6V70a1.5,1.5,0,0,0-3,0v4A1.5,1.5,0,0,0,35,75.5,8.51,8.51,0,0,1,43.5,84a1.5,1.5,0,0,0,3,0A11.52,11.52,0,0,0,36.5,72.6Z"
     id="path2964"
     style="fill:#800080" />
  <path
     d="M66.5,55.61V16a6.5,6.5,0,0,0-10.15-5.37A6.5,6.5,0,0,0,43.5,12v1.53A6.49,6.49,0,0,0,33.5,19v1.53A6.49,6.49,0,0,0,23.5,26V57a1.5,1.5,0,0,0,3,0V26a3.5,3.5,0,0,1,7,0V48.5H33a1.5,1.5,0,0,0,0,3h4a1.5,1.5,0,0,0,0-3h-.5V19a3.5,3.5,0,0,1,7,0V48.5H43a1.5,1.5,0,0,0,0,3h4a1.5,1.5,0,0,0,0-3h-.5V12a3.5,3.5,0,0,1,7,0V48.5H53a1.5,1.5,0,0,0,0,3h4a1.5,1.5,0,0,0,0-3h-.5V16a3.5,3.5,0,0,1,7,0V55.5H60a6.5,6.5,0,0,0-5.47,3H35a1.5,1.5,0,0,0,0,3H53.53c0,.17,0,.33,0,.5a6.51,6.51,0,0,0,4.23,6.09A11.48,11.48,0,0,0,53.5,77a1.5,1.5,0,0,0,3,0A8.51,8.51,0,0,1,65,68.5a1.5,1.5,0,0,0,0-3H60a3.5,3.5,0,0,1,0-7h5A8.51,8.51,0,0,1,73.5,67v7A8.51,8.51,0,0,1,65,82.5,1.5,1.5,0,0,0,63.5,84v5a1.5,1.5,0,0,0,3,0V85.4A11.52,11.52,0,0,0,76.5,74V67A11.51,11.51,0,0,0,66.5,55.61Z"
     id="path2966"
     style="fill:#800080" />
  <path
     d="M25,68.5A1.5,1.5,0,0,0,26.5,67V63a1.5,1.5,0,0,0-3,0v4A1.5,1.5,0,0,0,25,68.5Z"
     id="path2968"
     style="fill:#800080" />
  <path
     d="M66.39,93.43a2.19,2.19,0,0,0-.14-.26,1.44,1.44,0,0,0-.19-.23,1.5,1.5,0,0,0-1.35-.41,1.31,1.31,0,0,0-.28.09,1.27,1.27,0,0,0-.26.13,1.42,1.42,0,0,0-.23.19A1.5,1.5,0,0,0,65,95.5a1.36,1.36,0,0,0,.29,0l.28-.08.26-.14a2.17,2.17,0,0,0,.23-.19,1.47,1.47,0,0,0,.19-.23,2.16,2.16,0,0,0,.14-.26,2.25,2.25,0,0,0,.08-.28,1.4,1.4,0,0,0,0-.58A2.26,2.26,0,0,0,66.39,93.43Z"
     id="path2970"
     style="fill:#800080" />
  <path
     d="M31.38,93.43a1.29,1.29,0,0,0-.13-.26,1.44,1.44,0,0,0-.19-.23,1.55,1.55,0,0,0-2.12,0,1.42,1.42,0,0,0-.19.23,1.27,1.27,0,0,0-.13.26,1.31,1.31,0,0,0-.09.28,1.36,1.36,0,0,0,0,.29,1.5,1.5,0,0,0,.44,1.06,1.5,1.5,0,0,0,2.12,0,1.47,1.47,0,0,0,.19-.23,1.28,1.28,0,0,0,.13-.26,1.31,1.31,0,0,0,.09-.28,1.4,1.4,0,0,0,0-.58A1.31,1.31,0,0,0,31.38,93.43Z"
     id="path2972"
     style="fill:#800080" />
  <path
     d="M30,82.5A3.5,3.5,0,0,1,26.5,79V73a1.5,1.5,0,0,0-3,0v6a6.51,6.51,0,0,0,5,6.32V89a1.5,1.5,0,0,0,3,0V84A1.5,1.5,0,0,0,30,82.5Z"
     id="path2974"
     style="fill:#800080" />
</svg>
