<?xml version="1.0" encoding="UTF-8" standalone="no"?>
<svg
   xmlns:dc="http://purl.org/dc/elements/1.1/"
   xmlns:cc="http://creativecommons.org/ns#"
   xmlns:rdf="http://www.w3.org/1999/02/22-rdf-syntax-ns#"
   xmlns:svg="http://www.w3.org/2000/svg"
   xmlns="http://www.w3.org/2000/svg"
   xmlns:sodipodi="http://sodipodi.sourceforge.net/DTD/sodipodi-0.dtd"
   xmlns:inkscape="http://www.inkscape.org/namespaces/inkscape"
   version="1.1"
   x="0px"
   y="0px"
   viewBox="0 0 86.375748 43.34494"
   enable-background="new 0 0 100 100"
   xml:space="preserve"
   id="svg2"
   inkscape:version="0.92.2 5c3e80d, 2017-08-06"
   sodipodi:docname="the_boss_scissors.svg"
   width="86.375748"
   height="43.34494"><metadata
     id="metadata12"><rdf:RDF><cc:Work
         rdf:about=""><dc:format>image/svg+xml</dc:format><dc:type
           rdf:resource="http://purl.org/dc/dcmitype/StillImage" /><dc:title>Hand_02</dc:title></cc:Work></rdf:RDF></metadata><defs
     id="defs10" /><sodipodi:namedview
     pagecolor="#ffffff"
     bordercolor="#666666"
     borderopacity="1"
     objecttolerance="10"
     gridtolerance="10"
     guidetolerance="10"
     inkscape:pageopacity="0"
     inkscape:pageshadow="2"
     inkscape:window-width="754"
     inkscape:window-height="480"
     id="namedview8"
     showgrid="false"
     fit-margin-top="0"
     fit-margin-left="0"
     fit-margin-right="0"
     fit-margin-bottom="0"
     inkscape:zoom="2.36"
     inkscape:cx="49.568649"
     inkscape:cy="21.649596"
     inkscape:window-x="0"
     inkscape:window-y="0"
     inkscape:window-maximized="0"
     inkscape:current-layer="svg2" /><title
     id="title4">Hand_02</title><path
     d="m 29.325748,43.344941 c -3.43,-0.021 -6.193,-2.819 -6.171,-6.248 0.009,-1.446 0.522,-2.844 1.451,-3.952 -2.876,-1.634 -3.963,-5.238 -2.47,-8.19 l -15.4100003,1.32 c -1.639,0.148 -3.269,-0.371 -4.52,-1.44 -2.62100001,-2.211 -2.95400001,-6.129 -0.742,-8.751 1.051,-1.246 2.55,-2.028 4.172,-2.179 l 11.3400003,-1 -6.21,-0.54 c -3.3760003,-0.332 -5.8560003,-3.3200005 -5.5600003,-6.7000005 0.139,-1.637 0.923,-3.152 2.18,-4.21 1.25,-1.06299995 2.8760003,-1.57799995 4.5100003,-1.42999995 l 26,2.27999995 c 1.847,-0.896 3.877,-1.34899995 5.93,-1.31999995 h 4.23 c 5.982,-0.026 11.479,3.28799995 14.25,8.58999995 h 7.07 v -1.23 c 0.006,-1.846 1.504,-3.34 3.35,-3.34 h 10.3 c 1.846,0 3.344,1.494 3.35,3.34 V 37.924941 c -0.006,1.846 -1.504,3.34 -3.35,3.34 h -10.29 c -1.846,0 -3.344,-1.494 -3.35,-3.34 v -1.26 h -7.53 c -2.809,4.136 -7.48,6.618 -12.48,6.63 h -11.58 v 0 h -8.47 z m -0.25,-9.39 c -1.762,0.14 -3.077,1.681 -2.937,3.443 0.132,1.663 1.519,2.946 3.187,2.947 h 8.46 c 1.767,0.047 3.238,-1.348 3.285,-3.115 0.047,-1.767 -1.348,-3.238 -3.115,-3.285 -0.06,0 -8.87,0.01 -8.87,0.01 z m -4.6,-6.21 c -0.011,1.762 1.408,3.199 3.17,3.21 0,0 0,0 0,0 0,0 10.31,0 10.33,0 1.765,-0.099 3.114,-1.61 3.015,-3.375 -0.062,-1.102 -0.688,-2.094 -1.655,-2.625 -1.35,0.808 -2.887,1.252 -4.46,1.29 -0.08,0.005 -0.16,0.005 -0.24,0 h -1.17 c -0.826,-0.005 -1.495,-0.674 -1.5,-1.5 v -0.21 h -4.32 c -1.762,0.011 -3.181,1.448 -3.17,3.21 0,0 0,0 0,0 z m -18.5600003,-10.85 c -1.762,0.195 -3.033,1.781 -2.838,3.543 0.091,0.821 0.495,1.576 1.128,2.107 0.642,0.55 1.478,0.817 2.32,0.74 l 25.4400003,-2.16 v -6.46 z m 3.39,-13.1600005 c -0.64,0.553 -1.035,1.337 -1.1,2.18 -0.072,0.846 0.19,1.686 0.73,2.34 0.535,0.651 1.3100003,1.058 2.1500003,1.13 l 20.93,1.8300005 c 0.111,-2.2880005 0.976,-4.4750005 2.46,-6.2200005 l -22.83,-2 c -0.848,-0.082 -1.6930003,0.185 -2.3400003,0.74 z M 72.735748,38.264941 h 10.3 c 0.188,0.006 0.344,-0.142 0.35,-0.33 0,-0.003 0,-0.007 0,-0.01 V 8.3449405 c 0,-0.188 -0.152,-0.34 -0.34,-0.34 -0.003,0 -0.007,0 -0.01,0 h -10.3 c -0.189,0 -0.345,0.151 -0.35,0.34 V 37.924941 c 0.005,0.189 0.161,0.34 0.35,0.34 z m -3.35,-4.6 v -21.11 h -5.85 v 0 c 0.08,0.27 0.15,0.53 0.21,0.8 v 0.05 0.1 0 c 0.506,1.519 0.763,3.109 0.76,4.71 v 9.83 c 0.003,1.923 -0.356,3.83 -1.06,5.62 z m -7.84,-5.66 v -9.78 c 0.002,-1.281 -0.201,-2.553 -0.6,-3.77 -0.04,-0.09 -0.071,-0.184 -0.09,-0.28 -0.495,-1.564 -1.145,-3.075 -1.94,-4.5100005 v 0 c -2.44,-3.587 -6.502,-5.727 -10.84,-5.71 h -4.23 c -4.3,0 -8.88,2.69 -8.88,7.6700005 v 11.64 c 3.344,-0.164 5.978,-2.912 6,-6.26 v -3.16 c 0,-0.828 0.672,-1.5 1.5,-1.5 h 3.62 c 0.828,0 1.5,0.672 1.5,1.5 0,3.659 2.961,6.629 6.62,6.64 0.828,0 1.5,0.672 1.5,1.5 0,0.828 -0.672,1.5 -1.5,1.5 -4.742,-0.005 -8.778,-3.456 -9.52,-8.14 h -0.76 v 1.66 c 0.001,2.201 -0.787,4.33 -2.22,6 2.638,2.174 3.014,6.076 0.839,8.714 -0.222,0.269 -0.466,0.519 -0.729,0.746 2.287,1.977 2.815,5.314 1.25,7.9 h 6.32 c 6.756,-0.044 12.199,-5.554 12.16,-12.31 z"
     id="path6"
     inkscape:connector-curvature="0"
     style="fill:#0055d4" /></svg>