<?xml version="1.0" encoding="UTF-8" standalone="no"?>
<svg
   xmlns:dc="http://purl.org/dc/elements/1.1/"
   xmlns:cc="http://creativecommons.org/ns#"
   xmlns:rdf="http://www.w3.org/1999/02/22-rdf-syntax-ns#"
   xmlns:svg="http://www.w3.org/2000/svg"
   xmlns="http://www.w3.org/2000/svg"
   xmlns:sodipodi="http://sodipodi.sourceforge.net/DTD/sodipodi-0.dtd"
   xmlns:inkscape="http://www.inkscape.org/namespaces/inkscape"
   version="1.1"
   x="0px"
   y="0px"
   viewBox="0 0 66.481003 42.369999"
   enable-background="new 0 0 100 100"
   xml:space="preserve"
   id="svg2"
   inkscape:version="0.92.2 5c3e80d, 2017-08-06"
   sodipodi:docname="the_boss_rock.svg"
   width="66.481003"
   height="42.369999"><metadata
     id="metadata10"><rdf:RDF><cc:Work
         rdf:about=""><dc:format>image/svg+xml</dc:format><dc:type
           rdf:resource="http://purl.org/dc/dcmitype/StillImage" /><dc:title /></cc:Work></rdf:RDF></metadata><defs
     id="defs8" /><sodipodi:namedview
     pagecolor="#ffffff"
     bordercolor="#666666"
     borderopacity="1"
     objecttolerance="10"
     gridtolerance="10"
     guidetolerance="10"
     inkscape:pageopacity="0"
     inkscape:pageshadow="2"
     inkscape:window-width="754"
     inkscape:window-height="480"
     id="namedview6"
     showgrid="false"
     fit-margin-top="0"
     fit-margin-left="0"
     fit-margin-right="0"
     fit-margin-bottom="0"
     inkscape:zoom="2.36"
     inkscape:cx="74.817394"
     inkscape:cy="21.1855"
     inkscape:window-x="489"
     inkscape:window-y="45"
     inkscape:window-maximized="0"
     inkscape:current-layer="svg2" /><path
     d="m 4.661,36.17 c 0,-1.52 0.55,-2.91 1.47,-3.99 -1.88,-1.06 -3.15,-3.09 -3.15,-5.41 0,-1.48 0.52,-2.85 1.39,-3.91 -1.78,-1.07 -3.09,-3.21 -3.09,-5.5 0,-1.589 0.6,-3.039 1.579,-4.139 C 1.146,12.149 0,10.25 0,8.084 V 8.019 C 0,4.677 2.719,1.958 6.061,1.958 H 16.874 C 18.723,0.749 21.082,0 23.931,0 h 4.23 c 6.128,0 11.527,3.378 14.258,8.586 h 7.062 V 7.37 c 0,-1.84 1.5,-3.34 3.35,-3.34 h 10.3 c 1.84,0 3.35,1.5 3.35,3.34 v 29.59 c 0,1.84 -1.51,3.33 -3.35,3.33 h -10.3 c -1.85,0 -3.35,-1.49 -3.35,-3.33 V 35.741 H 41.95 c -2.73,4 -7.31,6.629 -12.489,6.629 h -18.63 c -3.4,0 -6.17,-2.78 -6.17,-6.2 z m 3,0 c 0,1.76 1.42,3.2 3.17,3.2 h 6.71 c 1.74,0 3.16,-1.44 3.16,-3.2 0,-1.76 -1.42,-3.19 -3.16,-3.19 h -6.71 c -1.75,0 -3.17,1.43 -3.17,3.19 z m -1.68,-9.4 c 0,1.77 1.42,3.21 3.17,3.21 h 8.51 c 1.68,-0.06 3.04,-1.48 3.04,-3.21 0,-1.12 -0.57,-2.1 -1.43,-2.67 -1.28,0.72 -2.74,1.15 -4.3,1.19 -0.08,0.01 -1.41,0.01 -1.41,0.01 -0.83,0 -1.5,-0.67 -1.5,-1.5 v -0.23 h -2.91 c -1.75,0 -3.17,1.43 -3.17,3.2 z M 4.28,17.36 c 0,1.86 1.51,3.21 2.53,3.21 h 5.25 V 14.15 H 7.45 c -1.749,0 -3.17,1.44 -3.17,3.21 z M 2.999,8.019 v 0.065 c 0,1.688 1.373,3.061 3.061,3.061 l 6,0.005 v -0.48 c 0,-1.96 0.6,-3.97 1.77,-5.71 0,-0.001 10e-4,-0.001 10e-4,-0.002 H 6.06 c -1.687,0 -3.061,1.373 -3.061,3.061 z M 52.831,37.29 h 10.3 c 0.19,0 0.35,-0.15 0.35,-0.33 V 7.37 c 0,-0.19 -0.16,-0.34 -0.35,-0.34 h -10.3 c -0.2,0 -0.35,0.15 -0.35,0.34 v 29.59 c 0,0.18 0.15,0.33 0.35,0.33 z M 49.481,11.586 H 43.62 c 0,10e-4 0.001,0.003 0.001,0.004 0.07,0.23 0.13,0.47 0.19,0.7 0,0.01 0,0.01 0,0.02 0.54,1.55 0.82,3.2 0.82,4.93 v 9.84 c 0,2 -0.38,3.91 -1.08,5.66 0,0 0,10e-4 0,10e-4 h 5.931 V 11.586 Z M 29.461,39.37 c 6.71,0 12.17,-5.51 12.17,-12.29 v -9.84 c 0,-1.32 -0.22,-2.59 -0.61,-3.79 -0.03,-0.08 -0.088,-0.281 -0.12,-0.42 C 39.481,7.12 34.261,3 28.161,3 h -4.23 c -4.3,0 -8.87,2.69 -8.87,7.67 v 11.62 c 1.44,-0.07 2.77,-0.65 3.81,-1.57 0,0 0,0 0.01,0 0.61,-0.54 1.11,-1.19 1.47,-1.93 0.05,-0.09 0.09,-0.18 0.13,-0.28 0.34,-0.76 0.53,-1.6 0.53,-2.48 v -3.16 c 0,-0.2 0.04,-0.39 0.11,-0.56 0.22,-0.55 0.76,-0.94 1.39,-0.94 h 3.62 c 0.82,0 1.5,0.67 1.5,1.5 0,3.66 2.98,6.64 6.64,6.64 0.82,0 1.5,0.67 1.5,1.5 0,0.83 -0.68,1.5 -1.5,1.5 -4.81,0 -8.8,-3.53 -9.53,-8.14 h -0.73 v 1.66 c 0,1.35 -0.3,2.63 -0.83,3.79 -0.08,0.19 -0.17,0.37 -0.27,0.55 -0.35,0.65 -0.77,1.25 -1.26,1.8 1.26,1.12 2.05,2.77 2.05,4.6 0,1.89 -0.83,3.57 -2.15,4.71 1.32,1.14 2.15,2.82 2.15,4.69 0,1.17 -0.32,2.27 -0.89,3.2 z"
     id="path4"
     inkscape:connector-curvature="0"
     style="fill:#0055d4" /></svg>