<?xml version="1.0" encoding="UTF-8" standalone="no"?>
<svg
   xmlns:dc="http://purl.org/dc/elements/1.1/"
   xmlns:cc="http://creativecommons.org/ns#"
   xmlns:rdf="http://www.w3.org/1999/02/22-rdf-syntax-ns#"
   xmlns:svg="http://www.w3.org/2000/svg"
   xmlns="http://www.w3.org/2000/svg"
   xmlns:sodipodi="http://sodipodi.sourceforge.net/DTD/sodipodi-0.dtd"
   xmlns:inkscape="http://www.inkscape.org/namespaces/inkscape"
   version="1.1"
   x="0px"
   y="0px"
   viewBox="0 0 87.806 42.400127"
   enable-background="new 0 0 100 100"
   xml:space="preserve"
   id="svg2"
   inkscape:version="0.92.2 5c3e80d, 2017-08-06"
   sodipodi:docname="the_boss_paper.svg"
   width="87.806"
   height="42.400127"><metadata
     id="metadata12"><rdf:RDF><cc:Work
         rdf:about=""><dc:format>image/svg+xml</dc:format><dc:type
           rdf:resource="http://purl.org/dc/dcmitype/StillImage" /><dc:title>Hand_05</dc:title></cc:Work></rdf:RDF></metadata><defs
     id="defs10" /><sodipodi:namedview
     pagecolor="#ffffff"
     bordercolor="#666666"
     borderopacity="1"
     objecttolerance="10"
     gridtolerance="10"
     guidetolerance="10"
     inkscape:pageopacity="0"
     inkscape:pageshadow="2"
     inkscape:window-width="754"
     inkscape:window-height="480"
     id="namedview8"
     showgrid="false"
     fit-margin-top="0"
     fit-margin-left="0"
     fit-margin-right="0"
     fit-margin-bottom="0"
     inkscape:zoom="2.36"
     inkscape:cx="34.871746"
     inkscape:cy="21.182064"
     inkscape:window-x="0"
     inkscape:window-y="0"
     inkscape:window-maximized="0"
     inkscape:current-layer="svg2" /><title
     id="title4">Hand_05</title><path
     d="m 12.386001,36.220129 c -0.007,-1.13 0.305,-2.239 0.9,-3.2 h -0.92 c -3.4189999,-0.011 -6.1809999,-2.791 -6.1699999,-6.21 0,0 0,0 0,0 -0.007,-1.13 0.305,-2.239 0.9,-3.2 h -0.89 c -3.43,-0.002 -6.20800002,-2.784 -6.2060000207642,-6.214 C 0.00200108,13.969129 2.7800011,11.192129 6.2060011,11.190129 h 0.72 c -0.554,-0.924 -0.845,-1.982 -0.84,-3.06 v -0.07 c 0.006,-3.345 2.715,-6.054 6.0599999,-6.06 h 26.2 c 2.072,-1.29700002 4.465,-1.99000002 6.91,-2.00000002069 h 4.23 C 55.479001,-0.02387102 60.982001,3.303129 63.746001,8.620129 h 7.05 v -1.22 c 0.011,-1.848 1.512,-3.34 3.36,-3.34 h 10.29 c 1.848,0 3.349,1.492 3.36,3.34 v 29.6 c -0.011,1.846 -1.514,3.336 -3.36,3.33 h -10.29 c -1.846,0.006 -3.349,-1.484 -3.36,-3.33 v -1.23 h -7.51 c -2.814,4.141 -7.493,6.623 -12.5,6.63 h -32.22 c -3.411,-0.006 -6.174,-2.769 -6.18,-6.18 z m 61.77,1.12 h 10.29 c 0.19,0.006 0.349,-0.141 0.36,-0.33 v -29.61 c -0.005,-0.193 -0.166,-0.345 -0.36,-0.34 0,0 0,0 0,0 h -10.29 c -0.193,-0.006 -0.354,0.146 -0.36,0.34 0,0 0,0 0,0 v 29.6 c 0.011,0.189 0.17,0.336 0.36,0.33 z m -3.35,-25.72 h -5.88 c 0.07,0.23 0.13,0.45 0.18,0.68 l 0.07,0.28 c 0.512,1.514 0.769,3.102 0.76,4.7 v 9.84 c 0.025,1.93 -0.318,3.848 -1.01,5.65 h 5.92 v -21.15 z m -20,27.79 c 3.247,-0.002 6.358,-1.31 8.63,-3.63 0.454,-0.468 0.872,-0.969 1.25,-1.5 0.343,-0.477 0.65,-0.978 0.92,-1.5 0.883,-1.755 1.335,-3.695 1.32,-5.66 v -9.85 c 0.004,-1.074 -0.137,-2.144 -0.42,-3.18 l -0.13,-0.47 c 0,0 -0.45,-1.54 -0.61,-2 -0.189,-0.51 -0.41,-1.007 -0.66,-1.49 -0.266,-0.525 -0.57,-1.03 -0.91,-1.51 -1.425,-2.056 -3.415,-3.654 -5.73,-4.6 v 0 c -1.585,-0.657 -3.284,-0.997 -5,-1 h -4.21 c -1.037,-0.002 -2.069,0.153 -3.06,0.46 -1.083,0.314 -2.099,0.822 -3,1.5 -1.809,1.337 -2.866,3.461 -2.84,5.71 v 11.64 c 3.344,-0.164 5.978,-2.912 6,-6.26 v -3.17 c 0,-0.828 0.672,-1.5 1.5,-1.5 h 3.62 c 0.828,0 1.5,0.672 1.5,1.5 -10e-4,2.77 1.723,5.248 4.32,6.21 0.481,0.193 0.985,0.321 1.5,0.38 v 0 c 0.067,0.005 0.133,0.005 0.2,0 0.197,0.01 0.393,0.01 0.59,0 0.242,-0.002 0.48,0.06 0.69,0.18 0.139,0.062 0.265,0.15 0.37,0.26 0.28,0.282 0.439,0.663 0.44,1.06 0.002,0.558 -0.311,1.069 -0.81,1.32 -0.21,0.12 -0.448,0.182 -0.69,0.18 -0.273,0 -0.543,0 -0.81,0 -0.505,-0.048 -1.007,-0.131 -1.5,-0.25 -3.763,-0.935 -6.602,-4.03 -7.21,-7.86 h -0.73 v 1.66 c -0.029,5.002 -4.001,9.088 -9,9.26 -0.077,0.005 -0.153,0.005 -0.23,0 h -1.18 c -0.828,0 -1.5,-0.672 -1.5,-1.5 v -13.09 c -0.024,-2.042 0.595,-4.04 1.77,-5.71 h -23 c -1.69,0 -3.0599999,1.37 -3.0599999,3.06 v 0 0.06 c -0.022,1.686 1.3239999,3.073 3.0099999,3.1 h 19.78 v 3 H 6.2060011 c -1.773,10e-4 -3.209,1.44 -3.208,3.212 10e-4,1.771 1.437,3.206 3.208,3.208 H 31.926001 v 3 h -19.56 c -1.77,0.099 -3.1249999,1.614 -3.0259999,3.384 0.091,1.632 1.3939999,2.935 3.0259999,3.026 h 19.56 v 3 h -13.36 c -1.767,0.002 -3.199,1.436 -3.197,3.203 0.002,1.765 1.432,3.196 3.197,3.197 h 32.22 z"
     id="path6"
     inkscape:connector-curvature="0"
     style="fill:#0055d4" /></svg>