<svg xmlns="http://www.w3.org/2000/svg" xmlns:xlink="http://www.w3.org/1999/xlink" version="1.1" x="0px" y="0px" viewBox="0 0 91 91" style="enable-background:new 0 0 91 91;" xml:space="preserve"><g><path d="M82,25l-1.8,0c1-1.2,1.7-2.7,1.4-4.5c-0.3-2.1-1.4-3.1-2.2-3.6c-1.9-1.2-4.2-0.5-4.5-0.5l-3.6,1.2c0.1-1.1-0.1-2.2-0.9-3.3   c-1.9-2.8-4.8-2.7-6.1-2.3c-0.1,0-0.2,0.1-0.2,0.1l-16.9,8.6c-2.2-1.3-5.7-2.6-10.8-2.2L9.6,19C8.7,19,8,19.8,8,20.7   c0,0.9,0.8,1.7,1.7,1.7c0,0,0,0,0,0L36.5,22c0,0,0.1,0,0.1,0c4.6-0.4,7.6,0.8,9.2,1.9c0.1,0.2,0.3,0.3,0.5,0.4   c0.8,0.6,1.2,1.1,1.2,1.1c0.1,0.1,0.1,0.2,0.2,0.2l14.7,14.7c0.7,0.9,0.3,2.5,0.3,2.5c0,0.1,0,0.1,0,0.2L59,62.1c0,0-0.7,2.8-3,2.8   c0,0,0,0,0,0c-0.7,0-1.1-0.3-1.3-0.5c-0.9-1-0.9-3.4-0.8-4.3l0.9-14c0.1-0.8-0.5-1.5-1.2-1.7l-9.7-2.8c-0.8-0.3-1.8-0.5-3-0.5   c0.1,0,0.1-0.1,0.2-0.1c0.8-0.5,1-1.5,0.5-2.3c-0.5-0.8-1.5-1-2.3-0.5c-3,1.9-4.1,4.2-3.8,7.9c0,0.1,0,0.3,0,0.4c0,0,0,0,0,0.1   c0,0,0,0,0,0c0.3,1.9,1.6,3.3,2.6,4L49,59.2c0.3,0.2,2.6,2,0.8,4.5c-1.3,1.8-4.1,0.3-4.2,0.2L29,54.1c-0.6-0.4-1.4-0.7-2.3-1.2   c-3.9-1.8-7.4-3.7-7.3-7.1c0.1-2.4-0.8-3.9-1.6-4.7c-1.8-1.9-4.3-1.9-4.6-1.9h-2.8c-0.9,0-1.7,0.8-1.7,1.7s0.8,1.7,1.7,1.7l2.7,0   c0,0,1.4,0,2.2,0.9c0.5,0.5,0.7,1.2,0.7,2.2c-0.2,5.9,5.7,8.6,9.3,10.3c0.8,0.4,1.5,0.7,2,1l16.6,10c1.8,1,5.6,2.1,8.1-0.5   c0,0.1,0.1,0.1,0.1,0.2c0.9,1.1,2.2,1.6,3.8,1.7c0,0,0,0,0.1,0c3.9,0,5.8-3.5,6.3-5.4L66,43.6c0.2-0.6,0.8-3.5-1-5.6   c0,0-0.1-0.1-0.1-0.1l-0.1-0.1l15.4-0.7c2.6,0.1,7.4-1,8-5.8c0.2-2.2-0.5-3.6-1.3-4.4C85.1,25,82.2,25,82,25z M50.8,56.3l-10.5-8.6   c0,0-0.1-0.1-0.1-0.1c-0.2-0.1-1.6-1.2-1.1-2.4c0.3-0.6,1-0.8,1.8-0.8c1,0,2,0.3,2,0.3l8.5,2.5L50.8,56.3z M76,19.7   c0.2-0.1,1.1-0.2,1.7,0.1c0.3,0.2,0.6,0.6,0.7,1.3c0.2,1.5-1.9,2.9-2.8,3.3l-1.3,0.5l-13.4-0.2L76,19.7z M65.5,15.2   c0.4-0.1,1.4-0.2,2.2,1c0.7,1.1,0,2.3-0.4,2.8l-15.9,5.4l-1.1-1.1c0,0-0.1-0.1-0.1-0.2L65.5,15.2z M84.7,30.9   c-0.3,2.9-4.4,2.8-4.5,2.8c-0.1,0-0.1,0-0.2,0l-18.5,0.9L55,28.1l27,0.4c0,0,0,0,0,0c0.4,0,1.7,0.1,2.3,0.8   C84.5,29.4,84.8,29.8,84.7,30.9z"></path><path d="M51.4,68.6c-1.6,0-2.9,1.3-2.9,2.9c0,1.6,1.3,2.9,2.9,2.9s2.9-1.3,2.9-2.9C54.3,69.9,53,68.6,51.4,68.6z"></path><path d="M52.4,81.9c0,1.6,1.3,2.9,2.9,2.9s2.9-1.3,2.9-2.9c0-1.6-1.3-2.9-2.9-2.9S52.4,80.3,52.4,81.9z"></path><path d="M47,78c0-1.6-1.3-2.9-2.9-2.9s-2.9,1.3-2.9,2.9c0,1.6,1.3,2.9,2.9,2.9S47,79.6,47,78z"></path></g></svg>