<svg xmlns="http://www.w3.org/2000/svg" xmlns:xlink="http://www.w3.org/1999/xlink" version="1.1" x="0px" y="0px" viewBox="0 0 91 91" style="enable-background:new 0 0 91 91;" xml:space="preserve"><g><path d="M87.1,58.9c-0.1-0.3-0.3-0.5-0.5-0.7c-0.9-0.9-4.2-7.3-6.2-11.1c-0.1-0.2-0.2-0.5-0.4-0.7L75.9,37   c-0.2-0.5-0.7-1.5-2.4-2.7c-0.1-0.1-12.4-7-16.3-6.4c-2.7,0.4-8.3,7.6-10.9,10.9c-2.5-3.4-8.1-10.5-10.9-10.9   c-3.9-0.6-16.2,6.3-16.3,6.4c-1.7,1.1-2.2,2.1-2.4,2.7l-4.1,9.5c-0.1,0.2-0.2,0.4-0.4,0.7c-2,3.8-5.4,10.1-6.2,11.1   c-0.3,0.2-0.5,0.5-0.6,0.9L2.2,72.2C2,73.1,2.5,74,3.4,74.2c0.9,0.2,1.8-0.3,2.1-1.2l3.2-12.6c1-1.1,2.6-4,6.7-11.7   c1.5-2.9,3.4-6.4,3.8-6.9c0.7-0.7,4.4-2.1,6.7-3l1.3-0.5c0.4-0.2,0.8-0.3,1.2-0.5c1.8-0.7,5.1-2,5.8-1.6c4.8,2.9,8.4,6.4,8.5,6.5   c0,0,0.1,0.1,0.1,0.1c0,0,2,1.8,1.3,2.7c-0.3,0.4-0.6,0.5-0.8,0.5c-0.7,0-1.6-0.6-1.9-0.9c-2.4-2.4-5.3-4.3-5.4-4.4   c-0.3-0.2-0.6-0.3-1-0.3c-2.5,0-7.5,1.5-8.9,6.9c-1.2,4.8,0.3,9.5,4.5,14.1c3,3.2,10.2,5.8,12.4,6.5c1.7,0.6,1.7,1.5,1.7,1.7   c-0.3,1.3-1.1,1.5-1.5,1.4c-6.5-1.2-13.1-1.7-13.4-1.7c-0.1,0-0.1,0-0.2,0c-8.2,0.4-11.2-2-11.3-2.1c-0.7-0.6-1.7-0.6-2.4,0.1   c-0.6,0.7-0.6,1.8,0.1,2.4c0.2,0.2,1.8,1.5,5.3,2.4c-1.8,1.6-3.3,3.5-4.2,5.2c-0.4,0.8-0.1,1.8,0.7,2.3c0.2,0.1,0.5,0.2,0.8,0.2   c0.6,0,1.2-0.3,1.5-0.9c1.3-2.6,4.2-5.2,6.5-6.1c0.9,0,2,0,3.1,0c0.9,0.1,7.1,0.6,13,1.6c0,0,0.1,0,0.1,0c0.1,0,0.3,0,0.5,0   c1,0,2.3-0.4,3.3-1.3c1.1,1,2.6,1.4,3.8,1.4c0.2,0,0.3,0,0.5,0c0.1,0,0.1,0,0.2,0c5.3-1,11.5-1.6,12.4-1.7c1.1,0.1,2.1,0.1,3.1,0   c2.4,0.8,5.2,3.5,6.5,6.1c0.3,0.6,0.9,0.9,1.5,0.9c0.3,0,0.5-0.1,0.8-0.2c0.8-0.4,1.2-1.4,0.7-2.3c-0.9-1.7-2.4-3.6-4.2-5.2   c3.5-0.8,5-2.2,5.3-2.4c0.7-0.6,0.7-1.7,0.1-2.4c-0.6-0.7-1.7-0.7-2.4-0.1c0,0-3.1,2.6-11.3,2.1c-0.1,0-0.2,0-0.2,0   c-0.3,0-6.9,0.6-12.8,1.7c-0.5,0-1.8,0-2.1-1.3c0-0.4,0.1-1.3,1.7-1.8c2.1-0.7,9.3-3.2,12.4-6.5c4.2-4.6,5.7-9.3,4.5-14.1   c-1.4-5.4-6.4-6.9-8.9-6.9c-0.3,0-0.7,0.1-1,0.3c-0.1,0.1-3,2-5.4,4.3c-0.3,0.3-1.4,1-2.2,1c-0.2,0-0.4-0.1-0.7-0.5   c-0.8-1.1,1.3-2.8,1.3-2.8c0.1-0.1,0.2-0.1,0.2-0.2c0,0,3.5-3.7,8.3-6.4c0.8-0.5,3.8,0.7,5.7,1.5c0.5,0.2,1,0.4,1.4,0.6l1.3,0.5   c2.2,0.8,6,2.3,6.6,3c0.4,0.5,2.3,4.1,3.8,7c4.2,7.8,5.8,10.7,6.7,11.7l2.7,7.3c0.3,0.9,1.3,1.3,2.2,1c0.9-0.3,1.3-1.3,1-2.2   L87.1,58.9z M27.1,34.7c-0.4,0.2-0.8,0.3-1.2,0.5l-1.3,0.5c-1,0.4-1.9,0.7-2.8,1.1c2.8-1.6,11.4-5.7,13.1-5.4   c0.7,0.2,2.5,2.1,4.7,4.6c-1.1-0.8-2.3-1.7-3.7-2.5C33.8,32,30.6,33.3,27.1,34.7z M49,49.4c2.4,0.2,4.5-1.6,4.8-1.9   c1.7-1.6,3.6-3,4.5-3.7c1.2,0.2,4.3,0.9,5.2,4.3c0.9,3.6-0.3,7.2-3.7,11c-1.8,2-6.8,4.2-10.9,5.6c-1,0.3-1.8,0.8-2.4,1.4   c-0.6-0.6-1.4-1.1-2.5-1.4c-3.8-1.3-9-3.5-10.9-5.6c-3.4-3.8-4.7-7.3-3.7-11c0.9-3.4,4-4.2,5.2-4.3c0.9,0.6,2.8,2,4.5,3.7   c0.2,0.2,2.2,2,4.5,1.8c0.8-0.1,1.8-0.3,2.8-1.3C47,48.8,48,49.3,49,49.4z M66.8,35.1c-0.5-0.2-0.9-0.4-1.4-0.5   c-3.3-1.3-6.3-2.5-8.6-1.3c-1.2,0.7-2.4,1.4-3.4,2.1c2-2.3,3.7-3.9,4.3-4.2c1.8-0.3,10.3,3.8,13.1,5.4c-0.8-0.3-1.8-0.7-2.8-1.1   L66.8,35.1z"></path><path d="M14.2,23.1l5.5,4.3c0.3,0.2,0.7,0.4,1,0.4c0.5,0,1-0.2,1.3-0.7c0.6-0.7,0.4-1.8-0.3-2.4l-5.5-4.3c-0.7-0.6-1.8-0.4-2.4,0.3   C13.3,21.5,13.4,22.6,14.2,23.1z"></path><path d="M44.4,10.2v11.4c0,0.9,0.8,1.7,1.7,1.7s1.7-0.8,1.7-1.7V10.2c0-0.9-0.8-1.7-1.7-1.7S44.4,9.3,44.4,10.2z"></path><path d="M74.9,19.6l-4.5,4.7c-0.6,0.7-0.6,1.7,0.1,2.4c0.3,0.3,0.7,0.5,1.2,0.5c0.4,0,0.9-0.2,1.2-0.5l4.5-4.7   c0.6-0.7,0.6-1.7-0.1-2.4C76.6,18.9,75.5,18.9,74.9,19.6z"></path><path d="M63.3,14.2l-4.7,7.9c-0.5,0.8-0.2,1.8,0.6,2.3c0.3,0.2,0.6,0.2,0.9,0.2c0.6,0,1.1-0.3,1.5-0.8l4.7-7.9   c0.5-0.8,0.2-1.8-0.6-2.3C64.8,13.2,63.8,13.4,63.3,14.2z"></path><path d="M27.5,13.6c-0.8,0.5-1.1,1.5-0.6,2.3l4.7,7.9c0.3,0.5,0.9,0.8,1.5,0.8c0.3,0,0.6-0.1,0.9-0.2c0.8-0.5,1.1-1.5,0.6-2.3   l-4.7-7.9C29.3,13.4,28.3,13.2,27.5,13.6z"></path></g></svg>